
<svg xmlns="http://www.w3.org/2000/svg" version="1.1" xmlns:xlink="http://www.w3.org/1999/xlink" preserveAspectRatio="none" x="0px" y="0px" width="550px" height="200px" viewBox="0 0 550 200">
<defs>
<g id="Layer1_0_FILL">
<path fill="#383838" stroke="none" d="
M 114.5 147.8
L 81.7 147.8 71.8 163.95 92.45 158.3 119.35 166.35 112.5 159.8 133.5 158.55 114.5 147.8
M 114.1 182.4
L 116.25 178.8 107.6 178.55 93.7 184.55 107.85 185.25 92.3 187.65 127.6 189.6 142.35 186.45 114.1 182.4
M 177.8 154.75
L 162.55 154.75 160.2 161.65 171.5 167.75 187.4 166.4 196.25 164.15 177.8 154.75 Z"/>

<path fill="#686868" stroke="none" d="
M 162.55 154.75
L 177.8 154.75 196.25 164.15 178.65 149.85 167.25 145.75 156.3 149.85 143.45 157.3 133.5 158.55 112.5 159.8 119.35 166.35 92.45 158.3 71.8 163.95 81.7 147.8 114.5 147.8 107.65 142.1 92.15 137.9 87.4 134.35 81 138.05 60.85 129.55 55.4 123.2 30.75 133.15 16.7 145.05 -15.45 161.6 -15.45 199.5 238.55 199.5 224.55 184.85 215.65 172.2 204.8 164.15 196.25 164.15 187.4 166.4 171.5 167.75 160.2 161.65 162.55 154.75
M 193.55 183.35
L 192.05 189.5 175.95 180.85 193 175.9 212.5 179.55 193.55 183.35
M 63.7 144.9
L 71.25 144.9 63.7 144.9 49.3 140.05 32.55 149.1 49.3 140.05 63.7 144.9
M 40.4 169.15
L 12.25 179.9 35.9 161.1 62.8 154.2 44.85 169.15 40.4 169.15
M 116.25 178.8
L 114.1 182.4 142.35 186.45 127.6 189.6 92.3 187.65 107.85 185.25 93.7 184.55 107.6 178.55 116.25 178.8
M 154.55 172.95
L 158.8 180.5 154.55 172.95 148.8 170.65 154.55 172.95 169.6 178.95 154.55 172.95
M 82.4 176.65
L 48.7 187.8 82.4 176.65 Z"/>

<path fill="#828282" stroke="none" d="
M 12.25 179.9
L 40.4 169.15 44.85 169.15 62.8 154.2 35.9 161.1 12.25 179.9
M 192.05 189.5
L 193.55 183.35 212.5 179.55 193 175.9 175.95 180.85 192.05 189.5 Z"/>
</g>

<path id="Layer1_0_1_STROKES" stroke="#4F4F4F" stroke-width="1" stroke-linejoin="miter" stroke-linecap="square" stroke-miterlimit="3" fill="none" d="
M 177.8 154.75
L 162.55 154.75 160.2 161.65 171.5 167.75 187.4 166.4 196.25 164.15 177.8 154.75 Z
M 212.5 179.55
L 193 175.9 175.95 180.85 192.05 189.5 193.55 183.35 212.5 179.55 Z
M 133.5 158.55
L 143.45 157.3 156.3 149.85 167.25 145.75 178.65 149.85 196.25 164.15 204.8 164.15 215.65 172.2 224.55 184.85 238.55 199.5 -15.45 199.5 -15.45 161.6 16.7 145.05 30.75 133.15 55.4 123.2 60.85 129.55 81 138.05 87.4 134.35 92.15 137.9 107.65 142.1 114.5 147.8 133.5 158.55 112.5 159.8 119.35 166.35 92.45 158.3 71.8 163.95 81.7 147.8 114.5 147.8
M 32.55 149.1
L 49.3 140.05 63.7 144.9 71.25 144.9
M 12.25 179.9
L 35.9 161.1 62.8 154.2 44.85 169.15 40.4 169.15 12.25 179.9 Z
M 114.1 182.4
L 142.35 186.45 127.6 189.6 92.3 187.65 107.85 185.25 93.7 184.55 107.6 178.55 116.25 178.8 114.1 182.4 Z
M 169.6 178.95
L 154.55 172.95 158.8 180.5
M 148.8 170.65
L 154.55 172.95
M 82.4 176.65
L 48.7 187.8"/>
</defs>

<g transform="matrix( 1, 0, 0, 1, 0,0) ">
<use xlink:href="#Layer1_0_FILL"/>

<use xlink:href="#Layer1_0_1_STROKES"/>
</g>
</svg>
