<svg width="1382" height="1023" xmlns="http://www.w3.org/2000/svg" opacity="0.5">
	<g stroke-width="0.5" stroke-miterlimit="10" stroke="#4a4e5d" fill="none" opacity="0.5">
		<path d="m-35.66903,511.76168l1920,0"/>
		<path d="m-35.66903,568.61168l1920,0"/>
		<path d="m-35.66903,625.47168l1920,0"/>
		<path d="m-35.66903,682.33168l1920,0"/>
		<path d="m-35.66903,739.19168l1920,0"/>
		<path d="m-35.66903,796.05168l1920,0"/>
		<path d="m-35.66903,852.91168l1920,0"/>
		<path d="m-35.66903,909.77168l1920,0"/>
		<path d="m-35.66903,966.63168l1920,0"/>
		<path d="m-35.66903,1023.49168l1920,0"/>
		<path d="m-35.66903,454.90168l1920,0"/>
		<path d="m-35.66903,398.04168l1920,0"/>
		<path d="m-35.66903,341.19168l1920,0"/>
		<path d="m-35.66903,284.33168l1920,0"/>
		<path d="m-35.66903,227.48168l1920,0"/>
		<path d="m-35.66903,170.62168l1920,0"/>
		<path d="m-35.66903,113.77168l1920,0"/>
		<path d="m-35.66903,56.91168l1920,0"/>
		<path d="m-35.66903,0.05168l1920,0"/>
		<path d="m1716.22097,1062.44168l-731.38,-1080.81"/>
		<path d="m1792.92097,1062.44168l-731.38,-1080.81"/>
		<path d="m1869.62097,1062.44168l-731.38,-1080.81"/>
		<path d="m1946.32097,1062.44168l-731.38,-1080.81"/>
		<path d="m2023.02097,1062.44168l-731.38,-1080.81"/>
		<path d="m2099.72097,1062.44168l-731.38,-1080.81"/>
		<path d="m1639.52097,1062.44168l-731.38,-1080.81"/>
		<path d="m1562.82097,1062.44168l-731.38,-1080.81"/>
		<path d="m1486.12097,1062.44168l-731.38,-1080.81"/>
		<path d="m1409.41097,1062.44168l-731.38,-1080.81"/>
		<path d="m1332.71097,1062.44168l-731.38,-1080.81"/>
		<path d="m1256.01097,1062.44168l-731.38,-1080.81"/>
		<path d="m1179.31097,1062.44168l-731.38,-1080.81"/>
		<path d="m1102.60097,1062.44168l-731.38,-1080.81"/>
		<path d="m1025.90097,1062.44168l-731.38,-1080.81"/>
		<path d="m949.20097,1062.44168l-731.38,-1080.81"/>
		<path d="m872.50097,1062.44168l-731.38,-1080.81"/>
		<path d="m795.79097,1062.44168l-731.38,-1080.81"/>
		<path d="m719.09097,1062.44168l-731.38,-1080.81"/>
		<path d="m640.02097,1062.44168l-729.01,-1080.81"/>
		<path d="m563.32097,1062.44168l-729.01,-1080.81"/>
		<path d="m486.62097,1062.44168l-729.02,-1080.81"/>
		<path d="m409.91097,1062.44168l-729.01,-1080.81"/>
		<path d="m333.21097,1062.44168l-729.01,-1080.81"/>
		<path d="m256.51097,1062.44168l-729.01,-1080.81"/>
		<path d="m179.81097,1062.44168l-729.01,-1080.81"/>
		<path d="m103.11097,1062.44168l-729.01,-1080.81"/>
		<path d="m26.41097,1062.44168l-729.01,-1080.81"/>
		<path d="m-376.38903,671.96168l465.63,-690.33"/>
		<path d="m-453.35903,671.96168l465.63,-690.33"/>
		<path d="m-299.68903,671.96168l465.63,-690.33"/>
		<path d="m-222.98903,671.96168l465.63,-690.33"/>
		<path d="m-146.27903,671.96168l465.62,-690.33"/>
		<path d="m-69.57903,671.96168l465.63,-690.33"/>
		<path d="m-256.25903,1062.44168l729.01,-1080.81"/>
		<path d="m-179.55903,1062.44168l729.01,-1080.81"/>
		<path d="m-102.85903,1062.44168l729.01,-1080.81"/>
		<path d="m-26.15903,1062.44168l729.02,-1080.81"/>
		<path d="m50.55097,1062.44168l729.01,-1080.81"/>
		<path d="m127.25097,1062.44168l729.01,-1080.81"/>
		<path d="m203.95097,1062.44168l729.01,-1080.81"/>
		<path d="m280.65097,1062.44168l729.02,-1080.81"/>
		<path d="m357.36097,1062.44168l729.01,-1080.81"/>
		<path d="m434.06097,1062.44168l729.01,-1080.81"/>
		<path d="m510.76097,1062.44168l729.01,-1080.81"/>
		<path d="m587.46097,1062.44168l729.02,-1080.81"/>
		<path d="m664.17097,1062.44168l729.01,-1080.81"/>
		<path d="m741.14097,1062.44168l729.01,-1080.81"/>
		<path d="m818.11097,1062.44168l729.01,-1080.81"/>
		<path d="m895.08097,1062.44168l729.01,-1080.81"/>
		<path d="m972.05097,1062.44168l729.01,-1080.81"/>
		<path d="m1049.02097,1062.44168l729.01,-1080.81"/>
		<path d="m1125.99097,1062.44168l729.01,-1080.81"/>
		<path d="m1202.96097,1062.44168l729.01,-1080.81"/>
		<path d="m1279.93097,1062.44168l729.01,-1080.81"/>
		<path d="m1356.90097,1062.44168l729.01,-1080.81"/>
	</g>
	<path fill="#314c77" d="m153.54097,568.36168l-38.81,57.53l77.74,0l-38.93,-57.53z"/>
	<path fill="#5bbda2" d="m269.17097,284.33168l-38.81,57.54l77.74,0l-38.93,-57.54z"/>
	<path fill="#d5ac45" d="m920.59097,0.05168l-38.81,57.54l77.74,0l-38.93,-57.54z"/>
	<path fill="#d5ac45" d="m1227.63097,227.41168l-38.8,57.53l77.73,0l-38.93,-57.53z"/>
	<path fill="#d5ac45" d="m1227.78097,340.97168l-38.81,57.53l77.74,0l-38.93,-57.53z"/>
	<path fill="#5bbda2" d="m1344.47097,966.63168l-38.8,57.53l77.74,0l-38.94,-57.53z"/>
	<path fill="#314c77" d="m997.47097,227.33168l-38.8,57.54l77.74,0l-38.94,-57.54z"/>
	<path fill="#5bbda2" d="m1074.53097,454.11168l-38.8,57.53l77.74,0l-38.94,-57.53z"/>
	<path fill="#d5ac45" d="m1074.66097,569.17168l38.81,-57.53l-77.74,0l38.93,57.53z"/>
	<path fill="#314c77" d="m115.78097,739.86168l38.8,-57.53l-77.73,0l38.93,57.53z"/>
	<path fill="#d5ac45" d="m153.67097,796.41168l38.8,-57.53l-77.74,0l38.94,57.53z"/>
	<path fill="#314c77" d="m383.62097,1024.16168l38.81,-57.53l-77.74,0l38.93,57.53z"/>
	<path fill="#d5ac45" d="m460.21097,1024.09168l38.81,-57.53l-77.74,0l38.93,57.53z"/>
	<path fill="#5bbda2" d="m230.25097,682.63168l38.81,-57.53l-77.74,0l38.93,57.53z"/>
	<path fill="#314c77" d="m307.34097,682.63168l38.81,-57.53l-77.74,0l38.93,57.53z"/>
</svg>