<?xml version="1.0" encoding="utf-8"?>
<!-- Generator: Adobe Illustrator 23.0.3, SVG Export Plug-In . SVG Version: 6.00 Build 0)  -->
<svg version="1.1" xmlns="http://www.w3.org/2000/svg" xmlns:xlink="http://www.w3.org/1999/xlink" x="0px" y="0px"
	 viewBox="0 0 1382 998.5" style="enable-background:new 0 0 1382 998.5;" xml:space="preserve">
<style type="text/css">
	.st0{opacity:0.5;}
	.st1{fill:none;stroke:#4A4E5D;stroke-width:0.5;stroke-miterlimit:10;}
	.st2{fill:#314C77;}
	.st3{fill:#D5AC45;}
	.st4{fill:#5BBDA2;}
</style>
<g id="Layer_1" class="st0">
	<g class="st0">
		<path class="st1" d="M3.9,466.3h1887.3"/>
		<path class="st1" d="M4,532.9h1887.3"/>
		<path class="st1" d="M4.1,599.5h1887.3"/>
		<path class="st1" d="M4.2,666.1h1887.3"/>
		<path class="st1" d="M4.3,732.7h1887.3"/>
		<path class="st1" d="M4.4,799.4h1887.3"/>
		<path class="st1" d="M4.6,866h1887.3"/>
		<path class="st1" d="M4.7,932.6H1892"/>
		<path class="st1" d="M4.8,999.2h1887.3"/>
		<path class="st1" d="M4.9,1065.8h1887.3"/>
		<path class="st1" d="M3.8,399.7h1887.3"/>
		<path class="st1" d="M3.6,333.1H1891"/>
		<path class="st1" d="M3.5,266.5h1887.3"/>
		<path class="st1" d="M3.4,199.9h1887.3"/>
		<path class="st1" d="M3.3,133.3h1887.3"/>
		<path class="st1" d="M3.2,66.7h1887.3"/>
		<path class="st1" d="M3.1,0.1h1887.3"/>
		<path class="st1" d="M2.9-66.5h1887.3"/>
		<path class="st1" d="M2.8-133.1h1887.3"/>
		<path class="st1" d="M1727.1,1111.4L1005.9-154.7"/>
		<path class="st1" d="M1802.5,1111.4L1081.3-154.7"/>
		<path class="st1" d="M1877.9,1111.4L1156.7-154.7"/>
		<path class="st1" d="M1953.3,1111.4L1232.1-154.7"/>
		<path class="st1" d="M2028.7,1111.4L1307.5-154.7"/>
		<path class="st1" d="M2104.1,1111.4L1382.9-154.7"/>
		<path class="st1" d="M1651.7,1111.4L930.5-154.7"/>
		<path class="st1" d="M1576.3,1111.4L855.1-154.7"/>
		<path class="st1" d="M1500.9,1111.4L779.7-154.7"/>
		<path class="st1" d="M1425.5,1111.4L704.3-154.7"/>
		<path class="st1" d="M1350.1,1111.4L628.9-154.7"/>
		<path class="st1" d="M1274.7,1111.4L553.5-154.7"/>
		<path class="st1" d="M1199.3,1111.4L478.2-154.7"/>
		<path class="st1" d="M1123.9,1111.4L402.7-154.7"/>
		<path class="st1" d="M1048.5,1111.4L327.4-154.7"/>
		<path class="st1" d="M973.1,1111.4L252-154.7"/>
		<path class="st1" d="M897.7,1111.4L176.6-154.7"/>
		<path class="st1" d="M822.3,1111.4L101.2-154.7"/>
		<path class="st1" d="M746.9,1111.4L25.8-154.7"/>
		<path class="st1" d="M669.2,1111.4L-49.6-154.7"/>
		<path class="st1" d="M593.8,1111.4L-125-154.7"/>
		<path class="st1" d="M518.4,1111.4L-200.4-154.7"/>
		<path class="st1" d="M443,1111.4L-275.8-154.7"/>
		<path class="st1" d="M367.6,1111.4L-351.2-154.7"/>
		<path class="st1" d="M292.2,1111.4L-426.6-154.7"/>
		<path class="st1" d="M216.8,1111.4L-502-154.7"/>
		<path class="st1" d="M141.4,1111.4L-577.4-154.7"/>
		<path class="st1" d="M66,1111.4L-652.8-154.7"/>
		<path class="st1" d="M-330.7,654l456.3-808.7"/>
		<path class="st1" d="M-406.4,654L49.9-154.7"/>
		<path class="st1" d="M-255.3,654L201-154.7"/>
		<path class="st1" d="M-179.9,654l456.3-808.7"/>
		<path class="st1" d="M-104.5,654l456.3-808.7"/>
		<path class="st1" d="M-29.1,654l456.3-808.7"/>
		<path class="st1" d="M-211.8,1111.4L502.6-154.7"/>
		<path class="st1" d="M-136.4,1111.4L577.9-154.7"/>
		<path class="st1" d="M-61.1,1111.4L653.3-154.7"/>
		<path class="st1" d="M14.3,1111.4L728.7-154.7"/>
		<path class="st1" d="M89.7,1111.4L804.1-154.7"/>
		<path class="st1" d="M165.1,1111.4L879.5-154.7"/>
		<path class="st1" d="M240.5,1111.4L954.9-154.7"/>
		<path class="st1" d="M315.9,1111.4l714.4-1266.1"/>
		<path class="st1" d="M391.3,1111.4l714.4-1266.1"/>
		<path class="st1" d="M466.7,1111.4l714.4-1266.1"/>
		<path class="st1" d="M542.1,1111.4l714.4-1266.1"/>
		<path class="st1" d="M617.5,1111.4l714.4-1266.1"/>
		<path class="st1" d="M692.9,1111.4l714.4-1266.1"/>
		<path class="st1" d="M768.6,1111.4L1483-154.7"/>
		<path class="st1" d="M844.2,1111.4l714.4-1266.1"/>
		<path class="st1" d="M919.9,1111.4l714.4-1266.1"/>
		<path class="st1" d="M995.6,1111.4L1710-154.7"/>
		<path class="st1" d="M1071.2,1111.4l714.4-1266.1"/>
		<path class="st1" d="M1146.9,1111.4l714.4-1266.1"/>
		<path class="st1" d="M1222.5,1111.4l714.4-1266.1"/>
		<path class="st1" d="M1298.2,1111.4l714.4-1266.1"/>
		<path class="st1" d="M1373.9,1111.4l714.4-1266.1"/>
	</g>
	<polygon class="st2" points="77.2,732.1 39.5,666.1 114.8,666.1 	"/>
	<polygon class="st3" points="152.5,732.1 114.8,666.1 190.2,666.1 	"/>
	<polygon class="st4" points="227.5,598.8 189.9,532.9 265.2,532.9 	"/>
	<polygon class="st2" points="302.9,598.8 265.2,532.9 340.5,532.9 	"/>
	<polygon class="st2" points="114.8,532.9 77.2,598.8 152.5,598.8 	"/>
	<polygon class="st2" points="379.2,998.5 341.5,932.6 416.9,932.6 	"/>
	<polygon class="st3" points="454.5,998.5 416.9,932.6 492.2,932.6 	"/>
	<polygon class="st4" points="1095.2,399.7 1057.5,465.6 1132.8,465.6 	"/>
	<polygon class="st3" points="1095.2,531.6 1057.5,465.6 1132.8,465.6 	"/>
	<polygon class="st2" points="981.5,199.9 943.8,265.8 1019.2,265.8 	"/>
	<polygon class="st3" points="1207.8,199.9 1170.2,265.8 1245.5,265.8 	"/>
	<polygon class="st3" points="1207.8,333.1 1170.2,399 1245.5,399 	"/>
	<polygon class="st4" points="302.9,199.9 265.2,265.8 340.5,265.8 	"/>
	<polygon class="st3" points="867.5,0.1 829.8,66 905.2,66 	"/>
	<polygon class="st4" points="1323.2,932.6 1285.5,998.5 1360.9,998.5 	"/>
</g>
<g id="Layer_2">
</g>
</svg>
