<?xml version="1.0" encoding="utf-8"?>
<!-- Generator: Adobe Illustrator 23.0.1, SVG Export Plug-In . SVG Version: 6.00 Build 0)  -->
<svg version="1.1" id="Layer_1" xmlns="http://www.w3.org/2000/svg" xmlns:xlink="http://www.w3.org/1999/xlink" x="0px" y="0px"
	 viewBox="0 0 700 100" style="enable-background:new 0 0 700 100;" xml:space="preserve">
<style type="text/css">
	.st0{fill:#383838;}
	.st1{fill:#686868;}
	.st2{fill:#828282;}
	.st3{fill:none;stroke:#4F4F4F;stroke-linecap:square;stroke-miterlimit:3;}
</style>
<g transform="matrix( 1, 0, 0, 1, 15.45,-100) ">
	<g>
		<g id="Layer1_0_FILL">
			<path class="st0" d="M114.5,147.8H81.7l-9.9,16.1l20.6-5.6l26.9,8.1l-6.8-6.6l21-1.3L114.5,147.8 M114.1,182.4l2.2-3.6l-8.7-0.3
				l-13.9,6l14.2,0.7l-15.5,2.4l35.3,2l14.8-3.2L114.1,182.4 M177.4,154.7h-15.3l-2.4,6.9l11.3,6.1l15.9-1.4l8.9-2.3L177.4,154.7z"
				/>
			<path class="st1" d="M162.6,154.8h15.3l18.4,9.4l-17.6-14.3l-11.4-4.1l-10.9,4.1l-12.9,7.4l-9.9,1.3l-21,1.3l6.8,6.6l-26.9-8.1
				l-20.6,5.6l9.9-16.1h32.8l-6.8-5.7l-15.5-4.2l-4.8-3.5l-6.4,3.7l-20.2-8.5l-5.4-6.4l-24.7,9.9l-14,11.9l-32.2,16.6v37.9h254
				l-14-14.6l-8.9-12.7l-10.8-8.1h-8.6l-8.9,2.3l-15.9,1.4l-11.3-6.1L162.6,154.8 M193.6,183.4l-1.5,6.1l-16.1-8.6l17.1-5l19.5,3.7
				L193.6,183.4 M63.7,144.9h7.5H63.7l-14.4-4.8l-16.8,9.1l16.8-9.1L63.7,144.9 M40.4,169.1l-28.2,10.8l23.7-18.8l26.9-6.9l-18,14.9
				H40.4 M116.3,178.8l-2.2,3.6l28.3,4.1l-14.8,3.2l-35.3-2l15.5-2.4l-14.2-0.7l13.9-6L116.3,178.8 M154.6,172.9l4.3,7.6
				L154.6,172.9l-5.8-2.3L154.6,172.9l15.1,6L154.6,172.9 M82.4,176.6l-33.7,11.2L82.4,176.6z"/>
			<path class="st2" d="M12.3,179.9l28.2-10.8h4.4l18-14.9l-26.9,6.9L12.3,179.9 M192.1,189.5l1.5-6.1l18.9-3.8l-19.5-3.7l-17.1,5
				L192.1,189.5z"/>
			<polygon class="st1" points="203.4,164 208.4,169.3 203.7,174.8 193.9,175.1 188.8,169.9 193.6,164.3 			"/>
		</g>
		<polygon class="st1" points="184.6,170.3 187.4,166.4 195.2,164.3 198,169 		"/>
	</g>
	<g>
		<path id="Layer1_0_1_STROKES" class="st3" d="M177.8,154.8h-15.3l-2.4,6.9l11.3,6.1l15.9-1.4l8.9-2.3L177.8,154.8z M212.5,179.6
			l-19.5-3.7l-17.1,5l16.1,8.6l1.5-6.1L212.5,179.6z M133.5,158.6l9.9-1.3l12.9-7.4l10.9-4.1l11.4,4.1l17.6,14.3h8.6l10.8,8.1
			l8.9,12.7l14,14.6h-254v-37.9l32.2-16.6l14-11.9l24.7-9.9l5.4,6.4l20.2,8.5l6.4-3.7l4.8,3.5l15.5,4.2l6.8,5.7L133.5,158.6l-21,1.3
			l6.8,6.6l-26.9-8.1l-20.6,5.6l9.9-16.1h32.8 M32.5,149.1l16.8-9.1l14.4,4.8h7.5 M12.3,179.9l23.7-18.8l26.9-6.9l-18,14.9h-4.4
			L12.3,179.9z M114.1,182.4l28.3,4.1l-14.8,3.2l-35.3-2l15.5-2.4l-14.2-0.7l13.9-6l8.7,0.3L114.1,182.4z M169.6,178.9l-15.1-6
			l4.3,7.6 M148.8,170.6l5.8,2.3 M82.4,176.6l-33.7,11.2"/>
	</g>
</g>
<g transform="matrix( 1, 0, 0, 1, 0,0) ">
	<g>
		<g id="Layer0_0_FILL">
			<path class="st2" d="M627.5,42.5l-6.7-1l-14.3,6L591,43.3l-18.4,11.5l16.6,1.1l15.2,6.5l3.6-0.6l-8,9l12.8,24.2l8.1-20.3l5.1,4.3
				l16-6.6v-6.9L627.5,42.5 M510.1,56.5l-17.6,13.2l-17.3,9.5l18.8-3.3l14-12L510.1,56.5z"/>
			<path class="st1" d="M667.3,69.9L648,52.3l-20.5-9.8l14.4,23v6.9l-16,6.6l-5.1-4.3l-8.1,20.3L600,70.8l8-9l-3.6,0.6l-15.2-6.5
				l-16.6-1.1L591,43.3l15.5,4.2l14.3-6l6.7,1l-5-13.8l-0.1-0.4l-11.3-7.1l-17.7-4.7l-13.7,5.1h-12.7l-8.9,6.7l-23.5,2.3L520,28.4
				l-11.9,4.4l-9,8.4l-9.2,2.8l-8.8-2.8l-19.9,13.3l-9.5,12.3l-12.4,4.9l-15,3.3L412,67.8l-10.5,4.9l-10.4,8.6L365,87.9l-21.3,11.6
				l353.5,0.5l-7.1-18.8L667.3,69.9 M656,77.2l7.5,8.8l13.1,4l-13.1-4L656,77.2 M589,31.9l15.3,4.4L589,31.9l-6,1.2l7.1,7l-7.1-7
				l-1.8-1.7l1.8,1.7L589,31.9l-3.6-1.1L589,31.9 M570.1,65.2l-0.9-2.7l10.1,7.2l7.2,2.7l4.8,5.1l-5.1-1.5l9.5,7.8l-11.7-3.8l-11-9
				l-20.9-8.4l-7.8-10.2v6.4v-6.4l-1.5-3.5l6.9,3.3l10.2,7.2l-1.5-3.3L570.1,65.2 M567.9,86.5l9.4,5.3L567.9,86.5h-17.3l-8.3-4.4
				l5.5,7.8l-5.5-7.8l-8.4-4.4l8.4,4.4l8.3,4.4H567.9 M492.5,69.7l17.6-13.2L508,64l-14,12l-18.8,3.3L492.5,69.7 M538.5,71.4
				l-5.7-7.5l10.8,4.5l6,6l10.2,6.8L538.5,71.4 M513,49l-4.5,3.3L513,49 M405,83.3l9-2.1l-12.3,14.1l-17,0.9l3.5-5.4l9.9-4.8
				l7.8-5.4L405,83.3 M463.9,74.8l-10.8,7.9l-2.9,5.5l2.9-5.5L463.9,74.8z"/>
			<path class="st0" d="M414,81.3l-9,2.1l0.9-2.7l-7.8,5.4l-9.9,4.8l-3.5,5.4l17-0.9L414,81.3 M532.8,64l5.7,7.5l21.2,9.8l-10.2-6.8
				l-6-6L532.8,64 M569.2,62.5l0.9,2.7l-11.6-9.3l1.5,3.3L549.8,52l-6.9-3.3l1.5,3.5l7.8,10.2l20.9,8.4l11,9l11.7,3.8l-9.5-7.8
				l5.1,1.5l-4.8-5.1l-7.2-2.7L569.2,62.5z"/>
		</g>
	</g>
	<g>
		<path id="Layer0_0_1_STROKES" class="st3" d="M697.3,100l-353.5-0.5L365,87.9l26.1-6.7l10.4-8.6l10.5-4.9l12.2,7.2l15-3.3
			l12.4-4.9l9.5-12.3l19.9-13.3l8.8,2.8l9.2-2.8l9-8.4l11.9-4.4l14.7,2.2l23.5-2.3l8.9-6.7h12.7l13.7-5.1l17.7,4.7l11.3,7.1l0.1,0.4
			l5,13.8l20.5,9.8l19.2,17.6l23,11.2L697.3,100z M656,77.2l7.5,8.8l13.1,4 M627.5,42.5l14.4,23v6.9l-16,6.6l-5.1-4.3l-8.1,20.3
			L600,70.8l8-9l-3.6,0.6l-15.2-6.5l-16.6-1.1L591,43.3l15.5,4.2l14.3-6L627.5,42.5z M585.3,30.8l3.6,1.1l15.3,4.4 M590,40l-7.1-7
			l-1.8-1.7 M589,31.9l-6,1.2 M544.4,52.3l7.8,10.2l20.9,8.4l11,9l11.7,3.8l-9.5-7.8l5.1,1.5l-4.8-5.1l-7.2-2.7l-10.1-7.2l0.9,2.7
			l-11.6-9.3l1.5,3.3L549.8,52l-6.9-3.3L544.4,52.3v6.4 M533.9,77.7l8.4,4.4l8.3,4.4h17.3l9.4,5.3 M475.1,79.2l17.3-9.5l17.6-13.2
			L508,64l-14,12L475.1,79.2z M543.5,68.4L532.8,64l5.7,7.5l21.2,9.8l-10.2-6.8L543.5,68.4z M542.3,82.1l5.5,7.8 M513,49l-4.5,3.3
			 M414,81.3l-12.3,14.1l-17,0.9l3.5-5.4l9.9-4.8l7.8-5.4l-0.9,2.7L414,81.3z M463.9,74.8l-10.8,7.9l-2.9,5.5"/>
	</g>
</g>
</svg>
