<svg xmlns="http://www.w3.org/2000/svg" xml:space="preserve" width="1498.72" height="1200">
  <g fill="#100f0d">
    <path d="M3171.19 6546.81h-782.1c-19.26 0-34.88 15.6-34.88 34.88 0 19.28 15.62 34.88 34.88 34.88h782.1c19.27 0 34.89-15.6 34.89-34.88 0-19.28-15.62-34.88-34.89-34.88M3673.27 3922.41h-627.84c-19.26 0-34.88 15.6-34.88 34.88 0 19.29 15.62 34.88 34.88 34.88h627.84c19.27 0 34.89-15.59 34.89-34.88 0-19.28-15.62-34.88-34.89-34.88M3476.55 6772.76h-498.33c-19.26 0-34.88 15.6-34.88 34.89 0 19.28 15.62 34.88 34.88 34.88h498.33c19.27 0 34.89-15.6 34.89-34.88 0-19.29-15.62-34.89-34.89-34.89" transform="matrix(.13333 0 0 -.13333 0 1200)"/>
    <path d="M9018.26 4285.79c-9.77 0-18.33 3.8-25.65 9.2-10.89 8.02-18.45 20.32-18.45 34.88 0 14.55 7.55 26.85 18.44 34.88 7.32 5.39 15.89 9.2 25.66 9.2 24.32 0 44.1-19.76 44.1-44.08 0-24.33-19.78-44.08-44.1-44.08zM6149.24 3264.14c299.59 185.07 549.31 554.99 704.37 1030.85h748.58C7288.89 3772.03 6765.83 3388.63 6149.24 3264.14Zm-14.98 1030.85h629.11C6575.45 3730.96 6251.7 3329.8 5873.62 3240.13c120.27 181.23 207.95 577.12 260.64 1054.86zm-2310.93 0h748.59c155.05-475.86 404.77-845.78 704.35-1030.85-616.56 124.49-1139.64 507.89-1452.94 1030.85zm1489.77 0c53.31-483.16 142.39-882.48 264.77-1060.82-389.27 77.09-723.84 483.73-916.04 1060.82zm734.49 0c-75.71-674.03-211.34-1063.76-319.62-1073.77-2.23-.04-4.46-.28-6.69-.31-108.59 5.64-245.35 396.14-321.51 1074.08zm-3591.52 2.5c-7.84-7.09-18-11.7-29.37-11.7-24.33 0-44.11 19.75-44.11 44.08 0 24.32 19.78 44.08 44.11 44.08 11.37 0 21.53-4.61 29.37-11.71 8.9-8.07 14.72-19.43 14.72-32.37 0-12.95-5.82-24.31-14.72-32.38zm6562.19 116.31c-33.8 0-62.8-20.2-76.1-49.05H2502.79c-13.29 28.85-42.3 49.05-76.09 49.05-46.28 0-83.93-37.67-83.93-83.93 0-46.26 37.65-83.94 83.93-83.94 33.79 0 62.8 20.2 76.09 49.06h1218.64c303.85-534.46 816.48-935.23 1426.15-1090.75H3300.19c-19.26 0-34.88-15.6-34.88-34.88 0-19.28 15.62-34.88 34.88-34.88h2345.02c22.45-.66 44.94-1.16 67.55-1.16 3.03 0 6 .22 9.03.23.63-.01 1.25-.23 1.89-.23.97 0 1.91.33 2.88.35 11.76.07 23.42.56 35.14.81h45.48c2.7 0 5.09.95 7.61 1.53 809.65 35.72 1511.12 493.81 1889.3 1158.98h1238.07c13.3-28.86 42.3-49.06 76.1-49.06 46.28 0 83.92 37.68 83.92 83.94 0 46.26-37.64 83.93-83.92 83.93M9567.15 4612.82c.17-4.08.62-5.05 2.75-5.85 1.33-.53 6.39-.89 12.06-.89 20.85 0 23.33.62 23.33 5.5 0 2.4-1.15 4.17-3.02 4.79-1.95.62-1.95.62-11.26.71h-16.33c-10.9 0-15.43.62-19.24 2.57-4.26 2.22-6.2 6.92-6.2 14.99 0 10.65 3 15.17 11.52 17.21 4.79 1.24 11.71 1.68 24.66 1.68 20.76 0 25.54-.53 29.8-3.28 4.08-2.75 5.41-6.38 5.41-15.25h-17.56c0 5.14-1.77 5.85-13.4 5.85-5.76 0-13.47-.18-16.31-.35-4.79-.36-6.39-1.6-6.39-4.97 0-2.48 1.24-4.08 3.82-4.7 1.06-.27 1.41-.36 7.26-.44h16.77c1.6 0 9.58-.27 12.6-.45 11.26-.53 15.7-5.5 15.7-17.38 0-10.91-3.19-15.7-11.89-17.57-4.44-.97-13.22-1.5-26.08-1.5-20.49 0-25.01.44-30.24 3.1-3.63 1.77-5.5 6.3-5.5 13.31 0 .53 0 1.68.09 2.92h17.65M9637.04 4653.09h28.56l21.56-39.29 21.46 39.29H9737v-59.16h-17.56l.89 45.68-26.26-45.68h-14.37l-25.81 45.68.53-45.68h-17.38v59.16M3101.24 4813.84l-94.51 174.57c-12.11 22.38-44.26 22.29-56.25-.16l-93.1-174.41zm-121.83 348.73v0c71.96 0 138.2-39.25 172.75-102.39l255.2-466.33h-189.3l-56.27 101.46h-366.65l-54.57-101.46h-196.12l263.29 468.3c34.88 62.03 100.5 100.42 171.67 100.42M4331.06 5162.57h138.78v-568.72h-173.11v534.4c0 18.96 15.37 34.32 34.33 34.32M5081.21 4729.42c46.9 0 50.31 0 70.77 6.82 41.78 12.79 52.87 42.64 52.87 140.69 0 119.38-20.46 144.11-120.23 144.11H4791.3v-291.62zm-463 398.83c0 18.96 15.37 34.32 34.33 34.32h456.81c120.23 0 176.5-13.64 215.72-52.85 31.56-30.7 44.34-66.52 50.32-138.99 1.7-26.44 3.41-65.65 3.41-92.94 0-51.16-3.41-110-8.53-142.4-9.38-68.21-57.13-121.08-119.38-133.02-32.4-6.82-57.98-8.52-118.52-8.52h-514.16v534.4M7214.66 5162.57v-128.75h-459.58v-98.05h335.35V4823.22H6755.08V4722.6h465.55v-128.75h-636.09v545.34c0 12.91 10.47 23.38 23.38 23.38h606.74M7867.84 4813.84l-94.51 174.57c-12.11 22.38-44.26 22.29-56.25-.16l-93.11-174.41zm-121.85 348.73v0c71.98 0 138.22-39.25 172.77-102.39l255.18-466.33h-189.29l-56.27 101.46h-366.65l-54.57-101.46h-196.12l263.3 468.3c34.87 62.03 100.5 100.42 171.65 100.42M8961 4807.86c-.86-82.7-3.41-110.83-15.35-136.42-22.17-48.6-68.21-71.63-156.88-77.59-34.96-3.41-103.18-4.27-216.59-4.27-163.71 0-216.57 7.68-262.61 37.52-56.28 35.82-72.48 95.5-72.48 264.34 0 150.06 17.05 203.77 76.74 237.88 51.16 29.84 105.73 37.52 265.18 37.52 212.32 0 258.35-4.27 306.95-28.14 46.05-23.02 67.37-73.32 67.37-156.89v-18.75h-165.41c-3.41 62.24-16.21 67.35-166.28 67.35-141.55 0-167.12-3.41-188.44-22.17-20.46-18.75-24.73-41.77-24.73-133.86 0-136.43 12.79-146.66 179.07-146.66 128.75 0 147.5.85 171.37 11.08 24.74 10.23 34.11 28.13 34.11 69.06H8961M9314.04 5021.89h-253.23v117.3c0 12.91 10.47 23.38 23.38 23.38h656.19v-140.68h-253.24v-428.04h-173.1v428.04M4095.49 5141.26c-35.81 17.9-63.95 21.31-173.95 21.31H3521c-18.95 0-34.31-15.36-34.31-34.32v-534.4h172.23v430.6h251.55c74.18 0 91.23-15.36 91.23-83.57 0-53.71-20.47-69.06-91.23-69.06h-163.76v-138.13h190.19c98.9 0 137.28 5.96 170.53 26.42 46.9 29 66.51 85.27 66.51 193.56 0 107.44-21.32 159.45-78.45 187.59M6350.02 4760.11c46.91 29.01 66.51 85.27 66.51 193.56 0 107.44-21.31 159.45-78.44 187.59-35.81 17.9-63.95 21.31-173.94 21.31h-303.84c-72.36 0-131.03-58.66-131.03-131.03v-437.69h172.24v430.6h251.54c74.18 0 91.23-15.35 91.23-83.57 0-53.71-20.46-69.06-91.23-69.06h-163.15c-8.73 0-13.6-10.08-8.18-16.92l206.86-261.05h196.24l-113.47 143.19c36.25 3.65 58.51 10.67 78.66 23.07M2402.73 4760.11c46.91 29.01 66.51 85.27 66.51 193.56 0 107.44-21.32 159.45-78.45 187.59-35.81 17.9-63.95 21.31-173.94 21.31h-303.83c-72.37 0-131.04-58.66-131.04-131.03v-437.69h172.24v430.6h251.55c74.17 0 91.22-15.35 91.22-83.57 0-53.71-20.46-69.06-91.22-69.06h-163.16c-8.73 0-13.6-10.08-8.18-16.92l206.87-261.05h196.23l-113.47 143.19c36.25 3.65 58.51 10.67 78.67 23.07M3746.65 5470.3c17.77 29.21 35.84 58.13 54.35 86.61h4109.47c1.73-28.76 3.25-57.57 3.86-86.61zm-231.59 86.61c0-.01 0-.02 0-.03 51.69 84.37 105.44 163.11 160.46 237.5h-98.59c0 0 104.35 133.88 149.6 180.48h92.56c66.18 76.99 133.67 148.05 201.8 213.46h-66.69c118.35 101.04 241.86 192.82 368.68 274.36h28.59c602.55 429.18 1159.84 480.3 1159.84 480.3C4928.35 6829.62 4157.93 6285.52 3681.08 5470.3h-169.89c.38 18.16 1.5 36.15 2.42 54.17-.92-18.02-2.03-36.01-2.42-54.17.62 29.04 2.13 57.86 3.87 86.61zm50.51 352.05c5.06 22.04 10.05 44.1 15.71 65.91 4.29 16.55 9.41 32.75 14.07 49.15 54.25 58.45 109.45 112.92 165.13 164.3h-111.02c-.37 0-.7.12-1.08.13 35.23 94.68 76.92 186.18 124.32 274.23h333.04c649.1 442.02 1265 489.99 1265 489.99-611.62-106.86-1305.39-482.36-1811.61-1070.75 1.97 9.08 4.36 18 6.44 27.04zm4087.27 553.72c47.39-88.05 89.07-179.55 124.32-274.23-.39-.01-.73-.13-1.1-.13H4324.43c105.61 101 214.56 192.83 324.7 274.36zM6277.35 6984.1c-31.31-31.76-60.91-63.39-92.3-93.12-34.06-32.28-74.31-52.33-122.43-53.26-1.71-.03-3.42-.33-5.11-.28-16.27.43-19.41 5.58-11.86 19.68 15.56 29.1 31.33 58.09 46.76 87.26 3.74 7.08 8.53 10.63 16.88 12.04 54.43 9.15 108.75 19.02 163.11 28.6.99.17 2.1-.37 4.95-.92zm-717.72 52.98c11.23 4.36 22.46 7.73 34.96 5.47 13.61-2.46 26.37-7.04 38.95-12.57 14.07-6.2 28.29-12.06 42.5-17.96 27.6-11.48 56.38-13.03 85.76-10.44 51.98 4.56 102.24 17.28 152.12 31.74 29.58 8.57 58.84 18.18 87.67 29.05 2.58.96 5.76.94 8.01 5.78-63.4 35.27-278.3 155.26-322.51 180.14-5.93 3.33-13.94 6.53-12.53 14.43 1.41 7.88 9.1 10.59 16.87 12.27 52.3 11.35 103.94 10 155.5-5.26 55.83-16.55 110.04-37.58 165.02-56.52 51.22-17.64 103.05-33.79 156.89-41.81 42.93-6.41 86.11-8.61 129.56-7.14 76.33 2.6 152.67 5.51 229.08 3.89 33.28-.71 65.92-5.64 97.99-14.28 12.78-3.45 24.46-9.46 34.2-18.69 14.25-13.51 14.16-31.48-.73-44.54-7.27-6.38-15.63-11.32-24.61-15.3-32.67-14.47-833.52-135.51-922.28-150.63-56.57-9.64-89.89-11.63-97.42 1.69-7.57 13.4-46.47 78.06-54.56 91.17-1.49 2.43-3.2 4.72-4.6 7.2-3.14 5.58-2.01 9.92 4.16 12.31zM7883.52 5794.38H3969.65c48.28 62.38 98.07 122.64 149.25 180.48h3725.34c15.39-59.3 28.84-119.36 39.28-180.48zm-2170.76 1917.7c-65 0-129.19-3.38-192.83-8.72h-1720.6c-19.27 0-34.89-15.6-34.89-34.88 0-19.28 15.62-34.89 34.89-34.89H5119.2C4152.71 7373.85 3437.12 6496.09 3424 5451.78H1534.89c-19.26 0-34.88-15.61-34.88-34.89 0-19.28 15.62-34.88 34.88-34.88h1917.57c4.59-1.64 9.37-2.93 14.52-2.93h4491.55c24.09 0 43.61 19.52 43.61 43.61 0 1262.39-1027.01 2289.39-2289.38 2289.39M8753.75 3667.76c-2.28-7.63-2.17-7.3 0 0v0M5813.42 1664.93c20.02 42.96 31.29 90.9 31.29 141.53 0 116.56-59.59 219.31-149.87 279.45 53.83 55.37 111.97 110.06 173.99 162.36-72.61-42.67-140.9-91.73-204.02-144.6-46.5 24.5-99.48 38.25-155.66 38.25-185.27 0-335.49-150.17-335.49-335.46 0-83.7 30.67-160.21 81.3-219.02-64.2-138.83-75.46-250.59-18.85-288.31 60.65-40.46 192.5 32.83 271.64 152.26 0 0-122.42-110.43-189.55-85.12-41.45 15.69-41.57 78.89-7.47 169.63 55.58-40.85 124.21-64.9 198.42-64.9 91.92 0 175.13 36.92 235.77 96.75l11.89-22.46c146.22 11.84 582.83 23.34 582.83 23.34 0 21.13-289.08 2.04-526.22 96.3zm-599.43 141.53c0 163.06 132.18 295.12 295.16 295.12 43.7 0 85.18-9.46 122.5-26.41-159.97-141.41-283.81-305.8-357.13-447.79-37.99 49.68-60.53 111.69-60.53 179.08zm295.16-295.23c-68.94 0-132.33 23.62-182.56 63.35 58.39 131.86 177.5 308.85 339.89 481.67 82.89-52.3 137.93-144.6 137.93-249.79 0-44.93-10.11-87.54-28.07-125.71-51.52 23.83-99.62 53.68-140.36 91.34l89.06-167.01c-53.91-57.68-130.65-93.85-215.89-93.85v0M7814.97 1837.27l54.69 72.59-190.44.05 46.94 62.22h190.36l54.8 72.56h-380.2l-261.39-347h380.12l54.65 72.6h-190.29l50.32 66.98h190.44v0 0M8079.03 2044.69l-261.46-347h189.67l261.43 347h-189.64v0 0M8711 2044.69l-132.55-175.9-40.68 175.9h-148.32l-261.43-347h125.49l131.37 174.31 40.32-174.31h149.9l261.43 347H8711v0 0M9331.28 2044.69l-304.89.06c-52.3 0-98.49-24.96-127.72-63.74l-157.43-208.92c-5.94-7.71-9.29-17.47-9.29-27.98 0-25.59 20.7-46.42 46.37-46.42h304.88c52.17 0 98.6 25.01 127.72 63.72l37.98 50.22h43.96l55.08 73.01h-233.53l-73.76-97.8c-7.56-10-19.62-16.48-33.08-16.48h-53.72c-6.8 0-12.16 5.45-12.16 12 0 2.8.96 5.29 2.48 7.26l125.13 165.97c7.45 10.16 19.48 16.54 33.05 16.54h53.75c6.7 0 12.02-5.45 12.02-12.08 0-2.66-.86-5.21-2.37-7.18l-20.34-27.05h189.46l33.49 44.52c5.89 7.71 9.35 17.4 9.35 27.92 0 25.66-20.84 46.43-46.43 46.43v0 0M7435.64 1998.26c0 25.66-20.77 46.43-46.4 46.43h-304.78c-52.27 0-98.56-24.9-127.79-63.68l-157.46-208.92c-5.83-7.78-9.33-17.47-9.33-27.98 0-25.59 20.84-46.42 46.44-46.42h304.81c52.24 0 98.64 25.01 127.8 63.72l157.46 208.86c5.83 7.78 9.25 17.47 9.25 27.99v0zm-211.96-45.39-125.03-166.03c-7.6-10-19.62-16.48-33.16-16.48h-53.75c-6.62 0-12.02 5.45-12.02 12 0 2.8.9 5.29 2.42 7.26l125.09 165.97c7.53 9.98 19.55 16.54 33.09 16.54h53.71c6.62 0 12.09-5.45 12.09-12.08 0-2.66-.89-5.21-2.44-7.18v0 0" transform="matrix(.13333 0 0 -.13333 0 1200)"/>
    <path d="M6718.67 1862.71c37.37 8.48 69.81 30.08 92.16 59.68l36.08 47.88c5.87 7.78 9.36 17.47 9.36 27.99 0 25.66-20.78 46.43-46.41 46.43h-194.97v0h-189.65l-261.5-347h186.33 211.61c52.27 0 98.64 25.01 127.83 63.72l36.9 48.94c4.69 6.2 7.42 13.98 7.42 22.34 0 12.31-5.94 23.16-15.16 30.02v0zm-176.07-44.78-23.43-31.16c-7.57-9.93-19.55-16.48-33.2-16.48h-77.86l50.4 66.98h74.51c6.56 0 12.06-5.39 12.06-12 0-2.79-.93-5.34-2.48-7.34v0zm101.66 134.94-19.9-26.53c-7.6-9.98-19.59-16.48-33.2-16.48l-77.9.05 46.94 62.22h74.42c6.69 0 12.06-5.45 12.06-12.08 0-2.66-.87-5.21-2.42-7.18v0 0M2228.15 1778.31h-42.1v-82.37h-42.72v218.83h84.82c45.19 0 72.23-31.05 72.23-68.24 0-37.19-27.04-68.22-72.23-68.22zm-2.14 98.35h-39.96v-59.94h39.96c19.36 0 31.64 11.98 31.64 29.81 0 17.82-12.28 30.13-31.64 30.13v0M2468.01 1695.94l-42.73 87.28h-30.73v-87.28h-42.72v218.83h85.75c44.57 0 71-30.45 71-67.01 0-30.73-18.76-49.79-39.96-57.48l48.87-94.34h-49.48zm-33.2 180.72h-40.26v-57.8h40.26c18.75 0 31.04 11.98 31.04 28.9 0 16.89-12.29 28.9-31.04 28.9v0M2568.3 1695.94v218.83h144.14v-38.11h-101.41v-51.34h86.35v-38.1h-86.35v-53.17h101.41v-38.11H2568.3v0M2829.98 1694.11c-33.18 0-58.38 7.06-79.91 28.85l27.67 27.67c13.83-13.83 32.57-18.44 52.87-18.44 25.2 0 38.71 9.52 38.71 27.05 0 7.68-2.15 14.14-6.75 18.45-4.31 3.98-9.23 6.14-19.37 7.68l-26.43 3.69c-18.75 2.75-32.58 8.6-42.42 18.13-10.44 10.45-15.67 24.59-15.67 43.02 0 39.03 28.89 66.4 76.21 66.4 30.14 0 51.95-7.4 70.71-25.51l-27.06-26.75c-13.82 13.22-30.42 15.06-44.87 15.06-22.73 0-33.81-12.6-33.81-27.66 0-5.52 1.86-11.37 6.46-15.66 4.29-4.01 11.37-7.39 20.29-8.61l25.81-3.7c19.98-2.77 32.59-8.3 41.81-16.89 11.67-11.08 16.89-27.06 16.89-46.43 0-42.39-35.34-66.35-81.14-66.35v0M2966.87 1695.94v218.83h144.16v-38.11H3009.6v-51.34h86.35v-38.1h-86.35v-53.17h101.43v-38.11h-144.16v0M3297.68 1695.94l-86.66 134.29v-134.29h-42.73v218.83h38.12l86.68-134.02v134.02h42.71v-218.83h-38.12v0M3485.91 1876.66v-180.72h-42.72v180.72h-57.16v38.11h157.06v-38.11h-57.18v0M3593.27 1695.94v218.83h144.14v-38.11H3636v-51.34h86.35v-38.1H3636v-53.17h101.41v-38.11h-144.14v0M3931.48 1716.82c-14.44-14.42-35.03-20.88-57.78-20.88h-78.99v218.83h78.99c22.75 0 43.34-6.47 57.78-20.92 24.59-24.59 22.12-54.7 22.12-87.6 0-32.87 2.47-64.84-22.12-89.43zm-29.81 146.3c-7.39 8.92-17.22 13.54-31.97 13.54h-32.26v-142.61h32.26c14.75 0 24.58 4.61 31.97 13.52 8 9.84 9.23 25.51 9.23 58.68 0 33.21-1.23 47.04-9.23 56.87v0M4191.07 1695.94h-91.6v218.83h87.9c42.73 0 67.62-23.98 67.62-61.48 0-24.28-15.97-39.96-27.05-45.18 13.22-6.14 30.11-19.97 30.11-49.17 0-40.87-27.95-63-66.98-63zm-7.08 180.72h-41.8v-50.41h41.8c18.14 0 28.28 10.14 28.28 25.2 0 15.06-10.14 25.21-28.28 25.21zm2.77-88.83h-44.57v-53.78h44.57c19.36 0 28.59 12.28 28.59 27.03 0 14.75-9.23 26.75-28.59 26.75v0M4400.79 1785.67v-89.73h-42.4v89.73l-65.79 129.1h46.42l40.87-88.21 40.26 88.21h46.42l-65.78-129.1v0" transform="matrix(.13333 0 0 -.13333 0 1200)"/>
  </g>
</svg>
