<?xml version="1.0" encoding="UTF-8"?>
<svg version="1.1" xmlns="http://www.w3.org/2000/svg" width="1342" height="350">
<path d="M0 0 C0.87995614 -0.00260775 1.75991229 -0.00521549 2.66653377 -0.00790226 C4.13347605 -0.00455618 4.13347605 -0.00455618 5.63005352 -0.0011425 C6.66062506 -0.00270249 7.6911966 -0.00426248 8.75299758 -0.00586975 C12.2361749 -0.00988541 15.71930928 -0.00668765 19.20248699 -0.00355339 C21.68919176 -0.00490741 24.17589633 -0.00668734 26.66260052 -0.00886345 C32.7405383 -0.01296698 38.81845901 -0.01234155 44.89639614 -0.00945081 C49.84989013 -0.00719286 54.80338068 -0.00688598 59.75687504 -0.00797462 C60.8144472 -0.00820447 60.8144472 -0.00820447 61.89338445 -0.00843897 C63.32601145 -0.00875872 64.75863844 -0.00908293 66.19126543 -0.00941156 C79.65624109 -0.01226904 93.12120997 -0.00897806 106.58618452 -0.00361119 C118.08475363 0.00083095 129.58331261 0.00010301 141.08188152 -0.00452995 C154.45666393 -0.00991642 167.83144032 -0.01196683 181.20622367 -0.00891769 C182.64184932 -0.00859919 184.07747497 -0.00828482 185.51310062 -0.00797462 C186.21924203 -0.00782035 186.92538345 -0.00766607 187.65292308 -0.00750712 C192.57404093 -0.00665213 197.49515491 -0.00808319 202.41627216 -0.01045418 C209.09339156 -0.01360039 215.77048939 -0.01126818 222.44760799 -0.00555992 C224.8756466 -0.00425701 227.30368682 -0.00458337 229.73172474 -0.00682259 C242.52825312 -0.01751822 255.30781842 0.12928075 268.09804058 0.55189705 C269.84286007 0.60607302 269.84286007 0.60607302 271.62292844 0.66134346 C284.23308134 1.12401067 297.3512184 2.20339512 306.69150066 11.56334114 C312.7619559 19.05069897 314.65820332 28.71591603 314.25009441 38.17662239 C311.67615543 62.77565952 294.2884605 85.71116667 275.94150066 101.12584114 C273.32157217 103.19616319 270.67075123 105.2020714 267.94150066 107.12584114 C268.47259441 107.64791145 269.00368816 108.16998177 269.55087566 108.70787239 C278.3724409 117.8996858 280.56629246 126.46864666 280.41025066 138.93492317 C279.76631639 155.94216653 271.98396782 171.40454064 260.94150066 184.12584114 C260.28794598 184.92248177 259.63439129 185.71912239 258.96103191 186.53990364 C234.74666223 215.03258636 195.87909383 225.71156006 159.99638653 228.91119576 C154.86827241 229.27151234 149.7484513 229.2885013 144.60946941 229.29380989 C143.45642818 229.29713829 142.30338696 229.30046669 141.11540508 229.30389595 C138.68414994 229.30893156 136.25288797 229.31130532 133.82162762 229.31114388 C130.17721842 229.31331245 126.5331214 229.33145537 122.88876629 229.35045052 C89.42088252 229.43037229 89.42088252 229.43037229 74.94150066 226.12584114 C75.58458259 221.79038868 77.12213285 218.30208394 79.01181316 214.36021614 C79.32438564 213.70317192 79.63695812 213.0461277 79.95900249 212.36917305 C80.63540788 210.94816911 81.31420074 209.52829968 81.99512005 208.1094532 C83.84018548 204.26286466 85.66569303 200.40701043 87.49228191 196.55162239 C87.86767605 195.76014305 88.24307018 194.96866371 88.6298399 194.15320015 C92.25535766 186.49429448 95.76658398 178.78587626 99.25400066 171.06334114 C104.89173165 158.59266733 110.61358651 146.16299008 116.37900066 133.75084114 C123.0225619 119.44612214 129.62526544 105.12385599 136.16391277 90.77086067 C142.04536478 77.86809646 147.99890888 65.00145667 153.94150066 52.12584114 C120.28150066 52.12584114 86.62150066 52.12584114 51.94150066 52.12584114 C51.61150066 53.77584114 51.28150066 55.42584114 50.94150066 57.12584114 C50.28596987 59.12274904 49.59416672 61.10795548 48.87509441 63.08287239 C48.51214275 64.08552132 48.14919109 65.08817024 47.7752409 66.12120247 C47.31448162 67.38085823 46.85372234 68.64051399 46.37900066 69.93834114 C44.91462566 73.96021614 43.45025066 77.98209114 41.94150066 82.12584114 C58.44150066 82.12584114 74.94150066 82.12584114 91.94150066 82.12584114 C91.02823833 86.69215283 89.62158518 90.28868842 87.62509441 94.41880989 C87.29265728 95.11868019 86.96022015 95.81855049 86.61770916 96.53962898 C85.54316332 98.79996578 84.46126361 101.0566906 83.37900066 103.31334114 C81.91235569 106.38739043 80.44951511 109.46323407 78.98837566 112.53990364 C78.63200527 113.2894381 78.27563488 114.03897255 77.90846539 114.81122017 C74.85467573 121.25724905 71.94247189 127.76176175 69.23813152 134.36290169 C68.54954039 135.98540612 67.75629461 137.56289866 66.94150066 139.12584114 C63.16758165 140.38381415 59.52122907 140.44992138 55.58212566 140.62584114 C54.75952251 140.66644661 53.93691936 140.70705208 53.08938885 140.74888802 C50.45693565 140.87854402 47.82426685 141.00271579 45.19150066 141.12584114 C42.57303719 141.24928988 39.95466744 141.37404109 37.33645916 141.50279427 C35.7082349 141.58279476 34.0798589 141.6597835 32.45132732 141.73326302 C31.32546215 141.78837044 31.32546215 141.78837044 30.17685223 141.84459114 C29.5263792 141.87488411 28.87590618 141.90517708 28.20572186 141.93638802 C25.10314121 142.1959888 22.02363162 142.68553672 18.94150066 143.12584114 C15.31150066 152.36584114 11.68150066 161.60584114 7.94150066 171.12584114 C18.40823697 170.63401913 28.86314338 170.09405356 39.31650066 169.37193489 C40.26960125 169.30624306 41.22270184 169.24055122 42.20468426 169.17286873 C46.10626629 168.9024584 50.00766589 168.62964848 53.90878582 168.35264778 C75.06688874 166.85632048 75.06688874 166.85632048 84.94150066 167.12584114 C84.2766561 172.25789473 82.06444921 176.65294177 79.93368816 181.30943489 C79.52997997 182.20139061 79.12627178 183.09334633 78.71033001 184.01233101 C77.8536744 185.90212643 76.99447022 187.79076834 76.13290691 189.67833138 C74.83651846 192.51947053 73.54848058 195.36427301 72.26181316 198.20982552 C71.42377084 200.05575542 70.58524346 201.9014652 69.74618816 203.74693489 C69.36985241 204.57769035 68.99351665 205.40844582 68.60577679 206.26437569 C65.23184544 213.64288271 61.59835251 220.88475676 57.94150066 228.12584114 C56.98383297 228.15898415 56.02616528 228.19212715 55.03947735 228.22627449 C45.82384649 228.54568503 36.60835805 228.8689762 27.39298248 229.19567108 C22.66011174 229.3633422 17.92720703 229.52983971 13.19418621 229.69322395 C7.69966376 229.88311237 2.20528626 230.07678337 -3.28896809 230.27427864 C-4.65285978 230.32327938 -4.65285978 230.32327938 -6.04430485 230.37327003 C-20.64457817 230.90417583 -35.2301519 231.61024335 -49.81318378 232.49727058 C-58.90979903 233.03809449 -67.94463505 233.2326896 -77.05849934 233.12584114 C-76.53622801 228.87658689 -75.8581632 225.05522923 -74.31875324 221.05992317 C-73.95895878 220.11550865 -73.59916431 219.17109413 -73.22846699 218.19806099 C-72.83464329 217.18680656 -72.44081959 216.17555214 -72.03506184 215.13365364 C-71.62226475 214.05661674 -71.20946766 212.97957985 -70.78416157 211.86990547 C-69.4243323 208.32745714 -68.05401871 204.78916586 -66.68349934 201.25084114 C-65.72596383 198.76302693 -64.76898654 196.27500438 -63.81264973 193.78672981 C-60.90565322 186.22881468 -57.98299498 178.67699868 -55.05849934 171.12584114 C-54.21421771 168.94405453 -53.36997736 166.76225194 -52.52578449 164.58043098 C-49.41724192 156.54903517 -46.30529699 148.51897007 -43.18520832 140.49205208 C-36.31913576 122.82618858 -29.51561563 105.13652327 -22.7301302 87.43956184 C-18.58439573 76.63541701 -14.39122089 65.85647841 -10.05849934 55.12584114 C-16.98849934 54.63084114 -16.98849934 54.63084114 -24.05849934 54.12584114 C-23.49558661 47.75239378 -21.41724384 42.33228805 -19.05849934 36.41490364 C-18.66275715 35.40616188 -18.26701496 34.39742012 -17.85928059 33.35811043 C-17.02557856 31.23713845 -16.18826795 29.11758177 -15.34756184 26.9993763 C-14.05572111 23.7438398 -12.77494374 20.48411906 -11.49599934 17.22349739 C-10.68413703 15.16204822 -9.87165877 13.10084149 -9.05849934 11.03990364 C-8.67306965 10.06083046 -8.28763996 9.08175728 -7.89053059 8.07301521 C-7.53346027 7.17473 -7.17638996 6.27644478 -6.80849934 5.3509388 C-6.33670246 4.16016228 -6.33670246 4.16016228 -5.85537434 2.94532967 C-4.4432619 -0.27891802 -3.37479325 0.00071608 0 0 Z M213.94150066 49.12584114 C211.7220531 51.53704885 210.53395252 54.30195067 209.22275066 57.28209114 C208.83454144 58.09955818 208.44633221 58.91702522 208.04635906 59.75926399 C206.81555942 62.36893782 205.62874831 64.99611164 204.44150066 67.62584114 C203.61353909 69.39666903 202.78283959 71.16621955 201.94931316 72.93443489 C198.03811646 79.84392769 198.03811646 79.84392769 195.94150066 87.12584114 C201.28009982 87.31426229 205.94768333 86.69933359 211.12900066 85.43834114 C211.87150066 85.25900032 212.61400066 85.0796595 213.37900066 84.89488411 C227.65433544 81.29831337 240.1243664 75.28376009 248.94150066 63.12584114 C250.56495906 59.69622426 250.56495906 59.69622426 250.81650066 56.00084114 C249.59126573 53.37533771 248.48091331 52.55833033 245.94150066 51.12584114 C240.68408299 49.30596579 235.47159957 48.82276603 229.94150066 48.43834114 C228.94521648 48.36558968 228.94521648 48.36558968 227.92880535 48.29136848 C220.81699259 47.75036557 220.81699259 47.75036557 213.94150066 49.12584114 Z M178.02373028 136.13109016 C175.83790496 136.23153645 174.02085462 136.43622874 171.94150066 137.12584114 C170.15348994 139.47269421 169.25693017 141.02988456 168.20321941 143.68834114 C167.91090939 144.35365852 167.61859936 145.01897591 167.31743145 145.70445442 C166.3910906 147.83335457 165.51045826 149.97802681 164.62900066 152.12584114 C164.01919129 153.53982144 163.40658633 154.95259956 162.79111004 156.36412239 C159.84769137 163.17989296 157.13588441 170.02776232 154.94150066 177.12584114 C174.77931102 178.19239008 194.78037743 174.43106934 210.62900066 161.62584114 C214.02111367 158.36475396 215.71984776 155.68667866 216.94150066 151.12584114 C217.01868075 146.64939624 216.51847013 144.81196699 213.62900066 141.37584114 C203.34638928 134.04494409 189.88473454 136.09862606 178.02373028 136.13109016 Z " fill="#F94614" transform="translate(347.0584993362427,83.87415885925293)"/>
<path d="M0 0 C3.11903521 -0.00218811 6.23771612 -0.02044534 9.35668945 -0.03930664 C27.57293937 -0.09139526 45.88486805 0.64562509 63.75708008 4.43530273 C65.3118103 4.75736694 65.3118103 4.75736694 66.89794922 5.0859375 C83.09917509 8.60126218 101.49599045 14.55077412 111.57739258 28.64233398 C119.20470242 40.93077762 120.08569931 55.60087116 116.97973633 69.68920898 C115.9040925 73.65377982 114.46479422 77.42495227 112.81958008 81.18530273 C112.53550293 81.83515137 112.25142578 82.485 111.95874023 83.15454102 C104.96430145 98.70911139 95.60926102 113.01776348 84.81958008 126.18530273 C84.36357422 126.74427246 83.90756836 127.30324219 83.43774414 127.87915039 C72.7839393 140.84725121 61.2168592 153.02184961 47.81958008 163.18530273 C47.21259277 163.65226563 46.60560547 164.11922852 45.98022461 164.6003418 C3.27876471 197.26482199 3.27876471 197.26482199 -18.18041992 200.18530273 C-18.18041992 200.84530273 -18.18041992 201.50530273 -18.18041992 202.18530273 C-17.10727539 202.55655273 -17.10727539 202.55655273 -16.01245117 202.93530273 C-0.21757898 209.90683253 10.00551891 227.52663821 16.30859375 242.90722656 C22.76193077 259.57575923 25.00537243 276.85780117 24.94995117 294.62670898 C24.94451874 296.70881184 24.94996286 298.79070582 24.95629883 300.87280273 C24.95436523 302.83733398 24.95436523 302.83733398 24.95239258 304.84155273 C24.95126465 306.03586914 24.95013672 307.23018555 24.94897461 308.46069336 C24.81958008 311.18530273 24.81958008 311.18530273 23.81958008 312.18530273 C21.69332234 312.45765219 19.55884904 312.66602323 17.4230957 312.84960938 C16.75465637 312.90827682 16.08621704 312.96694427 15.39752197 313.02738953 C13.17399165 313.22128911 10.94995681 313.408534 8.72583008 313.59545898 C7.17937807 313.72826509 5.63295095 313.86136132 4.08654785 313.99473572 C0.83503893 314.27414149 -2.41672368 314.55032199 -5.66870117 314.82421875 C-9.81712185 315.17382861 -13.96486677 315.5308093 -18.11244965 315.89020634 C-21.31229818 316.16672485 -24.51245805 316.43949373 -27.71272278 316.71114922 C-29.24047589 316.84123081 -30.76813744 316.97239278 -32.29570007 317.10469246 C-39.93484617 317.76410188 -47.50669798 318.36082785 -55.18041992 318.18530273 C-55.23649414 316.24204102 -55.23649414 316.24204102 -55.29370117 314.25952148 C-56.14143977 289.68907578 -58.42859991 262.2858181 -77.37182617 244.29467773 C-83.80838096 239.46054757 -91.55695731 235.72645694 -99.18041992 233.18530273 C-99.28427002 233.8561792 -99.38812012 234.52705566 -99.49511719 235.21826172 C-100.33806002 238.86781081 -101.70453311 242.21436733 -103.14526367 245.65795898 C-103.45035858 246.39771973 -103.75545349 247.13748047 -104.0697937 247.8996582 C-105.08168797 250.35077755 -106.09980159 252.79926289 -107.11791992 255.24780273 C-108.19520525 257.85191974 -109.27099655 260.45665104 -110.3467865 263.06138611 C-111.10312659 264.89222933 -111.86002472 266.7228421 -112.6174469 268.55323792 C-115.47994966 275.47409347 -118.31622096 282.40536831 -121.14135742 289.34155273 C-121.54804153 290.33932236 -121.95472565 291.33709198 -122.37373352 292.36509705 C-123.97476437 296.29327393 -125.57573873 300.22146862 -127.17306519 304.15115356 C-128.28404346 306.88347063 -129.39795609 309.61457489 -130.51245117 312.34545898 C-130.83994354 313.15321777 -131.16743591 313.96097656 -131.50485229 314.79321289 C-136.14988554 326.15476835 -136.14988554 326.15476835 -138.18041992 328.18530273 C-140.36272344 328.51706923 -142.55442983 328.78710978 -144.74804688 329.03320312 C-145.43427124 329.11137772 -146.12049561 329.18955231 -146.82751465 329.27009583 C-149.1074487 329.52867602 -151.38803603 329.78091483 -153.66870117 330.03295898 C-155.24956277 330.21057343 -156.83038817 330.38851032 -158.41117859 330.5667572 C-161.73069036 330.94012329 -165.05051448 331.31053173 -168.37060547 331.67871094 C-172.624904 332.15058749 -176.8785297 332.62822763 -181.13195515 333.10790348 C-184.39941161 333.47599969 -187.66712394 333.84177966 -190.93492699 334.2067852 C-192.50306387 334.38207819 -194.07114022 334.55791363 -195.63915443 334.73430061 C-197.83406419 334.98070217 -200.0292796 335.2241698 -202.22460938 335.46679688 C-203.4740181 335.60589981 -204.72342682 335.74500275 -206.01069641 335.88832092 C-209.18041992 336.18530273 -209.18041992 336.18530273 -213.18041992 336.18530273 C-212.65449661 331.1311717 -211.53290086 327.2307968 -209.32885742 322.66186523 C-209.03848099 322.052043 -208.74810455 321.44222076 -208.44892883 320.81391907 C-207.82135515 319.49818087 -207.18959166 318.18443442 -206.55404663 316.87252808 C-204.82021584 313.29206125 -203.1184732 309.69630827 -201.41088867 306.10327148 C-201.05700577 305.36099808 -200.70312286 304.61872467 -200.33851624 303.85395813 C-196.75217406 296.32007894 -193.30208546 288.72694392 -189.86791992 281.12280273 C-183.98442893 268.11754068 -178.02161879 255.15032632 -172.02850342 242.19525146 C-166.80427663 230.89981342 -161.62531587 219.58523822 -156.49291992 208.24780273 C-151.3332694 196.85118196 -146.07236617 185.50641152 -140.74008179 174.18960571 C-136.00815989 164.14324152 -131.37807098 154.05506224 -126.80541992 143.93530273 C-118.81101068 126.25056427 -110.51534209 108.71157943 -102.18041992 91.18530273 C-101.60681107 89.97829104 -101.03324138 88.77126073 -100.4597168 87.56420898 C-97.70530329 81.76867721 -94.94632663 75.97535805 -92.18041992 70.18530273 C-93.15914063 70.33676758 -94.13786133 70.48823242 -95.14624023 70.64428711 C-98.78363692 71.20639219 -102.42162991 71.76455223 -106.05981445 72.3215332 C-107.63322176 72.56297264 -109.20646616 72.80547618 -110.77954102 73.04907227 C-113.04295355 73.39937932 -115.3069277 73.7458333 -117.57104492 74.09155273 C-118.2722345 74.20092163 -118.97342407 74.31029053 -119.69586182 74.42297363 C-122.92035866 74.91175728 -125.90651237 75.18530273 -129.18041992 75.18530273 C-128.57767591 69.09752399 -126.17345967 63.82363839 -123.84838867 58.23217773 C-123.41536942 57.17677795 -122.98235016 56.12137817 -122.53620911 55.03399658 C-121.15261506 51.6653297 -119.76047885 48.30027221 -118.36791992 44.93530273 C-117.44220791 42.68684427 -116.51707158 40.43814869 -115.5925293 38.18920898 C-114.28283809 35.00367763 -112.97236922 31.81849663 -111.65727234 28.63519287 C-111.26038712 27.67429749 -110.86350189 26.7134021 -110.45458984 25.72338867 C-109.8762867 24.34178307 -109.8762867 24.34178307 -109.28630066 22.93226624 C-108.54017858 21.07892883 -107.84126237 19.20598042 -107.18745422 17.31809998 C-104.79864421 10.56393919 -104.79864421 10.56393919 -101.6328125 8.625 C-100.68559326 8.48118896 -99.73837402 8.33737793 -98.76245117 8.18920898 C-97.69849121 8.00503418 -96.63453125 7.82085938 -95.53833008 7.63110352 C-94.43021973 7.48398926 -93.32210937 7.336875 -92.18041992 7.18530273 C-90.58206299 6.91242432 -90.58206299 6.91242432 -88.95141602 6.6340332 C-85.59634613 6.07158778 -82.23796763 5.58672953 -78.86791992 5.12280273 C-77.65168945 4.95288818 -76.43545898 4.78297363 -75.18237305 4.60791016 C-63.88059848 3.07125243 -52.56386246 1.90044375 -41.18041992 1.18530273 C-40.50741852 1.14293488 -39.83441711 1.10056702 -39.14102173 1.05691528 C-26.09313344 0.25985506 -13.0708846 -0.00102029 0 0 Z M-17.41137695 65.98828125 C-19.79156661 65.80403258 -19.79156661 65.80403258 -23.18041992 67.18530273 C-25.90404751 70.94277018 -27.54463231 75.09835079 -29.30541992 79.37280273 C-29.85611823 80.64203278 -30.41030678 81.90975352 -30.96777344 83.17602539 C-32.13505179 85.83354842 -33.28791241 88.49667377 -34.43188477 91.16430664 C-36.9099236 96.90640751 -39.5804637 102.55710127 -42.2479248 108.21298218 C-43.70368117 111.30408993 -45.14634048 114.40130026 -46.59057617 117.49780273 C-47.17791616 118.75564435 -47.76531923 120.01345652 -48.3527832 121.27124023 C-51.27187964 127.5222906 -54.18892537 133.77429815 -57.10623169 140.02618408 C-58.60745478 143.24331825 -60.10878347 146.46040314 -61.61010742 149.67749023 C-62.10752441 150.74338379 -62.60494141 151.80927734 -63.11743164 152.9074707 C-63.46821777 153.65915527 -63.81900391 154.41083984 -64.18041992 155.18530273 C-60.02557545 156.42647088 -56.74839341 155.69807215 -52.61791992 154.68530273 C-51.87123047 154.50298096 -51.12454102 154.32065918 -50.35522461 154.1328125 C-29.6830335 148.85741018 -8.68564227 139.90750762 7.81958008 126.18530273 C8.66391602 125.50209961 9.50825195 124.81889648 10.37817383 124.11499023 C21.19680264 114.92656576 30.3042413 103.17643561 32.75708008 88.87280273 C32.85686529 82.98547534 31.82668984 78.94802612 27.94458008 74.49780273 C19.37208074 66.50039769 6.53804322 66.01342895 -4.55541992 66.06030273 C-5.46291992 66.05643555 -6.37041992 66.05256836 -7.30541992 66.04858398 C-9.09454584 66.05116198 -10.88383916 66.07920529 -12.67211914 66.13427734 C-15.18041992 66.18530273 -15.18041992 66.18530273 -17.41137695 65.98828125 Z " fill="#F94614" transform="translate(219.180419921875,6.814697265625)"/>
<path d="M0 0 C0.81807725 0.00291284 1.6361545 0.00582568 2.47902197 0.00882679 C3.77274793 0.00754515 3.77274793 0.00754515 5.09260976 0.00623763 C8.00544628 0.00458017 10.91822621 0.01010851 13.83105749 0.01555592 C15.90999628 0.01583776 17.98893517 0.01568012 20.0678739 0.01511341 C25.73086586 0.01482532 31.39383684 0.020724 37.05682391 0.02768737 C42.96789041 0.0339189 48.87895733 0.03452455 54.79002661 0.03571278 C65.99206842 0.03882669 77.19410054 0.04704088 88.39613807 0.05706227 C101.1456151 0.06822155 113.89509258 0.07373339 126.64457327 0.0787577 C152.87918473 0.08922345 179.11378756 0.10682404 205.34839147 0.12908131 C204.61860086 5.07070233 203.18647177 9.1705683 201.06714147 13.66814381 C200.73734792 14.38337208 200.40755438 15.09860035 200.06776708 15.83550221 C199.00128019 18.14483566 197.92494411 20.44942557 196.84839147 22.75408131 C196.11577678 24.33559681 195.38392644 25.91746662 194.65283483 27.49968678 C193.56451267 29.85470728 192.47568083 32.2094744 191.38402075 34.56294972 C188.12984398 41.58043179 184.95765352 48.6332215 181.82495397 55.70574147 C179.45324469 61.02422809 179.45324469 61.02422809 178.34839147 62.12908131 C176.17033428 62.22337473 173.98917868 62.24650669 171.80908483 62.2426067 C171.12618887 62.24275273 170.4432929 62.24289875 169.73970312 62.2430492 C167.47251533 62.24235007 165.20540874 62.23455771 162.93823522 62.22673756 C161.3702476 62.22487338 159.8022594 62.22344948 158.23427099 62.22244984 C154.09962645 62.21862465 149.96501682 62.20879437 145.8303861 62.19774586 C141.61438749 62.18753175 137.39838326 62.18295222 133.18237585 62.17790943 C124.904365 62.1671721 116.62638258 62.15009567 108.34839147 62.12908131 C108.15498678 62.72511158 107.96158209 63.32114186 107.76231664 63.93523365 C106.44332199 67.95452167 105.12777587 71.9087872 103.35229772 75.75408131 C102.96960729 76.59817555 102.58691686 77.44226979 102.19262975 78.31194264 C101.55816931 79.70642628 101.55816931 79.70642628 100.91089147 81.12908131 C95.32964356 93.62379423 90.13266512 106.2678722 84.97339147 118.94158131 C84.54742681 119.98794758 84.12146215 121.03431385 83.68258947 122.11238819 C76.64524754 139.41221237 69.65642425 156.73171163 62.66818517 174.05141407 C21.35575114 276.43908831 21.35575114 276.43908831 7.94995397 305.60173756 C6.66939214 308.42209692 5.46333106 311.24037419 4.34839147 314.12908131 C-2.54104809 313.5105155 -9.3833401 312.6482519 -16.23730189 311.71990162 C-31.67999228 309.63557667 -47.09441732 308.11531222 -62.65160853 307.12908131 C-62.02702277 303.47841449 -61.02210437 300.2941548 -59.59692103 296.87908131 C-59.15718958 295.81995533 -58.71745814 294.76082936 -58.2644015 293.66960865 C-57.77342982 292.50123463 -57.28245814 291.33286061 -56.77660853 290.12908131 C-56.24783385 288.86178757 -55.71936116 287.5943678 -55.19115931 286.32683522 C-49.52865627 272.76066615 -43.79226046 259.22513209 -38.06615931 245.68572193 C-32.56600998 232.67872721 -27.09711999 219.65903758 -21.65160853 206.62908131 C-15.1222598 191.0072645 -8.55254098 175.40293675 -1.95889002 159.80815846 C3.94450198 145.84431638 9.81452598 131.86688934 15.66089147 117.87908131 C21.21358184 104.59518292 26.78813857 91.32099228 32.41089147 78.06658131 C32.71129339 77.35795948 33.01169531 76.64933766 33.32120031 75.91924244 C34.15364535 73.9562797 34.98709496 71.99374765 35.82104772 70.03142506 C36.28776891 68.93306324 36.75449011 67.83470143 37.23535436 66.70305592 C37.90194589 65.16151732 38.59730087 63.63126252 39.34839147 62.12908131 C16.24839147 62.12908131 -6.85160853 62.12908131 -30.65160853 62.12908131 C-29.95680354 58.65505638 -29.39134908 56.18158832 -28.0727511 53.03581959 C-27.75184 52.26376179 -27.4309289 51.49170399 -27.10029322 50.6962505 C-26.75242258 49.87228779 -26.40455195 49.04832508 -26.04613978 48.19939381 C-25.684452 47.33200581 -25.32276423 46.46461781 -24.95011622 45.57094532 C-23.79243355 42.79682831 -22.62854212 40.02537053 -21.46410853 37.25408131 C-19.948014 33.63242493 -18.43455354 30.00967103 -16.92113978 26.38689381 C-16.37080576 25.07268452 -16.37080576 25.07268452 -15.80935389 23.73192555 C-13.04130353 17.10787498 -10.36855001 10.45051804 -7.75195032 3.76531178 C-5.92218169 -0.61850046 -4.59411727 0.01241149 0 0 Z " fill="#F94614" transform="translate(1127.6516085267067,24.870918691158295)"/>
<path d="M0 0 C20.46 0 40.92 0 62 0 C61.16037181 5.87739736 60.01685927 9.59641594 57.4375 14.6875 C50.9637115 27.91882636 45.09434681 41.4192233 39.14701843 54.89254761 C36.78019986 60.25030886 34.38799417 65.5961653 31.984375 70.9375 C9.3290324 114.40234219 9.3290324 114.40234219 5.82421875 160.45703125 C7.65498734 164.41570048 7.65498734 164.41570048 11 167 C24.05819274 168.36428879 34.87125081 164.12447374 45 156 C61.13545043 141.91349565 69.44632386 123.33427388 77.27911377 103.9078064 C78.63973033 100.53346535 80.01295683 97.16429249 81.38504028 93.79460144 C82.11799933 91.99409032 82.85031044 90.1933153 83.58200073 88.39228821 C87.48691106 78.78421647 91.44827282 69.1996572 95.41329956 59.61627197 C97.41098915 54.78770453 99.40662896 49.95829017 101.40234375 45.12890625 C101.78852371 44.19451721 102.17470367 43.26012817 102.57258606 42.29742432 C108.39630528 28.20428638 114.1970822 14.10171423 120 0 C140.79 0 161.58 0 183 0 C181.87507801 6.74953194 181.87507801 6.74953194 180.57983398 9.82592773 C180.29056534 10.52199127 180.00129669 11.21805481 179.70326233 11.93521118 C179.22946388 13.04816055 179.22946388 13.04816055 178.74609375 14.18359375 C178.41383286 14.97873383 178.08157196 15.7738739 177.73924255 16.59310913 C176.64433378 19.21032369 175.54080623 21.82381579 174.4375 24.4375 C173.27166988 27.21943557 172.10816634 30.00233731 170.94470215 32.78526306 C170.14636971 34.69431488 169.34728909 36.60305399 168.54748535 38.51148987 C164.93918155 47.12495619 161.3914891 55.76254597 157.85845947 64.40710449 C149.99438492 83.6414605 142.08955779 102.85921418 134 122 C133.55575684 123.0528418 133.11151367 124.10568359 132.65380859 125.19042969 C122.48495956 149.1059798 109.2099696 171.34137898 91 190 C90.15179687 190.92167969 89.30359375 191.84335937 88.4296875 192.79296875 C72.92053815 209.20488949 52.82614465 219.78870142 31 225 C29.99453125 225.24621094 28.9890625 225.49242187 27.953125 225.74609375 C6.87428785 229.87640643 -19.52170369 228.98340844 -38.26953125 217.625 C-48.89168943 210.15090017 -54.68897388 200.82916888 -57.12451172 188.17993164 C-66.42919864 132.64215959 -32.63785936 71.0913497 -10 22 C-6.7 14.74 -3.4 7.48 0 0 Z " fill="#F94614" transform="translate(686,85)"/>
<path d="M0 0 C40.26 0 80.52 0 122 0 C120.87497287 7.87518988 120.87497287 7.87518988 119.46533203 10.91235352 C118.99947189 11.93360069 118.99947189 11.93360069 118.52420044 12.97547913 C118.18879242 13.68611008 117.8533844 14.39674103 117.5078125 15.12890625 C117.16120575 15.88163315 116.814599 16.63436005 116.45748901 17.40989685 C115.35517934 19.7981519 114.2402357 22.1802581 113.125 24.5625 C112.38329593 26.16563712 111.64240275 27.76914967 110.90234375 29.37304688 C109.53752961 32.32330704 108.17035062 35.27239665 106.79345703 38.21704102 C106.51889679 38.80437515 106.24433655 39.39170929 105.9614563 39.99684143 C104.67343511 42.68038585 103.33119565 45.33760871 102 48 C91.44 48 80.88 48 70 48 C69.01 50.97 68.02 53.94 67 57 C66.09559825 59.30228912 65.16507942 61.5945129 64.20703125 63.875 C63.66202254 65.18116355 63.11719063 66.48740088 62.57250977 67.79370117 C62.28675079 68.47612885 62.00099182 69.15855652 61.70657349 69.86166382 C53.10586343 90.43179568 45.02953444 111.2017986 37 132 C36.47774841 133.3524884 36.47774841 133.3524884 35.94494629 134.7322998 C32.29208115 144.19458119 28.64653716 153.65967703 25.01171875 163.12890625 C24.61903305 164.15121841 24.61903305 164.15121841 24.21841431 165.19418335 C22.4567221 169.78791705 20.72318846 174.39168155 19 179 C20.16015625 179.06058594 21.3203125 179.12117187 22.515625 179.18359375 C48.0865673 180.54328365 48.0865673 180.54328365 51 182 C50.36624983 187.97289223 48.7564447 193.36297386 46.875 199.0546875 C46.56804199 199.99684113 46.26108398 200.93899475 45.94482422 201.90969849 C45.29864821 203.88894103 44.64967164 205.86727122 43.99804688 207.84472656 C42.99707625 210.8838771 42.00568535 213.92602987 41.015625 216.96875 C40.385975 218.89341191 39.75578582 220.81789754 39.125 222.7421875 C38.82706543 223.65563934 38.52913086 224.56909119 38.22216797 225.51022339 C37.94518066 226.34844635 37.66819336 227.18666931 37.3828125 228.05029297 C37.01760498 229.16112747 37.01760498 229.16112747 36.64501953 230.29440308 C36 232 36 232 35 233 C27.26789651 233.44856724 19.45471093 232.82415356 11.7355957 232.35742188 C10.56356094 232.28914688 9.39152618 232.22087189 8.18397522 232.15052795 C4.34772556 231.92630319 0.51175978 231.6975623 -3.32421875 231.46875 C-5.99891081 231.31152831 -8.67361651 231.15455939 -11.3483429 230.9979248 C-17.64508907 230.62862963 -23.94163807 230.25607804 -30.23812085 229.88232183 C-37.41342208 229.45656109 -44.58893851 229.03448323 -51.76447427 228.61269665 C-66.50989025 227.74586159 -81.25503421 226.87446016 -96 226 C-95.50121751 221.90129646 -94.93964386 218.27061157 -93.26586914 214.48925781 C-92.91202652 213.67861877 -92.5581839 212.86797974 -92.19361877 212.03277588 C-91.81132614 211.18149109 -91.42903351 210.3302063 -91.03515625 209.453125 C-90.44510048 208.11359772 -90.44510048 208.11359772 -89.84312439 206.74700928 C-89.01415166 204.8694133 -88.18102876 202.99364477 -87.34399414 201.11962891 C-86.06207147 198.2490404 -84.79266962 195.37317284 -83.52539062 192.49609375 C-82.71686674 190.66895166 -81.90764601 188.84211773 -81.09765625 187.015625 C-80.71738785 186.15624329 -80.33711945 185.29686157 -79.94532776 184.41143799 C-79.58833298 183.61340759 -79.2313382 182.8153772 -78.86352539 181.99316406 C-78.55121475 181.29257874 -78.23890411 180.59199341 -77.91712952 179.87017822 C-77 178 -77 178 -75 175 C-72.45420623 174.66197325 -70.13850914 174.5112053 -67.5859375 174.48828125 C-66.85629791 174.47033005 -66.12665833 174.45237885 -65.37490845 174.43388367 C-63.04166465 174.37964868 -60.70862686 174.34584438 -58.375 174.3125 C-56.79424208 174.27933838 -55.21351139 174.2448498 -53.6328125 174.20898438 C-49.75535674 174.12391533 -45.87796345 174.05716822 -42 174 C-36.45067284 162.27234001 -31.16639479 150.43595627 -25.9375 138.5625 C-25.09350797 136.64913309 -24.24943126 134.73580353 -23.40527344 132.82250977 C-17.94634092 120.44408762 -12.51276566 108.05467428 -7.09887695 95.65649414 C-0.44333788 80.41820092 6.28189104 65.21081273 13 50 C1.78 50 -9.44 50 -21 50 C-20.26169907 46.30849535 -19.66263557 43.9112744 -18.15820312 40.62451172 C-17.59256653 39.37829544 -17.59256653 39.37829544 -17.01550293 38.10690308 C-16.60819946 37.22342194 -16.200896 36.3399408 -15.78125 35.4296875 C-15.15434265 34.05262131 -15.15434265 34.05262131 -14.51477051 32.6477356 C-13.18145492 29.72120557 -11.84104783 26.79799383 -10.5 23.875 C-9.16025951 20.94428765 -7.82200519 18.01290689 -6.48522949 15.08084106 C-5.65366903 13.25804049 -4.82015334 11.43613036 -3.98449707 9.61520386 C-3.41886047 8.37844406 -3.41886047 8.37844406 -2.84179688 7.11669922 C-2.50950073 6.39231659 -2.17720459 5.66793396 -1.83483887 4.92160034 C-0.90041042 2.84786948 -0.90041042 2.84786948 0 0 Z " fill="#F94614" transform="translate(881,85)"/>
<path d="M0 0 C21.78 0 43.56 0 66 0 C65.19435692 5.63950156 64.09131964 9.75185193 61.8515625 14.81640625 C61.36567909 15.94444672 61.36567909 15.94444672 60.86997986 17.09527588 C60.16590719 18.72810959 59.45814325 20.35935555 58.74710083 21.98916626 C56.79355725 26.4692624 54.86930912 30.96195014 52.94140625 35.453125 C52.53593063 36.3958577 52.13045502 37.33859039 51.71269226 38.30989075 C47.22340368 48.7671396 42.88985115 59.28746311 38.5625 69.8125 C36.96179989 73.70087637 35.36008376 77.5888333 33.7578125 81.4765625 C33.36203506 82.43694427 32.96625763 83.39732605 32.55848694 84.3868103 C26.57100659 98.90349523 20.48826758 113.38045453 14.4127655 127.86045837 C11.60678099 134.54915263 8.80812134 141.24088852 6.01171875 147.93359375 C4.78033229 150.87962851 3.54887777 153.8256348 2.31741333 156.77163696 C1.53249074 158.64990271 0.74787562 160.52829697 -0.03640747 162.40682983 C-1.12490843 165.01379538 -2.21466921 167.62023108 -3.3046875 170.2265625 C-3.62057327 170.98404282 -3.93645905 171.74152313 -4.26191711 172.5219574 C-6.43535457 177.71438137 -8.69537808 182.86451135 -11 188 C-10.29472168 187.98706909 -9.58944336 187.97413818 -8.86279297 187.96081543 C-1.33734569 187.84448389 6.02373855 188.4343797 13.5 189.25 C14.71655273 189.38059814 15.93310547 189.51119629 17.18652344 189.64575195 C27.28802208 190.7929232 37.1258583 192.60442621 47 195 C48.02631019 198.81612893 47.98985357 200.9505983 46.47705078 204.59082031 C46.11982941 205.46812805 45.76260803 206.34543579 45.39456177 207.24932861 C44.80093338 208.64958282 44.80093338 208.64958282 44.1953125 210.078125 C43.59745438 211.52889435 43.59745438 211.52889435 42.98751831 213.00897217 C41.71213521 216.09450509 40.4185318 219.17203797 39.125 222.25 C38.26058016 224.33807068 37.39728528 226.42660745 36.53515625 228.515625 C34.95715556 232.32205469 33.37866819 236.12822619 31.78173828 239.92675781 C31.30089279 241.07328827 31.30089279 241.07328827 30.81033325 242.24298096 C30 244 30 244 29 245 C21.48085185 245.2782863 14.10927018 244.54076298 6.6328125 243.79296875 C4.65150195 243.60107148 2.67019032 243.4091849 0.68883324 243.21776867 C-1.40215482 243.01524717 -3.49296336 242.81095159 -5.58374023 242.60626221 C-32.69605544 239.95573625 -59.80744991 237.67122768 -87 236 C-88.32079005 232.35761782 -87.66715663 230.30341916 -86.30371094 226.73974609 C-85.90372391 225.67816788 -85.50373688 224.61658966 -85.09162903 223.52284241 C-84.6437352 222.36803879 -84.19584137 221.21323517 -83.734375 220.0234375 C-83.27435593 218.81171371 -82.81433685 217.59998993 -82.34037781 216.35154724 C-81.08486303 213.04485207 -79.81599393 209.74342715 -78.54475021 206.44275284 C-77.20936733 202.96840114 -75.88661914 199.48924719 -74.56274414 196.01049805 C-72.40692129 190.34982684 -70.24443925 184.69174731 -68.07666016 179.03564453 C-65.3750457 171.98582612 -62.68869774 164.93030814 -60.01171875 157.87109375 C-59.62830826 156.86020691 -59.24489777 155.84932007 -58.84986877 154.80780029 C-58.08990473 152.80410523 -57.32996083 150.80040253 -56.57003784 148.79669189 C-54.6488165 143.73435054 -52.72263933 138.67389574 -50.796875 133.61328125 C-45.58413214 119.91250169 -40.38543408 106.20640328 -35.1875 92.5 C-34.27368959 90.09065454 -33.35987123 87.68131209 -32.44604492 85.27197266 C-28.34040824 74.44692596 -24.23546566 63.62161655 -20.13177586 52.79583168 C-18.07862218 47.37950726 -16.02518636 41.96328986 -13.97157192 36.54714012 C-12.74554845 33.31358897 -11.51970477 30.07996989 -10.29428101 26.84619141 C-8.94138426 23.2762134 -7.58793813 19.70644414 -6.234375 16.13671875 C-5.63285362 14.54877754 -5.63285362 14.54877754 -5.0191803 12.92875671 C-4.46392921 11.46488274 -4.46392921 11.46488274 -3.89746094 9.97143555 C-3.57743103 9.12711472 -3.25740112 8.28279388 -2.92767334 7.41288757 C-1.97429864 4.9331505 -0.98667112 2.4666778 0 0 Z " fill="#F94614" transform="translate(1019,84)"/>
<path d="M0 0 C1.32 2.31 2.64 4.62 4 7 C4.99 4.69 5.98 2.38 7 0 C8.98 0 10.96 0 13 0 C14.32594359 5.96674616 14.0884587 11.92583615 14 18 C13.00097656 17.98839844 12.00195312 17.97679687 10.97265625 17.96484375 C9.68230469 17.95582031 8.39195313 17.94679688 7.0625 17.9375 C5.77472656 17.92589844 4.48695312 17.91429687 3.16015625 17.90234375 C0.13701597 17.63467451 0.13701597 17.63467451 -1 19 C-2.65 19 -4.3 19 -6 19 C-6 14.38 -6 9.76 -6 5 C-7.65 5 -9.3 5 -11 5 C-11 9.62 -11 14.24 -11 19 C-12.65 19 -14.3 19 -16 19 C-16.33 14.71 -16.66 10.42 -17 6 C-18.65 5.67 -20.3 5.34 -22 5 C-22 3.68 -22 2.36 -22 1 C-14.66236293 -0.17402193 -7.41834582 -0.09377123 0 0 Z " fill="#F34919" transform="translate(1168,321)"/>
</svg>
