<?xml version="1.0" encoding="UTF-8"?>
<svg version="1.1" xmlns="http://www.w3.org/2000/svg" width="1342" height="350">
<path d="M0 0 C1.10940036 -0.00424107 1.10940036 -0.00424107 2.24121284 -0.00856781 C6.15926572 -0.02341317 10.07728321 -0.03273343 13.99536133 -0.03710938 C17.1725624 -0.04147944 20.34948969 -0.05533524 23.52661133 -0.078125 C58.6593987 -0.32496939 101.70398013 -0.61392074 128.72265625 25.515625 C137.47634696 34.63145127 141.26029838 44.90789835 141.09765625 57.453125 C141.09378906 58.1845874 141.08992188 58.9160498 141.0859375 59.66967773 C140.98676314 65.96793799 140.17696849 72.04318704 138.84765625 78.203125 C139.17765625 77.873125 139.50765625 77.543125 139.84765625 77.203125 C141.340101 77.10454478 142.83720647 77.0757328 144.33290291 77.07449055 C145.30796103 77.0712661 146.28301914 77.06804165 147.28762448 77.0647195 C148.91377865 77.0670424 148.91377865 77.0670424 150.57278442 77.06941223 C151.71461713 77.06714667 152.85644983 77.06488112 154.03288352 77.06254691 C157.21691952 77.0572884 160.40092028 77.05656602 163.58495927 77.05774128 C167.01403097 77.05794457 170.44309411 77.05243306 173.87216187 77.04768372 C180.59945687 77.03935753 187.32674311 77.03662789 194.05404283 77.03607134 C199.52729035 77.03559659 205.00053498 77.03354388 210.47378159 77.03037071 C225.99707298 77.02155455 241.52035744 77.0169522 257.04365136 77.01770119 C257.88147785 77.01774114 258.71930435 77.0177811 259.58251953 77.01782227 C260.84079934 77.01788359 260.84079934 77.01788359 262.12449895 77.01794615 C275.68755291 77.01835168 289.25057897 77.00880818 302.81362487 76.9946839 C316.74565383 76.98029033 330.67766923 76.97341553 344.60970581 76.97427768 C352.42882263 76.97460888 360.24791031 76.97189611 368.06702042 76.96109962 C374.73286982 76.95195481 381.39867692 76.94985141 388.06452991 76.95660905 C391.46078998 76.95985586 394.85690343 76.95889397 398.2531662 76.9512558 C442.12079333 76.85903343 442.12079333 76.85903343 454.3203125 88.40234375 C459.91685535 95.00082522 463.48065728 102.29257918 464.390625 110.88671875 C464.47723389 111.6955249 464.56384277 112.50433105 464.65307617 113.33764648 C464.7172876 113.95325439 464.78149902 114.5688623 464.84765625 115.203125 C465.5432666 113.68960449 465.5432666 113.68960449 466.25292969 112.14550781 C467.98101459 108.39168125 469.72069292 104.64332464 471.46386719 100.89648438 C472.21572482 99.27620204 472.96445943 97.65446663 473.70996094 96.03125 C474.78406812 93.69399278 475.86941668 91.36224665 476.95703125 89.03125 C477.28636658 88.30818665 477.6157019 87.58512329 477.95501709 86.84014893 C478.275047 86.15974548 478.5950769 85.47934204 478.92480469 84.77832031 C479.20016052 84.18319641 479.47551636 83.58807251 479.75921631 82.97491455 C481.23200022 80.57748035 482.63536707 78.96319657 484.84765625 77.203125 C487.73817444 76.70191956 487.73817444 76.70191956 491.12915039 76.70141602 C493.03616478 76.68734459 493.03616478 76.68734459 494.98170471 76.67298889 C496.36541417 76.68346611 497.74911713 76.69483497 499.1328125 76.70703125 C500.55480524 76.70687624 501.9767984 76.70538697 503.39878845 76.70262146 C506.37550588 76.70123825 509.35174101 76.71378307 512.32836914 76.73657227 C516.14409928 76.76498327 519.95902981 76.76221191 523.77481937 76.74948215 C526.70965916 76.74252864 529.644314 76.75030992 532.57913017 76.76273918 C533.98614226 76.76725511 535.39317418 76.76758923 536.80018806 76.76367378 C538.76534419 76.76076449 540.73049664 76.77941815 542.69555664 76.79907227 C543.81378311 76.80447525 544.93200958 76.80987823 546.0841217 76.81544495 C548.84765625 77.203125 548.84765625 77.203125 550.70811462 78.55812073 C552.53350003 81.1931862 552.21684313 83.05988289 551.84765625 86.203125 C550.88686916 88.78138064 549.88307396 91.1524338 548.69140625 93.6171875 C548.35763977 94.33179138 548.02387329 95.04639526 547.67999268 95.78265381 C546.95737174 97.32702855 546.22966727 98.8690328 545.49743652 100.40887451 C543.92810265 103.71090694 542.3852084 107.02505724 540.84100342 110.33889771 C540.03851037 112.06086201 539.23482562 113.78227141 538.42999268 115.50314331 C531.67245994 129.96552804 525.22997099 144.57190649 518.84765625 159.203125 C518.5436792 159.899823 518.23970215 160.596521 517.92651367 161.31433105 C510.3735995 178.65682013 503.25426387 196.04869288 497.84765625 214.203125 C497.64430664 214.87988281 497.44095703 215.55664062 497.23144531 216.25390625 C494.68586093 224.97895511 492.91365922 235.40113391 495.84765625 244.203125 C500.81004893 246.68432134 506.45857552 245.24489356 511.53515625 243.765625 C529.5867901 237.23243595 540.44499994 222.80285085 548.84765625 206.203125 C551.74801763 199.99115499 554.28022929 193.62018991 556.84765625 187.265625 C557.58909045 185.45169235 558.33146044 183.63814196 559.07470703 181.82495117 C560.59954768 178.10087071 562.11906349 174.37469031 563.63378906 170.64648438 C565.69156623 165.58273641 567.76269369 160.52457771 569.83984375 155.46875 C570.16146988 154.68561935 570.48309601 153.90248871 570.81446838 153.09562683 C571.46134583 151.52062574 572.10828268 149.94564906 572.75527954 148.37069702 C574.38207242 144.41028082 576.00774534 140.44940585 577.6328125 136.48828125 C577.96377426 135.68175613 578.29473602 134.87523102 578.63572693 134.04426575 C580.98224957 128.32264833 583.31797128 122.59668594 585.6506958 116.86943054 C587.38942811 112.604947 589.13446698 108.34306108 590.88067627 104.08163452 C591.72891262 102.00757668 592.57444461 99.93241062 593.41717529 97.85610962 C594.59151101 94.96368838 595.77514542 92.07523969 596.9609375 89.1875 C597.48487343 87.8872715 597.48487343 87.8872715 598.01939392 86.56077576 C598.34855301 85.76438187 598.6777121 84.96798798 599.0168457 84.14746094 C599.29945755 83.4545697 599.5820694 82.76167847 599.87324524 82.04779053 C601.01756893 79.88146189 601.8458947 78.64263299 603.84765625 77.203125 C606.65588379 76.82217407 606.65588379 76.82217407 610.10742188 76.81494141 C611.39886108 76.80548492 612.69030029 76.79602844 614.02087402 76.7862854 C615.43188788 76.79165508 616.84289895 76.79780803 618.25390625 76.8046875 C619.69974922 76.80266665 621.14559119 76.79975512 622.59143066 76.79598999 C625.62111112 76.79156711 628.65052618 76.79799623 631.68017578 76.81201172 C635.56428401 76.82910395 639.44777037 76.81926252 643.33185577 76.80129433 C646.31728809 76.7904553 649.30257289 76.79390329 652.28800964 76.8016777 C653.72014947 76.8036794 655.15230268 76.80122147 656.58442688 76.79423904 C658.58557887 76.78662356 660.58677779 76.80028838 662.58789062 76.81494141 C663.72689819 76.81732819 664.86590576 76.81971497 666.03942871 76.82217407 C668.84765625 77.203125 668.84765625 77.203125 670.7154541 78.53207397 C672.66615357 81.41116968 672.17602559 83.80997512 671.84765625 87.203125 C671.00003032 90.26724402 669.95647292 93.2257469 668.84765625 96.203125 C669.39035156 95.08292969 669.93304687 93.96273437 670.4921875 92.80859375 C671.21452287 91.33578008 671.93719687 89.86313246 672.66015625 88.390625 C673.01658203 87.65263672 673.37300781 86.91464844 673.74023438 86.15429688 C674.09150391 85.44208984 674.44277344 84.72988281 674.8046875 83.99609375 C675.1241333 83.3414917 675.4435791 82.68688965 675.77270508 82.01245117 C676.96853037 79.99967325 678.03734934 78.69529677 679.84765625 77.203125 C681.89560413 76.8311882 681.89560413 76.8311882 684.29023743 76.83563232 C685.19968613 76.83006317 686.10913483 76.82449402 687.04614258 76.8187561 C688.04194336 76.82797089 689.03774414 76.83718567 690.0637207 76.84667969 C691.11456345 76.84463531 692.16540619 76.84259094 693.24809265 76.84048462 C696.7358825 76.83746764 700.22320345 76.85599469 703.7109375 76.875 C706.13933699 76.87805864 708.56773823 76.87993396 710.99613953 76.88067627 C716.09816153 76.88528654 721.20002635 76.89973059 726.30200195 76.921875 C732.81022329 76.94999264 739.31831997 76.96106977 745.82659626 76.9655571 C752.05889242 76.97074522 758.29115795 76.98527901 764.5234375 77 C765.69960443 77.00188072 766.87577137 77.00376144 768.08757973 77.00569916 C802.30098917 77.07628902 802.30098917 77.07628902 805.70141602 79.55369568 C806.84765625 81.203125 806.84765625 81.203125 806.79223633 84.26879883 C805.8387009 89.16308053 803.75585824 93.621089 801.734375 98.15234375 C801.11814018 99.55490166 801.11814018 99.55490166 800.48945618 100.98579407 C799.6220508 102.95346015 798.75023275 104.91918624 797.87426758 106.88305664 C796.5373727 109.88564698 795.22002898 112.89628921 793.90429688 115.90820312 C793.05715192 117.82343122 792.20888259 119.73816245 791.359375 121.65234375 C790.96755539 122.55031174 790.57573578 123.44827972 790.17204285 124.37345886 C786.35891848 132.85232757 786.35891848 132.85232757 782.84765625 135.203125 C779.63964844 135.74902344 779.63964844 135.74902344 775.89453125 135.8125 C775.23430969 135.82903625 774.57408813 135.84557251 773.89385986 135.86260986 C771.79502999 135.91100951 769.69692403 135.93244019 767.59765625 135.953125 C766.17053665 135.98129183 764.74345066 136.01122028 763.31640625 136.04296875 C759.82698016 136.11676263 756.33769153 136.16638779 752.84765625 136.203125 C742.9278362 160.12352709 733.27334147 184.13167912 723.91992188 208.27911377 C720.27532402 217.68788646 716.60442128 227.08636107 712.93359375 236.48492432 C711.21659675 240.88154449 709.50090562 245.27867409 707.78515625 249.67578125 C707.21094405 251.14721935 706.63672602 252.61865518 706.0625 254.09008789 C705.66160156 255.11739014 705.26070312 256.14469238 704.84765625 257.203125 C706.12640625 257.26371094 707.40515625 257.32429688 708.72265625 257.38671875 C710.43099735 257.47119716 712.13933026 257.55584141 713.84765625 257.640625 C714.68683594 257.67994141 715.52601563 257.71925781 716.390625 257.75976562 C730.4657293 258.46897631 730.4657293 258.46897631 733.84765625 260.265625 C736.72191514 265.8345016 734.41780502 272.46786119 732.63761902 278.04597473 C732.31892349 279.00146713 732.00022797 279.95695953 731.671875 280.94140625 C731.34604935 281.94398972 731.02022369 282.94657318 730.68452454 283.97953796 C729.99663986 286.08661788 729.30294351 288.19180842 728.60375977 290.29516602 C727.5343789 293.51796771 726.48765326 296.74750911 725.44335938 299.97851562 C724.77086437 302.02908352 724.09708081 304.07922937 723.421875 306.12890625 C723.10925217 307.09451981 722.79662933 308.06013336 722.47453308 309.05500793 C722.02440605 310.39736763 722.02440605 310.39736763 721.56518555 311.7668457 C721.30537399 312.55323929 721.04556244 313.33963287 720.77787781 314.14985657 C719.73350422 316.4550916 718.80460331 317.60529755 716.84765625 319.203125 C714.88570309 319.56397152 714.88570309 319.56397152 712.62425232 319.54100037 C711.34476888 319.5365785 711.34476888 319.5365785 710.03943729 319.5320673 C709.11175258 319.51173656 708.18406786 319.49140581 707.22827148 319.47045898 C706.2522293 319.4590132 705.27618711 319.44756742 704.27056789 319.4357748 C692.7517857 319.25290332 681.25611692 318.60164639 669.7578125 317.92578125 C667.429505 317.79319735 665.10117084 317.66108091 662.77281189 317.52940369 C657.94311915 317.25497665 653.11368767 316.97645213 648.28442383 316.69458008 C642.10489161 316.33402274 635.92492254 315.98172602 629.74475956 315.63216496 C624.95851156 315.36093449 620.17244862 315.0865517 615.38644218 314.81109428 C613.1063687 314.68002446 610.82625448 314.54966104 608.54609871 314.42003059 C605.37177517 314.23886233 602.19770799 314.05372523 599.02368164 313.86743164 C598.09223328 313.81492249 597.16078491 313.76241333 596.20111084 313.70831299 C583.02126725 312.92243497 583.02126725 312.92243497 579.91015625 311.015625 C578.26865287 308.21541335 578.54388013 306.45964109 578.84765625 303.203125 C580.01912458 299.69451722 581.52612022 296.35380043 583.046875 292.984375 C583.47893753 292.00827271 583.91100006 291.03217041 584.3561554 290.02648926 C585.27131917 287.96657566 586.19203862 285.90912253 587.11791992 283.85400391 C588.52728949 280.72061482 589.91420395 277.57798294 591.29882812 274.43359375 C592.19267861 272.42909309 593.08781895 270.425167 593.984375 268.421875 C594.39604416 267.48734497 594.80771332 266.55281494 595.2318573 265.58996582 C597.54931789 260.48557255 599.64621601 255.98488325 603.84765625 252.203125 C607.3527832 251.52197266 607.3527832 251.52197266 611.3359375 251.6171875 C612.0391362 251.62567719 612.7423349 251.63416687 613.46684265 251.64291382 C615.6995467 251.67634176 617.92855604 251.75157998 620.16015625 251.828125 C621.67898405 251.85823927 623.19786884 251.88561255 624.71679688 251.91015625 C628.42827159 251.97609137 632.13760298 252.0795305 635.84765625 252.203125 C636.21117187 251.01074219 636.5746875 249.81835938 636.94921875 248.58984375 C638.97078505 242.53575985 641.64604383 236.78679269 644.31137085 230.9967041 C645.90112056 227.54068481 647.47397103 224.07699262 649.046875 220.61328125 C649.36898453 219.90440765 649.69109406 219.19553406 650.02296448 218.46517944 C653.10704063 211.66189992 656.08274023 204.81462698 659.03515625 197.953125 C665.47193644 182.99870014 672.0600099 168.11234476 678.66479492 153.23144531 C679.0671788 152.32349716 679.46956268 151.41554901 679.88414001 150.48008728 C680.64473071 148.76387625 681.40644625 147.04816316 682.16944885 145.33302307 C682.67773476 144.18554848 682.67773476 144.18554848 683.19628906 143.01489258 C683.49239075 142.34815018 683.78849243 141.68140778 684.09356689 140.99446106 C684.75344767 139.42691709 685.30982386 137.81662216 685.84765625 136.203125 C685.01516357 136.24912842 684.1826709 136.29513184 683.32495117 136.3425293 C680.23362591 136.50591219 677.14203082 136.65527126 674.04956055 136.79516602 C672.05398256 136.88973285 670.05919157 137.00045481 668.06445312 137.11132812 C666.81083984 137.16611328 665.55722656 137.22089844 664.265625 137.27734375 C663.10828857 137.33494873 661.95095215 137.39255371 660.75854492 137.4519043 C657.84765625 137.203125 657.84765625 137.203125 656.0090332 135.88598633 C654.84765625 134.203125 654.84765625 134.203125 653.84765625 131.203125 C653.45723145 132.15936768 653.06680664 133.11561035 652.66455078 134.10083008 C648.13869699 145.18018811 643.59248674 156.25110603 639.03533936 167.31762695 C637.85583443 170.18325597 636.67809275 173.04960519 635.50048828 175.91601562 C620.18080906 213.17096713 604.94666704 247.66201879 576.84765625 277.203125 C575.96013672 278.16992188 575.96013672 278.16992188 575.0546875 279.15625 C565.86778634 288.86487641 554.6016354 296.035743 542.84765625 302.203125 C541.95820312 302.67492187 541.06875 303.14671875 540.15234375 303.6328125 C514.48003161 316.27269707 482.38588893 317.78157995 455.34765625 309.015625 C443.12454801 304.24319929 432.69173075 295.62340528 426.97265625 283.703125 C422.60825689 273.05574803 422.31393099 262.57777451 421.84765625 251.203125 C421.24630859 252.22019531 421.24630859 252.22019531 420.6328125 253.2578125 C416.33477 260.294517 411.5449189 266.26061594 405.84765625 272.203125 C405.1103125 273.01523437 404.37296875 273.82734375 403.61328125 274.6640625 C375.78355746 304.26816465 332.8826719 313.94038004 293.72549438 315.27548218 C288.20412956 315.41490631 282.68309793 315.44859691 277.16015625 315.453125 C276.3031311 315.45413208 275.44610596 315.45513916 274.56311035 315.45617676 C261.70045858 315.44606695 248.91933032 314.97879087 236.09765625 313.953125 C234.97201767 313.87124939 234.97201767 313.87124939 233.82363892 313.78771973 C231.70946199 313.62919077 229.59940384 313.44464831 227.48828125 313.25 C226.29750977 313.14526367 225.10673828 313.04052734 223.87988281 312.93261719 C220.2594518 312.06161494 218.86468042 311.34574957 216.84765625 308.203125 C216.96812072 303.19983416 218.47465581 299.24368064 220.55859375 294.7421875 C220.83812393 294.13181641 221.11765411 293.52144531 221.40565491 292.89257812 C222.3360018 290.86697826 223.27926771 288.84767986 224.22265625 286.828125 C224.89279797 285.37585233 225.56212985 283.92320574 226.23071289 282.47021484 C228.04485506 278.53406836 229.8704923 274.6033584 231.69891357 270.67382812 C233.64024849 266.49842631 235.57351225 262.31928906 237.5078125 258.140625 C239.91086742 252.95107892 242.3152631 247.76216399 244.72387695 242.57519531 C250.14921981 230.88963218 255.53019631 219.18469304 260.87493896 207.46206665 C264.76170679 198.93766974 268.66468863 190.42116554 272.59765625 181.91796875 C272.99931503 181.0493219 273.40097382 180.18067505 273.81480408 179.28570557 C275.75642369 175.08764874 277.70007183 170.8905476 279.64672852 166.69482422 C284.17555223 156.91840099 288.57259059 147.09317704 292.84765625 137.203125 C292.08590088 137.23341797 291.32414551 137.26371094 290.53930664 137.29492188 C260.64678547 138.42977703 230.75731411 138.30749321 200.84765625 138.203125 C200.6775 138.88117188 200.50734375 139.55921875 200.33203125 140.2578125 C198.62827025 146.80097975 196.50398814 152.98703869 193.84765625 159.203125 C194.68330864 159.19313225 194.68330864 159.19313225 195.5358429 159.18293762 C201.32681515 159.11663934 207.11767986 159.0713475 212.90893555 159.03833008 C215.07108946 159.02323056 217.23321268 159.00274929 219.39526367 158.97680664 C222.50056525 158.94047483 225.60546239 158.92341038 228.7109375 158.91015625 C229.67977371 158.89467239 230.64860992 158.87918854 231.64680481 158.86323547 C232.99786568 158.86289558 232.99786568 158.86289558 234.3762207 158.86254883 C235.16897903 158.85588699 235.96173737 158.84922516 236.77851868 158.84236145 C239.40072195 159.29955452 240.30124834 160.06012069 241.84765625 162.203125 C241.65185807 167.43441024 239.98552274 171.76267619 237.78515625 176.4375 C237.47774002 177.10942886 237.17032379 177.78135773 236.85359192 178.47364807 C235.86064951 180.63777251 234.85473033 182.79554517 233.84765625 184.953125 C233.16045781 186.4400741 232.47385527 187.92729875 231.7878418 189.41479492 C230.43482938 192.34404483 229.07609703 195.27053285 227.71240234 198.19482422 C226.12167444 201.6077594 224.55293308 205.03026399 222.9921875 208.45703125 C222.21567662 210.14361287 221.43841668 211.82984998 220.66015625 213.515625 C220.32306641 214.25973633 219.98597656 215.00384766 219.63867188 215.77050781 C217.81846837 219.65373219 216.31836807 222.6552071 212.84765625 225.203125 C209.45970724 225.94747645 206.07190056 226.0885809 202.61328125 226.25 C201.62011902 226.31092834 200.62695679 226.37185669 199.60369873 226.43463135 C196.43575606 226.62495336 193.26707122 226.78934708 190.09765625 226.953125 C187.94781708 227.07772053 185.79807495 227.20400258 183.6484375 227.33203125 C178.38234298 227.64515038 173.11603678 227.92316275 167.84765625 228.203125 C165.20765625 234.803125 162.56765625 241.403125 159.84765625 248.203125 C162.65394531 247.90664062 165.46023438 247.61015625 168.3515625 247.3046875 C179.13036544 246.20521074 189.92287531 245.45178587 200.73510742 244.77050781 C203.83474485 244.57499718 206.93397842 244.37381368 210.03320312 244.171875 C212.02211464 244.0439474 214.01104621 243.91633117 216 243.7890625 C216.91764633 243.72971527 217.83529266 243.67036804 218.78074646 243.60922241 C230.34409883 242.88508873 230.34409883 242.88508873 233.22265625 244.703125 C235.20891249 247.75890384 234.85953985 249.516646 234.32885742 253.03137207 C233.54589237 256.56504311 232.12333691 259.68418837 230.56640625 262.9375 C230.23670334 263.64980774 229.90700043 264.36211548 229.56730652 265.0960083 C228.50439046 267.38667926 227.42636882 269.66985655 226.34765625 271.953125 C225.61325084 273.52683631 224.87993768 275.10105778 224.14770508 276.67578125 C223.05859701 279.01737041 221.968647 281.35852252 220.8742218 283.69763184 C217.6383292 290.61755048 214.52403689 297.58929717 211.5 304.60449219 C208.60013834 311.1796908 208.60013834 311.1796908 205.84765625 313.203125 C202.98632813 313.68408203 202.98632813 313.68408203 199.31640625 313.8359375 C198.62389771 313.86793243 197.93138916 313.89992737 197.21789551 313.93289185 C194.76153024 314.04007546 192.30504132 314.12275068 189.84765625 314.203125 C187.89973874 314.27308849 185.95182212 314.34307678 184.00390625 314.41308594 C178.35169896 314.60926808 172.69899124 314.7866435 167.04611206 314.96221924 C142.543389 315.73010912 118.08443158 316.83657826 93.609375 318.23779297 C92.48112808 318.30178284 91.35288116 318.36577271 90.19044495 318.43170166 C88.10154019 318.55081288 86.01276943 318.67231143 83.92417908 318.79681396 C81.23250786 318.95127205 78.54106146 319.08311087 75.84765625 319.203125 C74.99599884 319.24975281 74.14434143 319.29638062 73.26687622 319.34442139 C72.4666806 319.37175354 71.66648499 319.39908569 70.84204102 319.42724609 C70.14160172 319.45676361 69.44116241 319.48628113 68.71949768 319.51669312 C66.23168258 319.099938 65.37733539 318.16753083 63.84765625 316.203125 C62.76281053 310.13394964 65.7582255 304.50740057 67.95703125 298.9765625 C68.39075043 297.8618306 68.8244696 296.74709869 69.27133179 295.59858704 C70.45662056 292.5569725 71.6506367 289.51896005 72.84830475 286.48220444 C74.11213743 283.27084392 75.36409229 280.05486337 76.61669922 276.83911133 C78.4247654 272.19960109 80.23571882 267.56124163 82.0506115 262.92439747 C86.33109772 251.98612348 90.54958925 241.02428318 94.75723267 230.05780029 C96.78620721 224.77065749 98.81917608 219.48505072 100.8515625 214.19921875 C101.6694362 212.07145283 102.48730727 209.94368589 103.30517578 207.81591797 C106.01438134 200.7686018 108.72587614 193.7221672 111.4375 186.67578125 C112.8161596 183.09283116 114.19479493 179.50987174 115.57342529 175.9269104 C116.45535711 173.63501923 117.33739423 171.34316858 118.21954346 169.05136108 C119.44094275 165.87810976 120.66192177 162.70469702 121.8828125 159.53125 C122.42046486 158.13490074 122.42046486 158.13490074 122.96897888 156.71034241 C124.95360618 151.55040649 126.9142561 146.38248122 128.84765625 141.203125 C128.23277344 141.09355469 127.61789062 140.98398438 126.984375 140.87109375 C126.17613281 140.71253906 125.36789062 140.55398437 124.53515625 140.390625 C123.73464844 140.23980469 122.93414062 140.08898437 122.109375 139.93359375 C119.44164289 139.0719946 118.32538732 138.60885101 116.84765625 136.203125 C117.2785625 131.16918066 118.53543751 126.87265623 120.3515625 122.17578125 C120.59430405 121.54200058 120.83704559 120.90821991 121.08714294 120.25523376 C121.854652 118.25598639 122.6321947 116.260825 123.41015625 114.265625 C123.93621868 112.90064935 124.46161564 111.53541703 124.98632812 110.16992188 C126.26576401 106.8446565 127.55422097 103.52297398 128.84765625 100.203125 C128.40832764 100.90074951 127.96899902 101.59837402 127.51635742 102.31713867 C109.98863261 130.02590627 88.65563952 155.95636778 61.84765625 175.203125 C60.74855881 176.02933628 59.65092422 176.8574968 58.5546875 177.6875 C46.49150872 186.70255015 33.3405526 194.0584077 19.91015625 200.828125 C18.92619873 201.3243335 18.92619873 201.3243335 17.92236328 201.83056641 C14.94452698 203.29632448 12.12404947 204.59547312 8.84765625 205.203125 C9.48703125 205.8425 10.12640625 206.481875 10.78515625 207.140625 C11.24277344 207.60339844 11.70039063 208.06617188 12.171875 208.54296875 C13.38352083 209.74331718 14.6184859 210.92027986 15.8671875 212.08203125 C37.76056446 232.90182755 46.79385527 262.66270384 47.84765625 292.203125 C47.91866637 295.14073775 47.95636724 298.07721516 47.97265625 301.015625 C47.97978638 302.05589844 47.97978638 302.05589844 47.98706055 303.1171875 C47.9467364 315.61468529 47.9467364 315.61468529 45.69506836 318.86889648 C43.04525549 320.78263077 40.86111013 320.87285477 37.609375 321.2265625 C36.93017502 321.3019223 36.25097504 321.3772821 35.55119324 321.45492554 C23.31235909 322.7542368 11.03059968 323.67204186 -1.23681641 324.65826416 C-4.06158668 324.88641994 -6.88601275 325.11868842 -9.71044445 325.3509922 C-13.10105746 325.62940494 -16.49193818 325.90447499 -19.8828125 326.1796875 C-21.14111374 326.28278229 -22.39941498 326.38587708 -23.69584656 326.49209595 C-25.44971428 326.63256851 -25.44971428 326.63256851 -27.23901367 326.77587891 C-28.77545784 326.90006699 -28.77545784 326.90006699 -30.34294128 327.02676392 C-37.71279521 327.48940871 -37.71279521 327.48940871 -39.92797852 326.04663086 C-41.58908573 323.54553005 -41.61311054 321.69971355 -41.7421875 318.70703125 C-41.83149536 317.04764526 -41.83149536 317.04764526 -41.92260742 315.35473633 C-41.97779541 314.17032959 -42.0329834 312.98592285 -42.08984375 311.765625 C-43.32856437 291.74827156 -45.50751716 266.88147581 -61.15234375 252.203125 C-66.17844323 248.45165593 -71.27134927 245.40053629 -77.15234375 243.203125 C-80.25597657 249.21337629 -82.9264365 255.30892756 -85.4609375 261.578125 C-85.86437881 262.56895584 -86.26782013 263.55978668 -86.68348694 264.5806427 C-87.5439729 266.69517021 -88.40302153 268.81028312 -89.26074219 270.92593384 C-90.59983734 274.22776637 -91.94386618 277.52755321 -93.2890625 280.8269043 C-97.30087085 290.67410725 -101.2925909 300.52847418 -105.21875 310.41015625 C-106.09316269 312.60071114 -106.96823867 314.79099979 -107.84353638 316.98120117 C-108.6345303 318.97081815 -109.41401761 320.96468551 -110.19311523 322.95898438 C-110.66434814 324.13912109 -111.13558105 325.31925781 -111.62109375 326.53515625 C-112.01748047 327.54296143 -112.41386719 328.5507666 -112.82226562 329.58911133 C-114.34464854 332.58106322 -115.42505884 334.21939085 -118.15234375 336.203125 C-121.10558487 336.86169201 -123.79140657 337.29050192 -126.78125 337.58203125 C-127.63545029 337.67937561 -128.48965057 337.77671997 -129.36973572 337.87701416 C-132.14988489 338.18986243 -134.93197714 338.47804742 -137.71484375 338.765625 C-139.62647013 338.97528001 -141.53792896 339.18646828 -143.44921875 339.39916992 C-147.25186385 339.81995591 -151.05533629 340.23135917 -154.85986328 340.63476562 C-159.43900617 341.12228206 -164.01311396 341.64424022 -168.5859375 342.1875 C-170.94139175 342.46366533 -173.29685926 342.73971768 -175.65234375 343.015625 C-177.21190796 343.20137085 -177.21190796 343.20137085 -178.80297852 343.39086914 C-195.74152399 345.30040736 -195.74152399 345.30040736 -198.90014648 342.84375 C-200.15234375 341.203125 -200.15234375 341.203125 -200.65625 338.69140625 C-199.89254933 333.40470319 -197.48937247 329.12434316 -195.08984375 324.390625 C-193.97335265 322.12788307 -192.86023501 319.86347434 -191.75 317.59765625 C-191.4569397 317.00142456 -191.16387939 316.40519287 -190.86193848 315.79089355 C-187.43343196 308.78841183 -184.23240253 301.68487448 -181.02734375 294.578125 C-179.75239282 291.75731838 -178.47609068 288.93712503 -177.19921875 286.1171875 C-176.87322189 285.39706985 -176.54722504 284.67695221 -176.21134949 283.93501282 C-172.27665516 275.25443899 -168.27704336 266.60388735 -164.27734375 257.953125 C-162.74859619 254.64588035 -161.21995575 251.3385862 -159.69140625 248.03125 C-159.31297577 247.21250397 -158.93454529 246.39375793 -158.54464722 245.55020142 C-154.56668399 236.9408717 -150.60889794 228.32230877 -146.65234375 219.703125 C-133.55272708 191.17206069 -120.38730919 162.67165249 -107.15234375 134.203125 C-98.79247343 116.21528581 -90.45526421 98.21731513 -82.15234375 80.203125 C-83.03587524 80.33944336 -83.03587524 80.33944336 -83.93725586 80.47851562 C-86.6537814 80.89361797 -89.37175071 81.29841899 -92.08984375 81.703125 C-93.01603516 81.84621094 -93.94222656 81.98929687 -94.89648438 82.13671875 C-110.2212931 84.39511161 -110.2212931 84.39511161 -113.90209961 82.12304688 C-115.88501848 79.07800216 -115.50085839 76.7716119 -115.15234375 73.203125 C-114.27268603 70.51814168 -113.35145255 68.05990249 -112.22265625 65.48828125 C-111.76351082 64.40080849 -111.76351082 64.40080849 -111.29508972 63.29136658 C-110.30098724 60.9442197 -109.28962904 58.60498015 -108.27734375 56.265625 C-107.58765546 54.64957047 -106.89910401 53.03303033 -106.21166992 51.41601562 C-105.17758615 48.98501166 -104.14226122 46.55459937 -103.10166931 44.12637329 C-101.04087436 39.31558314 -99.03047044 34.48940919 -97.0703125 29.63671875 C-96.62349121 28.53513428 -96.17666992 27.4335498 -95.71630859 26.29858398 C-94.90389085 24.28909422 -94.09784296 22.27701303 -93.29931641 20.26196289 C-89.77603735 11.63581441 -89.77603735 11.63581441 -86.15234375 9.203125 C-83.40419678 8.32857657 -80.90817381 7.71157617 -78.08984375 7.203125 C-77.24784424 7.04287842 -76.40584473 6.88263184 -75.53833008 6.7175293 C-66.52532146 5.1039492 -57.43315325 4.05724176 -48.33984375 3.015625 C-47.6018454 2.93094971 -46.86384705 2.84627441 -46.10348511 2.7590332 C-30.73537848 1.0173244 -15.46749707 0.0409808 0 0 Z M3.60546875 74.71484375 C1.98729248 74.85152466 1.98729248 74.85152466 0.33642578 74.9909668 C-0.89551514 75.09598511 -0.89551514 75.09598511 -2.15234375 75.203125 C-2.47283691 75.89422363 -2.79333008 76.58532227 -3.12353516 77.29736328 C-4.38472023 80.01647294 -5.64616292 82.73546287 -6.90783691 85.4543457 C-7.48885746 86.70643967 -8.06983055 87.95855566 -8.65075684 89.21069336 C-12.02909136 96.49161076 -15.41376403 103.76946919 -18.81640625 111.0390625 C-25.37099201 125.04554062 -31.86836631 139.07248791 -38.15234375 153.203125 C-27.17717983 156.86151297 -8.53746773 145.45198325 1.09228516 140.74072266 C8.42773475 137.0552628 15.28374339 133.15599457 21.84765625 128.203125 C22.63527344 127.66816406 23.42289063 127.13320312 24.234375 126.58203125 C34.76420097 119.12712899 43.23947964 106.95994922 45.84765625 94.203125 C46.21260034 89.67781824 46.24290446 87.13734805 44.47265625 82.953125 C37.21056691 75.34522188 25.57916932 74.72661286 15.59765625 74.05078125 C11.58549315 73.97555319 7.59899073 74.37618008 3.60546875 74.71484375 Z M129.84765625 96.203125 C130.84765625 98.203125 130.84765625 98.203125 130.84765625 98.203125 Z M665.84765625 100.203125 C664.7224954 102.03596943 664.7224954 102.03596943 663.84765625 104.203125 C664.17765625 105.193125 664.50765625 106.183125 664.84765625 107.203125 C665.9728171 105.37028057 665.9728171 105.37028057 666.84765625 103.203125 C666.51765625 102.213125 666.18765625 101.223125 665.84765625 100.203125 Z M662.84765625 107.203125 C663.84765625 109.203125 663.84765625 109.203125 663.84765625 109.203125 Z M661.84765625 109.203125 C662.84765625 112.203125 662.84765625 112.203125 662.84765625 112.203125 Z M660.84765625 112.203125 C661.84765625 114.203125 661.84765625 114.203125 661.84765625 114.203125 Z M659.84765625 114.203125 C660.84765625 116.203125 660.84765625 116.203125 660.84765625 116.203125 Z M657.84765625 119.203125 C658.84765625 121.203125 658.84765625 121.203125 658.84765625 121.203125 Z M656.84765625 121.203125 C657.84765625 123.203125 657.84765625 123.203125 657.84765625 123.203125 Z M362.84765625 134.203125 C360.96781789 138.00682782 359.09837968 141.81540725 357.23852539 145.62890625 C356.60401207 146.9262057 355.96664877 148.22211517 355.32641602 149.51660156 C354.40803996 151.37469471 353.4999406 153.2375024 352.59375 155.1015625 C352.04388428 156.22224121 351.49401855 157.34291992 350.92749023 158.49755859 C350.39297241 159.83681396 350.39297241 159.83681396 349.84765625 161.203125 C350.17765625 161.863125 350.50765625 162.523125 350.84765625 163.203125 C373.11212848 158.44419485 373.11212848 158.44419485 389.96484375 144.16015625 C390.99764551 141.87062669 391.44623245 139.67572478 391.84765625 137.203125 C382.0607482 134.03510852 372.99941887 133.87836482 362.84765625 134.203125 Z M442.84765625 165.203125 C443.84765625 167.203125 443.84765625 167.203125 443.84765625 167.203125 Z M441.84765625 167.203125 C441.16775635 167.89088013 441.16775635 167.89088013 440.47412109 168.5925293 C438.39300844 170.69459631 436.30787164 172.79262808 434.22265625 174.890625 C433.50980469 175.61185547 432.79695312 176.33308594 432.0625 177.07617188 C428.14320152 181.01344879 424.18706245 184.73296893 419.84765625 188.203125 C420.67910156 189.64945313 420.67910156 189.64945313 421.52734375 191.125 C422.25917222 192.40100861 422.99093985 193.67705212 423.72265625 194.953125 C424.08746094 195.58734375 424.45226562 196.2215625 424.828125 196.875 C426.58733935 199.94562868 428.31638999 203.01164375 429.84765625 206.203125 C432.06268705 202.8805788 433.22854144 199.5464147 434.484375 195.796875 C434.72807327 195.07576538 434.97177155 194.35465576 435.22285461 193.61169434 C435.7353343 192.08941996 436.24538605 190.56632635 436.75317383 189.04248047 C437.53336216 186.70849215 438.32781868 184.37968139 439.12304688 182.05078125 C439.61937107 180.57060778 440.11484299 179.09014821 440.609375 177.609375 C440.96862312 176.56396545 440.96862312 176.56396545 441.33512878 175.49743652 C442.71220103 171.39152437 442.71220103 171.39152437 441.84765625 167.203125 Z M320.84765625 222.203125 C318.98908718 226.27501866 317.13788958 230.35015715 315.29345703 234.4284668 C314.66494178 235.81545101 314.03441958 237.20152759 313.40185547 238.58666992 C312.49307841 240.57756221 311.5915638 242.57160472 310.69140625 244.56640625 C310.14677734 245.76563721 309.60214844 246.96486816 309.04101562 248.20043945 C307.66299053 251.12925153 307.66299053 251.12925153 307.84765625 254.203125 C320.94592092 253.76136228 332.71440992 251.02650828 344.47265625 245.328125 C345.13563721 245.01286865 345.79861816 244.6976123 346.48168945 244.37280273 C351.62870844 241.7402572 355.21298925 238.472459 357.84765625 233.203125 C358.26441145 230.24523931 358.26441145 230.24523931 357.84765625 227.203125 C354.97663599 223.98758231 350.9890013 222.93649273 346.84765625 222.203125 C342.36520427 221.9642745 337.89729935 222.01447758 333.41015625 222.078125 C331.59741211 222.09166016 331.59741211 222.09166016 329.74804688 222.10546875 C326.78104347 222.12892332 323.81445482 222.16174706 320.84765625 222.203125 Z " fill="#FCFCFC" transform="translate(201.15234375,2.796875)"/>
<path d="M0 0 C35.16022455 -0.04583708 70.32044303 -0.08104944 105.4806912 -0.10213066 C109.637274 -0.10463189 113.79385674 -0.10722056 117.95043945 -0.10986328 C118.7778957 -0.1103879 119.60535195 -0.11091252 120.45788264 -0.11145304 C133.8334681 -0.12014158 147.20903626 -0.13590297 160.58461148 -0.15430559 C174.32224359 -0.17304788 188.05986667 -0.18412586 201.79751104 -0.18817699 C210.26562387 -0.19091309 218.73368779 -0.19953621 227.20178556 -0.21583293 C233.01875617 -0.22645332 238.83570171 -0.22958926 244.6526813 -0.22700275 C248.00235767 -0.22572927 251.35188078 -0.2287134 254.70155334 -0.23841095 C297.15278108 -0.35523194 297.15278108 -0.35523194 309.2421875 11 C315.02743138 17.58232193 317.14005866 24.06266379 317.1875 32.6875 C317.20167969 33.84636719 317.21585938 35.00523438 317.23046875 36.19921875 C316.74172636 44.25932624 314.43919663 51.02028122 310.9375 58.25 C310.54046875 59.07556396 310.1434375 59.90112793 309.734375 60.75170898 C300.9148576 78.62896813 287.54386765 93.8508718 271 105 C271.54527344 105.65742188 271.54527344 105.65742188 272.1015625 106.328125 C280.47788416 116.89517694 285.13818351 127.45726576 284 141 C279.86374053 164.52662235 265.62805263 185.07812152 246.4375 199 C213.22990949 222.27454144 174.63120836 228.23530773 134.75 228.1875 C133.97118469 228.18756042 133.19236938 228.18762085 132.38995361 228.18768311 C114.84956697 228.16843304 97.18204 227.82501027 80 224 C84.80283304 212.9153189 89.7527276 201.90703595 94.8125 190.9375 C95.55211996 189.33094625 96.29161887 187.72433677 97.03100586 186.11767578 C102.74249616 173.71105344 108.47165556 161.31256851 114.19961548 148.9135437 C119.81843807 136.74960303 125.40513531 124.57139333 130.9666748 112.38116455 C134.92366302 103.70884456 138.89696195 95.04432411 142.89453125 86.390625 C143.30540985 85.50117188 143.71628845 84.61171875 144.13961792 83.6953125 C146.14145129 79.36311697 148.14498318 75.03171402 150.15039062 70.70117188 C150.87760954 69.12890874 151.60482334 67.55664323 152.33203125 65.984375 C152.65943802 65.27863342 152.98684479 64.57289185 153.32417297 63.84576416 C153.78789558 62.84268219 153.78789558 62.84268219 154.26098633 61.81933594 C154.52583328 61.24761658 154.79068024 60.67589722 155.06355286 60.08685303 C156.41498153 57.07522226 157.69969159 54.03405296 159 51 C124.68 50.67 90.36 50.34 55 50 C54.34 52.97 53.68 55.94 53 59 C50.36 66.26 47.72 73.52 45 81 C69.75 81.495 69.75 81.495 95 82 C86.91862501 100.47171427 86.91862501 100.47171427 83.4140625 108.05859375 C83.02681 108.89922867 82.6395575 109.73986359 82.24057007 110.60597229 C81.43997931 112.34257867 80.6386037 114.07882346 79.83642578 115.81469727 C78.60296925 118.48519777 77.37366039 121.15758356 76.14453125 123.83007812 C75.35962071 125.53136338 74.5744738 127.23253961 73.7890625 128.93359375 C73.23915146 130.1301786 73.23915146 130.1301786 72.6781311 131.35093689 C70.11469078 136.88530922 70.11469078 136.88530922 69 138 C67.25358583 138.14603636 65.5016809 138.22736976 63.75 138.28125 C62.66589844 138.31863281 61.58179688 138.35601562 60.46484375 138.39453125 C59.32144531 138.42933594 58.17804688 138.46414062 57 138.5 C50.28938656 138.70994967 43.65811236 138.96934556 36.99267578 139.79052734 C33.970752 140.10819588 30.97325107 140.09445527 27.9375 140.0625 C26.24947266 140.04896484 26.24947266 140.04896484 24.52734375 140.03515625 C23.69332031 140.02355469 22.85929687 140.01195312 22 140 C21.60167969 141.23621094 21.20335937 142.47242188 20.79296875 143.74609375 C18.84144241 149.60067276 16.58203848 155.32530943 14.3125 161.0625 C13.89677734 162.11888672 13.48105469 163.17527344 13.05273438 164.26367188 C12.03723432 166.84327547 11.01961715 169.42202161 10 172 C10.70979004 171.91959473 11.41958008 171.83918945 12.15087891 171.75634766 C28.16748428 169.97389959 44.15554209 168.64058259 60.25 167.8125 C61.06301575 167.76998108 61.87603149 167.72746216 62.71368408 167.68365479 C71.14595764 167.24846955 79.55360935 166.88975595 88 167 C82.70535232 180.18466799 76.95179383 193.13410312 71.0625 206.0625 C70.1787649 208.00834023 69.29529981 209.95430312 68.41210938 211.90039062 C66.27783834 216.60167505 64.1399597 221.30130242 62 226 C61.01203934 226.03314301 60.02407867 226.06628601 59.00617981 226.10043335 C49.55254496 226.41824892 40.09911068 226.7415579 30.64583302 227.06982994 C25.78944544 227.23830606 20.93301312 227.40504964 16.07641602 227.56738281 C-12.90291053 228.52413042 -12.90291053 228.52413042 -41.83683777 230.36044312 C-51.89888555 231.1475428 -61.91381825 231.19841669 -72 231 C-70.69592149 224.42970437 -68.82166805 218.44771697 -66.3515625 212.23046875 C-65.98739731 211.2979126 -65.62323212 210.36535645 -65.24803162 209.40454102 C-64.45964611 207.38774521 -63.66830158 205.37210408 -62.8742981 203.35751343 C-61.1551684 198.99533257 -59.45060984 194.62749965 -57.74482727 190.26008606 C-56.84852408 187.96583312 -55.95144878 185.67188169 -55.05363464 183.3782196 C-50.34025988 171.33369143 -45.69807366 159.26213671 -41.0625 147.1875 C-40.23705808 145.0389508 -39.41153701 142.89043201 -38.5859375 140.74194336 C-37.33676879 137.49117633 -36.08765243 134.24038933 -34.83883667 130.98948669 C-31.730795 122.89915502 -28.6181214 114.81061333 -25.50390625 106.72265625 C-24.14790274 103.20017877 -22.79194866 99.67768226 -21.43600464 96.15518188 C-20.57597424 93.92135308 -19.71573165 91.68760597 -18.85525513 89.45394897 C-14.1821719 77.32274835 -9.5338443 65.18400894 -5 53 C-9.29 53 -13.58 53 -18 53 C-19.0716071 48.71357161 -18.90800751 47.94971838 -17.36938477 44.04785156 C-16.98891495 43.06713684 -16.60844513 42.08642212 -16.21644592 41.07598877 C-15.79568283 40.02481873 -15.37491974 38.97364868 -14.94140625 37.890625 C-14.51826645 36.80867859 -14.09512665 35.72673218 -13.65916443 34.61199951 C-12.30395116 31.15383143 -10.93344738 27.70195674 -9.5625 24.25 C-8.64156545 21.90795003 -7.72163087 19.56550659 -6.80273438 17.22265625 C-4.54674416 11.47715301 -2.27816717 5.73674322 0 0 Z M221 52 C219.12016164 55.80370282 217.25072343 59.61228225 215.39086914 63.42578125 C214.75635582 64.7230807 214.11899252 66.01899017 213.47875977 67.31347656 C212.56038371 69.17156971 211.65228435 71.0343774 210.74609375 72.8984375 C210.19622803 74.01911621 209.6463623 75.13979492 209.07983398 76.29443359 C208.54531616 77.63368896 208.54531616 77.63368896 208 79 C208.33 79.66 208.66 80.32 209 81 C231.26447223 76.24106985 231.26447223 76.24106985 248.1171875 61.95703125 C249.14998926 59.66750169 249.5985762 57.47259978 250 55 C240.21309195 51.83198352 231.15176262 51.67523982 221 52 Z M179 140 C177.14143093 144.07189366 175.29023333 148.14703215 173.44580078 152.2253418 C172.81728553 153.61232601 172.18676333 154.99840259 171.55419922 156.38354492 C170.64542216 158.37443721 169.74390755 160.36847972 168.84375 162.36328125 C168.29912109 163.56251221 167.75449219 164.76174316 167.19335938 165.99731445 C165.81533428 168.92612653 165.81533428 168.92612653 166 172 C179.09826467 171.55823728 190.86675367 168.82338328 202.625 163.125 C203.28798096 162.80974365 203.95096191 162.4944873 204.6340332 162.16967773 C209.78105219 159.5371322 213.365333 156.269334 216 151 C216.4167552 148.04211431 216.4167552 148.04211431 216 145 C213.12897974 141.78445731 209.14134505 140.73336773 205 140 C200.51754802 139.7611495 196.0496431 139.81135258 191.5625 139.875 C189.74975586 139.88853516 189.74975586 139.88853516 187.90039062 139.90234375 C184.93338722 139.92579832 181.96679857 139.95862206 179 140 Z " fill="#060708" transform="translate(343,85)"/>
<path d="M0 0 C2.20010485 -0.00697685 4.40014402 -0.01864 6.60022354 -0.03116226 C38.97935232 -0.19023132 81.67817673 -0.13974657 106.98386002 23.80541611 C115.40066537 33.04137526 118.77479109 43.38569961 118.37839127 55.87963486 C115.2269674 88.9881232 91.30118677 118.22791228 69.04636002 141.36791611 C68.57698013 141.85921005 68.10760025 142.350504 67.62399673 142.85668564 C61.16765605 149.58439616 54.40347552 155.64676588 47.04636002 161.36791611 C46.21056412 162.03428085 46.21056412 162.03428085 45.35788345 162.71410751 C27.30378276 177.08540831 7.33433136 187.59516948 -13.55373764 197.24560165 C-15.70605172 198.25213144 -17.83426603 199.29407946 -19.95363998 200.36791611 C-19.32457748 200.79201767 -18.69551498 201.21611923 -18.04738998 201.65307236 C4.37151475 217.01542424 16.45487104 238.03798291 22.04636002 264.36791611 C22.22731216 265.19404404 22.40826431 266.02017197 22.59469986 266.87133408 C24.36363818 275.96583162 24.27427019 284.89871813 24.17136002 294.11791611 C24.16130199 295.70124373 24.15218117 297.28457759 24.14401627 298.86791611 C24.12224496 302.70140699 24.08787387 306.53459029 24.04636002 310.36791611 C21.31667154 311.1226194 18.79147331 311.52479424 15.96432877 311.64916611 C15.19669205 311.68654892 14.42905533 311.72393173 13.63815689 311.76244736 C12.84473892 311.79725204 12.05132095 311.83205673 11.23386002 311.86791611 C5.76729212 312.11127527 0.46757476 312.58383081 -4.95363998 313.36791611 C-8.51059062 313.64611816 -12.07386518 313.80127224 -15.63723373 313.97338486 C-18.86130943 314.14245935 -21.98119958 314.37215861 -25.17629623 314.86400986 C-30.73214162 315.60517227 -36.29300115 315.7362794 -41.89113998 315.93041611 C-43.05194077 315.9735997 -44.21274155 316.01678329 -45.40871811 316.06127548 C-48.2569223 316.16676453 -51.10520527 316.26888165 -53.95363998 316.36791611 C-54.0097142 314.42465439 -54.0097142 314.42465439 -54.06692123 312.44213486 C-54.88140573 288.77272165 -57.2882823 262.78595995 -74.26613998 244.49291611 C-81.74589512 237.66140642 -90.3382 234.17654978 -99.95363998 231.36791611 C-100.06055161 232.04419052 -100.16746323 232.72046494 -100.27761459 233.41723251 C-101.09037293 236.96472161 -102.38678799 240.22571667 -103.77004623 243.57885361 C-104.05823227 244.28744019 -104.3464183 244.99602676 -104.64333725 245.72608566 C-105.59663509 248.06681072 -106.55629675 250.40486829 -107.51613998 252.74291611 C-108.18632402 254.38413329 -108.85615863 256.02549319 -109.52566147 257.66698837 C-111.29902655 262.0114774 -113.07811429 266.35360112 -114.85842514 270.69524765 C-116.31409933 274.2475502 -117.76601979 277.80138158 -119.21793747 281.35522079 C-120.98220846 285.67268816 -122.74899486 289.9891245 -124.51613998 294.30541611 C-125.01200104 295.51726578 -125.01200104 295.51726578 -125.51787949 296.75359726 C-129.57530624 306.66399397 -133.6986873 316.54050738 -137.95363998 326.36791611 C-178.66736893 331.25518784 -178.66736893 331.25518784 -195.70363998 333.18041611 C-196.77654282 333.30392441 -197.84944565 333.42743271 -198.95486069 333.55468369 C-203.64630285 334.07800275 -208.22362204 334.52075682 -212.95363998 334.36791611 C-211.30268052 328.79478776 -208.81225 323.75784159 -206.26613998 318.55541611 C-201.66936399 309.05300503 -197.24021577 299.48519046 -192.89113998 289.86791611 C-187.35617077 277.6369693 -181.77297361 265.42958084 -176.14113998 253.24291611 C-175.76620407 252.43135056 -175.39126816 251.619785 -175.00497055 250.78362656 C-171.93752022 244.14435034 -168.86759096 237.50622127 -165.79751205 230.86816025 C-163.11922544 225.07694907 -160.44207599 219.2852138 -157.76613998 213.49291611 C-157.39099258 212.68107864 -157.01584518 211.86924118 -156.62932968 211.03280258 C-151.48358061 199.89401912 -146.38800393 188.73366238 -141.32863998 177.55541611 C-135.57803817 164.85054011 -129.68200678 152.21858368 -123.72488022 139.60937119 C-119.73941502 131.1723636 -115.78885442 122.72095812 -111.89113998 114.24291611 C-104.99598479 99.24526416 -97.97404803 84.30722886 -90.95363998 69.36791611 C-98.12493034 69.12986497 -104.66908365 70.02454277 -111.70363998 71.36791611 C-113.71853314 71.74682867 -115.73414058 72.12196681 -117.75051498 72.49291611 C-118.63062241 72.66049423 -119.51072983 72.82807236 -120.41750717 73.00072861 C-122.96726217 73.36988836 -125.38122532 73.43260188 -127.95363998 73.36791611 C-127.24819456 68.60101134 -125.47662523 64.43280515 -123.63723373 60.01635361 C-123.30248535 59.20284439 -122.96773697 58.38933517 -122.6228447 57.55117416 C-121.54981825 54.94666201 -120.47050844 52.34480541 -119.39113998 49.74291611 C-118.69217477 48.04776746 -117.99360357 46.35245628 -117.29543686 44.65697861 C-115.89942876 41.26895884 -114.49374896 37.88517054 -113.08205795 34.50365829 C-111.61752365 30.99015784 -110.18967854 27.46423167 -108.78225327 23.92748642 C-108.08027067 22.19148257 -107.3782851 20.45547992 -106.67629623 18.71947861 C-106.360914 17.90884964 -106.04553177 17.09822067 -105.7205925 16.26302719 C-105.41601624 15.51727432 -105.11143997 14.77152145 -104.79763412 14.00317001 C-104.53712769 13.34732925 -104.27662125 12.69148849 -104.00822067 12.01577377 C-102.11161386 9.05219013 -99.42471319 8.47395523 -96.11745834 7.72948837 C-86.41449396 6.13810244 -76.69814057 4.68138149 -66.95363998 3.36791611 C-65.68197983 3.195504 -64.41031967 3.02309189 -63.10012436 2.84545517 C-42.13820378 0.17948907 -21.09711385 0.05626373 0 0 Z M-14.19582748 69.87963486 C-15.81400375 70.01631577 -15.81400375 70.01631577 -17.46487045 70.1557579 C-18.69681137 70.26077621 -18.69681137 70.26077621 -19.95363998 70.36791611 C-20.27413315 71.05901474 -20.59462631 71.75011337 -20.92483139 72.46215439 C-22.18601646 75.18126405 -23.44745916 77.90025398 -24.70913315 80.61913681 C-25.29015369 81.87123078 -25.87112678 83.12334677 -26.45205307 84.37548447 C-29.83038759 91.65640187 -33.21506026 98.9342603 -36.61770248 106.20385361 C-43.17228825 120.21033173 -49.66966255 134.23727902 -55.95363998 148.36791611 C-44.97847606 152.02630408 -26.33876396 140.61677436 -16.70901108 135.90551376 C-9.37356149 132.22005391 -2.51755285 128.32078568 4.04636002 123.36791611 C4.8339772 122.83295517 5.62159439 122.29799423 6.43307877 121.74682236 C16.96290474 114.2919201 25.4381834 102.12474033 28.04636002 89.36791611 C28.41130411 84.84260935 28.44160823 82.30213916 26.67136002 78.11791611 C19.40927067 70.51001299 7.77787308 69.89140397 -2.20363998 69.21557236 C-6.21580308 69.1403443 -10.20230551 69.54097119 -14.19582748 69.87963486 Z " fill="#060708" transform="translate(218.95363998413086,7.632083892822266)"/>
<path d="M0 0 C1.1586952 -0.00323886 1.1586952 -0.00323886 2.34079838 -0.00654316 C4.94115238 -0.00880027 7.54041542 0.0177805 10.140625 0.04418945 C12.01606425 0.04867947 13.89150827 0.0514514 15.76695251 0.05264282 C20.89966022 0.06129498 26.03191762 0.09547457 31.16447067 0.13479996 C36.5712633 0.17279443 41.97812826 0.19031606 47.38500977 0.2109375 C56.70877859 0.24991868 66.0323382 0.30599301 75.35595703 0.37133789 C85.68761665 0.44356688 96.01924366 0.49783769 106.35107422 0.53735352 C119.73505693 0.5886874 133.11884189 0.65669851 146.50268555 0.73745728 C151.72565638 0.76872643 156.94860842 0.79416674 162.17163086 0.81503296 C168.35161728 0.84056491 174.53133325 0.88097999 180.71115303 0.93284225 C182.9989256 0.94965877 185.28674216 0.96134511 187.57456779 0.96767044 C190.70226063 0.97718691 193.82926227 1.00499592 196.95678711 1.03759766 C197.87693604 1.03616099 198.79708496 1.03472433 199.74511719 1.03324413 C200.58344589 1.04578385 201.4217746 1.05832357 202.2855072 1.07124329 C203.01088149 1.07585225 203.73625578 1.08046122 204.48361111 1.08520985 C206.97559856 1.5879955 207.8878246 2.44526053 209.390625 4.4699707 C209.27158234 10.45819167 206.91947983 15.26746824 204.3828125 20.55981445 C203.97910431 21.42200089 203.57539612 22.28418732 203.15945435 23.17250061 C201.87021925 25.92168741 200.56849623 28.66472379 199.265625 31.4074707 C197.99089036 34.11034436 196.71884703 36.81446427 195.44805908 39.51919556 C194.61613532 41.28937935 193.78244882 43.05873583 192.94696045 44.82723999 C190.03199064 51.02026214 187.24891924 57.26055521 184.64059448 63.58934021 C182.16351184 69.44824166 182.16351184 69.44824166 179.390625 71.4699707 C176.41035461 71.83073425 176.41035461 71.83073425 172.71606445 71.81054688 C172.04263 71.81098495 171.36919556 71.81142303 170.675354 71.81187439 C168.45124231 71.80978571 166.22788612 71.78645221 164.00390625 71.76293945 C162.46120109 71.75734375 160.9184906 71.75307353 159.3757782 71.75007629 C155.31665309 71.73862541 151.25785034 71.7091564 147.19885254 71.67596436 C143.05644085 71.64526857 138.91397703 71.63157202 134.77148438 71.61645508 C126.64438336 71.5842867 118.51754429 71.53308768 110.390625 71.4699707 C110.10432472 72.35259583 110.10432472 72.35259583 109.8122406 73.25305176 C108.41921917 77.49841938 106.9834048 81.66068804 105.17578125 85.7512207 C104.74773193 86.73131104 104.31968262 87.71140137 103.87866211 88.72119141 C103.40823486 89.79328857 102.93780762 90.86538574 102.453125 91.9699707 C96.73380369 105.16875042 91.25486917 118.46100804 85.828125 131.7824707 C85.40071014 132.83157623 84.97329529 133.88068176 84.53292847 134.96157837 C77.94460006 151.14149118 71.39561254 167.33729155 64.85308838 183.5357666 C49.60673361 221.28189778 34.32973929 259.00992407 18.390625 296.4699707 C22.16141186 296.63770001 25.93226159 296.80397196 29.703125 296.9699707 C30.77498047 297.01766602 31.84683594 297.06536133 32.95117188 297.11450195 C34.49321289 297.18217773 34.49321289 297.18217773 36.06640625 297.2512207 C37.01427002 297.29311523 37.96213379 297.33500977 38.9387207 297.37817383 C40.75500724 297.4461738 42.57306598 297.4699707 44.390625 297.4699707 C44.720625 297.1399707 45.050625 296.8099707 45.390625 296.4699707 C52.44077445 295.8920896 52.44077445 295.8920896 55.625 297.8293457 C58.41369973 302.00005591 57.93065946 306.13396965 57.828125 311.0324707 C57.83521484 311.99088867 57.84230469 312.94930664 57.84960938 313.93676758 C57.78699332 320.81008429 57.78699332 320.81008429 56.32641602 323.24169922 C53.3690248 325.11818241 50.37757993 324.89797445 46.984375 324.8684082 C46.26326538 324.87127838 45.54215576 324.87414856 44.79919434 324.87710571 C43.27611505 324.87914522 41.7530095 324.87362317 40.22998047 324.86108398 C37.89881822 324.84502714 35.56938958 324.8609348 33.23828125 324.88012695 C31.75780867 324.8781445 30.27733718 324.87430078 28.796875 324.8684082 C28.0999353 324.8744809 27.40299561 324.88055359 26.68493652 324.8868103 C23.79336346 324.84479255 21.84882185 324.79275068 19.44604492 323.10009766 C17.94157758 320.77640382 18.09647529 319.01981327 18.203125 316.2824707 C18.24373047 314.93088867 18.24373047 314.93088867 18.28515625 313.55200195 C18.31996094 312.86493164 18.35476563 312.17786133 18.390625 311.4699707 C17.75125 311.1605957 17.111875 310.8512207 16.453125 310.5324707 C14.390625 309.4699707 14.390625 309.4699707 13.390625 308.4699707 C12.90851563 309.38520508 12.42640625 310.30043945 11.9296875 311.2434082 C11.29185706 312.4440302 10.65382574 313.6445455 10.015625 314.8449707 C9.69851563 315.44825195 9.38140625 316.0515332 9.0546875 316.6730957 C7.6774188 319.25547452 6.47231919 321.38827651 4.390625 323.4699707 C-3.05882888 323.94222647 -10.14073185 322.75891917 -17.484375 321.5949707 C-28.6085561 319.90077497 -39.6673378 318.78167045 -50.90185547 318.15405273 C-63.69237267 317.38697304 -63.69237267 317.38697304 -67.609375 313.4699707 C-67.66998525 305.34819665 -64.40056198 298.5650275 -61.15466309 291.29669189 C-59.78610285 288.23073279 -58.44569807 285.15270242 -57.10342407 282.07516479 C-56.38414922 280.42626751 -55.66356296 278.77794174 -54.94174194 277.13015747 C-51.18965909 268.55268283 -47.57675292 259.91862856 -43.97653198 251.27655029 C-42.08144186 246.72765065 -40.18140875 242.18081745 -38.28125 237.6340332 C-37.89827255 236.71743927 -37.5152951 235.80084534 -37.12071228 234.85647583 C-32.81119816 224.54931809 -28.46051755 214.25960635 -24.109375 203.9699707 C-17.54110475 188.43507017 -11.0070387 172.88631431 -4.50369263 157.3241272 C-0.21236103 147.05629059 4.09234714 136.79433819 8.42578125 126.54418945 C8.84701263 125.54771393 9.26824402 124.5512384 9.70223999 123.52456665 C11.7193228 118.75417672 13.73824647 113.98457604 15.75976562 109.21606445 C21.07058747 96.67461533 26.26132925 84.08671845 31.390625 71.4699707 C30.59548996 71.47663254 29.80035492 71.48329437 28.98112488 71.49015808 C21.4915604 71.55024312 14.00211261 71.59593165 6.51237011 71.62540722 C2.66170669 71.64107031 -1.18875775 71.66231993 -5.03930664 71.69628906 C-8.75458929 71.72886016 -12.46968044 71.74681887 -16.18509483 71.75460243 C-17.60330915 71.76015004 -19.02151287 71.77098314 -20.43964577 71.78716087 C-22.42425967 71.8089026 -24.40906586 71.81019583 -26.39379883 71.81054688 C-27.52409012 71.81720871 -28.65438141 71.82387054 -29.81892395 71.83073425 C-32.609375 71.4699707 -32.609375 71.4699707 -34.47157288 70.1109314 C-36.32796203 67.4336103 -36.00662641 65.68650751 -35.609375 62.4699707 C-34.57058769 59.22471958 -33.24031228 56.12833913 -31.8828125 53.00512695 C-31.49751373 52.09476181 -31.11221497 51.18439667 -30.71524048 50.2464447 C-29.48164618 47.33739918 -28.23353053 44.43486355 -26.984375 41.5324707 C-25.7633784 38.66920223 -24.54541433 35.80466104 -23.32818604 32.93978882 C-22.53464848 31.07462103 -21.73856699 29.21053341 -20.93988037 27.3475647 C-19.17315514 23.21610792 -17.436797 19.08215561 -15.82519531 14.88745117 C-15.55897369 14.19695175 -15.29275208 13.50645233 -15.01846313 12.79502869 C-14.32992452 10.98921187 -13.65576526 9.17792995 -12.98291016 7.36621094 C-9.97322391 1.01997774 -6.76769349 -0.12043959 0 0 Z " fill="#060708" transform="translate(1128.609375,19.530029296875)"/>
<path d="M0 0 C1.06367294 0.00222061 2.12734589 0.00444122 3.22325134 0.00672913 C5.02500572 0.00684242 5.02500572 0.00684242 6.86315918 0.00695801 C8.17042465 0.01211929 9.47769012 0.01728058 10.8245697 0.02259827 C12.16835477 0.02446253 13.51214052 0.02588639 14.85592651 0.02688599 C18.39873622 0.0307105 21.94150515 0.0405402 25.48429871 0.05158997 C29.09706572 0.06180552 32.7098393 0.06638392 36.32261658 0.07142639 C43.41573225 0.08216254 50.50882019 0.09923816 57.60191345 0.12025452 C56.1458272 4.58882525 54.45157363 8.83962102 52.46910095 13.09681702 C52.16040573 13.76693817 51.85171051 14.43705933 51.53366089 15.12748718 C50.86642136 16.57586675 50.1979376 18.02367365 49.52833557 19.47096252 C47.71212385 23.39954241 45.90899478 27.33411523 44.1058197 31.26869202 C43.73251022 32.08305725 43.35920074 32.89742249 42.97457886 33.73646545 C34.14155558 53.02883147 25.50875595 72.41817227 17.24726868 91.96266174 C16.45075255 93.84679554 15.6500886 95.72917423 14.84922791 97.61146545 C9.62701452 110.07989894 5.44826486 122.71809746 2.28941345 135.87025452 C2.02580017 136.90279358 1.76218689 137.93533264 1.49058533 138.99916077 C-0.40633253 146.83318516 -1.92032065 154.85799904 0.85191345 162.62025452 C2.64797424 165.18605564 3.94882501 166.49222297 6.60191345 168.12025452 C18.35060033 170.08426693 29.37611241 165.65419239 38.9495697 159.14369202 C56.49365735 145.75954268 64.42414898 126.93021577 72.60191345 107.12025452 C73.18228772 105.7187124 73.76269241 104.31718289 74.34312439 102.91566467 C77.65110126 94.9175036 80.93106457 86.90805269 84.1995697 78.89369202 C89.32974414 66.31529595 94.52405944 53.76350358 99.71714783 41.21098328 C100.09677673 40.29328156 100.47640564 39.37557983 100.86753845 38.43006897 C101.19649109 37.63502457 101.52544373 36.83998016 101.86436462 36.02084351 C106.80524773 24.06505792 111.70357965 12.09395937 116.60191345 0.12025452 C136.73191345 0.12025452 156.86191345 0.12025452 177.60191345 0.12025452 C176.73224394 4.46860209 175.49178054 8.20158511 173.82066345 12.26087952 C173.53571014 12.96277405 173.25075684 13.66466858 172.95716858 14.38783264 C172.00992322 16.71717131 171.05607114 19.04373963 170.10191345 21.37025452 C169.42638341 23.0260823 168.75109532 24.6820088 168.07603455 26.33802795 C161.40921627 42.67030008 154.64665093 58.96309929 147.86769104 75.24906921 C145.26956844 81.49750242 142.69732257 87.75625609 140.13316345 94.01869202 C119.79956304 143.62525153 96.60299228 195.6586809 44.4808197 218.65541077 C20.21841391 228.23750943 -10.42763492 230.65338144 -34.9019928 220.69447327 C-40.25431794 218.20187419 -44.57735696 215.70513002 -48.39808655 211.12025452 C-48.94851624 210.58142639 -49.49894592 210.04259827 -50.0660553 209.48744202 C-60.69026956 198.65935158 -61.70344186 184.65065046 -61.71278381 170.30970764 C-61.09171671 118.59576548 -33.89399176 66.26027754 -12.38600159 20.23518372 C-11.69113751 18.74761822 -10.99747979 17.25948892 -10.30470276 15.77095032 C-9.20014254 13.39800732 -8.09251003 11.02652205 -6.98402405 8.65541077 C-6.64029755 7.91641037 -6.29657104 7.17740997 -5.94242859 6.41601562 C-3.00425092 0.15065125 -3.00425092 0.15065125 0 0 Z " fill="#070708" transform="translate(690.3980865478516,84.87974548339844)"/>
<path d="M0 0 C0.6687616 -0.00540298 1.33752319 -0.01080597 2.02655029 -0.01637268 C4.23096346 -0.02885207 6.43406861 -0.01237806 8.63842773 0.00561523 C10.17252165 0.00546024 11.70661597 0.00397126 13.2407074 0.00120544 C16.45280304 -0.00017812 19.66445191 0.01237315 22.87646484 0.03515625 C26.99484767 0.06356521 31.1124896 0.06079675 35.23092747 0.04806614 C38.3973779 0.04111404 41.56365684 0.04889236 44.73008537 0.06132317 C46.24874146 0.06584059 47.76741593 0.06617192 49.28607368 0.06225777 C51.40724621 0.0593494 53.52739439 0.07583159 55.6484375 0.09765625 C56.85548843 0.10305923 58.06253937 0.10846222 59.3061676 0.11402893 C62.25952148 0.50170898 62.25952148 0.50170898 64.17980957 1.82829285 C65.25952148 3.50170898 65.25952148 3.50170898 65.14599609 6.68041992 C64.16595981 10.90502137 62.77574838 14.66564088 61.07592773 18.64233398 C60.74936188 19.4245784 60.42279602 20.20682281 60.08633423 21.01277161 C59.00587636 23.59569922 57.91395488 26.17361416 56.82202148 28.75170898 C56.05147698 30.58789358 55.28171653 32.42440738 54.51269531 34.26123047 C52.90500909 38.09764001 51.2927121 41.93206138 49.67651367 45.76489258 C47.38487135 51.2005857 45.10511944 56.64118318 42.82983398 62.08374023 C42.10125137 63.82625927 41.37265434 65.56877228 40.64404297 67.3112793 C40.28269257 68.17547485 39.92134216 69.03967041 39.54904175 69.93005371 C38.0577148 73.49476742 36.56397611 77.05846861 35.07035828 80.6222229 C29.78208763 93.24123598 24.51877301 105.87057926 19.25952148 118.50170898 C12.94236268 133.67149222 6.61843233 148.83841248 0.27636719 163.99780273 C-0.52172216 165.90558088 -1.31957662 167.81345731 -2.1171875 169.72143555 C-3.21355771 172.34380631 -4.31084903 174.96578953 -5.40844727 177.58764648 C-5.73346725 178.36538422 -6.05848724 179.14312195 -6.39335632 179.94442749 C-8.62573705 185.27222606 -8.62573705 185.27222606 -9.74047852 187.50170898 C-8.23819702 187.6520459 -8.23819702 187.6520459 -6.70556641 187.80541992 C-2.90031455 188.18928595 0.90325587 188.58813808 4.70654297 188.9909668 C6.33601888 189.16156578 7.96589604 189.32838519 9.59619141 189.4909668 C18.38995072 190.37061422 27.06677507 191.47291877 35.70092773 193.39233398 C36.40450912 193.54071716 37.10809052 193.68910034 37.83299255 193.84197998 C42.00713438 194.835895 44.91172109 195.80688697 47.25952148 199.50170898 C47.24654704 205.6318951 44.66958668 211.06923833 42.36499023 216.66967773 C41.78204948 218.10552971 41.78204948 218.10552971 41.18733215 219.57038879 C40.36667931 221.58485487 39.54194688 223.59766327 38.71337891 225.60888672 C37.4490027 228.68438983 36.20416795 231.76731471 34.96069336 234.85131836 C34.15912791 236.81208308 33.35643178 238.77238604 32.55249023 240.73217773 C32.1825444 241.6520195 31.81259857 242.57186127 31.43144226 243.51957703 C27.83276506 252.17245917 27.83276506 252.17245917 24.25952148 254.50170898 C21.44018555 254.75488281 21.44018555 254.75488281 18.02514648 254.39624023 C17.38031311 254.33523636 16.73547974 254.27423248 16.07110596 254.21138 C14.60963662 254.07083788 13.14909615 253.92041256 11.68945312 253.76202393 C9.09161466 253.48372138 6.49209212 253.23859601 3.89038086 252.99926758 C-1.28004396 252.52084313 -6.44824548 252.02160772 -11.61627197 251.51800537 C-27.2182774 249.99768261 -42.81627347 248.52749466 -58.45141602 247.38842773 C-59.62889404 247.30165268 -60.80637207 247.21487762 -62.01953125 247.12547302 C-67.68877686 246.70976089 -73.35851879 246.3103376 -79.03051758 245.93408203 C-81.07189274 245.78782748 -83.1132358 245.64112397 -85.15454102 245.49389648 C-86.08640228 245.43775681 -87.01826355 245.38161713 -87.97836304 245.32377625 C-88.83008087 245.25987198 -89.68179871 245.19596771 -90.55932617 245.13012695 C-91.298815 245.08081024 -92.03830383 245.03149353 -92.80020142 244.98068237 C-95.26171249 244.37303808 -96.21208884 243.50344288 -97.74047852 241.50170898 C-98.51113897 235.40796952 -96.64222955 230.64449815 -94.47094727 225.07592773 C-94.12354996 224.15758652 -93.77615265 223.2392453 -93.41822815 222.29307556 C-92.26565681 219.25420194 -91.09683596 216.22185159 -89.92797852 213.18920898 C-89.10626861 211.03190211 -88.28565062 208.87417905 -87.46606445 206.71606445 C-85.7537141 202.21267871 -84.03478601 197.71188821 -82.31030273 193.21313477 C-79.88951506 186.89641146 -77.485715 180.57336566 -75.08813477 174.24780273 C-71.96861998 166.02044746 -68.84357276 157.79522687 -65.71313477 149.57202148 C-60.44040922 135.71942373 -55.18339966 121.86087924 -49.92797852 108.00170898 C-49.01164236 105.58536595 -48.09530121 103.1690248 -47.17895508 100.75268555 C-45.79092223 97.09253771 -44.40289762 93.43238675 -43.0149231 89.7722168 C-39.8203704 81.34827876 -36.62457367 72.92481346 -33.42812538 64.50159454 C-31.92507667 60.5407018 -30.42219274 56.57974653 -28.91930294 52.61879349 C-27.72519959 49.47171357 -26.53095626 46.32468695 -25.33651733 43.17773438 C-24.44003131 40.81575641 -23.54380826 38.45367861 -22.64787292 36.0914917 C-21.80677301 33.87536662 -20.96437968 31.65973192 -20.12055969 29.44464111 C-18.35133529 24.79332193 -16.59835699 20.13973308 -14.92797852 15.4519043 C-14.65904785 14.7052652 -14.39011719 13.9586261 -14.11303711 13.18936157 C-13.43040773 11.28445888 -12.76054628 9.37499309 -12.09204102 7.46508789 C-9.31604917 1.37856531 -6.61357125 0.00090986 0 0 Z " fill="#060708" transform="translate(1024.740478515625,79.498291015625)"/>
<path d="M0 0 C39.93 0 79.86 0 121 0 C114.33333333 15.33333333 107.66666667 30.66666667 101 46 C90.11 46 79.22 46 68 46 C67.01 48.97 66.02 51.94 65 55 C64.43860757 56.50758443 63.8634242 58.01029603 63.26098633 59.50195312 C62.95185806 60.27147812 62.6427298 61.04100311 62.32423401 61.83384705 C61.83309364 63.04531151 61.83309364 63.04531151 61.33203125 64.28125 C60.98031357 65.15564224 60.62859589 66.03003448 60.26622009 66.93092346 C59.5105769 68.80943359 58.7538789 70.68751971 57.99621582 72.56521606 C55.96053124 77.61228421 53.9349011 82.66337871 51.91015625 87.71484375 C51.4971225 88.74524277 51.08408875 89.77564178 50.65853882 90.83726501 C46.63395202 100.89093224 42.67878639 110.97106677 38.75 121.0625 C38.4264856 121.89323029 38.10297119 122.72396057 37.76965332 123.5798645 C35.50962803 129.38522848 33.2542843 135.19240482 31 141 C30.32115552 142.74838374 29.64228148 144.496756 28.96337891 146.24511719 C28.62579559 147.11449417 28.28821228 147.98387115 27.94039917 148.8795929 C26.62705372 152.2613972 25.31319703 155.64300282 23.99938965 159.02462769 C23.08227717 161.38656574 22.16652225 163.74902652 21.25097656 166.11157227 C20.69990103 167.53142489 20.148796 168.95126606 19.59765625 170.37109375 C19.34744217 171.01791107 19.09722809 171.66472839 18.83943176 172.33114624 C17.95940367 174.59596451 17.08731437 176.82537125 16 179 C17.07314453 179.03758423 17.07314453 179.03758423 18.16796875 179.07592773 C21.4454547 179.19279152 24.72271616 179.31510423 28 179.4375 C29.12535156 179.47681641 30.25070312 179.51613281 31.41015625 179.55664062 C37.33161908 179.78172547 43.13522862 180.14472084 49 181 C48.39249439 186.38202359 47.12299086 191.1928397 45.3828125 196.3125 C44.99607864 197.4713269 44.99607864 197.4713269 44.60153198 198.65356445 C44.05800427 200.27813689 43.51157944 201.90174265 42.96240234 203.52441406 C42.12818671 205.99057923 41.30359968 208.45980329 40.48046875 210.9296875 C39.94848165 212.51581461 39.41594762 214.1017584 38.8828125 215.6875 C38.51701584 216.78155151 38.51701584 216.78155151 38.14382935 217.89770508 C36.62678078 222.36710448 34.91125549 226.68394246 33 231 C30.37492678 231.02740796 27.75015009 231.04703194 25.125 231.0625 C24.39796875 231.07087891 23.6709375 231.07925781 22.921875 231.08789062 C18.09638986 231.10905503 13.4072519 230.77017266 8.61230469 230.24731445 C3.93904826 229.80488373 -0.74735383 229.71045177 -5.4375 229.5625 C-13.93505333 229.25656311 -22.39885494 228.7980421 -30.875 228.125 C-44.96722478 227.00894652 -59.07550456 226.19524776 -73.1875 225.375 C-74.36173523 225.30669983 -75.53597046 225.23839966 -76.74578857 225.16802979 C-83.49703449 224.77592598 -90.24843033 224.38648848 -97 224 C-95.00080374 217.57830104 -92.561258 211.48604456 -89.76953125 205.37109375 C-89.37424728 204.49598648 -88.97896332 203.62087921 -88.57170105 202.71925354 C-87.32276427 199.95677696 -86.067747 197.1971141 -84.8125 194.4375 C-83.95857891 192.55161583 -83.10505944 190.66554976 -82.25195312 188.77929688 C-80.17334157 184.18372712 -78.08650922 179.59202181 -76 175 C-64.45 175 -52.9 175 -41 175 C-40.505 172.03 -40.505 172.03 -40 169 C-39.16674924 166.86807913 -38.25888649 164.7644996 -37.296875 162.6875 C-37.0233168 162.09048279 -36.74975861 161.49346558 -36.46791077 160.87835693 C-35.87733331 159.59082131 -35.2836488 158.30470716 -34.68716431 157.01989746 C-33.06598396 153.52572034 -31.46992753 150.02006906 -29.87109375 146.515625 C-29.54280075 145.7974762 -29.21450775 145.07932739 -28.87626648 144.3394165 C-25.76315078 137.51519637 -22.77481025 130.64110875 -19.8125 123.75 C-13.53910804 109.18189956 -7.13196272 94.67412947 -0.71020508 80.17089844 C0.06561557 78.41863003 0.84141355 76.66635158 1.6171875 74.9140625 C2.17545982 73.6531781 2.17545982 73.6531781 2.74501038 72.36682129 C6.18685082 64.58808613 9.59675647 56.79569651 13 49 C2.11 48.67 -8.78 48.34 -20 48 C-18.87498526 41.24991158 -18.87498526 41.24991158 -17.25 37.67871094 C-16.89292969 36.88478943 -16.53585937 36.09086792 -16.16796875 35.27288818 C-15.78253906 34.43517883 -15.39710938 33.59746948 -15 32.734375 C-14.60425781 31.85976624 -14.20851563 30.98515747 -13.80078125 30.08404541 C-12.54047773 27.30296653 -11.27035655 24.52649897 -10 21.75 C-9.1451916 19.86747877 -8.29101794 17.98466917 -7.4375 16.1015625 C-1.40781742 2.81563484 -1.40781742 2.81563484 0 0 Z " fill="#060708" transform="translate(882,86)"/>
<path d="M0 0 C1.1586952 -0.00323886 1.1586952 -0.00323886 2.34079838 -0.00654316 C4.94115238 -0.00880027 7.54041542 0.0177805 10.140625 0.04418945 C12.01606425 0.04867947 13.89150827 0.0514514 15.76695251 0.05264282 C20.89966022 0.06129498 26.03191762 0.09547457 31.16447067 0.13479996 C36.5712633 0.17279443 41.97812826 0.19031606 47.38500977 0.2109375 C56.70877859 0.24991868 66.0323382 0.30599301 75.35595703 0.37133789 C85.68761665 0.44356688 96.01924366 0.49783769 106.35107422 0.53735352 C119.73505693 0.5886874 133.11884189 0.65669851 146.50268555 0.73745728 C151.72565638 0.76872643 156.94860842 0.79416674 162.17163086 0.81503296 C168.35161728 0.84056491 174.53133325 0.88097999 180.71115303 0.93284225 C182.9989256 0.94965877 185.28674216 0.96134511 187.57456779 0.96767044 C190.70226063 0.97718691 193.82926227 1.00499592 196.95678711 1.03759766 C197.87693604 1.03616099 198.79708496 1.03472433 199.74511719 1.03324413 C200.58344589 1.04578385 201.4217746 1.05832357 202.2855072 1.07124329 C203.01088149 1.07585225 203.73625578 1.08046122 204.48361111 1.08520985 C206.97559856 1.5879955 207.8878246 2.44526053 209.390625 4.4699707 C209.27158234 10.45819167 206.91947983 15.26746824 204.3828125 20.55981445 C203.97910431 21.42200089 203.57539612 22.28418732 203.15945435 23.17250061 C201.87021925 25.92168741 200.56849623 28.66472379 199.265625 31.4074707 C197.99089036 34.11034436 196.71884703 36.81446427 195.44805908 39.51919556 C194.61613532 41.28937935 193.78244882 43.05873583 192.94696045 44.82723999 C190.03199064 51.02026214 187.24891924 57.26055521 184.64059448 63.58934021 C182.16351184 69.44824166 182.16351184 69.44824166 179.390625 71.4699707 C176.41035461 71.83073425 176.41035461 71.83073425 172.71606445 71.81054688 C172.04263 71.81098495 171.36919556 71.81142303 170.675354 71.81187439 C168.45124231 71.80978571 166.22788612 71.78645221 164.00390625 71.76293945 C162.46120109 71.75734375 160.9184906 71.75307353 159.3757782 71.75007629 C155.31665309 71.73862541 151.25785034 71.7091564 147.19885254 71.67596436 C143.05644085 71.64526857 138.91397703 71.63157202 134.77148438 71.61645508 C126.64438336 71.5842867 118.51754429 71.53308768 110.390625 71.4699707 C110.10432472 72.35259583 110.10432472 72.35259583 109.8122406 73.25305176 C108.41921917 77.49841938 106.9834048 81.66068804 105.17578125 85.7512207 C104.74773193 86.73131104 104.31968262 87.71140137 103.87866211 88.72119141 C103.40823486 89.79328857 102.93780762 90.86538574 102.453125 91.9699707 C96.73380369 105.16875042 91.25486917 118.46100804 85.828125 131.7824707 C85.40071014 132.83157623 84.97329529 133.88068176 84.53292847 134.96157837 C77.94460006 151.14149118 71.39561254 167.33729155 64.85308838 183.5357666 C49.60673361 221.28189778 34.32973929 259.00992407 18.390625 296.4699707 C22.16141186 296.63770001 25.93226159 296.80397196 29.703125 296.9699707 C30.77498047 297.01766602 31.84683594 297.06536133 32.95117188 297.11450195 C34.49321289 297.18217773 34.49321289 297.18217773 36.06640625 297.2512207 C37.01427002 297.29311523 37.96213379 297.33500977 38.9387207 297.37817383 C40.75500724 297.4461738 42.57306598 297.4699707 44.390625 297.4699707 C44.720625 297.1399707 45.050625 296.8099707 45.390625 296.4699707 C52.44077445 295.8920896 52.44077445 295.8920896 55.625 297.8293457 C58.41369973 302.00005591 57.93065946 306.13396965 57.828125 311.0324707 C57.83521484 311.99088867 57.84230469 312.94930664 57.84960938 313.93676758 C57.78699332 320.81008429 57.78699332 320.81008429 56.32641602 323.24169922 C53.3690248 325.11818241 50.37757993 324.89797445 46.984375 324.8684082 C46.26326538 324.87127838 45.54215576 324.87414856 44.79919434 324.87710571 C43.27611505 324.87914522 41.7530095 324.87362317 40.22998047 324.86108398 C37.89881822 324.84502714 35.56938958 324.8609348 33.23828125 324.88012695 C31.75780867 324.8781445 30.27733718 324.87430078 28.796875 324.8684082 C28.0999353 324.8744809 27.40299561 324.88055359 26.68493652 324.8868103 C23.79336346 324.84479255 21.84882185 324.79275068 19.44604492 323.10009766 C17.94157758 320.77640382 18.09647529 319.01981327 18.203125 316.2824707 C18.24373047 314.93088867 18.24373047 314.93088867 18.28515625 313.55200195 C18.31996094 312.86493164 18.35476563 312.17786133 18.390625 311.4699707 C17.75125 311.1605957 17.111875 310.8512207 16.453125 310.5324707 C14.390625 309.4699707 14.390625 309.4699707 13.390625 308.4699707 C12.90851563 309.38520508 12.42640625 310.30043945 11.9296875 311.2434082 C11.29185706 312.4440302 10.65382574 313.6445455 10.015625 314.8449707 C9.69851563 315.44825195 9.38140625 316.0515332 9.0546875 316.6730957 C7.6774188 319.25547452 6.47231919 321.38827651 4.390625 323.4699707 C-3.05882888 323.94222647 -10.14073185 322.75891917 -17.484375 321.5949707 C-28.6085561 319.90077497 -39.6673378 318.78167045 -50.90185547 318.15405273 C-63.69237267 317.38697304 -63.69237267 317.38697304 -67.609375 313.4699707 C-67.66998525 305.34819665 -64.40056198 298.5650275 -61.15466309 291.29669189 C-59.78610285 288.23073279 -58.44569807 285.15270242 -57.10342407 282.07516479 C-56.38414922 280.42626751 -55.66356296 278.77794174 -54.94174194 277.13015747 C-51.18965909 268.55268283 -47.57675292 259.91862856 -43.97653198 251.27655029 C-42.08144186 246.72765065 -40.18140875 242.18081745 -38.28125 237.6340332 C-37.89827255 236.71743927 -37.5152951 235.80084534 -37.12071228 234.85647583 C-32.81119816 224.54931809 -28.46051755 214.25960635 -24.109375 203.9699707 C-17.54110475 188.43507017 -11.0070387 172.88631431 -4.50369263 157.3241272 C-0.21236103 147.05629059 4.09234714 136.79433819 8.42578125 126.54418945 C8.84701263 125.54771393 9.26824402 124.5512384 9.70223999 123.52456665 C11.7193228 118.75417672 13.73824647 113.98457604 15.75976562 109.21606445 C21.07058747 96.67461533 26.26132925 84.08671845 31.390625 71.4699707 C30.59548996 71.47663254 29.80035492 71.48329437 28.98112488 71.49015808 C21.4915604 71.55024312 14.00211261 71.59593165 6.51237011 71.62540722 C2.66170669 71.64107031 -1.18875775 71.66231993 -5.03930664 71.69628906 C-8.75458929 71.72886016 -12.46968044 71.74681887 -16.18509483 71.75460243 C-17.60330915 71.76015004 -19.02151287 71.77098314 -20.43964577 71.78716087 C-22.42425967 71.8089026 -24.40906586 71.81019583 -26.39379883 71.81054688 C-27.52409012 71.81720871 -28.65438141 71.82387054 -29.81892395 71.83073425 C-32.609375 71.4699707 -32.609375 71.4699707 -34.47157288 70.1109314 C-36.32796203 67.4336103 -36.00662641 65.68650751 -35.609375 62.4699707 C-34.57058769 59.22471958 -33.24031228 56.12833913 -31.8828125 53.00512695 C-31.49751373 52.09476181 -31.11221497 51.18439667 -30.71524048 50.2464447 C-29.48164618 47.33739918 -28.23353053 44.43486355 -26.984375 41.5324707 C-25.7633784 38.66920223 -24.54541433 35.80466104 -23.32818604 32.93978882 C-22.53464848 31.07462103 -21.73856699 29.21053341 -20.93988037 27.3475647 C-19.17315514 23.21610792 -17.436797 19.08215561 -15.82519531 14.88745117 C-15.55897369 14.19695175 -15.29275208 13.50645233 -15.01846313 12.79502869 C-14.32992452 10.98921187 -13.65576526 9.17792995 -12.98291016 7.36621094 C-9.97322391 1.01997774 -6.76769349 -0.12043959 0 0 Z M-6.609375 6.4699707 C-11.889375 19.3399707 -17.169375 32.2099707 -22.609375 45.4699707 C-25.249375 51.7399707 -27.889375 58.0099707 -30.609375 64.4699707 C-30.609375 65.1299707 -30.609375 65.7899707 -30.609375 66.4699707 C-7.509375 66.4699707 15.590625 66.4699707 39.390625 66.4699707 C21.76952007 108.79517373 4.04627315 151.07553541 -13.80725098 193.30322266 C-23.65084134 216.58630878 -33.47712503 239.87624453 -43.22241211 263.20068359 C-43.95033613 264.94279888 -44.67828181 266.68490512 -45.40625 268.42700195 C-45.75941788 269.27218887 -46.11258575 270.11737579 -46.47645569 270.98817444 C-48.84720979 276.65782149 -51.23230719 282.32127045 -53.625 287.98168945 C-54.54029155 290.15042877 -55.45537428 292.3192561 -56.37042236 294.48809814 C-57.2123573 296.48037017 -58.0580272 298.47102853 -58.90380859 300.46166992 C-59.39703613 301.63101074 -59.89026367 302.80035156 -60.3984375 304.00512695 C-61.04353271 305.52698608 -61.04353271 305.52698608 -61.70166016 307.07958984 C-62.72770916 309.35543827 -62.72770916 309.35543827 -62.609375 311.4699707 C-61.99980957 311.50437256 -61.39024414 311.53877441 -60.76220703 311.57421875 C-44.95830989 312.51510057 -29.45239947 314.34815733 -13.82275391 316.79296875 C-12.75999489 316.9578756 -12.75999489 316.9578756 -11.67576599 317.12611389 C-9.74497949 317.42721363 -7.81519976 317.73474921 -5.88549805 318.04272461 C-3.0714341 318.4097126 -0.44037046 318.55780028 2.390625 318.4699707 C25.94477211 269.20074555 45.22877358 217.716901 65.62112427 167.08724976 C73.26774055 148.10308298 80.95304589 129.13653131 88.765625 110.2199707 C89.14286713 109.30554199 89.52010925 108.39111328 89.90878296 107.44897461 C93.20102558 99.47394874 96.50335358 91.50500634 99.92675781 83.58520508 C100.34470612 82.61762268 100.76265442 81.65004028 101.19326782 80.65313721 C102.00192322 78.78585478 102.81394253 76.92002464 103.62973022 75.05584717 C103.99120148 74.22216614 104.35267273 73.38848511 104.72509766 72.52954102 C105.20832993 71.42367645 105.20832993 71.42367645 105.70132446 70.29547119 C106.50837541 68.4833452 106.50837541 68.4833452 106.390625 66.4699707 C129.490625 66.4699707 152.590625 66.4699707 176.390625 66.4699707 C182.98624645 53.31415626 182.98624645 53.31415626 189.328125 40.04418945 C189.94373291 38.72376396 189.94373291 38.72376396 190.57177734 37.37666321 C191.4197119 35.55524064 192.26639986 33.7332372 193.11181641 31.91064453 C194.41117913 29.11321928 195.71920692 26.31994249 197.02734375 23.52661133 C197.85729953 21.74104969 198.6867465 19.95525143 199.515625 18.16918945 C200.10138306 16.92246712 200.10138306 16.92246712 200.69897461 15.65055847 C201.05354736 14.8815773 201.40812012 14.11259613 201.7734375 13.3203125 C202.08684082 12.64687302 202.40024414 11.97343353 202.72314453 11.27958679 C203.56365566 9.32233017 203.56365566 9.32233017 203.390625 6.4699707 C134.090625 6.4699707 64.790625 6.4699707 -6.609375 6.4699707 Z " fill="#FCFBFB" transform="translate(1128.609375,19.530029296875)"/>
<path d="M0 0 C0.6687616 -0.00540298 1.33752319 -0.01080597 2.02655029 -0.01637268 C4.23096346 -0.02885207 6.43406861 -0.01237806 8.63842773 0.00561523 C10.17252165 0.00546024 11.70661597 0.00397126 13.2407074 0.00120544 C16.45280304 -0.00017812 19.66445191 0.01237315 22.87646484 0.03515625 C26.99484767 0.06356521 31.1124896 0.06079675 35.23092747 0.04806614 C38.3973779 0.04111404 41.56365684 0.04889236 44.73008537 0.06132317 C46.24874146 0.06584059 47.76741593 0.06617192 49.28607368 0.06225777 C51.40724621 0.0593494 53.52739439 0.07583159 55.6484375 0.09765625 C56.85548843 0.10305923 58.06253937 0.10846222 59.3061676 0.11402893 C62.25952148 0.50170898 62.25952148 0.50170898 64.17980957 1.82829285 C65.25952148 3.50170898 65.25952148 3.50170898 65.14599609 6.68041992 C64.16595981 10.90502137 62.77574838 14.66564088 61.07592773 18.64233398 C60.74936188 19.4245784 60.42279602 20.20682281 60.08633423 21.01277161 C59.00587636 23.59569922 57.91395488 26.17361416 56.82202148 28.75170898 C56.05147698 30.58789358 55.28171653 32.42440738 54.51269531 34.26123047 C52.90500909 38.09764001 51.2927121 41.93206138 49.67651367 45.76489258 C47.38487135 51.2005857 45.10511944 56.64118318 42.82983398 62.08374023 C42.10125137 63.82625927 41.37265434 65.56877228 40.64404297 67.3112793 C40.28269257 68.17547485 39.92134216 69.03967041 39.54904175 69.93005371 C38.0577148 73.49476742 36.56397611 77.05846861 35.07035828 80.6222229 C29.78208763 93.24123598 24.51877301 105.87057926 19.25952148 118.50170898 C12.94236268 133.67149222 6.61843233 148.83841248 0.27636719 163.99780273 C-0.52172216 165.90558088 -1.31957662 167.81345731 -2.1171875 169.72143555 C-3.21355771 172.34380631 -4.31084903 174.96578953 -5.40844727 177.58764648 C-5.73346725 178.36538422 -6.05848724 179.14312195 -6.39335632 179.94442749 C-8.62573705 185.27222606 -8.62573705 185.27222606 -9.74047852 187.50170898 C-8.23819702 187.6520459 -8.23819702 187.6520459 -6.70556641 187.80541992 C-2.90031455 188.18928595 0.90325587 188.58813808 4.70654297 188.9909668 C6.33601888 189.16156578 7.96589604 189.32838519 9.59619141 189.4909668 C18.38995072 190.37061422 27.06677507 191.47291877 35.70092773 193.39233398 C36.40450912 193.54071716 37.10809052 193.68910034 37.83299255 193.84197998 C42.00713438 194.835895 44.91172109 195.80688697 47.25952148 199.50170898 C47.24654704 205.6318951 44.66958668 211.06923833 42.36499023 216.66967773 C41.78204948 218.10552971 41.78204948 218.10552971 41.18733215 219.57038879 C40.36667931 221.58485487 39.54194688 223.59766327 38.71337891 225.60888672 C37.4490027 228.68438983 36.20416795 231.76731471 34.96069336 234.85131836 C34.15912791 236.81208308 33.35643178 238.77238604 32.55249023 240.73217773 C32.1825444 241.6520195 31.81259857 242.57186127 31.43144226 243.51957703 C27.83276506 252.17245917 27.83276506 252.17245917 24.25952148 254.50170898 C21.44018555 254.75488281 21.44018555 254.75488281 18.02514648 254.39624023 C17.38031311 254.33523636 16.73547974 254.27423248 16.07110596 254.21138 C14.60963662 254.07083788 13.14909615 253.92041256 11.68945312 253.76202393 C9.09161466 253.48372138 6.49209212 253.23859601 3.89038086 252.99926758 C-1.28004396 252.52084313 -6.44824548 252.02160772 -11.61627197 251.51800537 C-27.2182774 249.99768261 -42.81627347 248.52749466 -58.45141602 247.38842773 C-59.62889404 247.30165268 -60.80637207 247.21487762 -62.01953125 247.12547302 C-67.68877686 246.70976089 -73.35851879 246.3103376 -79.03051758 245.93408203 C-81.07189274 245.78782748 -83.1132358 245.64112397 -85.15454102 245.49389648 C-86.08640228 245.43775681 -87.01826355 245.38161713 -87.97836304 245.32377625 C-88.83008087 245.25987198 -89.68179871 245.19596771 -90.55932617 245.13012695 C-91.298815 245.08081024 -92.03830383 245.03149353 -92.80020142 244.98068237 C-95.26171249 244.37303808 -96.21208884 243.50344288 -97.74047852 241.50170898 C-98.51113897 235.40796952 -96.64222955 230.64449815 -94.47094727 225.07592773 C-94.12354996 224.15758652 -93.77615265 223.2392453 -93.41822815 222.29307556 C-92.26565681 219.25420194 -91.09683596 216.22185159 -89.92797852 213.18920898 C-89.10626861 211.03190211 -88.28565062 208.87417905 -87.46606445 206.71606445 C-85.7537141 202.21267871 -84.03478601 197.71188821 -82.31030273 193.21313477 C-79.88951506 186.89641146 -77.485715 180.57336566 -75.08813477 174.24780273 C-71.96861998 166.02044746 -68.84357276 157.79522687 -65.71313477 149.57202148 C-60.44040922 135.71942373 -55.18339966 121.86087924 -49.92797852 108.00170898 C-49.01164236 105.58536595 -48.09530121 103.1690248 -47.17895508 100.75268555 C-45.79092223 97.09253771 -44.40289762 93.43238675 -43.0149231 89.7722168 C-39.8203704 81.34827876 -36.62457367 72.92481346 -33.42812538 64.50159454 C-31.92507667 60.5407018 -30.42219274 56.57974653 -28.91930294 52.61879349 C-27.72519959 49.47171357 -26.53095626 46.32468695 -25.33651733 43.17773438 C-24.44003131 40.81575641 -23.54380826 38.45367861 -22.64787292 36.0914917 C-21.80677301 33.87536662 -20.96437968 31.65973192 -20.12055969 29.44464111 C-18.35133529 24.79332193 -16.59835699 20.13973308 -14.92797852 15.4519043 C-14.65904785 14.7052652 -14.39011719 13.9586261 -14.11303711 13.18936157 C-13.43040773 11.28445888 -12.76054628 9.37499309 -12.09204102 7.46508789 C-9.31604917 1.37856531 -6.61357125 0.00090986 0 0 Z M-4.74047852 5.50170898 C-8.03720482 13.41385211 -11.24617326 21.30804506 -14.26782227 29.32202148 C-14.89965424 30.99027481 -14.89965424 30.99027481 -15.54425049 32.69223022 C-16.68584382 35.70741089 -17.82570934 38.72323766 -18.96483994 41.73934937 C-20.17863847 44.95173248 -21.39482349 48.16321178 -22.61083984 51.37475586 C-24.38626807 56.06424658 -26.16107278 60.75397229 -27.93503094 65.44401932 C-32.46718652 77.42607289 -37.01030227 89.40396079 -41.55453491 101.38143921 C-42.93423273 105.01819451 -44.31358965 108.65507895 -45.69287109 112.29199219 C-50.40243549 124.70936216 -55.11640475 137.12504121 -59.83779907 149.53791809 C-62.93119647 157.67087292 -66.0213434 165.80505765 -69.10922241 173.94010925 C-71.47598116 180.174658 -73.84636529 186.40781426 -76.21923828 192.64003849 C-78.33829782 198.2067675 -80.45180307 203.77559649 -82.56365967 209.34506226 C-83.46786768 211.72709801 -84.37381248 214.10847526 -85.28155518 216.48916626 C-86.53678219 219.7819886 -87.78584652 223.07708481 -89.03344727 226.37280273 C-89.41054337 227.35773712 -89.78763947 228.34267151 -90.17616272 229.35745239 C-90.51602707 230.25898041 -90.85589142 231.16050842 -91.20605469 232.08935547 C-91.50404465 232.8734227 -91.80203461 233.65748993 -92.10905457 234.46531677 C-92.88855836 236.6239384 -92.88855836 236.6239384 -92.74047852 239.50170898 C-91.7813858 239.56688469 -91.7813858 239.56688469 -90.80291748 239.63337708 C-33.66989781 243.52501814 -33.66989781 243.52501814 -11.48510742 246.17700195 C5.33992655 248.18788168 5.33992655 248.18788168 22.25952148 248.50170898 C26.57539802 240.36866822 30.11923494 231.94648806 33.61816406 223.44067383 C34.57997087 221.10742455 35.55329009 218.77918892 36.52709961 216.45092773 C37.14303673 214.96033251 37.75829615 213.46945702 38.37280273 211.97827148 C38.66335037 211.28657867 38.95389801 210.59488586 39.25325012 209.88223267 C40.64322699 206.47176959 41.25952148 204.24880643 41.25952148 200.50170898 C31.50399142 197.85818846 21.79924497 196.01553686 11.75952148 194.81420898 C10.77733643 194.6952124 9.79515137 194.57621582 8.78320312 194.45361328 C-0.03766036 193.4554459 -8.87891163 192.96814196 -17.74047852 192.50170898 C-17.24346436 191.32705078 -16.7464502 190.15239258 -16.234375 188.94213867 C-6.3374208 165.5468178 3.52538289 142.13829611 13.27456665 118.68099976 C17.06965837 109.55011264 20.87438691 100.42324206 24.67828369 91.29602051 C26.79151979 86.22535181 28.9044483 81.15455495 31.01733398 76.08374023 C31.44198944 75.06460541 31.8666449 74.04547058 32.3041687 72.99545288 C35.02619027 66.46256277 37.74741219 59.92934006 40.46812439 53.39590454 C42.30934984 48.97451415 44.15083504 44.55323195 45.99234009 40.13195801 C46.87151883 38.02092819 47.75056967 35.9098451 48.62948608 33.79870605 C49.85089315 30.86493678 51.07273998 27.93135101 52.29467773 24.99780273 C52.65314789 24.13644211 53.01161804 23.27508148 53.38095093 22.38761902 C53.71736603 21.58020767 54.05378113 20.77279633 54.40039062 19.94091797 C54.71452911 19.18471161 55.0286676 18.42850525 55.35232544 17.64938354 C55.94417437 16.24825433 56.54994088 14.85289928 57.1713562 13.46463013 C58.44766636 10.61125479 59.25952148 8.66968956 59.25952148 5.50170898 C38.13952148 5.50170898 17.01952148 5.50170898 -4.74047852 5.50170898 Z " fill="#FDFCFC" transform="translate(1024.740478515625,79.498291015625)"/>
<path d="M0 0 C25.23180347 0.22914857 25.23180347 0.22914857 33.66015625 7.93359375 C38.35184788 13.26859061 39.10374036 16.78964689 39.02734375 23.89453125 C37.82333576 38.19000642 27.84059415 51.48542453 17.21875 60.48486328 C-2.97167717 76.56173835 -32.92041998 92.1875 -59.25 92.1875 C-57.39127134 86.2227653 -55.19817205 80.60071203 -52.4765625 74.98046875 C-52.11637024 74.22531479 -51.75617798 73.47016083 -51.3850708 72.69212341 C-50.21966797 70.25084201 -49.04731499 67.8129685 -47.875 65.375 C-46.24254195 61.96070813 -44.61358566 58.54474862 -42.984375 55.12890625 C-42.57931732 54.28096497 -42.17425964 53.43302368 -41.75692749 52.55938721 C-38.7075211 46.16939913 -35.71026003 39.75690156 -32.74682617 33.32666016 C-31.17780213 29.92691125 -29.59202212 26.53539386 -28.00390625 23.14453125 C-26.27305618 19.43927368 -24.61287117 15.71876462 -23.02734375 11.94921875 C-18.71979289 1.98034527 -18.71979289 1.98034527 -15.0703125 0.01171875 C-10.16070947 -0.6563092 -4.98794917 0.14989692 0 0 Z M-8.4921875 5.69921875 C-10.11036377 5.83589966 -10.11036377 5.83589966 -11.76123047 5.9753418 C-12.99317139 6.08036011 -12.99317139 6.08036011 -14.25 6.1875 C-14.57049316 6.87859863 -14.89098633 7.56969727 -15.22119141 8.28173828 C-16.48237648 11.00084794 -17.74381917 13.71983787 -19.00549316 16.4387207 C-19.58651371 17.69081467 -20.1674868 18.94293066 -20.74841309 20.19506836 C-24.12674761 27.47598576 -27.51142028 34.75384419 -30.9140625 42.0234375 C-37.46864826 56.02991562 -43.96602256 70.05686291 -50.25 84.1875 C-39.27483608 87.84588797 -20.63512398 76.43635825 -11.00537109 71.72509766 C-3.6699215 68.0396378 3.18608714 64.14036957 9.75 59.1875 C10.53761719 58.65253906 11.32523438 58.11757812 12.13671875 57.56640625 C22.66654472 50.11150399 31.14182339 37.94432422 33.75 25.1875 C34.11494409 20.66219324 34.14524821 18.12172305 32.375 13.9375 C25.11291066 6.32959688 13.48151307 5.71098786 3.5 5.03515625 C-0.5121631 4.95992819 -4.49866552 5.36055508 -8.4921875 5.69921875 Z " fill="#FCFCFC" transform="translate(213.25,71.8125)"/>
<path d="M0 0 C21.76117722 -0.47791118 21.76117722 -0.47791118 30.1640625 5.58203125 C31.55078125 6.92578125 31.55078125 6.92578125 33.30078125 9.23828125 C33.79578125 9.73328125 33.79578125 9.73328125 34.30078125 10.23828125 C35.08574979 16.51802959 33.93563364 20.04526935 30.19140625 25.13671875 C27.01039655 28.67263449 23.45954738 30.98009773 19.30078125 33.23828125 C18.511875 33.66753906 17.72296875 34.09679687 16.91015625 34.5390625 C1.37693858 42.23419948 -13.5639733 43.99872114 -30.69921875 43.23828125 C-28.79192274 38.50584371 -26.84135101 33.79337889 -24.87207031 29.08642578 C-23.57189286 25.92908394 -22.32138565 22.75368568 -21.06640625 19.578125 C-20.13297496 17.2975771 -19.19808487 15.01762572 -18.26171875 12.73828125 C-17.83205811 11.62203369 -17.40239746 10.50578613 -16.9597168 9.35571289 C-15.7293698 6.41886573 -14.553499 3.82710446 -12.69921875 1.23828125 C-8.35130649 -0.15504763 -4.51559598 0.25682423 0 0 Z M-8.69921875 6.23828125 C-10.55778782 10.31017491 -12.40898542 14.3853134 -14.25341797 18.46362305 C-14.88193322 19.85060726 -15.51245542 21.23668384 -16.14501953 22.62182617 C-17.05379659 24.61271846 -17.9553112 26.60676097 -18.85546875 28.6015625 C-19.40009766 29.80079346 -19.94472656 31.00002441 -20.50585938 32.2355957 C-21.88388447 35.16440778 -21.88388447 35.16440778 -21.69921875 38.23828125 C-8.60095408 37.79651853 3.16753492 35.06166453 14.92578125 29.36328125 C15.58876221 29.0480249 16.25174316 28.73276855 16.93481445 28.40795898 C22.08183344 25.77541345 25.66611425 22.50761525 28.30078125 17.23828125 C28.71753645 14.28039556 28.71753645 14.28039556 28.30078125 11.23828125 C25.42976099 8.02273856 21.4421263 6.97164898 17.30078125 6.23828125 C12.81832927 5.99943075 8.35042435 6.04963383 3.86328125 6.11328125 C2.05053711 6.12681641 2.05053711 6.12681641 0.20117188 6.140625 C-2.76583153 6.16407957 -5.73242018 6.19690331 -8.69921875 6.23828125 Z " fill="#F9F9F9" transform="translate(530.69921875,218.76171875)"/>
<path d="M0 0 C0.93884033 0.01345459 1.87768066 0.02690918 2.8449707 0.04077148 C4.40054688 0.05140625 4.40054688 0.05140625 5.98754883 0.06225586 C7.07100586 0.09512695 8.15446289 0.12799805 9.27075195 0.16186523 C10.33487305 0.16766602 11.39899414 0.1734668 12.49536133 0.17944336 C20.1239335 0.29724095 28.41253727 0.55059868 34.58325195 5.59936523 C35.86000433 9.54326 35.52771988 11.73130756 33.70825195 15.41186523 C27.65536873 26.57238691 16.83228302 32.44579232 5.01293945 36.04467773 C-3.72861873 38.53977144 -12.28479641 40.3988633 -21.41674805 40.59936523 C-20.03024078 36.14812466 -18.29336925 32.04104035 -16.2644043 27.84545898 C-15.81320473 26.91045311 -15.81320473 26.91045311 -15.35289001 25.95655823 C-14.72007791 24.64727732 -14.08549338 23.33885172 -13.44921875 22.03125 C-12.48133886 20.04116422 -11.51992181 18.04805367 -10.55932617 16.05444336 C-7.10939873 8.9278906 -7.10939873 8.9278906 -5.41674805 5.59936523 C-4.96251465 4.64932617 -4.50828125 3.69928711 -4.0402832 2.72045898 C-2.41674805 0.59936523 -2.41674805 0.59936523 0 0 Z M0.58325195 5.59936523 C-1.29658641 9.40306806 -3.16602461 13.21164748 -5.02587891 17.02514648 C-5.66039223 18.32244593 -6.29775553 19.6183554 -6.93798828 20.9128418 C-7.85636434 22.77093494 -8.7644637 24.63374263 -9.6706543 26.49780273 C-10.22052002 27.61848145 -10.77038574 28.73916016 -11.33691406 29.89379883 C-11.87143188 31.2330542 -11.87143188 31.2330542 -12.41674805 32.59936523 C-12.08674805 33.25936523 -11.75674805 33.91936523 -11.41674805 34.59936523 C10.84772418 29.84043508 10.84772418 29.84043508 27.70043945 15.55639648 C28.73324121 13.26686692 29.18182815 11.07196502 29.58325195 8.59936523 C19.7963439 5.43134875 10.73501458 5.27460506 0.58325195 5.59936523 Z " fill="#FDFDFD" transform="translate(563.416748046875,131.400634765625)"/>
<path d="M0 0 C1.65 0 3.3 0 5 0 C5.99 2.97 6.98 5.94 8 9 C8.66 9 9.32 9 10 9 C10.66 6.03 11.32 3.06 12 0 C13.98 0 15.96 0 18 0 C18 5.61 18 11.22 18 17 C16.68 17 15.36 17 14 17 C13.67 15.02 13.34 13.04 13 11 C12.01 12.98 11.02 14.96 10 17 C9.01 16.67 8.02 16.34 7 16 C5.8125 13.4375 5.8125 13.4375 5 11 C4.67 12.98 4.34 14.96 4 17 C2.68 17 1.36 17 0 17 C0 11.39 0 5.78 0 0 Z " fill="#222222" transform="translate(1163,322)"/>
<path d="M0 0 C4.62 0 9.24 0 14 0 C13.67 1.32 13.34 2.64 13 4 C11.68 4 10.36 4 9 4 C9 8.29 9 12.58 9 17 C7.68 17 6.36 17 5 17 C5 12.71 5 8.42 5 4 C3.35 4 1.7 4 0 4 C0 2.68 0 1.36 0 0 Z " fill="#252525" transform="translate(1147,322)"/>
<path d="M0 0 C1.98 0 3.96 0 6 0 C6 5.28 6 10.56 6 16 C5.01 16 4.02 16 3 16 C3 13.03 3 10.06 3 7 C1.68 7.33 0.36 7.66 -1 8 C-0.67 5.36 -0.34 2.72 0 0 Z " fill="#19191A" transform="translate(1175,322)"/>
</svg>
