<?xml version="1.0" encoding="UTF-8"?>
<svg version="1.1" xmlns="http://www.w3.org/2000/svg" width="1342" height="350">
<path d="M0 0 C35.16022455 -0.04583708 70.32044303 -0.08104944 105.4806912 -0.10213066 C109.637274 -0.10463189 113.79385674 -0.10722056 117.95043945 -0.10986328 C118.7778957 -0.1103879 119.60535195 -0.11091252 120.45788264 -0.11145304 C133.8334681 -0.12014158 147.20903626 -0.13590297 160.58461148 -0.15430559 C174.32224359 -0.17304788 188.05986667 -0.18412586 201.79751104 -0.18817699 C210.26562387 -0.19091309 218.73368779 -0.19953621 227.20178556 -0.21583293 C233.01875617 -0.22645332 238.83570171 -0.22958926 244.6526813 -0.22700275 C248.00235767 -0.22572927 251.35188078 -0.2287134 254.70155334 -0.23841095 C295.66207849 -0.3511297 295.66207849 -0.3511297 307.9375 9.3125 C315.90403606 19.6931379 318.16216948 28.92804867 317 42 C314.32887451 57.51699617 303.77893079 74.72779611 293 86 C292.13632812 86.92941406 291.27265625 87.85882813 290.3828125 88.81640625 C284.42938045 95.01438437 278.11838694 100.1947446 271 105 C271.54527344 105.65742188 271.54527344 105.65742188 272.1015625 106.328125 C280.47788416 116.89517694 285.13818351 127.45726576 284 141 C279.84695112 164.62211878 265.55579913 185.44716639 246.21411133 199.34863281 C242.86811478 201.66233239 239.45917298 203.85981662 236 206 C235.08976074 206.56460938 235.08976074 206.56460938 234.16113281 207.140625 C205.03925277 224.79606463 168.60281454 228.21100191 135.3125 228.25 C134.17051651 228.25250763 134.17051651 228.25250763 133.00546265 228.25506592 C120.72606788 228.25665761 108.54635692 227.66506675 96.3125 226.625 C95.54217438 226.56187622 94.77184875 226.49875244 93.97817993 226.43371582 C91.8135231 226.25215739 89.6509303 226.05552356 87.48828125 225.8515625 C85.64036987 225.67874756 85.64036987 225.67874756 83.75512695 225.50244141 C82.39133911 225.25373291 82.39133911 225.25373291 81 225 C80.67 224.34 80.34 223.68 80 223 C80.91719463 220.62709391 81.90110603 218.37686513 82.98828125 216.08203125 C83.48264679 215.01421165 83.48264679 215.01421165 83.98699951 213.92481995 C85.08822854 211.55059172 86.20044907 209.18167631 87.3125 206.8125 C88.08925738 205.14246035 88.86520474 203.47204374 89.64038086 201.80126953 C91.2675753 198.29658146 92.89882974 194.79382631 94.53320312 191.29248047 C98.02506841 183.8075867 101.48264232 176.30690155 104.94100952 168.80648804 C106.07155075 166.3553772 107.20323499 163.90479696 108.33520508 161.4543457 C113.57688253 150.10467888 118.78396622 138.73954499 123.97372437 127.36605835 C130.1199483 113.8982715 136.31753345 100.4544954 142.53515625 87.01953125 C148.07627182 75.03597263 153.53632648 63.02008174 159 51 C124.68 51 90.36 51 55 51 C54.67 52.65 54.34 54.3 54 56 C53.34446921 57.9969079 52.65266606 59.98211434 51.93359375 61.95703125 C51.57064209 62.95968018 51.20769043 63.9623291 50.83374023 64.99536133 C50.37298096 66.25501709 49.91222168 67.51467285 49.4375 68.8125 C47.973125 72.834375 46.50875 76.85625 45 81 C69.75 81.495 69.75 81.495 95 82 C91.98315239 89.24043427 88.96722485 96.41641311 85.6796875 103.52734375 C85.10167892 104.78255577 85.10167892 104.78255577 84.51199341 106.06312561 C83.70815773 107.80699833 82.90321128 109.55035947 82.09716797 111.29321289 C80.86699459 113.95482054 79.64230893 116.61890801 78.41796875 119.28320312 C77.63053584 120.98973449 76.84278681 122.69612003 76.0546875 124.40234375 C75.51084915 125.58678322 75.51084915 125.58678322 74.95602417 126.79515076 C74.28333261 128.24550715 73.59649216 129.68942378 72.89265442 131.12492371 C71.89300064 133.15506738 71.89300064 133.15506738 70.88500977 135.98339844 C68.13709109 138.92314825 65.66186434 138.67273412 61.74928284 138.81867981 C60.77112106 138.83339828 59.79295929 138.84811676 58.78515625 138.86328125 C56.71676702 138.94652719 54.64840835 139.03053509 52.58007812 139.11523438 C49.31696534 139.2202264 46.05418575 139.3126954 42.7902832 139.3894043 C39.64057236 139.47239781 36.49548015 139.60275084 33.34765625 139.73828125 C32.37151871 139.74692703 31.39538116 139.75557281 30.3896637 139.76448059 C27.70296414 139.89224187 25.52662834 140.07404513 23 141 C20.89050398 143.42167737 19.97331467 145.97008639 19 149 C18.57750977 149.99644531 18.15501953 150.99289063 17.71972656 152.01953125 C17.36362305 152.94121094 17.00751953 153.86289063 16.640625 154.8125 C16.24746094 155.82441406 15.85429687 156.83632812 15.44921875 157.87890625 C15.05347656 158.90886719 14.65773438 159.93882812 14.25 161 C13.83878906 162.06089844 13.42757812 163.12179688 13.00390625 164.21484375 C11.99912747 166.80857502 10.99791841 169.40362329 10 172 C10.99 171.67 11.98 171.34 13 171 C15.37416383 170.76777751 17.75326322 170.58509802 20.13354492 170.42749023 C20.85574722 170.37857635 21.57794952 170.32966248 22.32203674 170.27926636 C24.70794579 170.1186115 27.09418544 169.96358169 29.48046875 169.80859375 C31.13530244 169.69826775 32.79011279 169.58759114 34.44490051 169.47657776 C38.79956741 169.18538716 43.15453538 168.89896501 47.50958252 168.61352539 C51.95384513 168.32139426 56.39780738 168.02476742 60.84179688 167.72851562 C69.56090981 167.14793637 78.28034584 166.57239292 87 166 C87.33 166.66 87.66 167.32 88 168 C87.06168373 170.49579493 86.05607791 172.87606969 84.94921875 175.296875 C84.61928421 176.0345813 84.28934967 176.7722876 83.94941711 177.53234863 C82.86959909 179.94167673 81.77870155 182.34580894 80.6875 184.75 C79.94921678 186.39130799 79.21158733 188.0329102 78.47460938 189.67480469 C76.6577635 193.71714778 74.83178482 197.75527371 73.00140381 201.79150391 C72.08512754 203.81225971 71.17033782 205.83367815 70.25634766 207.85546875 C67.51814506 213.91006358 64.76774904 219.95885545 62 226 C49.17031093 226.93505543 36.33723856 227.35629433 23.48162842 227.75909424 C0.26677555 228.49243875 -22.92824624 229.45810584 -46.125 230.625 C-46.8058453 230.65922813 -47.4866906 230.69345627 -48.18816757 230.72872162 C-56.45916006 231.1451011 -64.72977547 231.5686297 -73 232 C-71.07175802 225.23396115 -68.83029254 218.67750437 -66.25390625 212.1328125 C-65.70978088 210.73610069 -65.70978088 210.73610069 -65.15466309 209.31117249 C-64.37105874 207.30082366 -63.58573705 205.29114354 -62.79885864 203.28207397 C-60.64964648 197.79400476 -58.51361728 192.30079813 -56.375 186.80859375 C-55.93043961 185.66806046 -55.48587921 184.52752716 -55.02784729 183.35243225 C-50.33629106 171.31144721 -45.69608483 159.25088736 -41.0625 147.1875 C-40.23692197 145.03889045 -39.41131969 142.89029021 -38.58569336 140.74169922 C-37.33662219 137.49101441 -36.08761944 134.24030342 -34.83885193 130.98950195 C-31.73078772 122.8991719 -28.61812376 114.81061947 -25.50390625 106.72265625 C-24.14790274 103.20017877 -22.79194866 99.67768226 -21.43600464 96.15518188 C-20.57597424 93.92135308 -19.71573165 91.68760597 -18.85525513 89.45394897 C-14.1821719 77.32274835 -9.5338443 65.18400894 -5 53 C-5.97791504 53.0191748 -6.95583008 53.03834961 -7.96337891 53.05810547 C-14.9609375 53.1953125 -14.9609375 53.1953125 -18 53 C-18.66 52.34 -19.32 51.68 -20 51 C-17.47341108 44.54034167 -14.94652505 38.08079963 -12.41943359 31.62133789 C-11.55999031 29.4244245 -10.70061475 27.22748461 -9.84130859 25.03051758 C-8.60532194 21.87053552 -7.36909085 18.71064919 -6.1328125 15.55078125 C-5.74940704 14.57039383 -5.36600159 13.59000641 -4.97097778 12.57991028 C-4.61075531 11.65933334 -4.25053284 10.73875641 -3.87939453 9.7902832 C-3.56406769 8.9842012 -3.24874084 8.1781192 -2.92385864 7.34761047 C-1.95853419 4.89463154 -0.97986716 2.44720046 0 0 Z M218 47 C212.76377642 56.76189489 207.63444253 66.55772097 202.875 76.5625 C202.48513916 77.3769458 202.09527832 78.1913916 201.69360352 79.03051758 C201.33838623 79.78486084 200.98316895 80.5392041 200.6171875 81.31640625 C200.30378418 81.98099854 199.99038086 82.64559082 199.66748047 83.33032227 C198.87626553 85.00982504 198.87626553 85.00982504 199 87 C215.78844112 86.63139151 234.69425564 82.00396612 247.59765625 70.73046875 C252.03680765 66.00128205 256 60.98431478 256 54.25 C254.55990094 51.00977712 253.27103623 50.40187267 250 49 C242.7786209 47.04935371 235.81779371 46.74581933 228.375 46.875 C227.37082031 46.88402344 226.36664062 46.89304688 225.33203125 46.90234375 C222.88775874 46.92562254 220.44401592 46.95831513 218 47 Z M175.51269531 136.14135742 C173.46013771 138.6633266 172.32163594 141.3129367 171.00390625 144.28515625 C170.7290892 144.90087997 170.45427216 145.5166037 170.17112732 146.15098572 C169.59060016 147.45494077 169.01336533 148.76036591 168.43920898 150.06713867 C167.57495197 152.03415971 166.70158348 153.99690603 165.82617188 155.95898438 C162.73442131 162.91385129 159.75098674 169.90205809 157 177 C177.99454497 177.70155039 199.46505043 174.80708366 215.9375 160.4375 C220.20241432 155.39714671 221.64909971 152.01376407 221.40234375 145.37109375 C221.12257894 142.75638148 221.12257894 142.75638148 219.0625 140.0625 C210.52863378 134.31520234 184.57631223 129.18593899 175.51269531 136.14135742 Z " fill="#F7F6F5" transform="translate(343,85)"/>
<path d="M0 0 C2.20010485 -0.00697685 4.40014402 -0.01864 6.60022354 -0.03116226 C39.84909721 -0.19450419 81.37611975 0.12003616 107.42136002 24.18041611 C115.77984555 33.03561492 118.58810384 43.86398104 118.35495377 55.75463486 C116.21260215 80.83913161 101.38211429 103.23167822 86.04636002 122.36791611 C85.2767897 123.34115829 84.50721939 124.31440048 83.71432877 125.31713486 C72.06904923 139.72508086 58.69864161 153.27145938 43.69382095 164.16918564 C42.02777553 165.38143861 40.38449286 166.62051974 38.74167252 167.86400986 C25.11844271 178.03441118 10.14750783 186.07613643 -5.12112045 193.47582626 C-8.07775755 194.9151484 -11.01450765 196.39319357 -13.95363998 197.86791611 C-15.62030665 198.70124944 -17.28697332 199.53458277 -18.95363998 200.36791611 C-18.13121811 200.96217392 -17.30879623 201.55643173 -16.46145248 202.16869736 C8.07068971 220.22810547 19.18500756 244.43789572 23.71921158 274.05443954 C25.43198517 286.16656084 25.61369853 298.24866948 24.04636002 310.36791611 C8.84157187 312.57798708 -6.48389531 313.62278504 -21.79311752 314.82305527 C-25.42756489 315.10879647 -29.06167961 315.39870762 -32.69582748 315.68822861 C-39.78145152 316.25211917 -46.86742369 316.81151334 -53.95363998 317.36791611 C-54.00538879 316.60597443 -54.0571376 315.84403275 -54.11045456 315.05900192 C-54.35149644 311.55094287 -54.59978983 308.04343159 -54.84817123 304.53588486 C-54.92942245 303.33766098 -55.01067368 302.1394371 -55.09438705 300.90490341 C-56.61440506 279.68602976 -60.4011047 257.6268927 -76.88723373 242.60619736 C-83.48399256 237.33675419 -90.61141837 233.65469484 -98.95363998 232.36791611 C-99.63059174 234.01798602 -100.30754316 235.66805608 -100.98449326 237.31812668 C-101.60169577 238.82255391 -102.21890383 240.32697887 -102.83611679 241.83140182 C-104.59726101 246.12411997 -106.35830127 250.41688072 -108.11916733 254.70971298 C-111.50518689 262.96423724 -114.89172695 271.21854484 -118.28207016 279.4712944 C-119.70646146 282.93863858 -121.13035905 286.40618541 -122.55422592 289.87374496 C-123.22748339 291.51294479 -123.90097886 293.15204689 -124.57473373 294.79104233 C-125.21662974 296.35258245 -125.85789873 297.91438049 -126.49850082 299.47645187 C-127.11164256 300.96798491 -127.7279736 302.45821154 -128.34774399 303.94700241 C-129.82783567 307.52046239 -131.22983237 311.09672181 -132.49953842 314.75072861 C-132.74964676 315.4450499 -132.9997551 316.13937119 -133.25744247 316.85473251 C-133.93047536 318.73754637 -134.57475104 320.63057055 -135.21682358 322.52416611 C-136.95363998 325.36791611 -136.95363998 325.36791611 -139.748806 326.66625595 C-141.14173814 326.94724947 -142.54616067 327.17241855 -143.95363998 327.36791611 C-144.94972275 327.50820236 -145.94580551 327.64848862 -146.9720726 327.79302597 C-150.71271115 328.27301241 -154.45817005 328.69045524 -158.20754623 329.09447861 C-159.5956914 329.24812846 -160.98378783 329.40221922 -162.37183762 329.55672836 C-165.27036967 329.8780852 -168.16930725 330.1953783 -171.06863022 330.50951767 C-174.77348012 330.91108519 -178.47736132 331.3208794 -182.18099689 331.73348045 C-185.04353727 332.05179159 -187.90644273 332.36670922 -190.76947975 332.6805191 C-192.13503497 332.83041391 -193.50050132 332.98112072 -194.86587334 333.13267517 C-196.77701104 333.34409512 -198.68868181 333.55067931 -200.6003685 333.75707626 C-202.22749519 333.93455902 -202.22749519 333.93455902 -203.88749313 334.11562729 C-206.92507755 334.36556593 -209.90733368 334.41259681 -212.95363998 334.36791611 C-211.55599762 329.88737678 -209.80589264 325.73916889 -207.78567123 321.50463486 C-207.47446838 320.84891495 -207.16326553 320.19319504 -206.84263229 319.51760483 C-206.1711917 318.10294877 -205.49837131 316.68894693 -204.82430649 315.2755394 C-202.99779937 311.44337218 -201.18414128 307.60514625 -199.37160873 303.76635361 C-198.81346481 302.58439156 -198.81346481 302.58439156 -198.24404526 301.37855148 C-194.61566403 293.67881082 -191.08523825 285.93621286 -187.57863998 278.18041611 C-182.11056855 266.0932059 -176.58471382 254.03416735 -171.01613998 241.99291611 C-165.64779929 230.3832586 -160.29783903 218.7657786 -154.99007797 207.12829208 C-146.9342408 189.46572899 -138.78148501 171.8488875 -130.60671616 154.24110031 C-127.7617797 148.11243319 -124.92270168 141.98107658 -122.08645248 135.84838486 C-96.03585292 79.53234198 -96.03585292 79.53234198 -90.95363998 69.36791611 C-99.72511242 69.77687543 -108.19269874 70.77564836 -116.82229233 72.35155869 C-120.57877754 73.0271585 -124.13289832 73.54193008 -127.95363998 73.36791611 C-127.36524756 70.05700865 -126.56094092 67.09164805 -125.28298569 63.98339462 C-124.94205383 63.14804688 -124.60112198 62.31269913 -124.24985886 61.45203781 C-123.88011444 60.55931671 -123.51037003 59.66659561 -123.12942123 58.74682236 C-122.74553741 57.81047455 -122.36165359 56.87412674 -121.96613693 55.90940475 C-120.736984 52.9146714 -119.50152651 49.92258254 -118.26613998 46.93041611 C-117.45390423 44.95205924 -116.64205141 42.97354511 -115.83059311 40.99486923 C-113.898615 36.28797786 -111.94866932 31.58876943 -109.99422836 26.8911705 C-109.03674971 24.56944342 -108.10129881 22.24033966 -107.17385483 19.90649033 C-106.65658162 18.6318558 -106.13917796 17.35727421 -105.62160873 16.08275986 C-105.19517075 15.01017929 -104.76873276 13.93759872 -104.32937241 12.83251572 C-102.74867778 10.00073004 -102.0002237 9.35237239 -98.95363998 8.36791611 C-88.46192834 6.00621981 -77.60805155 4.80402878 -66.95363998 3.36791611 C-65.68197983 3.195504 -64.41031967 3.02309189 -63.10012436 2.84545517 C-42.13820378 0.17948907 -21.09711385 0.05626373 0 0 Z M-13.32863998 64.03197861 C-17.02196553 63.85244195 -19.50766773 64.00321981 -22.95363998 65.36791611 C-26.20439371 69.3423998 -27.88333782 73.78432623 -29.77639389 78.52465439 C-31.889704 83.62867958 -34.312949 88.59233747 -36.67754745 93.58343124 C-38.20409801 96.81831011 -39.70712139 100.06406649 -41.21145248 103.30932236 C-43.72030526 108.71614395 -46.23560671 114.11989447 -48.75832748 119.52025986 C-49.06960587 120.18666489 -49.38088425 120.85306992 -49.70159531 121.53966904 C-50.90686639 124.1197745 -52.11229099 126.69980822 -53.31771469 129.27984238 C-54.67099931 132.17693352 -56.02267484 135.07475311 -57.37160873 137.97387314 C-58.47306481 140.33690436 -59.57961896 142.69703021 -60.69192123 145.05492783 C-61.51756577 146.81667343 -61.51756577 146.81667343 -62.35988998 148.61400986 C-62.85811264 149.67160507 -63.3563353 150.72920029 -63.86965561 151.81884384 C-65.08408427 154.21300244 -65.08408427 154.21300244 -64.95363998 156.36791611 C-37.80545203 153.85819297 -9.84842284 141.77447901 11.04636002 124.36791611 C11.69218033 123.88322861 12.33800064 123.39854111 13.00339127 122.89916611 C22.54875733 115.48696311 30.74729881 103.34124474 33.04636002 91.36791611 C33.52001988 85.79270651 33.81976542 80.97201619 31.35886002 75.86791611 C24.20940686 68.13877755 14.7067673 65.24699098 4.33932877 64.45385361 C0.63050492 64.31485169 -3.05505072 64.2247159 -6.76613998 64.32885361 C-9.95363998 64.36791611 -9.95363998 64.36791611 -13.32863998 64.03197861 Z " fill="#F8F7F6" transform="translate(218.95363998413086,7.632083892822266)"/>
<path d="M0 0 C13.24998799 -0.03197993 26.4999782 -0.05143154 39.75 -0.0625 C40.76716347 -0.06335602 41.78432693 -0.06421204 42.83231354 -0.06509399 C81.18203966 -0.09345002 119.52722513 0.148911 157.875 0.5 C159.18164108 0.51195782 160.48828217 0.52391563 161.83451843 0.53623581 C177.88974873 0.6838058 193.94490517 0.83837981 210 1 C201.45006602 20.29221957 201.45006602 20.29221957 197.5703125 28.67578125 C197.02840775 29.85167061 197.02840775 29.85167061 196.47555542 31.05131531 C195.35985399 33.47224291 194.24264965 35.89247127 193.125 38.3125 C191.626176 41.55793745 190.12898842 44.80412231 188.6328125 48.05078125 C188.29637726 48.77783768 187.95994202 49.5048941 187.61331177 50.25398254 C187.29893158 50.93627426 186.98455139 51.61856598 186.66064453 52.3215332 C186.25049606 53.20939262 186.25049606 53.20939262 185.83206177 54.1151886 C184.82989135 56.38533524 183.92161113 58.69597217 183 61 C148.35 61.495 148.35 61.495 113 62 C107.03433667 75.12445932 101.1541821 88.15691503 95.75 101.5 C95.07875764 103.14770064 94.40711097 104.79523661 93.73510742 106.44262695 C92.27395879 110.0266944 90.81549753 113.61183992 89.35888672 117.19775391 C86.85185538 123.36782267 84.33428838 129.5335718 81.81640625 135.69921875 C73.04075147 157.19687588 64.30196257 178.70888221 55.62390137 200.24612427 C30.04961673 263.70155922 30.04961673 263.70155922 17 293.5 C16.70972931 294.16294067 16.41945862 294.82588135 16.12039185 295.50891113 C13.53260548 301.40620998 10.91308662 307.25498312 8 313 C0.953184 312.42309218 -6.00858364 311.60390147 -13 310.5625 C-22.9980693 309.12480028 -32.99884363 308.30141875 -43.07617188 307.64672852 C-44.16607422 307.57510498 -45.25597656 307.50348145 -46.37890625 307.4296875 C-47.82632202 307.34050049 -47.82632202 307.34050049 -49.30297852 307.24951172 C-51.92710623 307.00674368 -54.42811667 306.5663345 -57 306 C-54.96688952 299.59526881 -52.60260107 293.39624795 -50 287.203125 C-49.61222885 286.27335342 -49.2244577 285.34358185 -48.82493591 284.38563538 C-47.55320978 281.33905275 -46.2767289 278.29448913 -45 275.25 C-44.10015923 273.09797672 -43.20050401 270.94587584 -42.30102539 268.79370117 C-33.64850025 248.10585802 -24.92221223 227.44913354 -16.18359375 206.79754639 C-12.59880602 198.32452938 -9.017543 189.85002269 -5.4375 181.375 C-5.04392303 180.44338043 -4.65034607 179.51176086 -4.24484253 178.5519104 C1.90066207 164.00243968 8.01074203 149.43839881 14.10092163 134.86569214 C20.95942375 118.45560268 27.87204911 102.06865308 34.80859375 85.69140625 C35.5677106 83.89713638 36.3268253 82.10286559 37.0859375 80.30859375 C37.59258438 79.11447121 37.59258438 79.11447121 38.10946655 77.89622498 C40.48042263 72.28972218 42.73809388 66.65476531 45 61 C21.9 61 -1.2 61 -25 61 C-21.62449824 50.87349471 -21.62449824 50.87349471 -20.17822266 47.38916016 C-19.85423492 46.60449371 -19.53024719 45.81982727 -19.19644165 45.01138306 C-18.85575653 44.19551727 -18.51507141 43.37965149 -18.1640625 42.5390625 C-17.62221817 41.23224014 -17.62221817 41.23224014 -17.06942749 39.89901733 C-16.30949754 38.0681252 -15.54805256 36.23786122 -14.78515625 34.40820312 C-13.63162089 31.64088345 -12.4834013 28.87140443 -11.3359375 26.1015625 C-10.59146065 24.309765 -9.84667883 22.51809417 -9.1015625 20.7265625 C-8.76492584 19.91474518 -8.42828918 19.10292786 -8.08145142 18.26651001 C-5.51428932 12.11876851 -2.78401845 6.05236575 0 0 Z " fill="#F7F6F5" transform="translate(1123,25)"/>
<path d="M0 0 C2.51834106 -0.36076355 2.51834106 -0.36076355 5.73486328 -0.34057617 C6.93595734 -0.34034958 8.13705139 -0.34012299 9.37454224 -0.33988953 C11.32769852 -0.31666374 11.32769852 -0.31666374 13.3203125 -0.29296875 C14.66266405 -0.28737416 16.00502173 -0.28310341 17.34738159 -0.28010559 C20.88210941 -0.26864585 24.41646798 -0.23916959 27.9510498 -0.20599365 C31.55715947 -0.17531671 35.16332874 -0.16160538 38.76953125 -0.14648438 C45.84650532 -0.11430052 52.92322857 -0.06309094 60 0 C58.161741 5.85930165 56.03464861 11.42344036 53.40234375 16.96875 C52.68476098 18.50453231 51.96723425 20.0403408 51.24975586 21.57617188 C50.87333954 22.37724365 50.49692322 23.17831543 50.10910034 24.00366211 C13.29940373 90.0446082 13.29940373 90.0446082 3 161 C4.67330509 164.65084747 5.63307444 165.75538296 9 168 C21.87640199 169.73297429 32.73598176 165.18169473 42.890625 157.55078125 C59.89835907 144.02952781 68.3737119 123.5143622 76.27911377 103.9078064 C77.63973033 100.53346535 79.01295683 97.16429249 80.38504028 93.79460144 C81.11799933 91.99409032 81.85031044 90.1933153 82.58200073 88.39228821 C86.48691106 78.78421647 90.44827282 69.1996572 94.41329956 59.61627197 C96.41098915 54.78770453 98.40662896 49.95829017 100.40234375 45.12890625 C100.78852371 44.19451721 101.17470367 43.26012817 101.57258606 42.29742432 C107.39630528 28.20428638 113.1970822 14.10171423 119 0 C139.13 0 159.26 0 180 0 C178.87507801 6.74953194 178.87507801 6.74953194 177.57983398 9.82592773 C177.29055023 10.52202652 177.00126648 11.21812531 176.70321655 11.93531799 C176.22944077 13.04821449 176.22944077 13.04821449 175.74609375 14.18359375 C175.41396881 14.9784166 175.08184387 15.77323944 174.73965454 16.59214783 C173.64461792 19.2096869 172.54095205 21.82349882 171.4375 24.4375 C170.26851309 27.22680626 169.10184271 30.01707457 167.93522644 32.80737305 C167.13551802 34.7196281 166.33506437 36.63157166 165.53388977 38.54321289 C161.98615536 47.01215796 158.50131031 55.50600159 155.03039551 64.00665283 C152.38581753 70.47768066 149.72581559 76.94239456 147.06628418 83.4072876 C146.33675988 85.18115496 145.60769646 86.95521192 144.87902832 88.72943115 C123.95613412 139.66590989 101.29924443 194.64147918 47.38671875 218.24609375 C34.70501774 223.48733379 21.63461506 225.99313612 8 227 C7.06285156 227.0721875 6.12570312 227.144375 5.16015625 227.21875 C-13.02140935 227.89110374 -33.30156121 223.30343918 -47 211 C-58.81679033 198.51712755 -59.5734574 182.91475586 -59.30859375 166.61328125 C-57.50036629 114.78993244 -29.79416968 62.55527502 -8.375 16.5 C-8.06895844 15.84067474 -7.76291687 15.18134949 -7.44760132 14.50204468 C-6.57996832 12.63539903 -5.70866843 10.77051669 -4.8359375 8.90625 C-4.08642822 7.30233398 -4.08642822 7.30233398 -3.32177734 5.66601562 C-2 3 -2 3 0 0 Z " fill="#F7F6F5" transform="translate(688,85)"/>
<path d="M0 0 C1.86243057 -0.3719368 1.86243057 -0.3719368 4.17047119 -0.36749268 C5.04488861 -0.37306183 5.91930603 -0.37863098 6.82022095 -0.3843689 C7.78221405 -0.37515411 8.74420715 -0.36593933 9.73535156 -0.35644531 C10.747034 -0.35848969 11.75871643 -0.36053406 12.80105591 -0.36264038 C16.16442633 -0.36566131 19.52731231 -0.34711734 22.890625 -0.328125 C25.23077269 -0.32506677 27.5709222 -0.32319114 29.91107178 -0.32244873 C34.83075876 -0.31783585 39.75028296 -0.30338306 44.66992188 -0.28125 C50.94388321 -0.25315371 57.2177153 -0.24205771 63.49173355 -0.2375679 C69.49971368 -0.2323774 75.50766209 -0.21784343 81.515625 -0.203125 C83.21571087 -0.20030392 83.21571087 -0.20030392 84.95014191 -0.19742584 C96.67289184 -0.17233045 108.32078408 -0.1224972 120 1 C115.05727382 12.60837165 110.06474939 24.19429317 105 35.75 C104.51942139 36.85077881 104.03884277 37.95155762 103.54370117 39.08569336 C102.87238159 40.61335327 102.87238159 40.61335327 102.1875 42.171875 C101.78917969 43.0803418 101.39085937 43.98880859 100.98046875 44.92480469 C100 47 100 47 99 48 C96.6243148 48.0883967 94.27791326 48.11530305 91.90234375 48.09765625 C90.83905602 48.09553383 90.83905602 48.09553383 89.75428772 48.09336853 C87.48198288 48.08775443 85.20977525 48.07519963 82.9375 48.0625 C81.40039204 48.05748681 79.86328255 48.05292359 78.32617188 48.04882812 C74.55074358 48.03778042 70.77538829 48.02050641 67 48 C66.63261719 49.175625 66.26523437 50.35125 65.88671875 51.5625 C63.80855084 57.78853129 61.24066286 63.80990434 58.7071228 69.86029053 C50.87051749 88.60345085 43.4751198 107.5116113 36.14550781 126.45751953 C34.25093015 131.35435004 32.35004813 136.24871295 30.44798279 141.14263916 C28.86702758 145.21167371 27.28846791 149.28163438 25.71060181 153.35186768 C24.9495199 155.31448431 24.18778822 157.27684909 23.42538452 159.23895264 C22.36585956 161.9669861 21.30945925 164.6962089 20.25390625 167.42578125 C19.93803558 168.23736191 19.62216492 169.04894257 19.29672241 169.88511658 C19.0074588 170.63499344 18.71819519 171.3848703 18.42016602 172.1574707 C18.16864273 172.80657913 17.91711945 173.45568756 17.65797424 174.12446594 C16.97792281 176.06293031 16.46723355 178.00053998 16 180 C16.63421875 179.97679687 17.2684375 179.95359375 17.921875 179.9296875 C28.03148453 179.73419781 37.96437113 180.88933752 48 182 C47.36839834 187.99129486 45.73871634 193.38547689 43.83984375 199.08984375 C43.37584923 200.5066317 43.37584923 200.5066317 42.90248108 201.95204163 C41.91959968 204.94901636 40.92868132 207.94326131 39.9375 210.9375 C39.26704452 212.97703821 38.59711694 215.01675003 37.92773438 217.05664062 C36.29126185 222.03978645 34.64819417 227.02071968 33 232 C18.72268418 232.20889893 4.55136148 231.55229368 -9.69921875 230.72265625 C-12.03324896 230.59017257 -14.3672999 230.45805355 -16.70137024 230.32627869 C-21.55492612 230.05118094 -26.40826918 229.77266617 -31.26147461 229.49145508 C-37.47255507 229.13170838 -43.68402069 228.77920317 -49.895648 228.42903996 C-54.69905501 228.15771801 -59.50228372 227.88334354 -64.30545998 227.60796928 C-66.59669429 227.47683442 -68.88797289 227.34647098 -71.17929649 227.21690559 C-74.37321108 227.03569613 -77.56687374 226.8505533 -80.76049805 226.66430664 C-82.16709686 226.58554291 -82.16709686 226.58554291 -83.60211182 226.50518799 C-88.45305732 226.21784917 -93.20113826 225.76928748 -98 225 C-96.00302055 218.59615372 -93.57872865 212.51007895 -90.8046875 206.40625 C-90.41177521 205.5335144 -90.01886292 204.66077881 -89.61404419 203.76159668 C-88.79083658 201.9355033 -87.9655236 200.11035767 -87.13818359 198.28613281 C-85.86689552 195.4821244 -84.60288316 192.67491971 -83.33984375 189.8671875 C-82.53687968 188.08835141 -81.73350907 186.30969876 -80.9296875 184.53125 C-80.36095413 183.26891541 -80.36095413 183.26891541 -79.7807312 181.9810791 C-79.43011627 181.20937378 -79.07950134 180.43766846 -78.71826172 179.64257812 C-78.40976288 178.96134888 -78.10126404 178.28011963 -77.78341675 177.57824707 C-77 176 -77 176 -76 175 C-73.47905924 174.91152257 -70.98569107 174.88472699 -68.46484375 174.90234375 C-67.33496788 174.90446617 -67.33496788 174.90446617 -66.18226624 174.90663147 C-63.7673044 174.91224624 -61.35243399 174.92480117 -58.9375 174.9375 C-57.30403779 174.9425131 -55.67057414 174.94707634 -54.03710938 174.95117188 C-50.02470415 174.96222046 -46.01236759 174.97949494 -42 175 C-41.82517593 174.44783813 -41.65035187 173.89567627 -41.4702301 173.32678223 C-39.72471486 167.93740698 -37.70808428 162.76541151 -35.40234375 157.59375 C-35.05613983 156.80823257 -34.70993591 156.02271515 -34.35324097 155.21339417 C-33.21836699 152.64060773 -32.07792165 150.07033153 -30.9375 147.5 C-30.1326328 145.67784015 -29.3281973 143.85548956 -28.52416992 142.03295898 C-26.85271745 138.24503965 -25.17941126 134.45794719 -23.50488281 130.67138672 C-19.96454503 122.66123134 -16.44987373 114.6398333 -12.93356323 106.61911011 C-4.65205878 87.73295152 3.6700677 68.86484668 12 50 C0.78 50 -10.44 50 -22 50 C-21.26441038 46.32205191 -20.66286992 43.90691065 -19.17407227 40.62451172 C-18.80020889 39.79370087 -18.42634552 38.96289001 -18.04115295 38.10690308 C-17.63698654 37.22342194 -17.23282013 36.3399408 -16.81640625 35.4296875 C-16.40083969 34.51164337 -15.98527313 33.59359924 -15.55711365 32.6477356 C-14.67947518 30.71178323 -13.79929521 28.77698128 -12.91674805 26.84326172 C-11.56537457 23.88130052 -10.22249098 20.91560334 -8.88085938 17.94921875 C-8.02653931 16.06748232 -7.17173794 14.18596432 -6.31640625 12.3046875 C-5.71319298 10.9733931 -5.71319298 10.9733931 -5.09779358 9.61520386 C-4.72077805 8.79069733 -4.34376251 7.9661908 -3.95532227 7.11669922 C-3.46020897 6.03012527 -3.46020897 6.03012527 -2.95509338 4.92160034 C-2 3 -2 3 0 0 Z " fill="#F6F5F4" transform="translate(883,85)"/>
<path d="M0 0 C1.15249741 0.00222061 2.30499481 0.00444122 3.49241638 0.00672913 C5.4443264 0.00684242 5.4443264 0.00684242 7.43566895 0.00695801 C8.86661313 0.01206543 10.29755694 0.01728144 11.72850037 0.02259827 C13.18438672 0.02446249 14.64027369 0.02588637 16.09616089 0.02688599 C19.93488791 0.03071086 23.77357731 0.04054088 27.61228943 0.05158997 C31.52667227 0.06180474 35.44106117 0.06638375 39.35545349 0.07142639 C47.04101755 0.08216318 54.72655057 0.09923923 62.41209412 0.12025452 C56.76190725 14.36808736 50.94773689 28.54118719 45.03709412 42.68275452 C44.15824946 44.78842519 43.27950804 46.89413895 42.40086365 48.99989319 C39.74034169 55.3743514 37.07672702 61.74751382 34.41209412 68.12025452 C34.01127625 69.07891418 33.61045837 70.03757385 33.19749451 71.02528381 C28.72047468 81.73233413 24.23848851 92.43729887 19.7537384 103.14111328 C17.09251439 109.49355505 14.43521064 115.84762861 11.77928162 122.20228577 C2.72184351 143.86944362 -6.38617819 165.51395057 -15.58790588 187.12025452 C-14.55742126 187.17971252 -14.55742126 187.17971252 -13.50611877 187.2403717 C-0.56142957 188.01716035 12.28426651 189.02863682 25.09959412 191.05775452 C26.11851746 191.21534241 27.1374408 191.3729303 28.1872406 191.53529358 C33.9264117 192.49174223 39.03873336 193.88294772 44.41209412 196.12025452 C42.58596545 200.70912225 40.753695 205.29538608 38.91209412 209.87806702 C37.35090681 213.76461502 35.80522715 217.65679468 34.27359009 221.55508423 C33.05744932 224.64269145 31.82692088 227.72458018 30.59959412 230.80775452 C30.13190613 232.00763 29.66421814 233.20750549 29.18235779 234.44374084 C28.73610046 235.55773254 28.28984314 236.67172424 27.83006287 237.81947327 C27.23874573 239.31740417 27.23874573 239.31740417 26.63548279 240.84559631 C25.41209412 243.12025452 25.41209412 243.12025452 22.41209412 244.12025452 C20.6677635 244.06095706 18.92562311 243.92498647 17.18943787 243.74647522 C16.11124786 243.63905502 15.03305786 243.53163483 13.92219543 243.42095947 C12.743237 243.29723465 11.56427856 243.17350983 10.34959412 243.04603577 C9.11431976 242.92210953 7.87904541 242.79818329 6.6063385 242.67050171 C3.93496491 242.40249139 1.26388718 242.13243516 -1.40693665 241.85908508 C-8.43684015 241.14054063 -15.46918395 240.44667461 -22.50196838 239.75697327 C-23.21438313 239.68698624 -23.92679787 239.61699921 -24.66080093 239.54489136 C-39.41441906 238.09965979 -54.18162361 236.87466372 -68.96290588 235.74525452 C-70.07311096 235.66030731 -71.18331604 235.57536011 -72.3271637 235.48783875 C-78.41348852 235.02385195 -84.50036535 234.56799783 -90.58790588 234.12025452 C-89.30712621 227.73148033 -87.54027921 221.87957632 -85.15821838 215.82337952 C-84.81624924 214.93794968 -84.47428009 214.05251984 -84.12194824 213.14025879 C-83.38051531 211.22224344 -82.63625241 209.30532013 -81.88945007 207.38938904 C-79.83950401 202.12901463 -77.81130786 196.8602388 -75.77931213 191.59291077 C-75.14010078 189.93863823 -75.14010078 189.93863823 -74.48797607 188.25094604 C-69.80808609 176.12858133 -65.22728794 163.96929594 -60.65040588 151.80775452 C-58.9622054 147.32575688 -57.27326344 142.84403899 -55.58399963 138.36244202 C-55.16697784 137.25600845 -54.74995605 136.14957489 -54.32029724 135.00961304 C-49.97137406 123.47630933 -45.59466942 111.95361396 -41.21290588 100.43275452 C-40.44256055 98.40711986 -39.67221549 96.38148509 -38.90187073 94.35585022 C-38.51623962 93.3418364 -38.13060852 92.32782257 -37.73329163 91.28308105 C-37.34371277 90.25868423 -36.95413391 89.23428741 -36.55274963 88.17884827 C-36.15994812 87.14603226 -35.76714661 86.11321625 -35.36244202 85.04910278 C-30.6474325 72.64996443 -25.94092122 60.24760232 -21.23579407 47.8447113 C-20.27571063 45.3139083 -19.3154653 42.78316683 -18.35505676 40.25248718 C-17.00918334 36.70592401 -15.66373977 33.15919803 -14.31837463 29.61244202 C-13.90033569 28.51113449 -13.48229675 27.40982697 -13.05158997 26.27514648 C-11.23994828 21.49825424 -9.43422093 16.71955045 -7.65675354 11.92982483 C-7.37415176 11.16928802 -7.09154999 10.40875122 -6.80038452 9.62516785 C-6.07759175 7.67544848 -5.35856648 5.72433352 -4.63990784 3.77308655 C-3.20267632 0.1488216 -3.20267632 0.1488216 0 0 Z " fill="#F7F6F5" transform="translate(1022.5879058837891,84.87974548339844)"/>
<path d="M0 0 C1.65 0.33 3.3 0.66 5 1 C5 6.61 5 12.22 5 18 C3.68 18 2.36 18 1 18 C0.67 16.02 0.34 14.04 0 12 C-0.99 13.98 -1.98 15.96 -3 18 C-6 17 -6 17 -7.1875 14.9375 C-7.455625 14.298125 -7.72375 13.65875 -8 13 C-8.33 14.65 -8.66 16.3 -9 18 C-10.32 18 -11.64 18 -13 18 C-13.19386492 15.35448944 -13.38038267 12.70882217 -13.5625 10.0625 C-13.61857422 9.30775391 -13.67464844 8.55300781 -13.73242188 7.77539062 C-13.86176157 5.85254042 -13.93516912 3.92610452 -14 2 C-13 1 -13 1 -10.4375 0.9375 C-9.2309375 0.9684375 -9.2309375 0.9684375 -8 1 C-6.68 3.64 -5.36 6.28 -4 9 C-2.68 6.03 -1.36 3.06 0 0 Z " fill="#DCDCDB" transform="translate(1176,321)"/>
<path d="M0 0 C4.62 0 9.24 0 14 0 C14 1.32 14 2.64 14 4 C12.35 4 10.7 4 9 4 C9.33 8.29 9.66 12.58 10 17 C8.35 17 6.7 17 5 17 C5 12.71 5 8.42 5 4 C3.35 4 1.7 4 0 4 C0 2.68 0 1.36 0 0 Z " fill="#D4D4D4" transform="translate(1147,322)"/>
<path d="M0 0 C1.65 0.33 3.3 0.66 5 1 C5 6.28 5 11.56 5 17 C4.01 17 3.02 17 2 17 C2 14.03 2 11.06 2 8 C0.68 8.33 -0.64 8.66 -2 9 C-1.125 1.125 -1.125 1.125 0 0 Z " fill="#DDDDDD" transform="translate(1176,321)"/>
<path d="M0 0 C1.65 0.33 3.3 0.66 5 1 C5 3.97 5 6.94 5 10 C5.99 10.33 6.98 10.66 8 11 C6.68 11 5.36 11 4 11 C3.67 9.02 3.34 7.04 3 5 C1.35 4.67 -0.3 4.34 -2 4 C-1.34 2.68 -0.68 1.36 0 0 Z " fill="#B5B6B7" transform="translate(1173,328)"/>
</svg>
