
<svg xmlns="http://www.w3.org/2000/svg" version="1.1" xmlns:xlink="http://www.w3.org/1999/xlink" preserveAspectRatio="none" x="0px" y="0px" width="1000px" height="1000px" viewBox="0 0 1000 1000">
<defs>
<radialGradient id="Gradient_1" gradientUnits="userSpaceOnUse" cx="0" cy="0" r="197.91250000000002" fx="0" fy="0" gradientTransform="matrix( 0.9999999999999999, 0, 0, 0.9999999999999999, 483.35,425.55) " spreadMethod="pad">
<stop  offset="0%" stop-color="#FFFFFF"/>

<stop  offset="100%" stop-color="#000000"/>
</radialGradient>

<g id="Layer0_0_MEMBER_0_MEMBER_0_MEMBER_0_MEMBER_0_FILL">
<path fill="#999999" stroke="none" d="
M 769.25 774.1
Q 882.85 660.55 882.85 500.05 882.85 339.4 769.25 225.9 655.8 112.4 495.2 112.4 334.55 112.4 221.05 225.9 107.55 339.45 107.55 500.05 107.55 660.5 221.05 774.1 334.6 887.65 495.2 887.65 655.75 887.65 769.25 774.1 Z"/>
</g>

<g id="Layer0_0_MEMBER_1_MEMBER_0_MEMBER_0_MEMBER_0_FILL">
<path fill="#F47100" stroke="none" d="
M 699.65 163
Q 683.85 150 662.8 141.15
L 675.45 77.45
Q 657.45 68.35 637.5 63.5
L 605.95 121
Q 587.4 112.6 564.75 109.35
L 560.45 44.55
Q 540.3 40.5 520.25 40.95
L 503.85 102.75
Q 482.05 100.7 459.45 102.35
L 439.85 43
Q 421 42.7 401.25 49.25
L 401.2 113.5
Q 379.85 117.1 359.1 124.75
L 323.85 72.35
Q 305.9 76.85 288.25 88.25
L 304.75 150.4
Q 284.85 159.5 266.1 172.2
L 219.5 130.65
Q 203.05 139.65 189.1 155.2
L 221.6 209.15
Q 204.65 224.75 189.65 242
L 133.85 213.9
Q 120.3 227.05 111 245.6
L 156.55 291.05
Q 143.85 308.85 133.85 329.25
L 72.75 316.55
Q 63.15 332.5 58.75 353.05
L 114.55 385.25
Q 106.9 405.5 102.55 428
L 40.15 431.5
Q 35 449.7 36.2 470.4
L 98.4 487.15
Q 96.3 508.5 97.9 531.5
L 38.5 551.1
Q 38.3 569.8 44.75 589.7
L 109.15 589.75
Q 112.6 610.85 120.15 632.75
L 67.9 667.1
Q 72.55 685.35 83.9 702.75
L 146.05 686.2
Q 155.2 706.3 167.75 724.8
L 126.15 771.55
Q 135.35 787.95 150.85 801.8
L 206.6 769.55
Q 220.4 786.25 237.55 801.25
L 209.55 857.2
Q 222.75 870.7 241.1 880
L 286.6 834.5
Q 304.65 847.25 324.25 856.3
L 312.2 918.3
Q 328.25 927.95 348.6 932.25
L 380.75 876.45
Q 401.2 884.05 422.75 887.8
L 427.1 950.8
Q 445.25 956 466 954.85
L 482 890.8
Q 501.9 894.25 524.8 891.3
L 545.75 952.85
Q 566.1 951.6 585.55 946
L 584.3 882.5
Q 604.3 878.45 625.5 869.75
L 661.65 923.75
Q 681.2 917.15 698.3 906.75
L 679.75 843.75
Q 698.9 836.7 717.25 822.75
L 766 865.6
Q 782.9 854.45 797.05 839.7
L 763.05 783.6
Q 779.6 771.95 793.8 753.7
L 852.05 782.45
Q 865.65 767.1 875.3 749.3
L 827.95 704
Q 840.85 688.4 849.9 667.1
L 913.55 679.75
Q 922.65 661.75 927.5 641.8
L 869.95 610.3
Q 878.5 591.6 881.55 569
L 946.4 564.75
Q 950.45 544.7 950 524.5
L 886.3 509
Q 889.7 489.2 886.9 466.15
L 948.4 445.25
Q 947.2 425.05 941.45 405.4
L 875.95 407
Q 873.75 386.2 865.4 365.5
L 919.4 329.4
Q 912.85 309.8 902.3 292.75
L 839.4 311.15
Q 832.3 292.15 818.45 273.8
L 861.25 224.9
Q 849.95 207.8 835.25 193.95
L 781.05 226.65
Q 767.7 211.55 749.4 197.2
L 778 138.9
Q 762.8 125.35 745 115.7
L 699.65 163
M 869.05 499.15
Q 869.05 656 758.25 766.75 647.4 877.6 490.7 877.6 333.95 877.6 223.1 766.75 112.25 656.05 112.25 499.15 112.25 342.3 223.1 231.6 334 120.7 490.7 120.7 647.35 120.7 758.25 231.6 869.05 342.3 869.05 499.15 Z"/>
</g>

<g id="Layer0_0_MEMBER_2_MEMBER_0_MEMBER_0_MEMBER_0_FILL">
<path fill="url(#Gradient_1)" stroke="none" d="
M 686.65 711.8
Q 684.35 709.35 670.45 695.3 642.9 667.75 633.05 647.7 610.6 601.85 607.65 563.5 605.25 533.15 615.25 500.75
L 617.5 494
Q 620.35 485.4 625.25 473.15 634.8 448.7 635.8 445.9 647.9 412.9 649.05 385.4 650.65 346.55 631.75 315.3 620.1 295.9 601.5 280.9 592.6 273.7 582.15 267.55 557.7 253.3 528.15 246.75 521.15 245.25 513 244 474.7 238.45 437.35 246.4
L 435.6 246.75
Q 403.1 254.3 378.1 276.8 375.1 279.5 373.75 280.9 355.65 298.6 341 324.8 327.25 349.25 322.5 375.25 318.15 399.3 322.5 411.55 326.9 423.9 321.5 432.65
L 320.35 434.5
Q 315.95 441.6 310.75 448.4 302.2 459.75 297.7 466.4 294.4 471.15 292.35 474.75 290.05 478.55 286.75 485 280.4 497.9 283.5 502.65 285.15 505.25 288.75 506.75 292.25 508.15 299 509.25 304.4 510.1 307.6 512 311.5 514.2 312.25 518.75 313 523.85 309.6 530.25 305.2 538.35 307.5 544.85 309.55 550.4 315 551.6 317.25 552.15 315.1 553.05 312.5 554.7 311.35 557.35 309.95 560.7 311.75 564 312.9 565.95 315.95 568.1 319.05 570.3 320.95 573.45 323.5 577.75 322.25 586.5 321.5 591.75 319.1 603.05 317.3 613.3 319 620 321.35 628.85 329.95 634.25 338.35 639.6 382.5 636.5 404 635.05 425 632.35 445 641.65 448.35 680.75 449.3 692.75 448.85 711.75 448.4 733.5 448.5 735.75 448.6 737.7 452.5 737.85 456.55 738.05 463.5 736.35 477.4 733 495 730.5 551.55 722.7 594.5 726 638.8 729.35 655.4 729.5 688.85 729.6 691.9 721.75 692.95 719.05 686.65 711.8 Z"/>
</g>

<g id="Layer0_0_MEMBER_3_MEMBER_0_MEMBER_0_MEMBER_0_FILL">
<path fill="#F47100" stroke="none" d="
M 520.45 657.45
Q 510.85 666.85 510.85 679.6 510.85 692.35 520.25 701.45 529.7 710.45 543.2 710.3 556.6 710.25 565.75 701 574.9 691.75 574.65 678.75 574.35 665.85 565.3 656.5 556.3 647.25 543.15 647.7 529.9 648 520.45 657.45
M 529.8 679.8
Q 529.8 673.5 533.65 669.35 537.4 665.25 543.15 665.25 548.9 665.25 553.05 669.55 557.25 673.9 557 680.7 556.7 687.45 552.55 691.1 548.4 694.9 542.9 694.95 537.3 694.95 533.55 690.6 529.8 686.25 529.8 679.8
M 589.45 645.6
L 589.45 660.1
Q 632.65 669.05 585.25 703.8
L 585.25 709.6 628.45 709.6 631.4 697 612.9 697
Q 623.45 687.95 626.75 678.75 629.75 670.25 625.9 662.95 622.15 655.75 612.7 651.25 603.15 646.65 589.45 645.6
M 467.85 676.1
L 476.25 671.95 476.25 710.7 494.95 710.7 494.95 644.5 462.45 664 467.85 676.1 Z"/>
</g>

<g id="Layer0_0_MEMBER_4_MEMBER_0_MEMBER_0_MEMBER_0_MEMBER_0_FILL">
<path fill="#F47100" stroke="none" d="
M 507.3 412.45
L 505.9 419.9 505.5 489.05 507.05 496.55 510.35 496.6 511.75 489.1 512.15 419.95 510.6 412.45 507.3 412.45 Z"/>
</g>

<g id="Layer0_0_MEMBER_4_MEMBER_1_MEMBER_0_MEMBER_0_MEMBER_0_FILL">
<path fill="#F47100" stroke="none" d="
M 551.2 453.05
L 543.7 451.65 474.55 451.3 467.05 452.8 467 456.15 474.5 457.55 543.65 457.9 551.15 456.4 551.2 453.05 Z"/>
</g>

<g id="Layer0_0_MEMBER_4_MEMBER_2_MEMBER_0_MEMBER_0_MEMBER_0_FILL">
<path fill="#F47100" stroke="none" d="
M 539.8 482.8
L 535.5 476.55 486.85 427.35 480.45 423.15 478.1 425.45 482.4 431.75 531.05 480.9 537.45 485.15 539.8 482.8 Z"/>
</g>

<g id="Layer0_0_MEMBER_4_MEMBER_3_MEMBER_0_MEMBER_0_MEMBER_0_FILL">
<path fill="#F47100" stroke="none" d="
M 537 423.5
L 530.75 427.85 481.95 476.85 477.8 483.3 480.15 485.65 486.4 481.3 535.2 432.25 539.35 425.8 537 423.5 Z"/>
</g>

<g id="Layer0_0_MEMBER_4_MEMBER_4_MEMBER_0_MEMBER_0_MEMBER_0_FILL">
<path fill="#F47100" stroke="none" d="
M 490.7 416.3
L 492.3 423.75 518.65 487.65 523 494 526.05 492.75 524.45 485.3 498.05 421.35 493.75 415 490.7 416.3 Z"/>
</g>

<g id="Layer0_0_MEMBER_4_MEMBER_5_MEMBER_0_MEMBER_0_MEMBER_0_FILL">
<path fill="#F47100" stroke="none" d="
M 548.25 469.1
L 541.85 464.95 478 438.25 470.5 436.85 469.2 439.9 475.6 444.05 539.45 470.7 546.95 472.15 548.25 469.1 Z"/>
</g>

<g id="Layer0_0_MEMBER_4_MEMBER_6_MEMBER_0_MEMBER_0_MEMBER_0_FILL">
<path fill="#F47100" stroke="none" d="
M 546.85 437.05
L 539.35 438.65 475.4 464.9 469.05 469.2 470.3 472.25 477.75 470.7 541.75 444.4 548.1 440.1 546.85 437.05 Z"/>
</g>

<g id="Layer0_0_MEMBER_4_MEMBER_7_MEMBER_0_MEMBER_0_MEMBER_0_FILL">
<path fill="#F47100" stroke="none" d="
M 523.15 415.05
L 519 421.45 492.3 485.2 490.85 492.75 493.9 494 498.05 487.65 524.75 423.85 526.2 416.3 523.15 415.05 Z"/>
</g>

<g id="Layer0_0_MEMBER_4_MEMBER_8_MEMBER_0_MEMBER_0_MEMBER_0_FILL">
<path fill="#F47100" stroke="none" d="
M 515.3 413.8
L 512.5 420.9 499 488.75 499.05 496.4 502.3 497.05 505.1 489.95 518.65 422.1 518.55 414.45 515.3 413.8 Z"/>
</g>

<g id="Layer0_0_MEMBER_4_MEMBER_9_MEMBER_0_MEMBER_0_MEMBER_0_FILL">
<path fill="#F47100" stroke="none" d="
M 550.1 461.05
L 543 458.25 475.15 444.75 467.5 444.8 466.85 448.05 473.95 450.85 541.75 464.4 549.45 464.3 550.1 461.05 Z"/>
</g>

<g id="Layer0_0_MEMBER_4_MEMBER_10_MEMBER_0_MEMBER_0_MEMBER_0_FILL">
<path fill="#F47100" stroke="none" d="
M 492.3 424.1
L 486.8 418.75 484.05 420.6 487.1 427.6 525.5 485.1 530.95 490.45 533.7 488.6 530.7 481.65 492.3 424.1 Z"/>
</g>

<g id="Layer0_0_MEMBER_4_MEMBER_11_MEMBER_0_MEMBER_0_MEMBER_0_FILL">
<path fill="#F47100" stroke="none" d="
M 542.4 429.85
L 535.4 432.9 478.15 471.75 472.85 477.25 474.7 480 481.65 476.9 538.9 438.1 544.25 432.55 542.4 429.85 Z"/>
</g>

<g id="Layer0_0_MEMBER_4_MEMBER_12_MEMBER_0_MEMBER_0_MEMBER_0_FILL">
<path fill="#F47100" stroke="none" d="
M 498.55 413.7
L 498.7 421.3 512.5 489.1 515.5 496.1 518.75 495.45 518.6 487.85 504.85 420.05 501.8 413 498.55 413.7 Z"/>
</g>

<g id="Layer0_0_MEMBER_4_MEMBER_13_MEMBER_0_MEMBER_0_MEMBER_0_FILL">
<path fill="#F47100" stroke="none" d="
M 544.45 476.75
L 538.95 471.45 481.35 433.15 474.25 430.3 472.4 433.05 477.9 438.35 535.5 476.65 542.6 479.5 544.45 476.75 Z"/>
</g>

<g id="Layer0_0_MEMBER_4_MEMBER_14_MEMBER_0_MEMBER_0_MEMBER_0_FILL">
<path fill="#F47100" stroke="none" d="
M 549.55 445.1
L 541.95 445.25 474.15 458.85 467.1 461.9 467.75 465.1 475.35 465 543.15 451.35 550.2 448.35 549.55 445.1 Z"/>
</g>

<g id="Layer0_0_MEMBER_4_MEMBER_15_MEMBER_0_MEMBER_0_MEMBER_0_FILL">
<path fill="#F47100" stroke="none" d="
M 533.3 421.15
L 530.55 419.3 525.25 424.8 486.9 482.35 484.05 489.5 486.85 491.3 492.1 485.85 530.45 428.25 533.3 421.15 Z"/>
</g>

<g id="Layer0_0_MEMBER_5_MEMBER_0_MEMBER_0_MEMBER_0_MEMBER_0_FILL">
<path fill="#F47100" stroke="none" d="
M 572.2 324.5
L 567.95 324.5 566.25 334.05 566.25 422.2 568.25 431.75 572.45 431.75 574.2 422.2 574.2 334.05 572.2 324.5 Z"/>
</g>

<g id="Layer0_0_MEMBER_5_MEMBER_1_MEMBER_0_MEMBER_0_MEMBER_0_FILL">
<path fill="#F47100" stroke="none" d="
M 516.15 380.6
L 525.7 382.35 613.85 382.35 623.4 380.35 623.4 376.1 613.85 374.4 525.7 374.4 516.15 376.4 516.15 380.6 Z"/>
</g>

<g id="Layer0_0_MEMBER_5_MEMBER_2_MEMBER_0_MEMBER_0_MEMBER_0_FILL">
<path fill="#F47100" stroke="none" d="
M 533.6 338.35
L 530.65 341.35 536.15 349.3 598.5 411.65 606.7 417 609.65 414 604.15 406.05 541.8 343.7 533.6 338.35 Z"/>
</g>

<g id="Layer0_0_MEMBER_5_MEMBER_3_MEMBER_0_MEMBER_0_MEMBER_0_FILL">
<path fill="#F47100" stroke="none" d="
M 606.05 338.55
L 598.15 344.15 536.3 406.95 531 415.2 534 418.15 541.95 412.55 603.8 349.7 609.1 341.5 606.05 338.55 Z"/>
</g>

<g id="Layer0_0_MEMBER_5_MEMBER_4_MEMBER_0_MEMBER_0_MEMBER_0_FILL">
<path fill="#F47100" stroke="none" d="
M 547.6 329.85
L 549.7 339.35 583.8 420.65 589.3 428.7 593.2 427.05 591.1 417.55 557 336.25 551.5 328.2 547.6 329.85 Z"/>
</g>

<g id="Layer0_0_MEMBER_5_MEMBER_5_MEMBER_0_MEMBER_0_MEMBER_0_FILL">
<path fill="#F47100" stroke="none" d="
M 521.6 355.95
L 520 359.85 528.15 365.1 609.7 398.65 619.3 400.4 620.9 396.5 612.7 391.25 531.2 357.75 521.6 355.95 Z"/>
</g>

<g id="Layer0_0_MEMBER_5_MEMBER_6_MEMBER_0_MEMBER_0_MEMBER_0_FILL">
<path fill="#F47100" stroke="none" d="
M 618.7 355.5
L 609.2 357.6 527.85 391.5 519.8 397 521.4 400.9 530.9 398.85 612.25 364.95 620.3 359.4 618.7 355.5 Z"/>
</g>

<g id="Layer0_0_MEMBER_5_MEMBER_7_MEMBER_0_MEMBER_0_MEMBER_0_FILL">
<path fill="#F47100" stroke="none" d="
M 588.25 328.25
L 583 336.45 549.4 417.95 547.65 427.55 551.55 429.15 556.75 421 590.35 339.45 592.15 329.85 588.25 328.25 Z"/>
</g>

<g id="Layer0_0_MEMBER_5_MEMBER_8_MEMBER_0_MEMBER_0_MEMBER_0_FILL">
<path fill="#F47100" stroke="none" d="
M 578.5 326.35
L 575 335.4 558.2 421.95 558.4 431.7 562.5 432.5 566.05 423.45 582.8 336.9 582.65 327.15 578.5 326.35 Z"/>
</g>

<g id="Layer0_0_MEMBER_5_MEMBER_9_MEMBER_0_MEMBER_0_MEMBER_0_FILL">
<path fill="#F47100" stroke="none" d="
M 517.05 370.95
L 526.1 374.5 612.65 391.25 622.4 391.1 623.2 386.95 614.15 383.45 527.6 366.65 517.85 366.85 517.05 370.95 Z"/>
</g>

<g id="Layer0_0_MEMBER_5_MEMBER_10_MEMBER_0_MEMBER_0_MEMBER_0_FILL">
<path fill="#F47100" stroke="none" d="
M 538.2 335.75
L 542.1 344.65 591.45 417.65 598.5 424.45 602 422.1 598.05 413.2 548.7 340.2 541.7 333.4 538.2 335.75 Z"/>
</g>

<g id="Layer0_0_MEMBER_5_MEMBER_11_MEMBER_0_MEMBER_0_MEMBER_0_FILL">
<path fill="#F47100" stroke="none" d="
M 616 350
L 613.6 346.5 604.75 350.5 532.05 400.4 525.35 407.45 527.7 410.95 536.6 406.95 609.25 357.05 616 350 Z"/>
</g>

<g id="Layer0_0_MEMBER_5_MEMBER_12_MEMBER_0_MEMBER_0_MEMBER_0_FILL">
<path fill="#F47100" stroke="none" d="
M 556.6 326.75
L 556.85 336.45 574.85 422.75 578.75 431.7 582.9 430.85 582.65 421.15 564.65 334.85 560.75 325.9 556.6 326.75 Z"/>
</g>

<g id="Layer0_0_MEMBER_5_MEMBER_13_MEMBER_0_MEMBER_0_MEMBER_0_FILL">
<path fill="#F47100" stroke="none" d="
M 526.2 347.7
L 523.9 351.25 530.9 357.95 604.6 406.35 613.65 409.9 616 406.4 608.95 399.7 535.3 351.3 526.2 347.7 Z"/>
</g>

<g id="Layer0_0_MEMBER_5_MEMBER_14_MEMBER_0_MEMBER_0_MEMBER_0_FILL">
<path fill="#F47100" stroke="none" d="
M 517 387.15
L 517.85 391.25 527.55 391.05 613.85 373.2 622.8 369.3 621.95 365.2 612.25 365.4 525.95 383.25 517 387.15 Z"/>
</g>

<g id="Layer0_0_MEMBER_5_MEMBER_15_MEMBER_0_MEMBER_0_MEMBER_0_FILL">
<path fill="#F47100" stroke="none" d="
M 597.6 332.45
L 590.9 339.5 542.4 413.15 538.85 422.25 542.35 424.55 549.05 417.55 597.55 343.9 601.1 334.8 597.6 332.45 Z"/>
</g>

<g id="Layer0_0_MEMBER_6_MEMBER_0_MEMBER_0_MEMBER_0_MEMBER_0_FILL">
<path fill="#F47100" stroke="none" d="
M 439.3 282.15
L 433.25 282.15 430.75 295.9 430.75 422.35 433.65 436.05 439.7 436.05 442.15 422.35 442.15 295.9 439.3 282.15 Z"/>
</g>

<g id="Layer0_0_MEMBER_6_MEMBER_1_MEMBER_0_MEMBER_0_MEMBER_0_FILL">
<path fill="#F47100" stroke="none" d="
M 359.6 356.35
L 359.6 362.4 373.3 364.85 499.75 364.85 513.5 362 513.5 355.95 499.75 353.45 373.3 353.45 359.6 356.35 Z"/>
</g>

<g id="Layer0_0_MEMBER_6_MEMBER_2_MEMBER_0_MEMBER_0_MEMBER_0_FILL">
<path fill="#F47100" stroke="none" d="
M 379.85 306.85
L 387.75 318.3 477.2 407.75 488.95 415.4 493.2 411.1 485.25 399.65 395.85 310.2 384.1 302.55 379.85 306.85 Z"/>
</g>

<g id="Layer0_0_MEMBER_6_MEMBER_3_MEMBER_0_MEMBER_0_MEMBER_0_FILL">
<path fill="#F47100" stroke="none" d="
M 492.55 306.25
L 488.2 302 476.85 310.05 388.1 400.2 380.55 411.95 384.85 416.2 396.25 408.2 484.95 318.05 492.55 306.25 Z"/>
</g>

<g id="Layer0_0_MEMBER_6_MEMBER_4_MEMBER_0_MEMBER_0_MEMBER_0_FILL">
<path fill="#F47100" stroke="none" d="
M 403.75 289.45
L 406.75 303.05 455.65 419.7 463.6 431.25 469.15 428.9 466.15 415.3 417.25 298.65 409.3 287.1 403.75 289.45 Z"/>
</g>

<g id="Layer0_0_MEMBER_6_MEMBER_5_MEMBER_0_MEMBER_0_MEMBER_0_FILL">
<path fill="#F47100" stroke="none" d="
M 380.25 329.85
L 366.5 327.3 364.15 332.9 375.9 340.4 492.9 388.5 506.65 391.05 508.95 385.45 497.2 377.95 380.25 329.85 Z"/>
</g>

<g id="Layer0_0_MEMBER_6_MEMBER_6_MEMBER_0_MEMBER_0_MEMBER_0_FILL">
<path fill="#F47100" stroke="none" d="
M 366.75 391.55
L 380.35 388.6 497.1 339.95 508.65 332 506.3 326.4 492.7 329.4 375.95 378.05 364.4 386 366.75 391.55 Z"/>
</g>

<g id="Layer0_0_MEMBER_6_MEMBER_7_MEMBER_0_MEMBER_0_MEMBER_0_FILL">
<path fill="#F47100" stroke="none" d="
M 468.5 289.05
L 462.9 286.75 455.35 298.5 407.15 415.4 404.6 429.2 410.2 431.5 417.7 419.75 465.9 302.85 468.5 289.05 Z"/>
</g>

<g id="Layer0_0_MEMBER_6_MEMBER_8_MEMBER_0_MEMBER_0_MEMBER_0_FILL">
<path fill="#F47100" stroke="none" d="
M 453.95 285.6
L 448.05 284.45 443 297.45 418.9 421.6 419.15 435.6 425.05 436.75 430.15 423.8 454.2 299.6 453.95 285.6 Z"/>
</g>

<g id="Layer0_0_MEMBER_6_MEMBER_9_MEMBER_0_MEMBER_0_MEMBER_0_FILL">
<path fill="#F47100" stroke="none" d="
M 360.05 347.9
L 373 353 497.2 377.05 511.2 376.8 512.35 370.9 499.35 365.85 375.2 341.75 361.2 342 360.05 347.9 Z"/>
</g>

<g id="Layer0_0_MEMBER_6_MEMBER_10_MEMBER_0_MEMBER_0_MEMBER_0_FILL">
<path fill="#F47100" stroke="none" d="
M 391 297.7
L 396.6 310.45 467.4 415.25 477.45 425 482.45 421.6 476.85 408.85 406.05 304.05 396 294.3 391 297.7 Z"/>
</g>

<g id="Layer0_0_MEMBER_6_MEMBER_11_MEMBER_0_MEMBER_0_MEMBER_0_FILL">
<path fill="#F47100" stroke="none" d="
M 485.05 318.9
L 380.8 390.5 371.15 400.65 374.55 405.6 387.25 399.9 491.5 328.3 501.2 318.15 497.75 313.15 485.05 318.9 Z"/>
</g>

<g id="Layer0_0_MEMBER_6_MEMBER_12_MEMBER_0_MEMBER_0_MEMBER_0_FILL">
<path fill="#F47100" stroke="none" d="
M 423.7 284
L 417.75 285.2 418.15 299.15 443.95 422.95 449.55 435.75 455.5 434.55 455.15 420.6 429.3 296.8 423.7 284 Z"/>
</g>

<g id="Layer0_0_MEMBER_6_MEMBER_13_MEMBER_0_MEMBER_0_MEMBER_0_FILL">
<path fill="#F47100" stroke="none" d="
M 370.25 320.35
L 380.35 329.95 486 399.4 499.05 404.55 502.4 399.5 492.3 389.9 386.6 320.4 373.55 315.3 370.25 320.35 Z"/>
</g>

<g id="Layer0_0_MEMBER_6_MEMBER_14_MEMBER_0_MEMBER_0_MEMBER_0_FILL">
<path fill="#F47100" stroke="none" d="
M 360.55 372.95
L 361.8 378.85 375.75 378.55 499.55 352.95 512.4 347.35 511.2 341.45 497.25 341.8 373.4 367.35 360.55 372.95 Z"/>
</g>

<g id="Layer0_0_MEMBER_6_MEMBER_15_MEMBER_0_MEMBER_0_MEMBER_0_FILL">
<path fill="#F47100" stroke="none" d="
M 475.8 310.1
L 480.9 297.1 475.85 293.75 466.25 303.85 396.7 409.5 391.55 422.55 396.6 425.85 406.25 415.75 475.8 310.1 Z"/>
</g>

<g id="Layer0_0_MEMBER_7_MEMBER_0_MEMBER_0_MEMBER_0_FILL">
<path fill="#FFFFFF" stroke="none" d="
M 538 345.75
Q 524.65 359.05 524.65 378 524.65 396.95 538 410.3 551.35 423.65 570.3 423.65 589.2 423.65 602.55 410.3 615.95 396.9 615.95 378 615.95 359.1 602.55 345.75 589.25 332.35 570.3 332.35 551.35 332.35 538 345.75 Z"/>
</g>

<g id="Layer0_0_MEMBER_8_MEMBER_0_MEMBER_0_MEMBER_0_FILL">
<path fill="#FFFFFF" stroke="none" d="
M 390 312.7
Q 370.85 331.85 370.85 359.05 370.85 386.3 390 405.35 409.2 424.55 436.35 424.55 463.5 424.55 482.6 405.35 501.85 386.25 501.85 359.05 501.85 331.9 482.6 312.7 463.45 293.55 436.35 293.55 409.25 293.55 390 312.7 Z"/>
</g>

<g id="Layer0_0_MEMBER_9_MEMBER_0_MEMBER_0_MEMBER_0_FILL">
<path fill="#F47100" stroke="none" d="
M 386.65 360.05
Q 386.65 380.4 401.1 394.7 415.45 409.05 435.8 409.05 456.1 409.05 470.5 394.7 484.85 380.35 484.85 360.05 484.85 339.8 470.5 325.3 456.1 310.95 435.8 310.95 415.45 310.95 401.1 325.3 386.65 339.75 386.65 360.05 Z"/>
</g>

<g id="Layer0_0_MEMBER_10_MEMBER_0_MEMBER_0_MEMBER_0_FILL">
<path fill="#F47100" stroke="none" d="
M 387.55 353.45
Q 386.75 356.65 387.1 360.1 387.4 362.7 387.4 362.95
L 485.55 366.05
Q 486.05 361.85 486.05 357.1
L 485.6 356.55 387.55 353.45 Z"/>
</g>

<g id="Layer0_0_MEMBER_11_MEMBER_0_MEMBER_0_MEMBER_0_FILL">
<path fill="#F47100" stroke="none" d="
M 420.55 312.95
Q 416.6 314.25 412.35 316.35
L 412 317.05 452.4 406.45
Q 455.7 405.7 458.6 403.85
L 461 402.3 420.55 312.95 Z"/>
</g>

<g id="Layer0_0_MEMBER_12_MEMBER_0_MEMBER_0_MEMBER_0_FILL">
<path fill="#F47100" stroke="none" d="
M 465.5 319.5
L 464.75 319.4 400.85 393.9
Q 402.85 396.55 405.8 398.45
L 408.3 399.95 472.15 325.4
Q 469.05 322.3 465.5 319.5 Z"/>
</g>

<g id="Layer0_0_MEMBER_13_MEMBER_0_MEMBER_0_MEMBER_0_FILL">
<path fill="#F47100" stroke="none" d="
M 435.65 370.95
Q 440.7 370.95 444.35 367.3 448 363.8 448 358.6 448 353.45 444.35 349.95 440.8 346.3 435.65 346.3 430.5 346.3 427 349.95 423.35 353.55 423.35 358.6 423.35 363.75 427 367.3 430.6 370.95 435.65 370.95 Z"/>
</g>

<g id="Layer0_0_MEMBER_15_MEMBER_0_MEMBER_0_MEMBER_0_FILL">
<path fill="#F47100" stroke="none" d="
M 544.85 354.05
Q 534.65 364.35 534.65 378.6 534.65 392.85 544.85 403.3 555.15 413.45 569.55 413.45 583.9 413.45 594.1 403.3 604.25 392.9 604.25 378.6 604.25 364.3 594.1 354.05 583.95 343.8 569.55 343.8 555.1 343.8 544.85 354.05 Z"/>
</g>

<g id="Layer0_0_MEMBER_16_MEMBER_0_MEMBER_0_MEMBER_0_FILL">
<path fill="#F47100" fill-opacity="0.3686274509803922" stroke="none" d="
M 560.6 377.95
Q 560.6 381.85 563.35 384.6 566.1 387.35 570.05 387.35 574 387.35 576.65 384.6 579.35 381.9 579.35 377.95 579.35 374.1 576.65 371.3 573.9 368.55 570.05 368.55 566.2 368.55 563.35 371.3 560.6 374.15 560.6 377.95 Z"/>
</g>

<g id="Layer0_0_MEMBER_17_MEMBER_0_MEMBER_0_MEMBER_0_FILL">
<path fill="#F47100" stroke="none" d="
M 534.2 480.2
Q 544.8 469.6 544.8 454.65 544.8 439.7 534.2 429.15 523.6 418.45 508.75 418.45 493.85 418.45 483.15 429.15 472.55 439.75 472.55 454.65 472.55 469.55 483.15 480.2 493.75 490.8 508.75 490.8 523.65 490.8 534.2 480.2 Z"/>
</g>

<g id="Layer0_0_MEMBER_18_MEMBER_0_MEMBER_0_MEMBER_0_FILL">
<path fill="#F47100" fill-opacity="0.3686274509803922" stroke="none" d="
M 513.45 460.05
Q 515.55 457.9 515.55 454.9 515.55 451.9 513.45 449.7 511.3 447.6 508.3 447.6 505.25 447.6 503.15 449.7 501 451.95 501 454.9 501 457.8 503.15 460.05 505.25 462.15 508.3 462.15 511.3 462.15 513.45 460.05 Z"/>
</g>

<g id="Layer0_0_MEMBER_19_MEMBER_0_MEMBER_0_MEMBER_0_FILL">
<path fill="#000000" stroke="none" d="
M 258.9 247.6
Q 253.55 247.75 248.75 249.7 243.1 251.95 238.75 256.55 229.35 266.45 229.5 279 229.7 292.3 240.9 302.95 252.25 313.75 265.05 313 276.9 312.35 286.4 302.3 290.75 297.75 293.3 291.5 295.45 286.1 295.8 281
L 273.75 260.1 257.05 277.7 267 287.15 273.45 280.35 279.85 286.4
Q 279.45 288.55 277.35 290.75 265.9 302.8 252.35 290.05 246.2 284.15 245.5 277.55 244.85 271.2 249.4 266.4 251.85 263.8 254.5 262.65 256.7 261.75 260.1 261.4
L 258.9 247.6 Z"/>
</g>

<g id="Layer0_0_MEMBER_19_MEMBER_0_MEMBER_0_MEMBER_1_FILL">
<path fill="#000000" stroke="none" d="
M 342.05 254.6
L 333.7 243.25 313.3 258.2 306.55 249.05 323.3 236.75 314.95 225.4 298.2 237.7 292.3 229.65 311.85 215.25 303.5 203.85 270.35 228.25 308.1 279.6 342.05 254.6 Z"/>
</g>

<g id="Layer0_0_MEMBER_19_MEMBER_0_MEMBER_0_MEMBER_2_FILL">
<path fill="#000000" stroke="none" d="
M 351.45 178.6
L 333.05 187.35 342.85 253.2 358.4 245.8 355.45 232.25 371.55 224.6 380.2 235.45 396.3 227.8 351.45 178.6
M 347.1 194.55
L 347.45 194.4
Q 349.4 196.8 353.95 202.6 358.25 208.1 360.35 210.6
L 363.2 214.1 352.6 219.15 351.7 214.7
Q 350.65 209.35 347.1 194.55 Z"/>
</g>

<g id="Layer0_0_MEMBER_19_MEMBER_0_MEMBER_0_MEMBER_3_FILL">
<path fill="#000000" stroke="none" d="
M 1854.55 122.75
L 1831.1 128.4 1845.95 190.35 1862.35 186.4 1857.35 165.65 1863.65 164.1 1879.35 182.35 1897.6 177.95 1878.4 157.15
Q 1887.15 149.35 1884.1 136.85 1881.5 126.05 1872.95 122.8 1865.75 120.05 1854.55 122.75
M 1850.6 137.4
L 1856.5 136
Q 1861.6 134.8 1864.25 135.75 1867.2 136.8 1868.1 140.7 1869.1 144.7 1867.05 147.4 1865 150.1 1860.15 151.25
L 1854.25 152.65 1850.6 137.4 Z"/>
</g>

<g id="Layer0_0_MEMBER_19_MEMBER_0_MEMBER_0_MEMBER_4_FILL">
<path fill="#000000" stroke="none" d="
M 507.1 149.45
L 490.25 150 490.95 173.7 471.95 174.3 471.25 150.6 454.4 151.1 456.35 214.75 473.2 214.25 472.45 189 491.45 188.4 492.2 213.65 509.05 213.15 507.1 149.45 Z"/>
</g>

<g id="Layer0_0_MEMBER_19_MEMBER_0_MEMBER_0_MEMBER_5_FILL">
<path fill="#000000" stroke="none" d="
M 540.8 191.6
L 561.35 194.75 563.5 180.8 542.95 177.65 544.45 167.75 568.5 171.45 570.6 157.5 529.9 151.25 520.3 214.25 561.95 220.6 564.1 206.65 539.1 202.85 540.8 191.6 Z"/>
</g>

<g id="Layer0_0_MEMBER_19_MEMBER_0_MEMBER_0_MEMBER_6_FILL">
<path fill="#000000" stroke="none" d="
M 622.35 173.5
L 603.15 166.65 563.5 220.15 579.75 225.95 587.25 214.25 604.05 220.25 602.45 234 619.3 240 622.35 173.5
M 608 181.7
L 608.35 181.8
Q 608.05 184.75 607.15 192.2 606.3 199.05 606 202.4
L 605.55 206.95 594.5 203 596.95 199.2
Q 599.15 196 602.5 190.6 604.4 187.6 608 181.7 Z"/>
</g>

<g id="Layer0_0_MEMBER_19_MEMBER_0_MEMBER_0_MEMBER_7_FILL">
<path fill="#000000" stroke="none" d="
M 671 197.35
L 655 187.5 621.6 241.75 638.45 252.15
Q 650.85 259.8 661.85 257.6 673.85 255.2 682.35 241.4 690.85 227.6 687.3 216 684.05 205.4 671 197.35
M 662.25 207.85
L 663.1 208.35
Q 669.8 212.5 671.25 217.4 673.1 223.55 667.65 232.35 662.2 241.2 655.8 242.55 650.5 243.65 643.9 239.6
L 643.05 239.05 662.25 207.85 Z"/>
</g>

<g id="Layer0_0_MEMBER_19_MEMBER_0_MEMBER_0_MEMBER_8_FILL">
<path fill="#000000" stroke="none" d="
M 741.8 262.1
Q 741.5 256.15 738.7 250.6 736.1 245.4 731.9 241.55 724.3 234.6 715.4 234.3 706.65 234 701.05 240.15 696.7 244.95 696.3 251.1 695.9 256.45 698.55 261.9
L 702.15 269.7
Q 704.6 274.75 705 276.05 705.75 278.6 704.35 280.1 701.35 283.4 695.95 278.5 693.45 276.2 691.6 272.15 689.85 268.3 689.15 263.9
L 674.25 265.95
Q 674.9 272.6 678.2 278.85 681.25 284.7 685.9 288.95 694.35 296.65 703.6 296.8 712.3 296.95 718 290.7 726.5 281.45 720.6 269.45
L 716.95 261.95
Q 714.25 256.5 713.85 255.2 712.95 252.4 714.3 250.9 715.7 249.35 717.8 249.75 719.85 250.1 722.15 252.25 724.65 254.55 726.15 257.5 727.55 260.25 728.45 264.25
L 741.8 262.1 Z"/>
</g>

<g id="Layer0_0_MEMBER_20_MEMBER_0_MEMBER_0_MEMBER_0_FILL">
<path fill="#000000" stroke="none" d="
M 232.6 730.35
L 220.35 731.1
Q 220.45 736.55 222.75 741.85 224.85 746.8 228.4 750.55 234.8 757.35 242.35 758 249.4 758.65 254.45 753.9 261.9 746.85 257.85 736.75
L 255.3 730.45
Q 253.45 725.75 253.2 724.75 252.65 722.4 253.85 721.25 255.1 720.1 256.75 720.55 258.4 720.95 260.15 722.8 262.05 724.85 263.1 727.35 264.05 729.6 264.55 732.95
L 275.55 732.05
Q 275.65 727.15 273.75 722.45 271.95 718.1 268.75 714.7 263 708.6 255.7 707.8 248.6 707.05 243.7 711.7 239.85 715.35 239.15 720.3 238.55 724.65 240.35 729.25
L 242.85 735.85
Q 244.55 740.2 244.75 741.15 245.2 743.25 244 744.4 241.3 746.95 237.25 742.65 235.3 740.6 234.05 737.2 232.85 734 232.6 730.35 Z"/>
</g>

<g id="Layer0_0_MEMBER_20_MEMBER_0_MEMBER_0_MEMBER_1_FILL">
<path fill="#000000" stroke="none" d="
M 267.6 752.05
Q 260.05 762.25 261.05 772.1 262 781.75 270.8 788.25 279.6 794.8 289.15 792.9 298.9 791 306.4 780.8 313.9 770.7 312.8 760.95 311.75 751.5 302.95 744.95 294.1 738.4 284.75 740.15 275.1 741.9 267.6 752.05
M 277.85 778.75
Q 274.1 776 274.4 771.05 274.7 766.1 278.9 760.4 283.1 754.75 287.65 753.2 292.1 751.65 295.9 754.45 299.7 757.3 299.5 762 299.3 766.8 295.1 772.45 290.9 778.15 286.25 779.85 281.6 781.55 277.85 778.75 Z"/>
</g>

<g id="Layer0_0_MEMBER_20_MEMBER_0_MEMBER_0_MEMBER_2_FILL">
<path fill="#000000" stroke="none" d="
M 329.1 784.15
L 329.4 784.3 328.05 797.05 327.2 816 331.85 818.15 345.75 805.3 354.8 796.05 355.05 796.2
Q 350.4 803.75 350.15 804.1 347.1 809.25 345.65 812.3
L 339.2 826.25 350.8 831.6 372.7 784.45 359.8 778.45 337.4 801.25 337.1 801.1 339.75 769.15 326.85 763.15 304.95 810.35 316.4 815.65 322.9 801.7
Q 324.8 797.6 329.1 784.15 Z"/>
</g>

<g id="Layer0_0_MEMBER_20_MEMBER_0_MEMBER_0_MEMBER_3_FILL">
<path fill="#000000" stroke="none" d="
M 410.45 806.9
L 413.55 795.8 381.2 786.7 367.15 836.75 400.3 846.1 403.4 835 383.5 829.4 386.05 820.45 402.35 825.05 405.45 813.95 389.15 809.4 391.35 801.5 410.45 806.9 Z"/>
</g>

<g id="Layer0_0_MEMBER_20_MEMBER_0_MEMBER_0_MEMBER_4_FILL">
<path fill="#000000" stroke="none" d="
M 448.95 834.15
Q 458 830.95 459.6 820.6 462.2 804.05 441.65 800.8
L 422.25 797.75 414.15 849.1 427.75 851.25 430.45 834 435.65 834.85 441.8 853.45 457 855.85 448.95 834.15
M 432.15 823.25
L 434.15 810.6 439.05 811.4
Q 443.25 812.05 444.95 813.65 446.85 815.35 446.35 818.55 445.85 821.85 443.45 823.25 441.05 824.7 437.05 824.05
L 432.15 823.25 Z"/>
</g>

<g id="Layer0_0_MEMBER_20_MEMBER_0_MEMBER_0_MEMBER_5_FILL">
<path fill="#000000" stroke="none" d="
M 509.65 807.05
L 495.6 806.15 488.9 828.5
Q 488.2 830.75 486.5 836.6 485.05 841.65 484.05 844.7
L 483.75 844.7
Q 483.2 841.9 482.35 836.3 481.45 830.85 480.9 828
L 476.9 805 462.35 804.1 474.5 856.95 491.1 858 509.65 807.05 Z"/>
</g>

<g id="Layer0_0_MEMBER_20_MEMBER_0_MEMBER_0_MEMBER_6_FILL">
<path fill="#000000" stroke="none" d="
M 526.35 805.45
L 512.65 806.15 515.35 858.1 529.1 857.4 526.35 805.45 Z"/>
</g>

<g id="Layer0_0_MEMBER_20_MEMBER_0_MEMBER_0_MEMBER_7_FILL">
<path fill="#000000" stroke="none" d="
M 577.5 850.7
L 575.6 839.35 556.15 842.55 549.5 802.65 535.95 804.9 544.5 856.2 577.5 850.7 Z"/>
</g>

<g id="Layer0_0_MEMBER_20_MEMBER_0_MEMBER_0_MEMBER_8_FILL">
<path fill="#000000" stroke="none" d="
M 622.85 837.15
L 619.35 826.15 600.6 832.1 588.35 793.55 575.25 797.7 590.95 847.25 622.85 837.15 Z"/>
</g>

<g id="Layer0_0_MEMBER_20_MEMBER_0_MEMBER_0_MEMBER_9_FILL">
<path fill="#000000" stroke="none" d="
M 643.45 770.5
L 613.15 785.05 635.65 831.9 666.7 817.05 661.7 806.65 643.1 815.6 639.1 807.2 654.35 799.9 649.4 789.5 634.1 796.85 630.55 789.5 648.45 780.9 643.45 770.5 Z"/>
</g>

<g id="Layer0_0_MEMBER_20_MEMBER_0_MEMBER_0_MEMBER_10_FILL">
<path fill="#000000" stroke="none" d="
M 679.15 799
L 673.8 802.2 679.85 821.05 683.75 818.65 679.15 799 Z"/>
</g>

<g id="Layer0_0_MEMBER_20_MEMBER_0_MEMBER_0_MEMBER_11_FILL">
<path fill="#000000" stroke="none" d="
M 710.3 721.55
L 700.25 730 709.9 741.5
Q 712.5 744.6 716.95 748.95 719.45 751.35 723.95 755.6
L 723.75 755.8 712.45 750 688.7 739.65 677.9 748.65 711.3 788.55 721.35 780.1 711.7 768.6
Q 709.15 765.55 704.75 761.25 699.75 756.6 697.6 754.5
L 697.85 754.3 709.1 760 732.9 770.45 743.65 761.4 710.3 721.55 Z"/>
</g>

<g id="Layer0_0_MEMBER_20_MEMBER_0_MEMBER_0_MEMBER_12_FILL">
<path fill="#000000" stroke="none" d="
M 764.35 741.25
Q 770.2 734.9 769.25 727.65 768.35 721.05 762.25 715.4
L 737.3 692.45 727.95 702.6 752.1 724.8
Q 755.55 728 756 730.4 756.35 732.5 754.35 734.65 753.15 735.95 751.1 736.4 748.9 736.85 746.25 736.15
L 745.1 747.65
Q 750.8 748.95 755.4 747.45 760.1 745.9 764.35 741.25 Z"/>
</g>

<g id="Layer0_0_MEMBER_21_FILL">
<path fill="#000000" stroke="none" d="
M 680.4 793.7
L 670.55 801.05 676.6 824.15 683.8 818.8 680.4 793.7 Z"/>
</g>

<path id="Layer0_0_MEMBER_1_MEMBER_1_MEMBER_0_1_STROKES" stroke="#000000" stroke-width="3.5" stroke-linejoin="round" stroke-linecap="round" fill="none" d="
M 839.4 311.15
L 902.3 292.75
Q 912.85 309.8 919.4 329.4
L 865.4 365.5
Q 873.75 386.2 875.95 407
L 941.45 405.4
Q 947.2 425.05 948.4 445.25
L 886.9 466.15
Q 889.7 489.2 886.3 509
L 950 524.5
Q 950.45 544.7 946.4 564.75
L 881.55 569
Q 878.5 591.6 869.95 610.3
L 927.5 641.8
Q 922.65 661.75 913.55 679.75
L 849.9 667.1
Q 840.85 688.4 827.95 704
L 875.3 749.3
Q 865.65 767.1 852.05 782.45
L 793.8 753.7
Q 779.6 771.95 763.05 783.6
L 797.05 839.7
Q 782.9 854.45 766 865.6
L 717.25 822.75
Q 698.9 836.7 679.75 843.75
L 698.3 906.75
Q 681.2 917.15 661.65 923.75
L 625.5 869.75
Q 604.3 878.45 584.3 882.5
L 585.55 946
Q 566.1 951.6 545.75 952.85
L 524.8 891.3
Q 501.9 894.25 482 890.8
L 466 954.85
Q 445.25 956 427.1 950.8
L 422.75 887.8
Q 401.2 884.05 380.75 876.45
L 348.6 932.25
Q 328.25 927.95 312.2 918.3
L 324.25 856.3
Q 304.65 847.25 286.6 834.5
L 241.1 880
Q 222.75 870.7 209.55 857.2
L 237.55 801.25
Q 220.4 786.25 206.6 769.55
L 150.85 801.8
Q 135.35 787.95 126.15 771.55
L 167.75 724.8
Q 155.2 706.3 146.05 686.2
L 83.9 702.75
Q 72.55 685.35 67.9 667.1
L 120.15 632.75
Q 112.6 610.85 109.15 589.75
L 44.75 589.7
Q 38.3 569.8 38.5 551.1
L 97.9 531.5
Q 96.3 508.5 98.4 487.15
L 36.2 470.4
Q 35 449.7 40.15 431.5
L 102.55 428
Q 106.9 405.5 114.55 385.25
L 58.75 353.05
Q 63.15 332.5 72.75 316.55
L 133.85 329.25
Q 143.85 308.85 156.55 291.05
L 111 245.6
Q 120.3 227.05 133.85 213.9
L 189.65 242
Q 204.65 224.75 221.6 209.15
L 189.1 155.2
Q 203.05 139.65 219.5 130.65
L 266.1 172.2
Q 284.85 159.5 304.75 150.4
L 288.25 88.25
Q 305.9 76.85 323.85 72.35
L 359.1 124.75
Q 379.85 117.1 401.2 113.5
L 401.25 49.25
Q 421 42.7 439.85 43
L 459.45 102.35
Q 482.05 100.7 503.85 102.75
L 520.25 40.95
Q 540.3 40.5 560.45 44.55
L 564.75 109.35
Q 587.4 112.6 605.95 121
L 637.5 63.5
Q 657.45 68.35 675.45 77.45
L 662.8 141.15
Q 683.85 150 699.65 163
L 745 115.7
Q 762.8 125.35 778 138.9
L 749.4 197.2
Q 767.7 211.55 781.05 226.65
L 835.25 193.95
Q 849.95 207.8 861.25 224.9
L 818.45 273.8
Q 832.3 292.15 839.4 311.15 Z
M 869.05 499.15
Q 869.05 656 758.25 766.75 647.4 877.6 490.7 877.6 333.95 877.6 223.1 766.75 112.25 656.05 112.25 499.15 112.25 342.3 223.1 231.6 334 120.7 490.7 120.7 647.35 120.7 758.25 231.6 869.05 342.3 869.05 499.15 Z"/>

<path id="Layer0_0_MEMBER_2_MEMBER_1_MEMBER_0_1_STROKES" stroke="#000000" stroke-width="1" stroke-linejoin="round" stroke-linecap="round" fill="none" d="
M 435.85 643.45
Q 455.85 652.75 459.2 691.85 460.15 703.85 459.7 722.85 459.25 744.6 459.35 746.85 459.45 748.8 463.35 748.95 467.4 749.15 474.35 747.45 488.25 744.1 505.85 741.6 562.4 733.8 605.35 737.1 649.65 740.45 666.25 740.6 699.7 740.7 702.75 732.85 703.8 730.15 697.5 722.9 695.2 720.45 681.3 706.4 653.75 678.85 643.9 658.8 621.45 612.95 618.5 574.6 616.1 544.25 626.1 511.85
L 628.35 505.1
Q 631.2 496.5 636.1 484.25 645.65 459.8 646.65 457 658.75 424 659.9 396.5 661.5 357.65 642.6 326.4 630.95 307 612.35 292 603.45 284.8 593 278.65 568.55 264.4 539 257.85 532 256.35 523.85 255.1 485.55 249.55 448.2 257.5
L 446.45 257.85
Q 413.95 265.4 388.95 287.9 385.95 290.6 384.6 292 366.5 309.7 351.85 335.9 338.1 360.35 333.35 386.35 329 410.4 333.35 422.65 337.75 435 332.35 443.75
L 331.2 445.6
Q 326.8 452.7 321.6 459.5 313.05 470.85 308.55 477.5 305.25 482.25 303.2 485.85 300.9 489.65 297.6 496.1 291.25 509 294.35 513.75 296 516.35 299.6 517.85 303.1 519.25 309.85 520.35 315.25 521.2 318.45 523.1 322.35 525.3 323.1 529.85 323.85 534.95 320.45 541.35 316.05 549.45 318.35 555.95 320.4 561.5 325.85 562.7 328.1 563.25 325.95 564.15 323.35 565.8 322.2 568.45 320.8 571.8 322.6 575.1 323.75 577.05 326.8 579.2 329.9 581.4 331.8 584.55 334.35 588.85 333.1 597.6 332.35 602.85 329.95 614.15 328.15 624.4 329.85 631.1 332.2 639.95 340.8 645.35 349.2 650.7 393.35 647.6 414.85 646.15 435.85 643.45 Z"/>

<path id="Layer0_0_MEMBER_3_MEMBER_1_MEMBER_0_1_STROKES" stroke="#000000" stroke-width="2" stroke-linejoin="miter" stroke-linecap="round" stroke-miterlimit="60" fill="none" d="
M 462.45 664
L 494.95 644.5 494.95 710.7 476.25 710.7 476.25 671.95 467.85 676.1 462.45 664 Z
M 589.45 660.1
L 589.45 645.6
Q 603.15 646.65 612.7 651.25 622.15 655.75 625.9 662.95 629.75 670.25 626.75 678.75 623.45 687.95 612.9 697
L 631.4 697 628.45 709.6 585.25 709.6 585.25 703.8
Q 632.65 669.05 589.45 660.1 Z
M 574.65 678.75
Q 574.9 691.75 565.75 701 556.6 710.25 543.2 710.3 529.7 710.45 520.25 701.45 510.85 692.35 510.85 679.6 510.85 666.85 520.45 657.45 529.9 648 543.15 647.7 556.3 647.25 565.3 656.5 574.35 665.85 574.65 678.75 Z
M 557 680.7
Q 556.7 687.45 552.55 691.1 548.4 694.9 542.9 694.95 537.3 694.95 533.55 690.6 529.8 686.25 529.8 679.8 529.8 673.5 533.65 669.35 537.4 665.25 543.15 665.25 548.9 665.25 553.05 669.55 557.25 673.9 557 680.7 Z"/>

<path id="Layer0_0_MEMBER_4_MEMBER_0_MEMBER_1_MEMBER_0_1_STROKES" stroke="#000000" stroke-width="3.5" stroke-linejoin="round" stroke-linecap="round" fill="none" d="
M 512.15 419.95
L 505.9 419.95 505.5 489.05 511.75 489.1 512.15 419.95 510.6 412.45 507.3 412.45 505.9 419.95
M 505.5 489.05
L 507.05 496.6 510.35 496.6 511.75 489.1"/>

<path id="Layer0_0_MEMBER_4_MEMBER_1_MEMBER_1_MEMBER_0_1_STROKES" stroke="#000000" stroke-width="3.5" stroke-linejoin="round" stroke-linecap="round" fill="none" d="
M 543.7 451.65
L 551.2 453.1 551.15 456.4 543.65 457.9 474.5 457.55 467.05 456.15 467.05 452.8 474.55 451.3 543.7 451.65 543.65 457.9
M 474.5 457.55
L 474.55 451.3"/>

<path id="Layer0_0_MEMBER_4_MEMBER_2_MEMBER_1_MEMBER_0_1_STROKES" stroke="#000000" stroke-width="3.5" stroke-linejoin="round" stroke-linecap="round" fill="none" d="
M 531.05 480.9
L 535.5 476.5 486.85 427.35 482.4 431.75 531.05 480.9 537.45 485.15 539.8 482.8 535.5 476.5
M 486.85 427.35
L 480.45 423.1 478.1 425.45 482.4 431.75"/>

<path id="Layer0_0_MEMBER_4_MEMBER_3_MEMBER_1_MEMBER_0_1_STROKES" stroke="#000000" stroke-width="3.5" stroke-linejoin="round" stroke-linecap="round" fill="none" d="
M 530.75 427.85
L 535.2 432.25 539.35 425.8 537 423.5 530.75 427.85 481.95 476.85 486.4 481.3 535.2 432.25
M 486.4 481.3
L 480.15 485.65 477.8 483.3 481.95 476.85"/>

<path id="Layer0_0_MEMBER_4_MEMBER_4_MEMBER_1_MEMBER_0_1_STROKES" stroke="#000000" stroke-width="3.5" stroke-linejoin="round" stroke-linecap="round" fill="none" d="
M 492.3 423.75
L 498.05 421.35 493.75 415 490.7 416.3 492.3 423.75 518.7 487.65 524.45 485.3 498.05 421.35
M 524.45 485.3
L 526.05 492.75 523 494 518.7 487.65"/>

<path id="Layer0_0_MEMBER_4_MEMBER_5_MEMBER_1_MEMBER_0_1_STROKES" stroke="#000000" stroke-width="3.5" stroke-linejoin="round" stroke-linecap="round" fill="none" d="
M 541.85 464.95
L 548.25 469.1 546.95 472.15 539.45 470.7 475.65 444 469.25 439.9 470.5 436.8 478.05 438.25 541.85 464.95 539.45 470.7
M 475.65 444
L 478.05 438.25"/>

<path id="Layer0_0_MEMBER_4_MEMBER_6_MEMBER_1_MEMBER_0_1_STROKES" stroke="#000000" stroke-width="3.5" stroke-linejoin="round" stroke-linecap="round" fill="none" d="
M 541.75 444.4
L 539.4 438.65 475.4 464.9 477.8 470.7 541.75 444.4 548.1 440.1 546.85 437.05 539.4 438.65
M 475.4 464.9
L 469.05 469.2 470.3 472.3 477.8 470.7"/>

<path id="Layer0_0_MEMBER_4_MEMBER_7_MEMBER_1_MEMBER_0_1_STROKES" stroke="#000000" stroke-width="3.5" stroke-linejoin="round" stroke-linecap="round" fill="none" d="
M 524.75 423.8
L 519 421.4 492.25 485.2 498.05 487.6 524.75 423.8 526.2 416.3 523.15 415 519 421.4
M 492.25 485.2
L 490.85 492.7 493.9 494 498.05 487.6"/>

<path id="Layer0_0_MEMBER_4_MEMBER_8_MEMBER_1_MEMBER_0_1_STROKES" stroke="#000000" stroke-width="3.5" stroke-linejoin="round" stroke-linecap="round" fill="none" d="
M 512.5 420.9
L 515.3 413.8 518.55 414.45 518.65 422.1 505.1 489.95 502.3 497.05 499.05 496.4 499 488.75 512.5 420.9 518.65 422.1
M 505.1 489.95
L 499 488.75"/>

<path id="Layer0_0_MEMBER_4_MEMBER_9_MEMBER_1_MEMBER_0_1_STROKES" stroke="#000000" stroke-width="3.5" stroke-linejoin="round" stroke-linecap="round" fill="none" d="
M 541.75 464.35
L 543 458.25 475.15 444.7 473.95 450.85 541.75 464.35 549.45 464.3 550.1 461.05 543 458.25
M 475.15 444.7
L 467.5 444.8 466.85 448.05 473.95 450.85"/>

<path id="Layer0_0_MEMBER_4_MEMBER_10_MEMBER_1_MEMBER_0_1_STROKES" stroke="#000000" stroke-width="3.5" stroke-linejoin="round" stroke-linecap="round" fill="none" d="
M 487.1 427.6
L 492.3 424.1 486.85 418.75 484.1 420.6 487.1 427.6 525.5 485.1 530.7 481.65 492.3 424.1
M 530.7 481.65
L 533.75 488.65 531 490.45 525.5 485.1"/>

<path id="Layer0_0_MEMBER_4_MEMBER_11_MEMBER_1_MEMBER_0_1_STROKES" stroke="#000000" stroke-width="3.5" stroke-linejoin="round" stroke-linecap="round" fill="none" d="
M 535.4 432.9
L 538.95 438.05 544.25 432.55 542.4 429.8 535.4 432.9 478.2 471.75 481.7 476.9 538.95 438.05
M 481.7 476.9
L 474.7 480 472.85 477.25 478.2 471.75"/>

<path id="Layer0_0_MEMBER_4_MEMBER_12_MEMBER_1_MEMBER_0_1_STROKES" stroke="#000000" stroke-width="3.5" stroke-linejoin="round" stroke-linecap="round" fill="none" d="
M 498.7 421.3
L 504.85 420.05 501.8 413.05 498.55 413.7 498.7 421.3 512.45 489.1 518.6 487.85 504.85 420.05
M 518.6 487.85
L 518.75 495.5 515.5 496.15 512.45 489.1"/>

<path id="Layer0_0_MEMBER_4_MEMBER_13_MEMBER_1_MEMBER_0_1_STROKES" stroke="#000000" stroke-width="3.5" stroke-linejoin="round" stroke-linecap="round" fill="none" d="
M 535.5 476.65
L 538.95 471.45 481.35 433.15 477.9 438.35 535.5 476.65 542.6 479.5 544.45 476.75 538.95 471.45
M 481.35 433.15
L 474.25 430.3 472.4 433.05 477.9 438.35"/>

<path id="Layer0_0_MEMBER_4_MEMBER_14_MEMBER_1_MEMBER_0_1_STROKES" stroke="#000000" stroke-width="3.5" stroke-linejoin="round" stroke-linecap="round" fill="none" d="
M 541.95 445.25
L 549.6 445.1 550.25 448.35 543.2 451.35 475.4 464.95 467.75 465.1 467.1 461.85 474.15 458.85 541.95 445.25 543.2 451.35
M 475.4 464.95
L 474.15 458.85"/>

<path id="Layer0_0_MEMBER_4_MEMBER_15_MEMBER_1_MEMBER_0_1_STROKES" stroke="#000000" stroke-width="3.5" stroke-linejoin="round" stroke-linecap="round" fill="none" d="
M 525.25 424.8
L 530.55 419.3 533.3 421.15 530.45 428.25 492.1 485.8 486.8 491.3 484.05 489.45 486.9 482.35 525.25 424.8 530.45 428.25
M 492.1 485.8
L 486.9 482.35"/>

<path id="Layer0_0_MEMBER_5_MEMBER_0_MEMBER_1_MEMBER_0_1_STROKES" stroke="#000000" stroke-width="3.5" stroke-linejoin="round" stroke-linecap="round" fill="none" d="
M 566.2 334.05
L 567.95 324.45 572.15 324.45 574.2 334.05 574.2 422.2 572.45 431.75 568.25 431.75 566.2 422.2 566.2 334.05 574.2 334.05
M 574.2 422.2
L 566.2 422.2"/>

<path id="Layer0_0_MEMBER_5_MEMBER_1_MEMBER_1_MEMBER_0_1_STROKES" stroke="#000000" stroke-width="3.5" stroke-linejoin="round" stroke-linecap="round" fill="none" d="
M 525.7 382.35
L 525.7 374.4 516.15 376.4 516.15 380.6 525.7 382.35 613.85 382.35 613.85 374.4 525.7 374.4
M 613.85 374.4
L 623.45 376.1 623.45 380.35 613.85 382.35"/>

<path id="Layer0_0_MEMBER_5_MEMBER_2_MEMBER_1_MEMBER_0_1_STROKES" stroke="#000000" stroke-width="3.5" stroke-linejoin="round" stroke-linecap="round" fill="none" d="
M 541.8 343.7
L 533.6 338.35 530.6 341.35 536.15 349.3 541.8 343.7 604.1 406.05 609.65 414 606.65 417 598.5 411.65 536.15 349.3
M 598.5 411.65
L 604.1 406.05"/>

<path id="Layer0_0_MEMBER_5_MEMBER_3_MEMBER_1_MEMBER_0_1_STROKES" stroke="#000000" stroke-width="3.5" stroke-linejoin="round" stroke-linecap="round" fill="none" d="
M 603.8 349.75
L 609.1 341.5 606.1 338.55 598.15 344.15 603.8 349.75 541.95 412.55 534 418.15 531 415.2 536.3 407 598.15 344.15
M 536.3 407
L 541.95 412.55"/>

<path id="Layer0_0_MEMBER_5_MEMBER_4_MEMBER_1_MEMBER_0_1_STROKES" stroke="#000000" stroke-width="3.5" stroke-linejoin="round" stroke-linecap="round" fill="none" d="
M 549.7 339.35
L 557 336.25 551.5 328.2 547.6 329.85 549.7 339.35 583.75 420.65 591.1 417.55 557 336.25
M 591.1 417.55
L 593.2 427.05 589.3 428.7 583.75 420.65"/>

<path id="Layer0_0_MEMBER_5_MEMBER_5_MEMBER_1_MEMBER_0_1_STROKES" stroke="#000000" stroke-width="3.5" stroke-linejoin="round" stroke-linecap="round" fill="none" d="
M 531.2 357.75
L 521.6 355.95 520 359.85 528.15 365.1 531.2 357.75 612.7 391.3 620.9 396.5 619.3 400.4 609.7 398.65 528.15 365.1
M 609.7 398.65
L 612.7 391.3"/>

<path id="Layer0_0_MEMBER_5_MEMBER_6_MEMBER_1_MEMBER_0_1_STROKES" stroke="#000000" stroke-width="3.5" stroke-linejoin="round" stroke-linecap="round" fill="none" d="
M 612.3 364.9
L 609.2 357.6 527.85 391.5 530.9 398.85 612.3 364.9 620.35 359.4 618.7 355.5 609.2 357.6
M 527.85 391.5
L 519.8 397 521.4 400.9 530.9 398.85"/>

<path id="Layer0_0_MEMBER_5_MEMBER_7_MEMBER_1_MEMBER_0_1_STROKES" stroke="#000000" stroke-width="3.5" stroke-linejoin="round" stroke-linecap="round" fill="none" d="
M 590.35 339.45
L 583 336.45 549.4 417.95 556.75 421 590.35 339.45 592.15 329.85 588.25 328.25 583 336.45
M 549.4 417.95
L 547.6 427.55 551.5 429.15 556.75 421"/>

<path id="Layer0_0_MEMBER_5_MEMBER_8_MEMBER_1_MEMBER_0_1_STROKES" stroke="#000000" stroke-width="3.5" stroke-linejoin="round" stroke-linecap="round" fill="none" d="
M 574.95 335.4
L 578.5 326.35 582.65 327.15 582.8 336.9 566.05 423.45 562.5 432.5 558.35 431.7 558.2 421.95 574.95 335.4 582.8 336.9
M 566.05 423.45
L 558.2 421.95"/>

<path id="Layer0_0_MEMBER_5_MEMBER_9_MEMBER_1_MEMBER_0_1_STROKES" stroke="#000000" stroke-width="3.5" stroke-linejoin="round" stroke-linecap="round" fill="none" d="
M 527.6 366.7
L 517.85 366.85 517.05 370.95 526.1 374.5 527.6 366.7 614.15 383.45 623.2 386.95 622.4 391.1 612.65 391.25 526.1 374.5
M 612.65 391.25
L 614.15 383.45"/>

<path id="Layer0_0_MEMBER_5_MEMBER_10_MEMBER_1_MEMBER_0_1_STROKES" stroke="#000000" stroke-width="3.5" stroke-linejoin="round" stroke-linecap="round" fill="none" d="
M 542.1 344.65
L 548.7 340.2 541.7 333.4 538.2 335.75 542.1 344.65 591.45 417.65 598.05 413.2 548.7 340.2
M 598.05 413.2
L 601.95 422.1 598.5 424.45 591.45 417.65"/>

<path id="Layer0_0_MEMBER_5_MEMBER_11_MEMBER_1_MEMBER_0_1_STROKES" stroke="#000000" stroke-width="3.5" stroke-linejoin="round" stroke-linecap="round" fill="none" d="
M 609.2 357.05
L 615.95 349.95 613.6 346.5 604.7 350.5 609.2 357.05 536.55 406.95 527.7 410.95 525.3 407.45 532.05 400.4 604.7 350.5
M 532.05 400.4
L 536.55 406.95"/>

<path id="Layer0_0_MEMBER_5_MEMBER_12_MEMBER_1_MEMBER_0_1_STROKES" stroke="#000000" stroke-width="3.5" stroke-linejoin="round" stroke-linecap="round" fill="none" d="
M 556.85 336.45
L 564.65 334.85 560.75 325.9 556.6 326.75 556.85 336.45 574.85 422.75 582.65 421.15 564.65 334.85
M 582.65 421.15
L 582.9 430.85 578.75 431.7 574.85 422.75"/>

<path id="Layer0_0_MEMBER_5_MEMBER_13_MEMBER_1_MEMBER_0_1_STROKES" stroke="#000000" stroke-width="3.5" stroke-linejoin="round" stroke-linecap="round" fill="none" d="
M 535.3 351.3
L 526.2 347.7 523.9 351.25 530.95 357.95 535.3 351.3 608.95 399.7 616 406.4 613.7 409.95 604.6 406.35 530.95 357.95
M 604.6 406.35
L 608.95 399.7"/>

<path id="Layer0_0_MEMBER_5_MEMBER_14_MEMBER_1_MEMBER_0_1_STROKES" stroke="#000000" stroke-width="3.5" stroke-linejoin="round" stroke-linecap="round" fill="none" d="
M 525.95 383.25
L 517 387.15 517.85 391.25 527.55 391.05 525.95 383.25 612.25 365.4 621.95 365.2 622.8 369.3 613.85 373.2 527.55 391.05
M 613.85 373.2
L 612.25 365.4"/>

<path id="Layer0_0_MEMBER_5_MEMBER_15_MEMBER_1_MEMBER_0_1_STROKES" stroke="#000000" stroke-width="3.5" stroke-linejoin="round" stroke-linecap="round" fill="none" d="
M 590.9 339.5
L 597.6 332.5 601.15 334.8 597.55 343.9 549.1 417.55 542.35 424.55 538.85 422.25 542.45 413.15 590.9 339.5 597.55 343.9
M 549.1 417.55
L 542.45 413.15"/>

<path id="Layer0_0_MEMBER_6_MEMBER_0_MEMBER_1_MEMBER_0_1_STROKES" stroke="#000000" stroke-width="3.5" stroke-linejoin="round" stroke-linecap="round" fill="none" d="
M 430.75 295.9
L 433.2 282.15 439.25 282.15 442.15 295.9 442.15 422.35 439.65 436.05 433.6 436.05 430.75 422.35 430.75 295.9 442.15 295.9
M 442.15 422.35
L 430.75 422.35"/>

<path id="Layer0_0_MEMBER_6_MEMBER_1_MEMBER_1_MEMBER_0_1_STROKES" stroke="#000000" stroke-width="3.5" stroke-linejoin="round" stroke-linecap="round" fill="none" d="
M 373.3 353.45
L 359.6 356.3 359.6 362.35 373.3 364.85 373.3 353.45 499.75 353.45 513.5 355.9 513.5 361.95 499.75 364.85 373.3 364.85
M 499.75 364.85
L 499.75 353.45"/>

<path id="Layer0_0_MEMBER_6_MEMBER_2_MEMBER_1_MEMBER_0_1_STROKES" stroke="#000000" stroke-width="3.5" stroke-linejoin="round" stroke-linecap="round" fill="none" d="
M 387.8 318.3
L 395.85 310.2 384.15 302.55 379.85 306.8 387.8 318.3 477.25 407.7 485.3 399.65 395.85 310.2
M 485.3 399.65
L 493.25 411.1 488.95 415.35 477.25 407.7"/>

<path id="Layer0_0_MEMBER_6_MEMBER_3_MEMBER_1_MEMBER_0_1_STROKES" stroke="#000000" stroke-width="3.5" stroke-linejoin="round" stroke-linecap="round" fill="none" d="
M 476.85 310.05
L 484.95 318.1 492.55 306.3 488.25 302.05 476.85 310.05 388.1 400.2 396.25 408.2 484.95 318.1
M 396.25 408.2
L 384.85 416.25 380.55 412 388.1 400.2"/>

<path id="Layer0_0_MEMBER_6_MEMBER_4_MEMBER_1_MEMBER_0_1_STROKES" stroke="#000000" stroke-width="3.5" stroke-linejoin="round" stroke-linecap="round" fill="none" d="
M 406.75 303.1
L 417.25 298.7 409.3 287.15 403.75 289.5 406.75 303.1 455.65 419.75 466.15 415.3 417.25 298.7
M 466.15 415.3
L 469.15 428.95 463.6 431.25 455.65 419.75"/>

<path id="Layer0_0_MEMBER_6_MEMBER_5_MEMBER_1_MEMBER_0_1_STROKES" stroke="#000000" stroke-width="3.5" stroke-linejoin="round" stroke-linecap="round" fill="none" d="
M 375.9 340.4
L 380.25 329.8 366.45 327.25 364.15 332.85 375.9 340.4 492.85 388.5 497.2 377.9 380.25 329.8
M 497.2 377.9
L 508.95 385.45 506.65 391.05 492.85 388.5"/>

<path id="Layer0_0_MEMBER_6_MEMBER_6_MEMBER_1_MEMBER_0_1_STROKES" stroke="#000000" stroke-width="3.5" stroke-linejoin="round" stroke-linecap="round" fill="none" d="
M 380.35 388.6
L 375.95 378.05 364.4 386 366.75 391.6 380.35 388.6 497.1 339.95 492.7 329.4 375.95 378.05
M 492.7 329.4
L 506.3 326.4 508.65 332 497.1 339.95"/>

<path id="Layer0_0_MEMBER_6_MEMBER_7_MEMBER_1_MEMBER_0_1_STROKES" stroke="#000000" stroke-width="3.5" stroke-linejoin="round" stroke-linecap="round" fill="none" d="
M 455.35 298.5
L 462.9 286.75 468.5 289.05 465.95 302.85 417.75 419.75 410.2 431.5 404.6 429.2 407.15 415.4 455.35 298.5 465.95 302.85
M 417.75 419.75
L 407.15 415.4"/>

<path id="Layer0_0_MEMBER_6_MEMBER_8_MEMBER_1_MEMBER_0_1_STROKES" stroke="#000000" stroke-width="3.5" stroke-linejoin="round" stroke-linecap="round" fill="none" d="
M 443 297.4
L 448.05 284.45 453.95 285.6 454.2 299.6 430.15 423.75 425.1 436.75 419.15 435.6 418.9 421.6 443 297.4 454.2 299.6
M 430.15 423.75
L 418.9 421.6"/>

<path id="Layer0_0_MEMBER_6_MEMBER_9_MEMBER_1_MEMBER_0_1_STROKES" stroke="#000000" stroke-width="3.5" stroke-linejoin="round" stroke-linecap="round" fill="none" d="
M 373 352.95
L 375.2 341.75 361.2 341.95 360.05 347.9 373 352.95 497.2 377 499.35 365.8 375.2 341.75
M 499.35 365.8
L 512.35 370.85 511.2 376.8 497.2 377"/>

<path id="Layer0_0_MEMBER_6_MEMBER_10_MEMBER_1_MEMBER_0_1_STROKES" stroke="#000000" stroke-width="3.5" stroke-linejoin="round" stroke-linecap="round" fill="none" d="
M 406.05 304.1
L 396 294.35 390.95 297.7 396.6 310.5 406.05 304.1 476.85 408.85 482.45 421.6 477.45 425 467.35 415.25 396.6 310.5
M 467.35 415.25
L 476.85 408.85"/>

<path id="Layer0_0_MEMBER_6_MEMBER_11_MEMBER_1_MEMBER_0_1_STROKES" stroke="#000000" stroke-width="3.5" stroke-linejoin="round" stroke-linecap="round" fill="none" d="
M 380.8 390.5
L 485.05 318.9 497.75 313.2 501.2 318.15 491.5 328.3 387.25 399.9 374.55 405.65 371.15 400.65 380.8 390.5 387.25 399.9
M 485.05 318.9
L 491.5 328.3"/>

<path id="Layer0_0_MEMBER_6_MEMBER_12_MEMBER_1_MEMBER_0_1_STROKES" stroke="#000000" stroke-width="3.5" stroke-linejoin="round" stroke-linecap="round" fill="none" d="
M 429.3 296.8
L 423.7 283.95 417.75 285.2 418.1 299.1 429.3 296.8 455.15 420.55 455.5 434.5 449.55 435.75 443.95 422.9 418.1 299.1
M 443.95 422.9
L 455.15 420.55"/>

<path id="Layer0_0_MEMBER_6_MEMBER_13_MEMBER_1_MEMBER_0_1_STROKES" stroke="#000000" stroke-width="3.5" stroke-linejoin="round" stroke-linecap="round" fill="none" d="
M 380.3 329.95
L 386.6 320.4 373.55 315.3 370.2 320.35 380.3 329.95 486 399.4 492.25 389.9 386.6 320.4
M 492.25 389.9
L 502.35 399.5 499.05 404.55 486 399.4"/>

<path id="Layer0_0_MEMBER_6_MEMBER_14_MEMBER_1_MEMBER_0_1_STROKES" stroke="#000000" stroke-width="3.5" stroke-linejoin="round" stroke-linecap="round" fill="none" d="
M 373.4 367.35
L 360.55 372.95 361.8 378.85 375.7 378.55 373.4 367.35 497.25 341.8 511.2 341.45 512.4 347.35 499.55 352.95 375.7 378.55
M 499.55 352.95
L 497.25 341.8"/>

<path id="Layer0_0_MEMBER_6_MEMBER_15_MEMBER_1_MEMBER_0_1_STROKES" stroke="#000000" stroke-width="3.5" stroke-linejoin="round" stroke-linecap="round" fill="none" d="
M 475.8 310.15
L 466.25 303.85 396.7 409.5 406.25 415.8 475.8 310.15 480.95 297.1 475.85 293.75 466.25 303.85
M 396.7 409.5
L 391.6 422.55 396.65 425.85 406.25 415.8"/>

<path id="Layer0_0_MEMBER_7_MEMBER_1_MEMBER_0_1_STROKES" stroke="#000000" stroke-width="4.9" stroke-linejoin="round" stroke-linecap="round" fill="none" d="
M 615.95 378
Q 615.95 397 602.55 410.3 589.2 423.65 570.3 423.65 551.35 423.65 538 410.3 524.65 396.95 524.65 378 524.65 359.05 538 345.75 551.35 332.35 570.3 332.35 589.25 332.35 602.55 345.75 615.95 359 615.95 378 Z"/>

<path id="Layer0_0_MEMBER_8_MEMBER_1_MEMBER_0_1_STROKES" stroke="#000000" stroke-width="4.9" stroke-linejoin="round" stroke-linecap="round" fill="none" d="
M 501.85 359.05
Q 501.85 386.25 482.6 405.35 463.5 424.55 436.35 424.55 409.2 424.55 390 405.35 370.85 386.3 370.85 359.05 370.85 331.85 390 312.7 409.25 293.55 436.35 293.55 463.45 293.55 482.6 312.7 501.85 331.9 501.85 359.05 Z"/>

<path id="Layer0_0_MEMBER_9_MEMBER_1_MEMBER_0_1_STROKES" stroke="#000000" stroke-width="5.05" stroke-linejoin="round" stroke-linecap="round" fill="none" d="
M 484.85 360.05
Q 484.85 380.35 470.5 394.7 456.1 409.05 435.8 409.05 415.45 409.05 401.1 394.7 386.65 380.4 386.65 360.05 386.65 339.75 401.1 325.3 415.45 310.95 435.8 310.95 456.1 310.95 470.5 325.3 484.85 339.8 484.85 360.05 Z"/>

<path id="Layer0_0_MEMBER_10_MEMBER_1_MEMBER_0_1_STROKES" stroke="#000000" stroke-width="5.05" stroke-linejoin="round" stroke-linecap="butt" fill="none" d="
M 485.55 366.05
L 387.4 362.95
M 387.55 353.45
L 485.6 356.55"/>

<path id="Layer0_0_MEMBER_11_MEMBER_1_MEMBER_0_1_STROKES" stroke="#000000" stroke-width="5.05" stroke-linejoin="round" stroke-linecap="butt" fill="none" d="
M 452.4 406.45
L 412 317.05
M 420.55 312.95
L 461 402.3"/>

<path id="Layer0_0_MEMBER_12_MEMBER_1_MEMBER_0_1_STROKES" stroke="#000000" stroke-width="5.05" stroke-linejoin="round" stroke-linecap="butt" fill="none" d="
M 400.85 393.95
L 464.8 319.4
M 472.15 325.4
L 408.3 399.95"/>

<path id="Layer0_0_MEMBER_13_MEMBER_1_MEMBER_0_1_STROKES" stroke="#000000" stroke-width="9.85" stroke-linejoin="round" stroke-linecap="round" fill="none" d="
M 448 358.6
Q 448 363.8 444.35 367.3 440.7 370.95 435.65 370.95 430.6 370.95 427 367.3 423.35 363.75 423.35 358.6 423.35 353.55 427 349.95 430.5 346.3 435.65 346.3 440.8 346.3 444.35 349.95 448 353.45 448 358.6 Z"/>

<path id="Layer0_0_MEMBER_14_MEMBER_0_MEMBER_0_1_STROKES" stroke="#000000" stroke-width="5.05" stroke-linejoin="round" stroke-linecap="round" fill="none" d="
M 484.85 360.05
Q 484.85 380.35 470.5 394.7 456.1 409.05 435.8 409.05 415.45 409.05 401.1 394.7 386.65 380.4 386.65 360.05 386.65 339.75 401.1 325.3 415.45 310.95 435.8 310.95 456.1 310.95 470.5 325.3 484.85 339.8 484.85 360.05 Z"/>

<path id="Layer0_0_MEMBER_15_MEMBER_1_MEMBER_0_1_STROKES" stroke="#000000" stroke-width="4.15" stroke-linejoin="round" stroke-linecap="round" fill="none" d="
M 604.25 378.6
Q 604.25 392.9 594.1 403.3 583.9 413.45 569.55 413.45 555.15 413.45 544.85 403.3 534.65 392.85 534.65 378.6 534.65 364.35 544.85 354.05 555.1 343.8 569.55 343.8 583.95 343.8 594.1 354.05 604.25 364.3 604.25 378.6 Z"/>

<path id="Layer0_0_MEMBER_16_MEMBER_1_MEMBER_0_1_STROKES" stroke="#000000" stroke-width="7.15" stroke-linejoin="round" stroke-linecap="round" fill="none" d="
M 579.35 377.95
Q 579.35 381.9 576.65 384.6 574 387.35 570.05 387.35 566.1 387.35 563.35 384.6 560.6 381.85 560.6 377.95 560.6 374.15 563.35 371.3 566.2 368.55 570.05 368.55 573.9 368.55 576.65 371.3 579.35 374.1 579.35 377.95 Z"/>

<path id="Layer0_0_MEMBER_17_MEMBER_1_MEMBER_0_1_STROKES" stroke="#000000" stroke-width="4.15" stroke-linejoin="round" stroke-linecap="round" fill="none" d="
M 544.8 454.65
Q 544.8 469.6 534.25 480.2 523.75 490.8 508.75 490.8 493.75 490.8 483.15 480.2 472.6 469.6 472.6 454.65 472.6 439.7 483.15 429.15 493.85 418.45 508.75 418.45 523.65 418.45 534.25 429.15 544.8 439.7 544.8 454.65 Z"/>

<path id="Layer0_0_MEMBER_18_MEMBER_1_MEMBER_0_1_STROKES" stroke="#000000" stroke-width="6.5" stroke-linejoin="round" stroke-linecap="round" fill="none" d="
M 515.5 454.95
Q 515.5 457.95 513.4 460.05 511.3 462.15 508.3 462.15 505.25 462.15 503.15 460.05 501 458 501 454.95 501 451.85 503.15 449.75 505.25 447.65 508.3 447.65 511.3 447.65 513.4 449.75 515.5 451.85 515.5 454.95 Z"/>
</defs>

<g transform="matrix( 1, 0, 0, 1, 10.85,11.1) ">
<use xlink:href="#Layer0_0_MEMBER_0_MEMBER_0_MEMBER_0_MEMBER_0_FILL"/>
</g>

<g transform="matrix( 1, 0, 0, 1, 10.85,11.1) ">
<use xlink:href="#Layer0_0_MEMBER_1_MEMBER_0_MEMBER_0_MEMBER_0_FILL"/>
</g>

<g transform="matrix( 1, 0, 0, 1, 10.85,11.1) ">
<use xlink:href="#Layer0_0_MEMBER_1_MEMBER_1_MEMBER_0_1_STROKES"/>
</g>

<g transform="matrix( 1, 0, 0, 1, 10.85,11.1) ">
<use xlink:href="#Layer0_0_MEMBER_2_MEMBER_0_MEMBER_0_MEMBER_0_FILL"/>
</g>

<g transform="matrix( 1, 0, 0, 1, 0,0) ">
<use xlink:href="#Layer0_0_MEMBER_2_MEMBER_1_MEMBER_0_1_STROKES"/>
</g>

<g transform="matrix( 1, 0, 0, 1, 10.85,11.1) ">
<use xlink:href="#Layer0_0_MEMBER_3_MEMBER_0_MEMBER_0_MEMBER_0_FILL"/>
</g>

<g transform="matrix( 1, 0, 0, 1, 10.85,11.1) ">
<use xlink:href="#Layer0_0_MEMBER_3_MEMBER_1_MEMBER_0_1_STROKES"/>
</g>

<g transform="matrix( 1, 0, 0, 1, 10.85,11.1) ">
<use xlink:href="#Layer0_0_MEMBER_4_MEMBER_0_MEMBER_0_MEMBER_0_MEMBER_0_FILL"/>
</g>

<g transform="matrix( 1, 0, 0, 1, 10.85,11.1) ">
<use xlink:href="#Layer0_0_MEMBER_4_MEMBER_0_MEMBER_1_MEMBER_0_1_STROKES"/>
</g>

<g transform="matrix( 1, 0, 0, 1, 10.85,11.1) ">
<use xlink:href="#Layer0_0_MEMBER_4_MEMBER_1_MEMBER_0_MEMBER_0_MEMBER_0_FILL"/>
</g>

<g transform="matrix( 1, 0, 0, 1, 10.85,11.1) ">
<use xlink:href="#Layer0_0_MEMBER_4_MEMBER_1_MEMBER_1_MEMBER_0_1_STROKES"/>
</g>

<g transform="matrix( 1, 0, 0, 1, 10.85,11.1) ">
<use xlink:href="#Layer0_0_MEMBER_4_MEMBER_2_MEMBER_0_MEMBER_0_MEMBER_0_FILL"/>
</g>

<g transform="matrix( 1, 0, 0, 1, 10.85,11.1) ">
<use xlink:href="#Layer0_0_MEMBER_4_MEMBER_2_MEMBER_1_MEMBER_0_1_STROKES"/>
</g>

<g transform="matrix( 1, 0, 0, 1, 10.85,11.1) ">
<use xlink:href="#Layer0_0_MEMBER_4_MEMBER_3_MEMBER_0_MEMBER_0_MEMBER_0_FILL"/>
</g>

<g transform="matrix( 1, 0, 0, 1, 10.85,11.1) ">
<use xlink:href="#Layer0_0_MEMBER_4_MEMBER_3_MEMBER_1_MEMBER_0_1_STROKES"/>
</g>

<g transform="matrix( 1, 0, 0, 1, 10.85,11.1) ">
<use xlink:href="#Layer0_0_MEMBER_4_MEMBER_4_MEMBER_0_MEMBER_0_MEMBER_0_FILL"/>
</g>

<g transform="matrix( 1, 0, 0, 1, 10.85,11.1) ">
<use xlink:href="#Layer0_0_MEMBER_4_MEMBER_4_MEMBER_1_MEMBER_0_1_STROKES"/>
</g>

<g transform="matrix( 1, 0, 0, 1, 10.85,11.1) ">
<use xlink:href="#Layer0_0_MEMBER_4_MEMBER_5_MEMBER_0_MEMBER_0_MEMBER_0_FILL"/>
</g>

<g transform="matrix( 1, 0, 0, 1, 10.85,11.1) ">
<use xlink:href="#Layer0_0_MEMBER_4_MEMBER_5_MEMBER_1_MEMBER_0_1_STROKES"/>
</g>

<g transform="matrix( 1, 0, 0, 1, 10.85,11.1) ">
<use xlink:href="#Layer0_0_MEMBER_4_MEMBER_6_MEMBER_0_MEMBER_0_MEMBER_0_FILL"/>
</g>

<g transform="matrix( 1, 0, 0, 1, 10.85,11.1) ">
<use xlink:href="#Layer0_0_MEMBER_4_MEMBER_6_MEMBER_1_MEMBER_0_1_STROKES"/>
</g>

<g transform="matrix( 1, 0, 0, 1, 10.85,11.1) ">
<use xlink:href="#Layer0_0_MEMBER_4_MEMBER_7_MEMBER_0_MEMBER_0_MEMBER_0_FILL"/>
</g>

<g transform="matrix( 1, 0, 0, 1, 10.85,11.1) ">
<use xlink:href="#Layer0_0_MEMBER_4_MEMBER_7_MEMBER_1_MEMBER_0_1_STROKES"/>
</g>

<g transform="matrix( 1, 0, 0, 1, 10.85,11.1) ">
<use xlink:href="#Layer0_0_MEMBER_4_MEMBER_8_MEMBER_0_MEMBER_0_MEMBER_0_FILL"/>
</g>

<g transform="matrix( 1, 0, 0, 1, 10.85,11.1) ">
<use xlink:href="#Layer0_0_MEMBER_4_MEMBER_8_MEMBER_1_MEMBER_0_1_STROKES"/>
</g>

<g transform="matrix( 1, 0, 0, 1, 10.85,11.1) ">
<use xlink:href="#Layer0_0_MEMBER_4_MEMBER_9_MEMBER_0_MEMBER_0_MEMBER_0_FILL"/>
</g>

<g transform="matrix( 1, 0, 0, 1, 10.85,11.1) ">
<use xlink:href="#Layer0_0_MEMBER_4_MEMBER_9_MEMBER_1_MEMBER_0_1_STROKES"/>
</g>

<g transform="matrix( 1, 0, 0, 1, 10.85,11.1) ">
<use xlink:href="#Layer0_0_MEMBER_4_MEMBER_10_MEMBER_0_MEMBER_0_MEMBER_0_FILL"/>
</g>

<g transform="matrix( 1, 0, 0, 1, 10.85,11.1) ">
<use xlink:href="#Layer0_0_MEMBER_4_MEMBER_10_MEMBER_1_MEMBER_0_1_STROKES"/>
</g>

<g transform="matrix( 1, 0, 0, 1, 10.85,11.1) ">
<use xlink:href="#Layer0_0_MEMBER_4_MEMBER_11_MEMBER_0_MEMBER_0_MEMBER_0_FILL"/>
</g>

<g transform="matrix( 1, 0, 0, 1, 10.85,11.1) ">
<use xlink:href="#Layer0_0_MEMBER_4_MEMBER_11_MEMBER_1_MEMBER_0_1_STROKES"/>
</g>

<g transform="matrix( 1, 0, 0, 1, 10.85,11.1) ">
<use xlink:href="#Layer0_0_MEMBER_4_MEMBER_12_MEMBER_0_MEMBER_0_MEMBER_0_FILL"/>
</g>

<g transform="matrix( 1, 0, 0, 1, 10.85,11.1) ">
<use xlink:href="#Layer0_0_MEMBER_4_MEMBER_12_MEMBER_1_MEMBER_0_1_STROKES"/>
</g>

<g transform="matrix( 1, 0, 0, 1, 10.85,11.1) ">
<use xlink:href="#Layer0_0_MEMBER_4_MEMBER_13_MEMBER_0_MEMBER_0_MEMBER_0_FILL"/>
</g>

<g transform="matrix( 1, 0, 0, 1, 10.85,11.1) ">
<use xlink:href="#Layer0_0_MEMBER_4_MEMBER_13_MEMBER_1_MEMBER_0_1_STROKES"/>
</g>

<g transform="matrix( 1, 0, 0, 1, 10.85,11.1) ">
<use xlink:href="#Layer0_0_MEMBER_4_MEMBER_14_MEMBER_0_MEMBER_0_MEMBER_0_FILL"/>
</g>

<g transform="matrix( 1, 0, 0, 1, 10.85,11.1) ">
<use xlink:href="#Layer0_0_MEMBER_4_MEMBER_14_MEMBER_1_MEMBER_0_1_STROKES"/>
</g>

<g transform="matrix( 1, 0, 0, 1, 10.85,11.1) ">
<use xlink:href="#Layer0_0_MEMBER_4_MEMBER_15_MEMBER_0_MEMBER_0_MEMBER_0_FILL"/>
</g>

<g transform="matrix( 1, 0, 0, 1, 10.85,11.1) ">
<use xlink:href="#Layer0_0_MEMBER_4_MEMBER_15_MEMBER_1_MEMBER_0_1_STROKES"/>
</g>

<g transform="matrix( 1, 0, 0, 1, 10.85,11.1) ">
<use xlink:href="#Layer0_0_MEMBER_5_MEMBER_0_MEMBER_0_MEMBER_0_MEMBER_0_FILL"/>
</g>

<g transform="matrix( 1, 0, 0, 1, 10.85,11.1) ">
<use xlink:href="#Layer0_0_MEMBER_5_MEMBER_0_MEMBER_1_MEMBER_0_1_STROKES"/>
</g>

<g transform="matrix( 1, 0, 0, 1, 10.85,11.1) ">
<use xlink:href="#Layer0_0_MEMBER_5_MEMBER_1_MEMBER_0_MEMBER_0_MEMBER_0_FILL"/>
</g>

<g transform="matrix( 1, 0, 0, 1, 10.85,11.1) ">
<use xlink:href="#Layer0_0_MEMBER_5_MEMBER_1_MEMBER_1_MEMBER_0_1_STROKES"/>
</g>

<g transform="matrix( 1, 0, 0, 1, 10.85,11.1) ">
<use xlink:href="#Layer0_0_MEMBER_5_MEMBER_2_MEMBER_0_MEMBER_0_MEMBER_0_FILL"/>
</g>

<g transform="matrix( 1, 0, 0, 1, 10.85,11.1) ">
<use xlink:href="#Layer0_0_MEMBER_5_MEMBER_2_MEMBER_1_MEMBER_0_1_STROKES"/>
</g>

<g transform="matrix( 1, 0, 0, 1, 10.85,11.1) ">
<use xlink:href="#Layer0_0_MEMBER_5_MEMBER_3_MEMBER_0_MEMBER_0_MEMBER_0_FILL"/>
</g>

<g transform="matrix( 1, 0, 0, 1, 10.85,11.1) ">
<use xlink:href="#Layer0_0_MEMBER_5_MEMBER_3_MEMBER_1_MEMBER_0_1_STROKES"/>
</g>

<g transform="matrix( 1, 0, 0, 1, 10.85,11.1) ">
<use xlink:href="#Layer0_0_MEMBER_5_MEMBER_4_MEMBER_0_MEMBER_0_MEMBER_0_FILL"/>
</g>

<g transform="matrix( 1, 0, 0, 1, 10.85,11.1) ">
<use xlink:href="#Layer0_0_MEMBER_5_MEMBER_4_MEMBER_1_MEMBER_0_1_STROKES"/>
</g>

<g transform="matrix( 1, 0, 0, 1, 10.85,11.1) ">
<use xlink:href="#Layer0_0_MEMBER_5_MEMBER_5_MEMBER_0_MEMBER_0_MEMBER_0_FILL"/>
</g>

<g transform="matrix( 1, 0, 0, 1, 10.85,11.1) ">
<use xlink:href="#Layer0_0_MEMBER_5_MEMBER_5_MEMBER_1_MEMBER_0_1_STROKES"/>
</g>

<g transform="matrix( 1, 0, 0, 1, 10.85,11.1) ">
<use xlink:href="#Layer0_0_MEMBER_5_MEMBER_6_MEMBER_0_MEMBER_0_MEMBER_0_FILL"/>
</g>

<g transform="matrix( 1, 0, 0, 1, 10.85,11.1) ">
<use xlink:href="#Layer0_0_MEMBER_5_MEMBER_6_MEMBER_1_MEMBER_0_1_STROKES"/>
</g>

<g transform="matrix( 1, 0, 0, 1, 10.85,11.1) ">
<use xlink:href="#Layer0_0_MEMBER_5_MEMBER_7_MEMBER_0_MEMBER_0_MEMBER_0_FILL"/>
</g>

<g transform="matrix( 1, 0, 0, 1, 10.85,11.1) ">
<use xlink:href="#Layer0_0_MEMBER_5_MEMBER_7_MEMBER_1_MEMBER_0_1_STROKES"/>
</g>

<g transform="matrix( 1, 0, 0, 1, 10.85,11.1) ">
<use xlink:href="#Layer0_0_MEMBER_5_MEMBER_8_MEMBER_0_MEMBER_0_MEMBER_0_FILL"/>
</g>

<g transform="matrix( 1, 0, 0, 1, 10.85,11.1) ">
<use xlink:href="#Layer0_0_MEMBER_5_MEMBER_8_MEMBER_1_MEMBER_0_1_STROKES"/>
</g>

<g transform="matrix( 1, 0, 0, 1, 10.85,11.1) ">
<use xlink:href="#Layer0_0_MEMBER_5_MEMBER_9_MEMBER_0_MEMBER_0_MEMBER_0_FILL"/>
</g>

<g transform="matrix( 1, 0, 0, 1, 10.85,11.1) ">
<use xlink:href="#Layer0_0_MEMBER_5_MEMBER_9_MEMBER_1_MEMBER_0_1_STROKES"/>
</g>

<g transform="matrix( 1, 0, 0, 1, 10.85,11.1) ">
<use xlink:href="#Layer0_0_MEMBER_5_MEMBER_10_MEMBER_0_MEMBER_0_MEMBER_0_FILL"/>
</g>

<g transform="matrix( 1, 0, 0, 1, 10.85,11.1) ">
<use xlink:href="#Layer0_0_MEMBER_5_MEMBER_10_MEMBER_1_MEMBER_0_1_STROKES"/>
</g>

<g transform="matrix( 1, 0, 0, 1, 10.85,11.1) ">
<use xlink:href="#Layer0_0_MEMBER_5_MEMBER_11_MEMBER_0_MEMBER_0_MEMBER_0_FILL"/>
</g>

<g transform="matrix( 1, 0, 0, 1, 10.85,11.1) ">
<use xlink:href="#Layer0_0_MEMBER_5_MEMBER_11_MEMBER_1_MEMBER_0_1_STROKES"/>
</g>

<g transform="matrix( 1, 0, 0, 1, 10.85,11.1) ">
<use xlink:href="#Layer0_0_MEMBER_5_MEMBER_12_MEMBER_0_MEMBER_0_MEMBER_0_FILL"/>
</g>

<g transform="matrix( 1, 0, 0, 1, 10.85,11.1) ">
<use xlink:href="#Layer0_0_MEMBER_5_MEMBER_12_MEMBER_1_MEMBER_0_1_STROKES"/>
</g>

<g transform="matrix( 1, 0, 0, 1, 10.85,11.1) ">
<use xlink:href="#Layer0_0_MEMBER_5_MEMBER_13_MEMBER_0_MEMBER_0_MEMBER_0_FILL"/>
</g>

<g transform="matrix( 1, 0, 0, 1, 10.85,11.1) ">
<use xlink:href="#Layer0_0_MEMBER_5_MEMBER_13_MEMBER_1_MEMBER_0_1_STROKES"/>
</g>

<g transform="matrix( 1, 0, 0, 1, 10.85,11.1) ">
<use xlink:href="#Layer0_0_MEMBER_5_MEMBER_14_MEMBER_0_MEMBER_0_MEMBER_0_FILL"/>
</g>

<g transform="matrix( 1, 0, 0, 1, 10.85,11.1) ">
<use xlink:href="#Layer0_0_MEMBER_5_MEMBER_14_MEMBER_1_MEMBER_0_1_STROKES"/>
</g>

<g transform="matrix( 1, 0, 0, 1, 10.85,11.1) ">
<use xlink:href="#Layer0_0_MEMBER_5_MEMBER_15_MEMBER_0_MEMBER_0_MEMBER_0_FILL"/>
</g>

<g transform="matrix( 1, 0, 0, 1, 10.85,11.1) ">
<use xlink:href="#Layer0_0_MEMBER_5_MEMBER_15_MEMBER_1_MEMBER_0_1_STROKES"/>
</g>

<g transform="matrix( 1, 0, 0, 1, 10.85,11.1) ">
<use xlink:href="#Layer0_0_MEMBER_6_MEMBER_0_MEMBER_0_MEMBER_0_MEMBER_0_FILL"/>
</g>

<g transform="matrix( 1, 0, 0, 1, 10.85,11.1) ">
<use xlink:href="#Layer0_0_MEMBER_6_MEMBER_0_MEMBER_1_MEMBER_0_1_STROKES"/>
</g>

<g transform="matrix( 1, 0, 0, 1, 10.85,11.1) ">
<use xlink:href="#Layer0_0_MEMBER_6_MEMBER_1_MEMBER_0_MEMBER_0_MEMBER_0_FILL"/>
</g>

<g transform="matrix( 1, 0, 0, 1, 10.85,11.1) ">
<use xlink:href="#Layer0_0_MEMBER_6_MEMBER_1_MEMBER_1_MEMBER_0_1_STROKES"/>
</g>

<g transform="matrix( 1, 0, 0, 1, 10.85,11.1) ">
<use xlink:href="#Layer0_0_MEMBER_6_MEMBER_2_MEMBER_0_MEMBER_0_MEMBER_0_FILL"/>
</g>

<g transform="matrix( 1, 0, 0, 1, 10.85,11.1) ">
<use xlink:href="#Layer0_0_MEMBER_6_MEMBER_2_MEMBER_1_MEMBER_0_1_STROKES"/>
</g>

<g transform="matrix( 1, 0, 0, 1, 10.85,11.1) ">
<use xlink:href="#Layer0_0_MEMBER_6_MEMBER_3_MEMBER_0_MEMBER_0_MEMBER_0_FILL"/>
</g>

<g transform="matrix( 1, 0, 0, 1, 10.85,11.1) ">
<use xlink:href="#Layer0_0_MEMBER_6_MEMBER_3_MEMBER_1_MEMBER_0_1_STROKES"/>
</g>

<g transform="matrix( 1, 0, 0, 1, 10.85,11.1) ">
<use xlink:href="#Layer0_0_MEMBER_6_MEMBER_4_MEMBER_0_MEMBER_0_MEMBER_0_FILL"/>
</g>

<g transform="matrix( 1, 0, 0, 1, 10.85,11.1) ">
<use xlink:href="#Layer0_0_MEMBER_6_MEMBER_4_MEMBER_1_MEMBER_0_1_STROKES"/>
</g>

<g transform="matrix( 1, 0, 0, 1, 10.85,11.1) ">
<use xlink:href="#Layer0_0_MEMBER_6_MEMBER_5_MEMBER_0_MEMBER_0_MEMBER_0_FILL"/>
</g>

<g transform="matrix( 1, 0, 0, 1, 10.85,11.1) ">
<use xlink:href="#Layer0_0_MEMBER_6_MEMBER_5_MEMBER_1_MEMBER_0_1_STROKES"/>
</g>

<g transform="matrix( 1, 0, 0, 1, 10.85,11.1) ">
<use xlink:href="#Layer0_0_MEMBER_6_MEMBER_6_MEMBER_0_MEMBER_0_MEMBER_0_FILL"/>
</g>

<g transform="matrix( 1, 0, 0, 1, 10.85,11.1) ">
<use xlink:href="#Layer0_0_MEMBER_6_MEMBER_6_MEMBER_1_MEMBER_0_1_STROKES"/>
</g>

<g transform="matrix( 1, 0, 0, 1, 10.85,11.1) ">
<use xlink:href="#Layer0_0_MEMBER_6_MEMBER_7_MEMBER_0_MEMBER_0_MEMBER_0_FILL"/>
</g>

<g transform="matrix( 1, 0, 0, 1, 10.85,11.1) ">
<use xlink:href="#Layer0_0_MEMBER_6_MEMBER_7_MEMBER_1_MEMBER_0_1_STROKES"/>
</g>

<g transform="matrix( 1, 0, 0, 1, 10.85,11.1) ">
<use xlink:href="#Layer0_0_MEMBER_6_MEMBER_8_MEMBER_0_MEMBER_0_MEMBER_0_FILL"/>
</g>

<g transform="matrix( 1, 0, 0, 1, 10.85,11.1) ">
<use xlink:href="#Layer0_0_MEMBER_6_MEMBER_8_MEMBER_1_MEMBER_0_1_STROKES"/>
</g>

<g transform="matrix( 1, 0, 0, 1, 10.85,11.1) ">
<use xlink:href="#Layer0_0_MEMBER_6_MEMBER_9_MEMBER_0_MEMBER_0_MEMBER_0_FILL"/>
</g>

<g transform="matrix( 1, 0, 0, 1, 10.85,11.1) ">
<use xlink:href="#Layer0_0_MEMBER_6_MEMBER_9_MEMBER_1_MEMBER_0_1_STROKES"/>
</g>

<g transform="matrix( 1, 0, 0, 1, 10.85,11.1) ">
<use xlink:href="#Layer0_0_MEMBER_6_MEMBER_10_MEMBER_0_MEMBER_0_MEMBER_0_FILL"/>
</g>

<g transform="matrix( 1, 0, 0, 1, 10.85,11.1) ">
<use xlink:href="#Layer0_0_MEMBER_6_MEMBER_10_MEMBER_1_MEMBER_0_1_STROKES"/>
</g>

<g transform="matrix( 1, 0, 0, 1, 10.85,11.1) ">
<use xlink:href="#Layer0_0_MEMBER_6_MEMBER_11_MEMBER_0_MEMBER_0_MEMBER_0_FILL"/>
</g>

<g transform="matrix( 1, 0, 0, 1, 10.85,11.1) ">
<use xlink:href="#Layer0_0_MEMBER_6_MEMBER_11_MEMBER_1_MEMBER_0_1_STROKES"/>
</g>

<g transform="matrix( 1, 0, 0, 1, 10.85,11.1) ">
<use xlink:href="#Layer0_0_MEMBER_6_MEMBER_12_MEMBER_0_MEMBER_0_MEMBER_0_FILL"/>
</g>

<g transform="matrix( 1, 0, 0, 1, 10.85,11.1) ">
<use xlink:href="#Layer0_0_MEMBER_6_MEMBER_12_MEMBER_1_MEMBER_0_1_STROKES"/>
</g>

<g transform="matrix( 1, 0, 0, 1, 10.85,11.1) ">
<use xlink:href="#Layer0_0_MEMBER_6_MEMBER_13_MEMBER_0_MEMBER_0_MEMBER_0_FILL"/>
</g>

<g transform="matrix( 1, 0, 0, 1, 10.85,11.1) ">
<use xlink:href="#Layer0_0_MEMBER_6_MEMBER_13_MEMBER_1_MEMBER_0_1_STROKES"/>
</g>

<g transform="matrix( 1, 0, 0, 1, 10.85,11.1) ">
<use xlink:href="#Layer0_0_MEMBER_6_MEMBER_14_MEMBER_0_MEMBER_0_MEMBER_0_FILL"/>
</g>

<g transform="matrix( 1, 0, 0, 1, 10.85,11.1) ">
<use xlink:href="#Layer0_0_MEMBER_6_MEMBER_14_MEMBER_1_MEMBER_0_1_STROKES"/>
</g>

<g transform="matrix( 1, 0, 0, 1, 10.85,11.1) ">
<use xlink:href="#Layer0_0_MEMBER_6_MEMBER_15_MEMBER_0_MEMBER_0_MEMBER_0_FILL"/>
</g>

<g transform="matrix( 1, 0, 0, 1, 10.85,11.1) ">
<use xlink:href="#Layer0_0_MEMBER_6_MEMBER_15_MEMBER_1_MEMBER_0_1_STROKES"/>
</g>

<g transform="matrix( 1, 0, 0, 1, 10.85,11.1) ">
<use xlink:href="#Layer0_0_MEMBER_7_MEMBER_0_MEMBER_0_MEMBER_0_FILL"/>
</g>

<g transform="matrix( 1, 0, 0, 1, 10.85,11.1) ">
<use xlink:href="#Layer0_0_MEMBER_7_MEMBER_1_MEMBER_0_1_STROKES"/>
</g>

<g transform="matrix( 1, 0, 0, 1, 10.85,11.1) ">
<use xlink:href="#Layer0_0_MEMBER_8_MEMBER_0_MEMBER_0_MEMBER_0_FILL"/>
</g>

<g transform="matrix( 1, 0, 0, 1, 10.85,11.1) ">
<use xlink:href="#Layer0_0_MEMBER_8_MEMBER_1_MEMBER_0_1_STROKES"/>
</g>

<g transform="matrix( 1, 0, 0, 1, 10.85,11.1) ">
<use xlink:href="#Layer0_0_MEMBER_9_MEMBER_0_MEMBER_0_MEMBER_0_FILL"/>
</g>

<g transform="matrix( 1, 0, 0, 1, 10.85,11.1) ">
<use xlink:href="#Layer0_0_MEMBER_9_MEMBER_1_MEMBER_0_1_STROKES"/>
</g>

<g transform="matrix( 1, 0, 0, 1, 10.85,11.1) ">
<use xlink:href="#Layer0_0_MEMBER_10_MEMBER_0_MEMBER_0_MEMBER_0_FILL"/>
</g>

<g transform="matrix( 1, 0, 0, 1, 10.85,11.1) ">
<use xlink:href="#Layer0_0_MEMBER_10_MEMBER_1_MEMBER_0_1_STROKES"/>
</g>

<g transform="matrix( 1, 0, 0, 1, 10.85,11.1) ">
<use xlink:href="#Layer0_0_MEMBER_11_MEMBER_0_MEMBER_0_MEMBER_0_FILL"/>
</g>

<g transform="matrix( 1, 0, 0, 1, 10.85,11.1) ">
<use xlink:href="#Layer0_0_MEMBER_11_MEMBER_1_MEMBER_0_1_STROKES"/>
</g>

<g transform="matrix( 1, 0, 0, 1, 10.85,11.1) ">
<use xlink:href="#Layer0_0_MEMBER_12_MEMBER_0_MEMBER_0_MEMBER_0_FILL"/>
</g>

<g transform="matrix( 1, 0, 0, 1, 10.85,11.1) ">
<use xlink:href="#Layer0_0_MEMBER_12_MEMBER_1_MEMBER_0_1_STROKES"/>
</g>

<g transform="matrix( 1, 0, 0, 1, 10.85,11.1) ">
<use xlink:href="#Layer0_0_MEMBER_13_MEMBER_0_MEMBER_0_MEMBER_0_FILL"/>
</g>

<g transform="matrix( 1, 0, 0, 1, 10.85,11.1) ">
<use xlink:href="#Layer0_0_MEMBER_13_MEMBER_1_MEMBER_0_1_STROKES"/>
</g>

<g transform="matrix( 1, 0, 0, 1, 10.85,11.1) ">
<use xlink:href="#Layer0_0_MEMBER_14_MEMBER_0_MEMBER_0_1_STROKES"/>
</g>

<g transform="matrix( 1, 0, 0, 1, 10.85,11.1) ">
<use xlink:href="#Layer0_0_MEMBER_15_MEMBER_0_MEMBER_0_MEMBER_0_FILL"/>
</g>

<g transform="matrix( 1, 0, 0, 1, 10.85,11.1) ">
<use xlink:href="#Layer0_0_MEMBER_15_MEMBER_1_MEMBER_0_1_STROKES"/>
</g>

<g transform="matrix( 1, 0, 0, 1, 10.85,11.1) ">
<use xlink:href="#Layer0_0_MEMBER_16_MEMBER_0_MEMBER_0_MEMBER_0_FILL"/>
</g>

<g transform="matrix( 1, 0, 0, 1, 10.85,11.1) ">
<use xlink:href="#Layer0_0_MEMBER_16_MEMBER_1_MEMBER_0_1_STROKES"/>
</g>

<g transform="matrix( 1, 0, 0, 1, 10.85,11.1) ">
<use xlink:href="#Layer0_0_MEMBER_17_MEMBER_0_MEMBER_0_MEMBER_0_FILL"/>
</g>

<g transform="matrix( 1, 0, 0, 1, 10.85,11.1) ">
<use xlink:href="#Layer0_0_MEMBER_17_MEMBER_1_MEMBER_0_1_STROKES"/>
</g>

<g transform="matrix( 1, 0, 0, 1, 10.85,11.1) ">
<use xlink:href="#Layer0_0_MEMBER_18_MEMBER_0_MEMBER_0_MEMBER_0_FILL"/>
</g>

<g transform="matrix( 1, 0, 0, 1, 10.85,11.1) ">
<use xlink:href="#Layer0_0_MEMBER_18_MEMBER_1_MEMBER_0_1_STROKES"/>
</g>

<g transform="matrix( 1, 0, 0, 1, 10.85,11.1) ">
<use xlink:href="#Layer0_0_MEMBER_19_MEMBER_0_MEMBER_0_MEMBER_0_FILL"/>
</g>

<g transform="matrix( 1, 0, 0, 1, 10.85,11.1) ">
<use xlink:href="#Layer0_0_MEMBER_19_MEMBER_0_MEMBER_0_MEMBER_1_FILL"/>
</g>

<g transform="matrix( 1, 0, 0, 1, 10.85,11.1) ">
<use xlink:href="#Layer0_0_MEMBER_19_MEMBER_0_MEMBER_0_MEMBER_2_FILL"/>
</g>

<g transform="matrix( 1, 0, 0, 1, -1435.9,48.2) ">
<use xlink:href="#Layer0_0_MEMBER_19_MEMBER_0_MEMBER_0_MEMBER_3_FILL"/>
</g>

<g transform="matrix( 1, 0, 0, 1, 10.85,11.1) ">
<use xlink:href="#Layer0_0_MEMBER_19_MEMBER_0_MEMBER_0_MEMBER_4_FILL"/>
</g>

<g transform="matrix( 1, 0, 0, 1, 10.85,11.1) ">
<use xlink:href="#Layer0_0_MEMBER_19_MEMBER_0_MEMBER_0_MEMBER_5_FILL"/>
</g>

<g transform="matrix( 1, 0, 0, 1, 10.85,11.1) ">
<use xlink:href="#Layer0_0_MEMBER_19_MEMBER_0_MEMBER_0_MEMBER_6_FILL"/>
</g>

<g transform="matrix( 1, 0, 0, 1, 10.85,11.1) ">
<use xlink:href="#Layer0_0_MEMBER_19_MEMBER_0_MEMBER_0_MEMBER_7_FILL"/>
</g>

<g transform="matrix( 1, 0, 0, 1, 10.85,11.1) ">
<use xlink:href="#Layer0_0_MEMBER_19_MEMBER_0_MEMBER_0_MEMBER_8_FILL"/>
</g>

<g transform="matrix( 1, 0, 0, 1, 269.85,940.9) ">
<clipPath id="Mask_Mask_1">
<rect x="-2" y="-2" width="18" height="97.45" fill="#FFFFFF" stroke="none"/>
</clipPath>

<text clip-path="url(#Mask_Mask_1)" writing-mode="lr"/>
</g>

<g transform="matrix( 1, 0, 0, 1, 10.85,11.1) ">
<use xlink:href="#Layer0_0_MEMBER_20_MEMBER_0_MEMBER_0_MEMBER_0_FILL"/>
</g>

<g transform="matrix( 1, 0, 0, 1, 10.85,11.1) ">
<use xlink:href="#Layer0_0_MEMBER_20_MEMBER_0_MEMBER_0_MEMBER_1_FILL"/>
</g>

<g transform="matrix( 1, 0, 0, 1, 10.85,11.1) ">
<use xlink:href="#Layer0_0_MEMBER_20_MEMBER_0_MEMBER_0_MEMBER_2_FILL"/>
</g>

<g transform="matrix( 1, 0, 0, 1, 10.85,11.1) ">
<use xlink:href="#Layer0_0_MEMBER_20_MEMBER_0_MEMBER_0_MEMBER_3_FILL"/>
</g>

<g transform="matrix( 1, 0, 0, 1, 10.85,11.1) ">
<use xlink:href="#Layer0_0_MEMBER_20_MEMBER_0_MEMBER_0_MEMBER_4_FILL"/>
</g>

<g transform="matrix( 1, 0, 0, 1, 10.85,11.1) ">
<use xlink:href="#Layer0_0_MEMBER_20_MEMBER_0_MEMBER_0_MEMBER_5_FILL"/>
</g>

<g transform="matrix( 1, 0, 0, 1, 10.85,11.1) ">
<use xlink:href="#Layer0_0_MEMBER_20_MEMBER_0_MEMBER_0_MEMBER_6_FILL"/>
</g>

<g transform="matrix( 1, 0, 0, 1, 10.85,11.1) ">
<use xlink:href="#Layer0_0_MEMBER_20_MEMBER_0_MEMBER_0_MEMBER_7_FILL"/>
</g>

<g transform="matrix( 1, 0, 0, 1, 10.85,11.1) ">
<use xlink:href="#Layer0_0_MEMBER_20_MEMBER_0_MEMBER_0_MEMBER_8_FILL"/>
</g>

<g transform="matrix( 1, 0, 0, 1, 10.85,11.1) ">
<use xlink:href="#Layer0_0_MEMBER_20_MEMBER_0_MEMBER_0_MEMBER_9_FILL"/>
</g>

<g transform="matrix( 1, 0, 0, 1, 10.85,11.1) ">
<use xlink:href="#Layer0_0_MEMBER_20_MEMBER_0_MEMBER_0_MEMBER_10_FILL"/>
</g>

<g transform="matrix( 1, 0, 0, 1, 10.85,11.1) ">
<use xlink:href="#Layer0_0_MEMBER_20_MEMBER_0_MEMBER_0_MEMBER_11_FILL"/>
</g>

<g transform="matrix( 1, 0, 0, 1, 10.85,11.1) ">
<use xlink:href="#Layer0_0_MEMBER_20_MEMBER_0_MEMBER_0_MEMBER_12_FILL"/>
</g>

<g transform="matrix( 1, 0, 0, 1, 10.85,11.1) ">
<use xlink:href="#Layer0_0_MEMBER_21_FILL"/>
</g>
</svg>
