<svg xmlns="http://www.w3.org/2000/svg" xml:space="preserve" width="2510.707" height="933.333">
  <path d="m 8141.87,5165.19 h -299.25 c -19.26,0 -34.88,15.61 -34.88,34.87 0,19.26 15.62,34.88 34.88,34.88 h 299.25 c 19.26,0 34.88,-15.62 34.88,-34.88 0,-19.26 -15.62,-34.87 -34.88,-34.87" fill="#fff" transform="matrix(.13333 0 0 -.13333 0 933.333)"/>
  <path d="M9751.99 3908.45c-100.92-101.22-222.67-174.34-355.61-215.31 2.37 2.17 4.73 4.39 7.09 6.62.6.58 1.23 1.13 1.83 1.71 3.52 3.36 7.01 6.79 10.49 10.29.98.98 1.94 1.99 2.91 2.99 2.53 2.58 5.05 5.19 7.56 7.85 1.18 1.25 2.36 2.51 3.53 3.78 2.39 2.57 4.75 5.18 7.11 7.81 1.1 1.22 2.19 2.42 3.28 3.66 2.97 3.38 5.94 6.82 8.89 10.31.39.47.79.92 1.18 1.38 3.33 3.98 6.64 8.04 9.93 12.15.94 1.17 1.86 2.37 2.79 3.54 2.37 3.01 4.72 6.04 7.07 9.11 1.1 1.45 2.21 2.91 3.31 4.38 2.25 3.01 4.49 6.05 6.72 9.12.99 1.38 2 2.75 3 4.14 2.96 4.15 5.9 8.34 8.82 12.61.2.28.4.55.59.84 3.12 4.56 6.2 9.21 9.27 13.9.91 1.4 1.8 2.82 2.71 4.23 2.16 3.37 4.32 6.76 6.46 10.19 1.03 1.67 2.07 3.34 3.1 5.03 2.09 3.42 4.17 6.87 6.24 10.35.91 1.54 1.83 3.07 2.74 4.62 2.93 5 5.83 10.04 8.7 15.16 2.96 5.3 5.88 10.65 8.76 16.05.97 1.83 1.92 3.7 2.9 5.54 1.88 3.59 3.77 7.17 5.61 10.81 1.15 2.23 2.25 4.5 3.37 6.74 1.64 3.3 3.29 6.57 4.91 9.9 1.18 2.42 2.33 4.89 3.49 7.33 1.53 3.19 3.05 6.39 4.54 9.62 1.17 2.54 2.34 5.12 3.5 7.69 1.42 3.16 2.86 6.32 4.28 9.52 1.16 2.64 2.3 5.31 3.45 7.98 1.37 3.17 2.74 6.34 4.08 9.53 1.14 2.72 2.25 5.45 3.37 8.19 1.31 3.18 2.61 6.36 3.9 9.57 1.11 2.79 2.21 5.59 3.3 8.4 1.25 3.2 2.5 6.42 3.72 9.65 1.08 2.83 2.14 5.69 3.21 8.54 1.2 3.24 2.39 6.49 3.56 9.75 1.04 2.88 2.07 5.78 3.09 8.68 1.16 3.28 2.3 6.58 3.43 9.89 1 2.91 1.99 5.84 2.96 8.78 1.12 3.32 2.21 6.65 3.29 10 .96 2.96 1.91 5.93 2.85 8.91 1.06 3.36 2.1 6.75 3.15 10.14.91 2.98 1.83 5.97 2.71 8.97 1.03 3.43 2.03 6.87 3.02 10.32.87 3 1.74 6 2.59 9.02.98 3.49 1.93 6.99 2.89 10.5.82 3.02 1.65 6.03 2.45 9.06.94 3.55 1.85 7.12 2.77 10.69.77 3.02 1.55 6.03 2.3 9.07.91 3.64 1.78 7.32 2.66 10.99.72 2.99 1.44 5.96 2.13 8.96.89 3.79 1.73 7.6 2.58 11.41.66 2.91 1.32 5.81 1.96 8.73.87 4.02 1.7 8.07 2.54 12.11.57 2.74 1.16 5.47 1.71 8.22.91 4.5 1.77 9.03 2.64 13.55.44 2.33.91 4.64 1.35 6.97 1.28 6.85 2.51 13.73 3.7 20.63.16.95.3 1.9.47 2.86 1.01 5.98 2 11.97 2.95 17.99.39 2.5.75 5.03 1.13 7.54.68 4.49 1.37 8.96 2.01 13.47.42 2.91.8 5.83 1.2 8.74.56 4.13 1.14 8.26 1.67 12.4.39 3.11.76 6.24 1.15 9.35.48 3.98.97 7.96 1.43 11.96.37 3.21.7 6.44 1.06 9.66.42 3.92.85 7.84 1.25 11.77.32 3.29.62 6.58.93 9.87.37 3.91.74 7.8 1.08 11.71.29 3.34.55 6.69.82 10.04.31 3.87.62 7.76.91 11.64.24 3.4.46 6.8.69 10.19.26 3.87.52 7.74.74 11.62.21 3.43.39 6.87.57 10.31.2 3.86.4 7.73.57 11.6.17 3.46.32 6.93.44 10.4.16 3.87.3 7.73.42 11.61.12 3.5.22 7 .31 10.5.05 1.8.11 3.59.15 5.39h320.43c-9.14-215.83-97.42-417.64-250.81-571.49zm-362.64-122.81c-2.27-2.59-4.55-5.15-6.84-7.67-.7-.78-1.41-1.57-2.12-2.34-2.92-3.18-5.84-6.3-8.79-9.35-.26-.28-.53-.54-.79-.81-2.68-2.76-5.37-5.47-8.08-8.13-.79-.79-1.59-1.56-2.39-2.34-2.43-2.36-4.87-4.69-7.33-6.97-.59-.55-1.17-1.12-1.77-1.66-3.01-2.77-6.03-5.48-9.06-8.13-.6-.52-1.19-1.02-1.8-1.54-2.48-2.14-4.97-4.24-7.48-6.31-.83-.68-1.66-1.36-2.49-2.04-2.76-2.24-5.53-4.44-8.31-6.58-.32-.24-.64-.49-.95-.74-3.09-2.36-6.21-4.66-9.33-6.91-.79-.55-1.57-1.1-2.35-1.65-2.44-1.73-4.89-3.42-7.34-5.07-.84-.56-1.67-1.13-2.51-1.68-3.15-2.08-6.3-4.11-9.46-6.06-.18-.11-.35-.2-.52-.31-2.99-1.84-5.99-3.6-9-5.33-.9-.52-1.82-1.03-2.73-1.54-2.48-1.39-4.97-2.74-7.46-4.05-.79-.42-1.57-.85-2.36-1.26-3.18-1.64-6.37-3.23-9.57-4.75-.67-.31-1.34-.61-2.02-.92-2.57-1.21-5.16-2.38-7.76-3.5-1-.43-2-.86-3-1.28-.78-.33-1.56-.62-2.35-.95.58 1.3 1.17 2.62 1.76 3.94 21.02 48.06 39.72 115.27 55.59 199.8 30.44 162.17 47.93 374.24 49.67 600.43h262.17c-.04-1.48-.06-2.97-.11-4.45-.08-3.09-.18-6.18-.27-9.27-.13-3.93-.27-7.85-.42-11.76-.12-3.06-.26-6.12-.39-9.17-.18-3.93-.37-7.86-.58-11.78-.16-3.02-.33-6.04-.51-9.05-.23-3.94-.48-7.87-.74-11.81-.2-2.97-.4-5.94-.62-8.91-.28-3.96-.59-7.91-.9-11.86-.24-2.92-.47-5.83-.73-8.74-.34-4-.71-7.99-1.08-11.97-.26-2.84-.53-5.67-.81-8.51-.41-4.05-.84-8.09-1.28-12.13-.29-2.74-.59-5.48-.89-8.22-.48-4.15-.98-8.28-1.48-12.41-.32-2.6-.63-5.2-.96-7.79-.55-4.3-1.13-8.59-1.71-12.87-.33-2.4-.64-4.81-.99-7.21-.64-4.56-1.32-9.09-2.02-13.63-.31-2.1-.61-4.21-.94-6.3-.8-5.18-1.66-10.33-2.52-15.49-.24-1.42-.46-2.85-.71-4.28-2.26-13.26-4.7-26.41-7.31-39.45-.19-.89-.37-1.77-.56-2.66-1.12-5.55-2.26-11.09-3.45-16.59-.42-1.87-.84-3.72-1.25-5.58-.99-4.51-1.99-9.01-3.02-13.49-.52-2.23-1.07-4.45-1.59-6.69-.97-4.06-1.94-8.13-2.93-12.17-.61-2.43-1.23-4.84-1.84-7.26-.98-3.82-1.94-7.63-2.94-11.42-.66-2.52-1.35-5.03-2.03-7.54-.99-3.66-1.98-7.31-3-10.95-.71-2.57-1.45-5.12-2.19-7.68-1.02-3.54-2.04-7.08-3.08-10.59-.77-2.6-1.55-5.18-2.35-7.76-1.04-3.44-2.11-6.89-3.18-10.31-.82-2.6-1.65-5.19-2.48-7.77-1.08-3.37-2.18-6.72-3.29-10.06-.86-2.6-1.73-5.19-2.61-7.77-1.13-3.3-2.26-6.59-3.41-9.86-.9-2.58-1.81-5.14-2.73-7.7-1.16-3.24-2.34-6.46-3.53-9.68-.94-2.55-1.89-5.1-2.86-7.64-1.2-3.19-2.42-6.36-3.65-9.52-.99-2.52-1.96-5.03-2.96-7.53-1.25-3.15-2.53-6.27-3.81-9.4-1-2.46-2.02-4.94-3.04-7.39-1.3-3.12-2.64-6.21-3.97-9.3-1.03-2.41-2.07-4.83-3.12-7.22-1.36-3.09-2.75-6.16-4.14-9.22-1.06-2.35-2.11-4.71-3.19-7.04-1.43-3.1-2.89-6.17-4.35-9.24-1.07-2.24-2.12-4.49-3.2-6.72-1.54-3.18-3.11-6.32-4.68-9.47-1.04-2.07-2.06-4.16-3.11-6.21-1.75-3.46-3.55-6.86-5.33-10.26-.89-1.71-1.77-3.44-2.68-5.13-2.7-5.08-5.45-10.11-8.23-15.09-2.47-4.4-4.96-8.73-7.47-13.03-.7-1.22-1.43-2.42-2.14-3.63-1.94-3.3-3.91-6.57-5.88-9.8-.64-1.06-1.3-2.14-1.95-3.2-2.55-4.14-5.12-8.22-7.71-12.25-.43-.67-.86-1.31-1.29-1.97-2.19-3.4-4.41-6.76-6.65-10.08-.76-1.14-1.52-2.27-2.29-3.4-2.19-3.21-4.38-6.38-6.58-9.51-.51-.72-1.01-1.44-1.52-2.15-2.68-3.79-5.4-7.52-8.12-11.19-.63-.84-1.26-1.66-1.89-2.5-2.17-2.9-4.37-5.78-6.57-8.61-.76-.98-1.52-1.95-2.27-2.92-2.66-3.37-5.33-6.71-8.01-9.97-.14-.16-.26-.32-.39-.48-2.83-3.44-5.69-6.8-8.56-10.13-.73-.84-1.46-1.68-2.19-2.51zM9145.56 3655.1c-12.26 3.59-53.11 55.18-87.92 245.64-28.8 157.59-45.32 363.02-46.91 581.53h269.92c-1.59-218.52-18.1-423.94-46.91-581.51-35.06-191.75-76.25-242.72-88.18-245.66zm-104.68 19.74c-.8.32-1.59.67-2.39.99-2.54 1.06-5.08 2.15-7.62 3.27-1 .45-2.01.91-3.02 1.37-2.64 1.21-5.28 2.47-7.91 3.77-.65.32-1.3.62-1.95.95-3.24 1.62-6.47 3.32-9.69 5.08-.79.42-1.56.87-2.34 1.3-2.51 1.39-5.01 2.82-7.5 4.29-.96.56-1.91 1.13-2.86 1.7-2.69 1.62-5.36 3.28-8.03 4.98-.53.34-1.08.68-1.61 1.02-3.19 2.06-6.37 4.2-9.53 6.38-.76.53-1.52 1.08-2.29 1.62-2.45 1.72-4.89 3.48-7.32 5.28-.92.67-1.83 1.35-2.74 2.04-2.69 2.02-5.36 4.08-8.03 6.19-.45.36-.91.7-1.36 1.07-3.1 2.48-6.19 5.03-9.28 7.64-.75.65-1.51 1.31-2.28 1.97-2.36 2.03-4.73 4.1-7.09 6.22-.87.78-1.75 1.57-2.62 2.36-2.68 2.45-5.35 4.93-8.01 7.47-.36.34-.73.68-1.09 1.03-3.01 2.89-6 5.84-8.97 8.86-.78.78-1.54 1.58-2.31 2.37-2.27 2.32-4.52 4.68-6.77 7.08-.86.9-1.71 1.82-2.56 2.74-2.65 2.85-5.28 5.75-7.9 8.71-.28.32-.58.64-.86.97-2.9 3.28-5.78 6.64-8.64 10.04-.77.93-1.54 1.87-2.32 2.81-2.15 2.59-4.3 5.21-6.43 7.88-.83 1.04-1.66 2.07-2.49 3.12-2.6 3.28-5.18 6.61-7.75 9.99-.21.29-.43.57-.65.85-2.77 3.67-5.52 7.41-8.25 11.19-.77 1.08-1.54 2.16-2.32 3.25-2.03 2.85-4.06 5.74-6.08 8.66-.8 1.16-1.6 2.32-2.39 3.49-2.57 3.76-5.13 7.57-7.66 11.44-.11.18-.23.35-.35.53-2.64 4.05-5.26 8.17-7.85 12.33-.76 1.21-1.52 2.45-2.27 3.67-1.93 3.12-3.85 6.28-5.75 9.46-.76 1.27-1.52 2.53-2.27 3.8-2.55 4.32-5.08 8.67-7.59 13.1-2.82 4.99-5.61 10.04-8.36 15.13-.91 1.7-1.8 3.44-2.71 5.15-1.81 3.41-3.64 6.83-5.42 10.29-1.06 2.06-2.08 4.15-3.13 6.23-1.6 3.16-3.2 6.31-4.76 9.51-1.1 2.23-2.16 4.49-3.25 6.74-1.48 3.09-2.96 6.18-4.42 9.3-1.09 2.33-2.16 4.7-3.23 7.05-1.41 3.07-2.81 6.15-4.2 9.25-1.07 2.42-2.13 4.86-3.18 7.29-1.35 3.1-2.69 6.19-4.01 9.31-1.05 2.48-2.07 4.97-3.1 7.46-1.3 3.12-2.58 6.25-3.85 9.4-1.02 2.52-2.02 5.07-3.02 7.61-1.24 3.16-2.48 6.33-3.7 9.52-.97 2.56-1.94 5.14-2.9 7.72-1.2 3.21-2.39 6.43-3.57 9.67-.94 2.6-1.87 5.2-2.79 7.82-1.16 3.26-2.3 6.54-3.44 9.84-.89 2.61-1.78 5.22-2.66 7.85-1.13 3.35-2.23 6.71-3.33 10.07-.85 2.62-1.7 5.24-2.53 7.87-1.09 3.42-2.15 6.86-3.21 10.3-.81 2.62-1.61 5.24-2.39 7.87-1.06 3.51-2.09 7.05-3.11 10.59-.75 2.59-1.51 5.18-2.24 7.79-1.03 3.61-2.02 7.25-3.02 10.89-.69 2.57-1.4 5.14-2.09 7.72-1 3.76-1.97 7.54-2.94 11.33-.63 2.48-1.28 4.96-1.9 7.46-.99 3.98-1.95 7.98-2.91 11.98-.56 2.34-1.13 4.67-1.68 7.02-1.01 4.33-1.98 8.69-2.95 13.05-.46 2.05-.93 4.08-1.38 6.14-1.11 5.13-2.19 10.29-3.25 15.46-.27 1.31-.55 2.61-.82 3.92-2.65 13.1-5.12 26.32-7.41 39.65-.24 1.4-.46 2.82-.7 4.22-.88 5.21-1.75 10.43-2.57 15.68-.34 2.18-.66 4.38-.99 6.57-.69 4.48-1.37 8.97-2.01 13.48-.36 2.51-.69 5.04-1.04 7.56-.58 4.22-1.16 8.43-1.7 12.67-.35 2.69-.67 5.4-1 8.11-.5 4.07-1.01 8.15-1.47 12.24-.33 2.84-.63 5.68-.94 8.53-.43 3.98-.86 7.96-1.26 11.96-.29 2.94-.57 5.9-.85 8.85-.37 3.92-.73 7.84-1.08 11.77-.25 3.02-.5 6.04-.74 9.07-.32 3.89-.62 7.79-.91 11.7-.23 3.08-.44 6.17-.64 9.26-.26 3.85-.5 7.7-.73 11.57-.19 3.15-.36 6.31-.54 9.48-.2 3.83-.39 7.66-.56 11.5-.15 3.2-.29 6.39-.42 9.59-.15 3.83-.28 7.67-.41 11.51-.1 3.23-.2 6.46-.29 9.69-.03 1.5-.06 3.01-.09 4.51h270.89c1.73-227.2 19.36-439.99 50.03-602.45 15.99-84.68 34.83-151.85 56.02-199.64.97-2.2 1.95-4.37 2.94-6.49-3.03 1.1-6.07 2.26-9.09 3.48zm-508.52 231.84c-154.46 154.11-243.35 356.53-252.49 573.26h320.41c.04-1.9.12-3.8.17-5.7.09-3.47.18-6.93.3-10.38.13-3.99.27-7.98.43-11.96.13-3.41.27-6.81.43-10.21.19-4.02.39-8.03.6-12.04.18-3.35.36-6.71.56-10.05.24-4.04.51-8.07.77-12.1.23-3.3.44-6.6.69-9.88.3-4.08.62-8.14.95-12.2.26-3.22.51-6.44.8-9.66.36-4.13.74-8.25 1.14-12.37.29-3.13.58-6.25.9-9.37.42-4.2.88-8.39 1.33-12.58.34-3.01.65-6.03 1-9.03.49-4.34 1.03-8.65 1.57-12.97.35-2.84.68-5.68 1.05-8.5.59-4.63 1.23-9.24 1.87-13.84.35-2.49.67-4.98 1.03-7.46.77-5.38 1.59-10.73 2.42-16.07.26-1.7.5-3.4.77-5.1l8.32-47.42c.98-5.11 1.97-10.23 3-15.31.49-2.41 1.01-4.8 1.51-7.2.93-4.43 1.85-8.86 2.81-13.27.59-2.67 1.2-5.32 1.8-7.98.92-4.11 1.84-8.22 2.8-12.31.66-2.78 1.33-5.55 2-8.32.95-3.93 1.9-7.86 2.87-11.76.72-2.86 1.46-5.69 2.19-8.52.98-3.8 1.96-7.6 2.97-11.38.76-2.88 1.55-5.73 2.34-8.6 1.01-3.69 2.03-7.39 3.07-11.06.83-2.9 1.67-5.78 2.51-8.67 1.05-3.61 2.1-7.21 3.18-10.79.87-2.89 1.76-5.76 2.64-8.64 1.09-3.54 2.2-7.08 3.32-10.6.92-2.88 1.85-5.74 2.78-8.6 1.14-3.48 2.28-6.94 3.44-10.39.96-2.86 1.94-5.71 2.92-8.56 1.18-3.42 2.37-6.82 3.58-10.21 1-2.83 2.01-5.65 3.03-8.46 1.23-3.37 2.47-6.72 3.72-10.07 1.05-2.79 2.1-5.59 3.17-8.36 1.27-3.32 2.56-6.61 3.85-9.89 1.09-2.76 2.18-5.52 3.28-8.27 1.32-3.28 2.67-6.53 4.02-9.78 1.12-2.7 2.23-5.4 3.37-8.08 1.38-3.26 2.79-6.49 4.2-9.72 1.15-2.63 2.28-5.27 3.45-7.88 1.45-3.24 2.92-6.46 4.39-9.67 1.17-2.55 2.32-5.11 3.51-7.65 1.53-3.27 3.09-6.5 4.65-9.74 1.17-2.42 2.31-4.86 3.5-7.26 1.66-3.38 3.35-6.72 5.04-10.06 1.12-2.22 2.22-4.46 3.35-6.66 1.9-3.67 3.83-7.3 5.76-10.93.97-1.82 1.91-3.67 2.9-5.48 2.92-5.42 5.88-10.79 8.89-16.11 2.89-5.1 5.82-10.12 8.77-15.1.9-1.52 1.8-3.02 2.71-4.53 2.13-3.54 4.26-7.04 6.41-10.51.99-1.59 1.97-3.17 2.96-4.74 2.39-3.79 4.8-7.54 7.22-11.26.66-1.01 1.31-2.04 1.98-3.05 3.05-4.64 6.14-9.2 9.25-13.71.82-1.2 1.66-2.37 2.5-3.56 2.34-3.35 4.69-6.67 7.06-9.94 1.07-1.48 2.15-2.96 3.23-4.43 2.29-3.12 4.6-6.2 6.91-9.25.97-1.27 1.93-2.56 2.9-3.82 3.22-4.17 6.45-8.29 9.72-12.33.53-.66 1.06-1.29 1.6-1.94 2.77-3.41 5.56-6.77 8.37-10.08 1.12-1.33 2.25-2.63 3.37-3.93 2.33-2.7 4.67-5.37 7.01-7.99 1.14-1.28 2.29-2.57 3.43-3.83 2.83-3.12 5.67-6.18 8.52-9.2.6-.63 1.19-1.27 1.78-1.9 3.41-3.56 6.84-7.06 10.29-10.49 1.06-1.06 2.13-2.09 3.2-3.13 2.49-2.44 5-4.85 7.51-7.22 1.22-1.15 2.44-2.3 3.66-3.43.85-.78 1.69-1.6 2.54-2.38-132.08 40.74-253.12 113.24-353.73 213.62zm-249.19 694.99c22.28 34.2 45.35 66.1 68.95 95.98h-43.39c21.41 25 43.66 49.06 66.65 72.11h38.24c28.62 31.03 57.71 59.4 86.96 85.27h-31.66c49.02 40.63 100.21 77.25 152.57 109.6h24.32c221.38 141.3 415.04 158.76 415.04 158.76-227.06-44.15-525.5-251.68-716.86-563.85h-63.89c.69 14.11 1.72 28.15 3.07 42.13zm37.49 181.24c25.58 25.94 51.59 49.91 77.75 72.12h-50.84c16.08 37.77 34.9 74.39 56.35 109.6h146.28c239.71 146.12 454.5 162.63 454.5 162.63-234.84-41.03-500.21-180.95-700.04-400.46 4.7 18.91 10.04 37.62 16 56.11zm759.49 378.07c4.49 1.74 8.98 3.09 13.97 2.19 5.44-.98 10.53-2.82 15.56-5.03 5.62-2.47 11.3-4.81 16.98-7.17 11.02-4.59 22.52-5.21 34.26-4.17 20.76 1.82 40.85 6.9 60.77 12.68 11.82 3.43 23.5 7.27 35.03 11.6 1.02.39 2.29.38 3.19 2.31-25.32 14.09-111.18 62.03-128.84 71.96-2.36 1.34-5.57 2.62-5 5.78.56 3.14 3.64 4.22 6.74 4.9 20.89 4.53 41.52 3.99 62.12-2.11 22.3-6.61 43.96-15.01 65.92-22.57 20.47-7.05 41.17-13.51 62.67-16.71 17.16-2.56 34.41-3.44 51.77-2.85 30.49 1.04 60.99 2.2 91.52 1.55 13.29-.28 26.32-2.25 39.14-5.71 5.1-1.37 9.77-3.77 13.66-7.46 5.69-5.4 5.66-12.57-.29-17.79-2.9-2.55-6.24-4.53-9.83-6.11-13.06-5.78-332.99-54.14-368.45-60.18-22.59-3.85-35.9-4.65-38.92.68-3.02 5.35-18.56 31.18-21.79 36.42-.59.97-1.28 1.89-1.84 2.88-1.25 2.22-.8 3.96 1.66 4.91zm194.17-71.89c6.22 11.62 12.52 23.2 18.68 34.86 1.49 2.83 3.41 4.25 6.74 4.81 21.74 3.66 43.44 7.6 65.16 11.42.39.07.84-.14 1.97-.37-12.51-12.68-24.33-25.31-36.87-37.19-13.6-12.9-29.68-20.91-48.91-21.28-.68-.01-1.36-.13-2.04-.12-6.49.17-7.75 2.24-4.73 7.87zm604.45-124.46c21.45-35.21 40.26-71.83 56.35-109.6H8615.64c43.66 40.63 88.66 77.26 134 109.6zm106-266.98H8470.41c19.78 24.97 40.2 49.02 61.14 72.11h1434.67c7.23-23.7 13.39-47.76 18.55-72.11zm17.33-129.46H8379.15c7.28 11.68 14.7 23.22 22.28 34.6h1597.96c1.11-11.49 2.01-23.02 2.71-34.6zm71.3-51.04c0 248.96-96.97 483.01-273.01 659.05-168.45 168.44-390.01 264.41-626.91 272.39-2.06.38-4.19.6-6.37.6H8039.55c-19.26 0-34.88-15.61-34.88-34.87 0-19.26 15.62-34.88 34.88-34.88h746.72c-112.34-46.25-215.5-114.74-304-203.24-166.01-166.01-261.65-383.62-272.01-616.66h-250.25c-19.26 0-34.87-15.61-34.87-34.87 0-19.27 15.61-34.88 34.87-34.88h249.74c6.12-213.41 83.69-414.58 221.16-575.95h-196.56c-19.26 0-34.88-15.62-34.88-34.88 0-19.26 15.62-34.88 34.88-34.88h262.32c85.96-82.42 185-146.52 292.38-190.33H7632.27c-19.25 0-34.87-15.61-34.87-34.87 0-19.27 15.62-34.88 34.87-34.88h1532.52c240.67 5.93 466.14 104.22 636.6 275.2 174.72 175.26 271.31 408.06 271.91 655.53 0 .2 0 .41 0 .61 0 .61.1 1.2.1 1.81M3962.67 4420.95l-154.43 285.26c-19.8 36.57-72.33 36.42-91.92-.27l-152.14-284.99zm-199.09 569.85v0c117.6 0 225.83-64.15 282.29-167.32l417-762h-309.31l-91.96 165.79h-599.12l-89.17-165.79h-320.46l430.23 765.23c56.98 101.36 164.22 164.09 280.5 164.09M5972.25 4990.8h226.76v-929.32h-282.85v873.24c0 30.97 25.11 56.08 56.09 56.08M7198.03 4283.01c76.64 0 82.21 0 115.65 11.14 68.26 20.91 86.38 69.68 86.38 229.9 0 195.06-33.43 235.48-196.46 235.48h-479.29v-476.52zm-756.56 651.71c0 30.97 25.11 56.08 56.08 56.08h746.47c196.44 0 288.4-22.29 352.49-86.37 51.56-50.16 72.45-108.69 82.21-227.11 2.79-43.21 5.58-107.28 5.58-151.87 0-83.6-5.58-179.74-13.93-232.68-15.34-111.47-93.36-197.85-195.07-217.36-52.94-11.14-94.74-13.93-193.67-13.93h-840.16v873.24M5587.32 4955.97c-58.52 29.26-104.49 34.83-284.24 34.83h-654.5c-30.97 0-56.08-25.11-56.08-56.08v-873.24h281.45v703.63h411.02c121.22 0 149.08-25.1 149.08-136.56 0-87.78-33.44-112.86-149.08-112.86H5017.4v-225.71h310.76c161.62 0 224.33 9.75 278.67 43.18 76.63 47.39 108.67 139.33 108.67 316.29 0 175.55-34.82 260.55-128.18 306.52M2821.26 4333.16c76.65 47.39 108.68 139.33 108.68 316.29 0 175.55-34.83 260.55-128.18 306.52-58.51 29.26-104.49 34.83-284.24 34.83h-496.47c-118.25 0-214.11-95.86-214.11-214.11v-715.21h281.44v703.62h411.04c121.21 0 149.07-25.09 149.07-136.55 0-87.78-33.44-112.85-149.07-112.85h-266.6c-14.27 0-22.23-16.47-13.37-27.65l338.03-426.57h320.65l-185.42 233.99c59.25 5.96 95.62 17.43 128.55 37.69M12896.2 4990.8v-210.38h-751V4620.2h548v-183.92h-548v-164.42h760.8v-210.38h-1039.4v891.12c0 21.09 17.1 38.2 38.2 38.2h991.4M13963.5 4420.95l-154.4 285.26c-19.8 36.57-72.3 36.42-91.9-.27l-152.1-284.99zm-199 569.85v0c117.6 0 225.8-64.15 282.2-167.32l417-762h-309.3l-91.9 165.79h-599.2l-89.1-165.79h-320.5l430.2 765.23c57 101.36 164.3 164.09 280.6 164.09M15749.8 4411.19c-1.4-135.15-5.5-181.12-25.1-222.93-36.2-79.41-111.4-117.04-256.3-126.78-57.1-5.58-168.6-6.97-353.9-6.97-267.5 0-353.9 12.54-429.2 61.3-91.9 58.53-118.4 156.05-118.4 431.94 0 245.22 27.9 332.99 125.4 388.72 83.6 48.76 172.8 61.31 433.3 61.31 347 0 422.2-6.98 501.6-45.99 75.3-37.61 110.1-119.81 110.1-256.37v-30.64H15467c-5.6 101.71-26.5 110.07-271.7 110.07-231.3 0-273.1-5.57-307.9-36.23-33.5-30.65-40.4-68.27-40.4-218.74 0-222.93 20.9-239.65 292.6-239.65 210.4 0 241 1.39 280 18.11 40.4 16.72 55.7 45.97 55.7 112.85h274.5M16326.7 4760.92h-413.8v191.68c0 21.09 17.1 38.2 38.2 38.2h1072.3v-229.88h-413.8v-699.44h-282.9v699.44M11483.4 4333.16c76.6 47.39 108.6 139.33 108.6 316.29 0 175.55-34.8 260.55-128.1 306.52-58.5 29.26-104.5 34.83-284.3 34.83h-496.4c-118.3 0-214.2-95.86-214.2-214.11v-715.21h281.5v703.62h411c121.2 0 149.1-25.09 149.1-136.55 0-87.78-33.4-112.85-149.1-112.85h-266.6c-14.2 0-22.2-16.47-13.3-27.65l338-426.57h320.6l-185.4 233.99c59.3 5.96 95.6 17.43 128.6 37.69M16745.8 4093.07c.3-6.67 1-8.26 4.5-9.56 2.2-.87 10.4-1.45 19.7-1.45 34.1 0 38.1 1.01 38.1 8.98 0 3.92-1.8 6.81-4.9 7.83-3.2 1.02-3.2 1.02-18.4 1.16h-26.7c-17.8 0-25.2 1.02-31.4 4.21-7 3.61-10.2 11.3-10.2 24.49 0 17.39 5 24.78 18.9 28.11 7.8 2.04 19.1 2.76 40.3 2.76 33.9 0 41.7-.87 48.7-5.36 6.6-4.5 8.8-10.44 8.8-24.93h-28.7c0 8.4-2.9 9.57-21.9 9.57-9.4 0-22-.3-26.6-.59-7.9-.58-10.5-2.6-10.5-8.11 0-4.06 2-6.67 6.3-7.68 1.7-.44 2.3-.58 11.8-.73h27.4c2.6 0 15.7-.43 20.6-.72 18.4-.87 25.7-8.99 25.7-28.41 0-17.83-5.2-25.65-19.4-28.7-7.3-1.59-21.6-2.46-42.7-2.46-33.4 0-40.8.72-49.4 5.07-5.9 2.9-9 10.29-9 21.74 0 .87 0 2.75.2 4.78h28.8M16860 4158.88h46.7l35.2-64.21 35.1 64.21h46.4v-96.68h-28.7l1.4 74.64-42.9-74.64h-23.5l-42.1 74.64.8-74.64h-28.4v96.68M9472.43 1958.97c21.67 46.51 33.87 98.43 33.87 153.24 0 126.19-64.51 237.43-162.25 302.55 58.27 59.95 121.22 119.16 188.36 175.77-78.61-46.19-152.55-99.3-220.89-156.54-50.33 26.52-107.69 41.4-168.51 41.4-200.59 0-363.23-162.57-363.23-363.18 0-90.62 33.21-173.45 88.02-237.12-69.5-150.31-81.7-271.31-20.4-312.15 65.66-43.81 208.41 35.55 294.08 164.85 0 0-132.53-119.55-205.21-92.15-44.87 16.98-45.01 85.41-8.08 183.65 60.17-44.23 134.47-70.26 214.82-70.26 99.51 0 189.6 39.96 255.26 104.74l12.86-24.32c158.31 12.83 630.97 25.27 630.97 25.27 0 22.88-312.94 2.22-569.67 104.25zm-648.99 153.24c0 176.53 143.11 319.51 319.57 319.51 47.3 0 92.22-10.24 132.62-28.58-173.2-153.11-307.27-331.09-386.65-484.82-41.12 53.78-65.54 120.92-65.54 193.89zm319.57-319.64c-74.65 0-143.27 25.58-197.66 68.59 63.22 142.76 192.17 334.38 367.98 521.48 89.75-56.62 149.34-156.55 149.34-270.43 0-48.64-10.94-94.78-30.4-136.1-55.78 25.8-107.84 58.11-151.96 98.89l96.43-180.81c-58.36-62.46-141.45-101.62-233.73-101.62v0M11639.4 2145.57l59.2 78.58-206.2.05 50.9 67.38h206.1l59.3 78.56h-411.6l-283-375.69h411.5l59.2 78.6h-206.1l54.5 72.52h206.2v0 0M11925.3 2370.14l-283.1-375.69h205.4l283 375.69h-205.3v0 0M12609.5 2370.14l-143.5-190.45-44 190.45h-160.6l-283.1-375.69h135.9l142.2 188.71 43.7-188.71h162.3l283 375.69h-135.9v0 0M13281.1 2370.14l-330.1.05c-56.7 0-106.7-27.02-138.3-69.01L12642.2 2075c-6.4-8.35-10-18.91-10-30.29 0-27.71 22.4-50.26 50.2-50.26h330.1c56.4 0 106.7 27.08 138.3 68.98l41.1 54.38h47.6l59.6 79.05h-252.8l-79.9-105.89c-8.2-10.83-21.2-17.85-35.8-17.85h-58.2c-7.3 0-13.1 5.9-13.1 13 0 3.02 1 5.73 2.7 7.86l135.4 179.69c8.1 11 21.1 17.91 35.8 17.91h58.2c7.2 0 13-5.9 13-13.08 0-2.89-.9-5.66-2.6-7.78l-22-29.29h205.2l36.2 48.2c6.4 8.36 10.1 18.85 10.1 30.23 0 27.78-22.5 50.28-50.2 50.28v0 0M11228.7 2319.86c0 27.78-22.5 50.28-50.2 50.28h-330c-56.6 0-106.7-26.97-138.3-68.96L10539.7 2075c-6.3-8.42-10.1-18.91-10.1-30.29 0-27.71 22.6-50.26 50.3-50.26h330c56.5 0 106.8 27.08 138.3 68.98l170.5 226.12c6.3 8.44 10 18.93 10 30.31v0zm-229.5-49.14-135.3-179.75c-8.2-10.83-21.3-17.85-35.9-17.85h-58.2c-7.2 0-13 5.9-13 13 0 3.02 1 5.73 2.6 7.86l135.4 179.69c8.2 10.81 21.2 17.91 35.9 17.91h58.1c7.2 0 13.1-5.9 13.1-13.08 0-2.89-1-5.66-2.7-7.78v0 0" fill="#fff" transform="matrix(.13333 0 0 -.13333 0 933.333)"/>
  <path d="M10452.5 2173.11c40.5 9.17 75.6 32.56 99.8 64.61l39 51.83c6.4 8.44 10.2 18.93 10.2 30.31 0 27.78-22.5 50.28-50.3 50.28h-211.1v0h-205.3l-283.1-375.69h201.7 229.1c56.6 0 106.8 27.08 138.4 68.98l40 52.99c5 6.71 8 15.15 8 24.19 0 13.32-6.4 25.08-16.4 32.5v0zm-190.6-48.47-25.4-33.74c-8.2-10.76-21.2-17.85-35.9-17.85h-84.3l54.5 72.52h80.7c7.1 0 13.1-5.84 13.1-13 0-3.03-1-5.78-2.7-7.93v0zm110 146.08-21.5-28.71c-8.2-10.82-21.2-17.86-35.9-17.86l-84.4.05 50.8 67.38h80.6c7.2 0 13-5.9 13-13.08 0-2.89-.9-5.66-2.6-7.78v0 0M5590.81 2081.72h-45.58v-89.16h-46.26v236.91h91.84c48.93 0 78.2-33.63 78.2-73.87 0-40.27-29.27-73.88-78.2-73.88zm-2.32 106.49h-43.26v-64.89h43.26c20.96 0 34.26 12.97 34.26 32.28 0 19.29-13.3 32.61-34.26 32.61v0M5850.49 1992.56l-46.26 94.48h-33.26v-94.48h-46.26v236.91h92.84c48.25 0 76.86-32.96 76.86-72.55 0-33.26-20.3-53.9-43.25-62.23l52.91-102.13h-53.58zm-35.94 195.65h-43.58v-62.57h43.58c20.3 0 33.6 12.97 33.6 31.28 0 18.3-13.3 31.29-33.6 31.29v0M5959.08 1992.56v236.91h156.05v-41.26h-109.79v-55.59h93.49v-41.24h-93.49v-57.57h109.79v-41.25h-156.05v0M6242.38 1990.57c-35.92 0-63.21 7.65-86.51 31.24l29.95 29.96c14.99-14.98 35.26-19.97 57.24-19.97 27.29 0 41.91 10.31 41.91 29.29 0 8.31-2.32 15.31-7.31 19.97-4.66 4.31-9.98 6.65-20.97 8.31l-28.6 3.99c-20.31 2.99-35.28 9.33-45.93 19.64-11.31 11.32-16.97 26.62-16.97 46.57 0 42.27 31.28 71.89 82.51 71.89 32.63 0 56.25-8 76.55-27.62l-29.29-28.95c-14.96 14.3-32.94 16.29-48.58 16.29-24.61 0-36.61-13.63-36.61-29.93 0-5.98 2.01-12.32 7.01-16.97 4.64-4.33 12.3-7.99 21.95-9.32l27.95-4c21.63-3 35.28-8.98 45.26-18.29 12.64-11.99 18.29-29.29 18.29-50.25 0-45.91-38.26-71.85-87.85-71.85v0M6390.59 1992.56v236.91h156.07v-41.26h-109.81v-55.59h93.49v-41.24h-93.49v-57.57h109.81v-41.25h-156.07v0M6748.74 1992.56l-93.82 145.38v-145.38h-46.26v236.91h41.27l93.84-145.09v145.09h46.24v-236.91h-41.27v0M6952.53 2188.21v-195.65h-46.26v195.65h-61.87v41.26h170.03v-41.26h-61.9v0M7068.76 1992.56v236.91h156.06v-41.26h-109.8v-55.59h93.5v-41.24h-93.5v-57.57h109.8v-41.25h-156.06v0M7434.93 2015.16c-15.64-15.62-37.93-22.6-62.56-22.6h-85.52v236.91h85.52c24.63 0 46.92-7.01 62.56-22.64 26.62-26.62 23.95-59.23 23.95-94.84 0-35.59 2.67-70.21-23.95-96.83zm-32.27 158.4c-8 9.65-18.65 14.65-34.62 14.65h-34.93v-154.4h34.93c15.97 0 26.62 4.99 34.62 14.64 8.66 10.65 9.98 27.62 9.98 63.54 0 35.94-1.32 50.91-9.98 61.57v0M7715.97 1992.56h-99.16v236.91h95.16c46.26 0 73.21-25.96 73.21-66.57 0-26.28-17.29-43.25-29.29-48.9 14.31-6.65 32.61-21.63 32.61-53.24 0-44.25-30.27-68.2-72.53-68.2zm-7.66 195.65h-45.25v-54.57h45.25c19.63 0 30.62 10.97 30.62 27.28 0 16.3-10.99 27.29-30.62 27.29zm3-96.17h-48.25v-58.23h48.25c20.96 0 30.95 13.29 30.95 29.27 0 15.98-9.99 28.96-30.95 28.96v0M7943.03 2089.7v-97.14h-45.91v97.14l-71.22 139.77h50.26l44.24-95.5 43.59 95.5h50.26l-71.22-139.77v0" fill="#fff" transform="matrix(.13333 0 0 -.13333 0 933.333)"/>
</svg>
