<svg xmlns="http://www.w3.org/2000/svg" xml:space="preserve" width="2510.707" height="933.333">
  <path d="M9472.86 1950.93c21.84 46.87 34.12 99.16 34.12 154.39 0 127.13-64.99 239.2-163.46 304.81 58.71 60.4 122.12 120.05 189.77 177.09-79.2-46.54-153.69-100.05-222.54-157.72-50.71 26.72-108.5 41.71-169.78 41.71-202.09 0-365.95-163.79-365.95-365.89 0-91.31 33.47-174.75 88.68-238.9-70.02-151.44-82.3-273.34-20.55-314.48 66.15-44.14 209.97 35.81 296.28 166.07 0 0-133.52-120.44-206.74-92.83-45.21 17.1-45.35 86.04-8.15 185.02 60.63-44.56 135.48-70.79 216.43-70.79 100.26 0 191.02 40.26 257.17 105.53l12.96-24.51c159.5 12.93 635.7 25.47 635.7 25.47 0 23.05-315.29 2.23-573.94 105.03zm-653.85 154.39c0 177.85 144.18 321.89 321.96 321.89 47.66 0 92.92-10.31 133.62-28.8-174.5-154.25-309.58-333.55-389.55-488.44-41.43 54.19-66.03 121.83-66.03 195.35zm321.96-322.04c-75.2 0-144.34 25.77-199.13 69.11 63.69 143.82 193.61 336.88 370.73 525.38 90.42-57.04 150.45-157.73 150.45-272.45 0-49.02-11.02-95.49-30.62-137.13-56.19 25.99-108.65 58.55-153.09 99.64l97.15-182.16c-58.81-62.93-142.51-102.39-235.49-102.39v0M11656.1 2138.93l59.6 79.16-207.7.06 51.2 67.87h207.6l59.8 79.15h-414.7l-285.1-378.5h414.6l59.6 79.18h-207.6l54.9 73.08h207.8v0 0M11944.1 2365.17l-285.2-378.5h206.9l285.1 378.5h-206.8v0 0M12633.4 2365.17l-144.6-191.87-44.3 191.87h-161.8l-285.2-378.5h136.9l143.3 190.12 44-190.12h163.5l285.1 378.5h-136.9v0 0M13310 2365.17l-332.6.06c-57 0-107.4-27.23-139.3-69.52l-171.7-227.88c-6.5-8.42-10.1-19.06-10.1-30.52 0-27.92 22.5-50.64 50.5-50.64h332.6c56.9 0 107.5 27.28 139.3 69.51l41.4 54.77h48l60.1 79.65h-254.8l-80.4-106.69c-8.3-10.9-21.4-17.98-36.1-17.98h-58.6c-7.4 0-13.3 5.95-13.3 13.1 0 3.04 1.1 5.77 2.7 7.92l136.5 181.03c8.2 11.09 21.3 18.04 36.1 18.04h58.6c7.3 0 13.1-5.94 13.1-13.17 0-2.92-.9-5.7-2.6-7.84l-22.2-29.51h206.7l36.5 48.57c6.5 8.41 10.2 18.98 10.2 30.45 0 27.98-22.7 50.65-50.6 50.65v0 0M11242.3 2314.52c0 27.98-22.7 50.65-50.6 50.65h-332.4c-57.1 0-107.6-27.17-139.4-69.46l-171.8-227.88c-6.4-8.49-10.2-19.06-10.2-30.52 0-27.92 22.8-50.64 50.7-50.64h332.5c56.9 0 107.6 27.28 139.4 69.51l171.7 227.81c6.4 8.49 10.1 19.06 10.1 30.53v0zm-231.2-49.51-136.4-181.1c-8.3-10.9-21.4-17.98-36.1-17.98h-58.7c-7.2 0-13.1 5.95-13.1 13.1 0 3.04 1 5.77 2.7 7.92l136.4 181.03c8.2 10.89 21.3 18.04 36.1 18.04h58.6c7.2 0 13.2-5.94 13.2-13.17 0-2.92-1-5.7-2.7-7.84v0 0" fill="#100f0d" transform="matrix(.13333 0 0 -.13333 0 933.333)"/>
  <path d="M10460.3 2166.67c40.7 9.24 76.1 32.81 100.5 65.09l39.3 52.23c6.4 8.49 10.2 19.06 10.2 30.53 0 27.98-22.6 50.65-50.6 50.65h-212.6v0h-206.9l-285.23-378.5h203.23 230.8c57 0 107.6 27.28 139.5 69.51l40.2 53.37c5.1 6.77 8.1 15.26 8.1 24.37 0 13.43-6.5 25.27-16.5 32.75v0zm-192.1-48.83-25.6-34c-8.2-10.83-21.3-17.99-36.2-17.99h-84.9l55 73.08h81.3c7.1 0 13.1-5.89 13.1-13.11 0-3.03-1-5.82-2.7-7.98v0zm110.9 147.17-21.7-28.93c-8.3-10.89-21.4-17.99-36.2-17.99l-85 .06 51.2 67.87h81.2c7.3 0 13.1-5.94 13.1-13.17 0-2.92-.9-5.7-2.6-7.84v0 0M5562.19 2074.6h-45.92v-89.83h-46.61v238.68h92.53c49.29 0 78.78-33.88 78.78-74.42 0-40.58-29.49-74.43-78.78-74.43zm-2.34 107.28h-43.58v-65.37h43.58c21.12 0 34.52 13.06 34.52 32.52 0 19.42-13.4 32.85-34.52 32.85v0M5823.81 1984.77l-46.6 95.19h-33.52v-95.19h-46.61v238.68h93.55c48.61 0 77.43-33.2 77.43-73.09 0-33.52-20.45-54.3-43.58-62.69l53.31-102.9h-53.98zm-36.21 197.11h-43.91v-63.04h43.91c20.46 0 33.85 13.07 33.85 31.52 0 18.43-13.39 31.52-33.85 31.52v0M5933.21 1984.77v238.68h157.22v-41.57h-110.62v-56h94.2v-41.56h-94.2v-58h110.62v-41.55h-157.22v0M6218.64 1982.77c-36.19 0-63.68 7.7-87.16 31.47l30.18 30.18c15.09-15.09 35.52-20.12 57.67-20.12 27.48 0 42.22 10.39 42.22 29.51 0 8.37-2.34 15.42-7.37 20.12-4.7 4.34-10.06 6.7-21.12 8.37l-28.83 4.03c-20.45 3.01-35.54 9.39-46.27 19.79-11.39 11.39-17.09 26.81-17.09 46.91 0 42.58 31.52 72.42 83.13 72.42 32.87 0 56.66-8.05 77.12-27.82l-29.51-29.18c-15.07 14.42-33.19 16.44-48.94 16.44-24.8 0-36.88-13.74-36.88-30.17 0-6.03 2.02-12.41 7.05-17.09 4.67-4.36 12.39-8.06 22.12-9.39l28.15-4.03c21.8-3.03 35.55-9.06 45.61-18.43 12.73-12.09 18.43-29.51 18.43-50.63 0-46.25-38.55-72.38-88.51-72.38v0M6367.95 1984.77v238.68h157.24v-41.57h-110.63v-56h94.19v-41.56h-94.19v-58h110.63v-41.55h-157.24v0M6728.79 1984.77l-94.53 146.47v-146.47h-46.6v238.68h41.57l94.55-146.18v146.18h46.58v-238.68h-41.57v0M6934.11 2181.88v-197.11h-46.61v197.11h-62.34v41.57h171.3v-41.57h-62.35v0M7051.21 1984.77v238.68h157.22v-41.57h-110.62v-56H7192v-41.56h-94.19v-58h110.62v-41.55h-157.22v0M7420.11 2007.54c-15.75-15.74-38.21-22.77-63.03-22.77h-86.15v238.68h86.15c24.82 0 47.28-7.05 63.03-22.81 26.82-26.82 24.13-59.67 24.13-95.55 0-35.86 2.69-70.73-24.13-97.55zm-32.51 159.58c-8.06 9.73-18.79 14.76-34.88 14.76h-35.19v-155.56h35.19c16.09 0 26.82 5.03 34.88 14.76 8.72 10.73 10.06 27.82 10.06 64.01 0 36.21-1.34 51.3-10.06 62.03v0M7703.25 1984.77h-99.91v238.68h95.89c46.6 0 73.75-26.15 73.75-67.06 0-26.48-17.42-43.57-29.51-49.28 14.43-6.7 32.85-21.78 32.85-53.63 0-44.58-30.49-68.71-73.07-68.71zm-7.72 197.11h-45.58v-54.98h45.58c19.79 0 30.85 11.06 30.85 27.49 0 16.42-11.06 27.49-30.85 27.49zm3.03-96.89h-48.61v-58.67h48.61c21.12 0 31.18 13.4 31.18 29.49 0 16.1-10.06 29.18-31.18 29.18v0M7932.01 2082.63v-97.86h-46.25v97.86l-71.75 140.82h50.63l44.58-96.21 43.91 96.21h50.63l-71.75-140.82v0" fill="#100f0d" transform="matrix(.13333 0 0 -.13333 0 933.333)"/>
  <path d="M11961.7 5001.9h-113.9c-21.1 0-38.2-17.11-38.2-38.21v-891.11h113.9v891.11c0 21.1 17.1 38.21 38.2 38.21M13774.1 4717.04l-10.8-20.29 143.3-264.7h113.9l-154.4 285.26c-19.8 36.57-72.4 36.42-92-.27M13764.5 4996.8c-18.7 3.34-37.7 5.1-57 5.1v0c-116.3 0-223.5-62.73-280.5-164.09l-430.2-765.23h113.9l430.2 765.23c47.5 84.54 130 142.17 223.6 158.99M14005.5 4238.37l92-165.79h113.9l-92 165.79h-113.9M15476.5 4309.44c40.5 16.72 55.8 45.97 55.8 112.85h-113.9c0-66.88-15.3-96.13-55.7-112.85-33.6-14.37-60.9-17.42-201.4-17.99 11.2-.08 22.9-.12 35.2-.12 210.4 0 241 1.39 280 18.11M15252.2 4785.95c-22.5 0-43.3-.06-62.4-.19 196.8-1.59 215.1-15.8 220.3-109.88h113.8c-5.5 101.71-26.4 110.07-271.7 110.07M14623.8 4558.85c0 245.22 27.9 332.98 125.5 388.72 78.9 46.04 162.8 59.79 391.3 61.18-22.6.09-46.5.13-71.9.13-260.6 0-349.7-12.55-433.3-61.31-97.6-55.74-125.4-143.5-125.4-388.72 0-275.89 26.4-373.41 118.4-431.94 75.2-48.76 161.6-61.31 429.1-61.31 26.7 0 51.8.03 75.5.1-237.6 1.23-319.2 14.86-390.7 61.21-92 58.53-118.5 156.05-118.5 431.94M16008.1 5001.9h-113.9c-21.1 0-38.2-17.11-38.2-38.21v-191.68h113.9v191.68c0 21.1 17.1 38.21 38.2 38.21M16269.8 4772.01v-699.43h113.9v699.43h-113.9M11367.5 4639.65c0 111.46-27.8 136.55-149 136.55h-113.9c121.2 0 149.1-25.09 149.1-136.55 0-87.78-33.5-112.85-149.1-112.85h113.9c115.6 0 149 25.07 149 112.85M10951.9 4526.8H10838c-14.3 0-22.2-16.47-13.4-27.66l338-426.56h113.9l-338 426.56c-8.9 11.19-.9 27.66 13.4 27.66M10740.1 5001.9h-113.9c-118.2 0-214.1-95.86-214.1-214.11v-715.21h113.9v715.21c0 118.25 95.8 214.11 214.1 214.11M3763.59 4996.8c-18.61 3.34-37.65 5.1-56.95 5.1v0c-116.28 0-223.52-62.73-280.5-164.09l-430.23-765.23h113.88l430.22 765.23c47.54 84.54 130.04 142.17 223.58 158.99M3773.26 4717.04l-10.83-20.29 143.3-264.7h113.88l-154.43 285.26c-19.79 36.57-72.33 36.42-91.92-.27M4004.66 4238.37l91.96-165.79h113.88l-91.96 165.79h-113.88M6029.18 5001.9H5915.3c-30.97 0-56.08-25.11-56.08-56.08v-873.24h113.88v873.24c0 30.97 25.11 56.08 56.08 56.08M6554.49 5001.9h-113.88c-30.97 0-56.07-25.11-56.07-56.08v-873.24h113.87v873.24c0 30.97 25.11 56.08 56.08 56.08M7260.54 4770.63h-113.87c163.02 0 196.46-40.42 196.46-235.48 0-160.22-18.13-208.99-86.39-229.9-33.44-11.15-39.01-11.15-115.65-11.15h113.88c76.64 0 82.21 0 115.65 11.15 68.27 20.91 86.39 69.68 86.39 229.9 0 195.06-33.45 235.48-196.47 235.48M4960.45 4526.79v-225.71h113.89v225.71h-113.89M5490.99 4639.65c0 111.46-27.86 136.55-149.08 136.55h-113.87c121.21 0 149.07-25.09 149.07-136.55 0-87.78-33.44-112.86-149.07-112.86h113.87c115.64 0 149.08 25.08 149.08 112.86M4705.52 5001.9h-113.88c-30.97 0-56.08-25.11-56.08-56.08v-873.24h113.88v873.24c0 30.97 25.11 56.08 56.08 56.08M2289.76 4526.8h-113.88c-14.27 0-22.23-16.47-13.37-27.66l338.03-426.56h113.88l-338.03 426.56c-8.86 11.19-.9 27.66 13.37 27.66M2077.99 5001.9h-113.88c-118.25 0-214.11-95.86-214.11-214.11v-715.21h113.88v715.21c0 118.25 95.86 214.11 214.11 214.11M2705.43 4639.65c0 111.46-27.86 136.55-149.07 136.55h-113.88c121.21 0 149.07-25.09 149.07-136.55 0-87.78-33.44-112.85-149.07-112.85h113.88c115.63 0 149.07 25.07 149.07 112.85" fill="#d4d3d1" transform="matrix(.13333 0 0 -.13333 0 933.333)"/>
  <path d="m 8198.81,5176.28 h -299.25 c -19.26,0 -34.87,15.62 -34.87,34.88 0,19.26 15.61,34.88 34.87,34.88 h 299.25 c 19.26,0 34.88,-15.62 34.88,-34.88 0,-19.26 -15.62,-34.88 -34.88,-34.88" fill="#100f0d" transform="matrix(.13333 0 0 -.13333 0 933.333)"/>
  <path d="m 9198.27,3629.97 c -279.36,0 -505.88,400.43 -506.59,894.85 h -390.52 c 1.26,-494.42 402.39,-894.85 897.11,-894.85" fill="#3155ac" transform="matrix(.13333 0 0 -.13333 0 933.333)"/>
  <path d="m 9204.83,3630.27 c -0.39,-0.03 -0.78,-0.14 -1.18,-0.16 492.23,2.91 890.45,402.1 891.75,894.71 h -390.55 c -0.7,-490.52 -223.7,-888.3 -500.02,-894.55" fill="#c8e66c" transform="matrix(.13333 0 0 -.13333 0 933.333)"/>
  <path d="m 9704.85,4524.82 h -332.24 c -0.24,-490.52 -75.06,-888.3 -167.78,-894.55 276.32,6.25 499.32,404.03 500.02,894.55" fill="#96d021" transform="matrix(.13333 0 0 -.13333 0 933.333)"/>
  <path d="m 9032.65,4524.82 h -340.97 c 0.71,-494.42 227.23,-894.85 506.59,-894.85 1.1,0 2.17,0.14 3.26,0.15 -93.22,3.13 -168.64,402.22 -168.88,894.7" fill="#100f0d" transform="matrix(.13333 0 0 -.13333 0 933.333)"/>
  <path d="m 9372.61,4524.82 h -339.96 c 0.24,-492.48 75.66,-891.57 168.88,-894.7 1.11,0.01 2.2,0.13 3.3,0.15 92.72,6.25 167.54,404.03 167.78,894.55" fill="#397b33" transform="matrix(.13333 0 0 -.13333 0 933.333)"/>
  <path d="m 9808.93,3919.54 c -100.91,-101.21 -222.68,-174.33 -355.61,-215.3 2.37,2.16 4.73,4.39 7.08,6.61 0.62,0.58 1.23,1.14 1.84,1.72 3.52,3.36 7.01,6.79 10.48,10.28 0.98,0.99 1.95,2 2.92,2.99 2.53,2.59 5.05,5.2 7.56,7.85 1.18,1.25 2.36,2.52 3.53,3.79 2.38,2.57 4.75,5.17 7.12,7.81 1.08,1.22 2.18,2.42 3.26,3.65 2.99,3.39 5.95,6.82 8.9,10.32 0.39,0.46 0.79,0.91 1.19,1.38 3.33,3.98 6.64,8.03 9.92,12.15 0.94,1.17 1.86,2.36 2.79,3.54 2.37,3 4.73,6.03 7.06,9.11 1.12,1.45 2.22,2.91 3.31,4.38 2.26,3.01 4.5,6.05 6.73,9.12 1,1.38 2,2.74 3,4.13 2.96,4.15 5.91,8.35 8.83,12.62 0.19,0.28 0.39,0.55 0.58,0.84 3.12,4.56 6.21,9.21 9.26,13.9 0.91,1.4 1.82,2.82 2.72,4.23 2.16,3.37 4.31,6.75 6.45,10.19 1.05,1.67 2.08,3.34 3.11,5.03 2.1,3.41 4.18,6.87 6.24,10.35 0.92,1.54 1.83,3.07 2.74,4.62 2.92,5 5.83,10.04 8.69,15.16 2.97,5.3 5.89,10.65 8.77,16.04 0.98,1.83 1.93,3.7 2.89,5.55 1.89,3.59 3.78,7.17 5.63,10.81 1.13,2.23 2.24,4.49 3.37,6.74 1.64,3.29 3.29,6.57 4.9,9.9 1.18,2.42 2.32,4.88 3.49,7.33 1.52,3.19 3.04,6.38 4.54,9.61 1.18,2.55 2.33,5.13 3.49,7.69 1.44,3.17 2.87,6.33 4.28,9.53 1.17,2.64 2.31,5.31 3.46,7.97 1.36,3.18 2.73,6.35 4.08,9.54 1.14,2.72 2.26,5.45 3.38,8.18 1.31,3.19 2.61,6.37 3.88,9.58 1.12,2.79 2.21,5.59 3.31,8.4 1.26,3.2 2.5,6.41 3.73,9.65 1.07,2.83 2.13,5.68 3.19,8.54 1.2,3.24 2.39,6.49 3.57,9.75 1.04,2.88 2.06,5.77 3.09,8.67 1.15,3.29 2.29,6.59 3.43,9.89 0.99,2.92 1.99,5.85 2.97,8.79 1.1,3.32 2.19,6.65 3.28,9.99 0.95,2.97 1.91,5.93 2.85,8.92 1.06,3.36 2.11,6.75 3.14,10.13 0.92,2.99 1.83,5.98 2.73,8.98 1.02,3.43 2.02,6.87 3.02,10.32 0.86,3 1.73,6 2.58,9.01 0.98,3.5 1.94,7 2.89,10.51 0.82,3.02 1.64,6.03 2.45,9.06 0.94,3.55 1.85,7.12 2.76,10.69 0.77,3.02 1.55,6.03 2.3,9.07 0.91,3.64 1.79,7.32 2.67,10.99 0.71,2.98 1.45,5.96 2.14,8.96 0.88,3.79 1.73,7.6 2.58,11.41 0.64,2.91 1.32,5.8 1.95,8.73 0.87,4.02 1.7,8.07 2.54,12.11 0.57,2.74 1.16,5.47 1.71,8.22 0.91,4.5 1.78,9.02 2.63,13.55 0.45,2.32 0.92,4.64 1.35,6.97 1.28,6.85 2.52,13.72 3.7,20.63 0.17,0.95 0.32,1.9 0.47,2.85 1.02,5.98 2.01,11.98 2.96,18 0.39,2.5 0.75,5.03 1.13,7.54 0.69,4.48 1.37,8.96 2.02,13.47 0.41,2.9 0.79,5.82 1.19,8.74 0.56,4.13 1.14,8.26 1.67,12.4 0.4,3.11 0.77,6.23 1.15,9.35 0.48,3.98 0.98,7.96 1.44,11.95 0.36,3.22 0.7,6.45 1.05,9.67 0.42,3.92 0.85,7.84 1.24,11.77 0.33,3.29 0.63,6.58 0.95,9.87 0.36,3.9 0.73,7.8 1.07,11.71 0.28,3.34 0.55,6.69 0.82,10.04 0.31,3.87 0.62,7.76 0.9,11.64 0.25,3.39 0.48,6.79 0.7,10.19 0.26,3.87 0.51,7.74 0.75,11.62 0.19,3.43 0.38,6.87 0.56,10.31 0.21,3.86 0.4,7.72 0.58,11.59 0.15,3.47 0.3,6.94 0.44,10.41 0.15,3.87 0.29,7.73 0.42,11.6 0.1,3.51 0.21,7.01 0.3,10.51 0.05,1.8 0.12,3.59 0.16,5.39 h 320.38 c -9.1,-215.83 -97.39,-417.64 -250.77,-571.5 z m -362.65,-122.8 c -2.27,-2.6 -4.54,-5.15 -6.83,-7.67 -0.7,-0.79 -1.41,-1.57 -2.13,-2.35 -2.91,-3.17 -5.84,-6.29 -8.78,-9.35 -0.26,-0.27 -0.52,-0.53 -0.79,-0.8 -2.68,-2.77 -5.38,-5.47 -8.08,-8.14 -0.79,-0.78 -1.58,-1.55 -2.38,-2.33 -2.44,-2.37 -4.89,-4.69 -7.34,-6.98 -0.59,-0.55 -1.18,-1.11 -1.77,-1.65 -3,-2.77 -6.03,-5.48 -9.07,-8.13 -0.59,-0.52 -1.19,-1.02 -1.79,-1.54 -2.48,-2.14 -4.98,-4.25 -7.48,-6.31 -0.83,-0.68 -1.66,-1.36 -2.49,-2.04 -2.76,-2.24 -5.53,-4.44 -8.32,-6.58 -0.31,-0.24 -0.62,-0.5 -0.93,-0.74 -3.11,-2.37 -6.22,-4.66 -9.34,-6.91 -0.78,-0.56 -1.56,-1.1 -2.34,-1.65 -2.45,-1.73 -4.9,-3.42 -7.36,-5.08 -0.83,-0.55 -1.66,-1.12 -2.5,-1.67 -3.14,-2.08 -6.3,-4.11 -9.47,-6.06 -0.17,-0.11 -0.34,-0.21 -0.51,-0.31 -2.99,-1.84 -5.98,-3.61 -9,-5.33 -0.91,-0.52 -1.82,-1.03 -2.73,-1.54 -2.48,-1.39 -4.97,-2.74 -7.46,-4.06 -0.79,-0.42 -1.58,-0.85 -2.37,-1.25 -3.17,-1.64 -6.36,-3.23 -9.55,-4.75 -0.68,-0.31 -1.35,-0.61 -2.02,-0.93 -2.59,-1.2 -5.18,-2.37 -7.78,-3.49 -0.99,-0.43 -1.99,-0.86 -2.98,-1.28 -0.79,-0.33 -1.58,-0.62 -2.36,-0.95 0.59,1.3 1.17,2.62 1.75,3.94 21.03,48.06 39.74,115.27 55.6,199.79 30.45,162.18 47.94,374.25 49.66,600.44 h 262.17 c -0.03,-1.48 -0.06,-2.97 -0.1,-4.45 -0.07,-3.1 -0.17,-6.19 -0.27,-9.27 -0.13,-3.93 -0.26,-7.85 -0.42,-11.77 -0.12,-3.05 -0.25,-6.11 -0.39,-9.16 -0.18,-3.93 -0.37,-7.86 -0.58,-11.78 -0.16,-3.02 -0.33,-6.04 -0.5,-9.06 -0.24,-3.94 -0.49,-7.87 -0.75,-11.8 -0.2,-2.97 -0.4,-5.94 -0.61,-8.91 -0.29,-3.96 -0.6,-7.91 -0.92,-11.86 -0.23,-2.92 -0.47,-5.83 -0.71,-8.75 -0.34,-3.99 -0.72,-7.98 -1.1,-11.97 -0.26,-2.83 -0.52,-5.67 -0.81,-8.5 -0.4,-4.05 -0.83,-8.1 -1.27,-12.14 -0.29,-2.74 -0.58,-5.47 -0.89,-8.21 -0.47,-4.15 -0.98,-8.28 -1.48,-12.42 -0.32,-2.59 -0.62,-5.19 -0.96,-7.78 -0.54,-4.31 -1.13,-8.59 -1.71,-12.87 -0.34,-2.4 -0.65,-4.81 -0.98,-7.21 -0.66,-4.56 -1.34,-9.09 -2.02,-13.63 -0.33,-2.1 -0.63,-4.21 -0.95,-6.3 -0.81,-5.18 -1.66,-10.34 -2.52,-15.49 -0.24,-1.42 -0.46,-2.86 -0.7,-4.28 -2.27,-13.27 -4.71,-26.42 -7.33,-39.45 -0.17,-0.89 -0.37,-1.77 -0.54,-2.66 -1.13,-5.55 -2.28,-11.09 -3.47,-16.59 -0.4,-1.87 -0.83,-3.72 -1.24,-5.59 -1,-4.5 -1.99,-9 -3.03,-13.48 -0.52,-2.24 -1.05,-4.46 -1.59,-6.69 -0.96,-4.07 -1.92,-8.14 -2.93,-12.17 -0.6,-2.44 -1.22,-4.84 -1.84,-7.27 -0.96,-3.81 -1.93,-7.62 -2.93,-11.42 -0.66,-2.52 -1.35,-5.03 -2.03,-7.54 -0.99,-3.65 -1.98,-7.31 -2.99,-10.94 -0.73,-2.57 -1.47,-5.12 -2.2,-7.68 -1.02,-3.54 -2.03,-7.08 -3.08,-10.59 -0.77,-2.6 -1.56,-5.18 -2.34,-7.76 -1.06,-3.45 -2.11,-6.89 -3.19,-10.31 -0.82,-2.6 -1.65,-5.19 -2.48,-7.78 -1.08,-3.36 -2.17,-6.71 -3.29,-10.05 -0.86,-2.6 -1.74,-5.19 -2.61,-7.77 -1.13,-3.3 -2.26,-6.59 -3.41,-9.86 -0.9,-2.58 -1.81,-5.15 -2.74,-7.7 -1.16,-3.24 -2.33,-6.46 -3.52,-9.68 -0.95,-2.56 -1.9,-5.11 -2.85,-7.65 -1.21,-3.18 -2.44,-6.35 -3.67,-9.51 -0.97,-2.52 -1.96,-5.03 -2.94,-7.53 -1.26,-3.15 -2.53,-6.28 -3.81,-9.4 -1.02,-2.47 -2.03,-4.94 -3.05,-7.39 -1.31,-3.12 -2.64,-6.21 -3.97,-9.3 -1.04,-2.42 -2.07,-4.83 -3.12,-7.23 -1.37,-3.09 -2.75,-6.15 -4.13,-9.21 -1.07,-2.35 -2.12,-4.71 -3.19,-7.05 -1.44,-3.1 -2.9,-6.16 -4.36,-9.23 -1.06,-2.24 -2.12,-4.5 -3.2,-6.73 -1.55,-3.18 -3.12,-6.32 -4.69,-9.46 -1.04,-2.07 -2.05,-4.16 -3.1,-6.22 -1.75,-3.45 -3.54,-6.85 -5.33,-10.26 -0.9,-1.7 -1.78,-3.43 -2.67,-5.12 -2.72,-5.08 -5.46,-10.11 -8.25,-15.09 -2.46,-4.41 -4.95,-8.73 -7.46,-13.03 -0.71,-1.22 -1.42,-2.42 -2.14,-3.63 -1.94,-3.3 -3.9,-6.57 -5.87,-9.8 -0.66,-1.06 -1.3,-2.14 -1.96,-3.2 -2.55,-4.14 -5.12,-8.23 -7.7,-12.25 -0.43,-0.67 -0.86,-1.32 -1.29,-1.98 -2.21,-3.39 -4.43,-6.75 -6.65,-10.07 -0.76,-1.14 -1.54,-2.27 -2.3,-3.4 -2.18,-3.21 -4.38,-6.38 -6.59,-9.51 -0.5,-0.72 -1,-1.44 -1.5,-2.15 -2.7,-3.79 -5.4,-7.52 -8.14,-11.19 -0.62,-0.84 -1.25,-1.66 -1.87,-2.5 -2.18,-2.91 -4.38,-5.78 -6.58,-8.62 -0.76,-0.97 -1.52,-1.95 -2.28,-2.91 -2.66,-3.37 -5.32,-6.71 -8.01,-9.97 -0.13,-0.16 -0.25,-0.32 -0.38,-0.48 -2.83,-3.44 -5.69,-6.81 -8.56,-10.13 -0.74,-0.84 -1.47,-1.68 -2.2,-2.51 z M 9202.5,3666.19 c -12.26,3.6 -53.11,55.19 -87.92,245.64 -28.8,157.59 -45.32,363.03 -46.91,581.54 h 269.93 c -1.59,-218.52 -18.12,-423.94 -46.92,-581.51 -35.05,-191.75 -76.25,-242.72 -88.18,-245.67 z m -104.68,19.75 c -0.8,0.32 -1.59,0.66 -2.39,0.99 -2.54,1.06 -5.08,2.14 -7.62,3.27 -1,0.45 -2.01,0.91 -3.02,1.37 -2.64,1.21 -5.28,2.47 -7.91,3.77 -0.65,0.32 -1.3,0.62 -1.95,0.95 -3.25,1.62 -6.47,3.32 -9.69,5.07 -0.79,0.43 -1.56,0.87 -2.34,1.31 -2.51,1.39 -5.01,2.82 -7.5,4.29 -0.96,0.56 -1.91,1.12 -2.87,1.7 -2.68,1.62 -5.35,3.27 -8.01,4.98 -0.55,0.34 -1.09,0.67 -1.62,1.02 -3.19,2.06 -6.36,4.2 -9.53,6.38 -0.76,0.53 -1.52,1.08 -2.29,1.62 -2.44,1.72 -4.89,3.48 -7.32,5.28 -0.92,0.67 -1.83,1.35 -2.74,2.03 -2.69,2.03 -5.37,4.09 -8.03,6.2 -0.45,0.36 -0.91,0.7 -1.36,1.06 -3.1,2.49 -6.2,5.04 -9.27,7.65 -0.76,0.65 -1.53,1.31 -2.28,1.96 -2.37,2.04 -4.74,4.11 -7.09,6.22 -0.88,0.79 -1.75,1.58 -2.63,2.37 -2.68,2.44 -5.35,4.93 -8.01,7.47 -0.36,0.34 -0.72,0.67 -1.09,1.02 -3.01,2.89 -6,5.85 -8.97,8.87 -0.78,0.78 -1.54,1.58 -2.31,2.37 -2.27,2.32 -4.53,4.68 -6.77,7.07 -0.86,0.91 -1.71,1.83 -2.57,2.74 -2.64,2.86 -5.27,5.76 -7.89,8.71 -0.28,0.33 -0.58,0.64 -0.87,0.98 -2.89,3.28 -5.77,6.64 -8.62,10.04 -0.78,0.93 -1.56,1.87 -2.33,2.81 -2.16,2.59 -4.29,5.21 -6.43,7.87 -0.83,1.04 -1.66,2.07 -2.49,3.12 -2.6,3.29 -5.18,6.62 -7.75,10 -0.21,0.29 -0.43,0.56 -0.65,0.85 -2.77,3.67 -5.51,7.41 -8.25,11.19 -0.78,1.07 -1.54,2.16 -2.31,3.24 -2.04,2.86 -4.07,5.75 -6.09,8.67 -0.8,1.16 -1.6,2.31 -2.39,3.49 -2.57,3.76 -5.13,7.56 -7.66,11.44 -0.11,0.18 -0.23,0.35 -0.35,0.53 -2.64,4.05 -5.26,8.17 -7.85,12.33 -0.76,1.21 -1.52,2.44 -2.27,3.66 -1.93,3.13 -3.85,6.28 -5.75,9.47 -0.76,1.27 -1.52,2.53 -2.27,3.8 -2.55,4.32 -5.08,8.67 -7.59,13.1 -2.82,4.99 -5.61,10.04 -8.35,15.13 -0.92,1.7 -1.81,3.43 -2.72,5.15 -1.82,3.41 -3.64,6.83 -5.42,10.29 -1.05,2.06 -2.08,4.15 -3.13,6.23 -1.6,3.16 -3.2,6.31 -4.76,9.51 -1.1,2.23 -2.16,4.49 -3.24,6.74 -1.49,3.09 -2.98,6.18 -4.43,9.3 -1.09,2.33 -2.16,4.69 -3.23,7.05 -1.41,3.07 -2.82,6.14 -4.2,9.25 -1.07,2.42 -2.12,4.85 -3.18,7.28 -1.35,3.1 -2.69,6.2 -4.01,9.32 -1.05,2.48 -2.08,4.97 -3.11,7.46 -1.29,3.12 -2.57,6.24 -3.84,9.39 -1.02,2.53 -2.02,5.07 -3.02,7.62 -1.24,3.16 -2.48,6.33 -3.7,9.52 -0.97,2.56 -1.94,5.14 -2.9,7.71 -1.2,3.22 -2.39,6.44 -3.57,9.68 -0.94,2.6 -1.87,5.2 -2.79,7.81 -1.16,3.27 -2.3,6.55 -3.44,9.85 -0.89,2.61 -1.78,5.22 -2.66,7.85 -1.13,3.35 -2.23,6.7 -3.32,10.07 -0.86,2.62 -1.7,5.24 -2.54,7.87 -1.09,3.42 -2.15,6.86 -3.21,10.3 -0.8,2.62 -1.61,5.23 -2.39,7.86 -1.06,3.52 -2.09,7.05 -3.11,10.59 -0.76,2.6 -1.51,5.19 -2.24,7.79 -1.03,3.62 -2.02,7.26 -3.02,10.9 -0.7,2.57 -1.4,5.14 -2.09,7.72 -1,3.76 -1.97,7.54 -2.94,11.32 -0.63,2.49 -1.28,4.97 -1.9,7.47 -0.99,3.97 -1.95,7.98 -2.91,11.98 -0.56,2.34 -1.13,4.67 -1.68,7.02 -1.01,4.33 -1.98,8.69 -2.95,13.05 -0.46,2.05 -0.93,4.08 -1.38,6.14 -1.12,5.13 -2.19,10.29 -3.25,15.46 -0.27,1.31 -0.56,2.6 -0.82,3.92 -2.65,13.1 -5.12,26.32 -7.41,39.65 -0.24,1.4 -0.46,2.81 -0.7,4.22 -0.88,5.21 -1.74,10.43 -2.57,15.67 -0.34,2.19 -0.66,4.38 -0.99,6.57 -0.69,4.49 -1.37,8.98 -2.02,13.49 -0.35,2.51 -0.68,5.04 -1.03,7.56 -0.58,4.22 -1.16,8.43 -1.7,12.66 -0.35,2.7 -0.67,5.41 -1,8.11 -0.5,4.08 -1,8.16 -1.47,12.25 -0.33,2.84 -0.63,5.68 -0.94,8.53 -0.43,3.98 -0.86,7.96 -1.26,11.96 -0.3,2.94 -0.57,5.9 -0.85,8.85 -0.37,3.92 -0.73,7.84 -1.08,11.77 -0.26,3.02 -0.5,6.04 -0.74,9.06 -0.32,3.9 -0.62,7.8 -0.91,11.7 -0.22,3.09 -0.43,6.18 -0.64,9.27 -0.26,3.85 -0.5,7.7 -0.73,11.56 -0.19,3.16 -0.37,6.32 -0.54,9.49 -0.2,3.82 -0.39,7.66 -0.56,11.5 -0.15,3.19 -0.29,6.39 -0.42,9.59 -0.15,3.83 -0.28,7.67 -0.41,11.5 -0.1,3.24 -0.2,6.46 -0.29,9.7 -0.04,1.5 -0.06,3.01 -0.09,4.51 h 270.89 c 1.73,-227.2 19.36,-439.99 50.03,-602.45 15.99,-84.68 34.84,-151.85 56.01,-199.64 0.98,-2.2 1.96,-4.37 2.95,-6.5 -3.03,1.11 -6.07,2.26 -9.09,3.49 z m -508.52,231.84 c -154.46,154.11 -243.35,356.52 -252.49,573.26 h 320.41 c 0.05,-1.91 0.12,-3.8 0.17,-5.7 0.09,-3.47 0.19,-6.93 0.3,-10.39 0.13,-3.99 0.27,-7.97 0.43,-11.95 0.13,-3.41 0.27,-6.81 0.43,-10.21 0.19,-4.02 0.39,-8.03 0.6,-12.04 0.18,-3.35 0.36,-6.71 0.56,-10.05 0.24,-4.04 0.5,-8.07 0.77,-12.1 0.23,-3.3 0.45,-6.6 0.69,-9.89 0.29,-4.07 0.62,-8.14 0.95,-12.2 0.26,-3.22 0.52,-6.44 0.8,-9.65 0.36,-4.13 0.75,-8.25 1.14,-12.38 0.3,-3.12 0.58,-6.25 0.9,-9.36 0.42,-4.2 0.88,-8.39 1.33,-12.58 0.34,-3.02 0.65,-6.03 1,-9.04 0.49,-4.33 1.04,-8.64 1.57,-12.96 0.35,-2.84 0.68,-5.68 1.05,-8.51 0.59,-4.62 1.24,-9.23 1.87,-13.83 0.35,-2.49 0.67,-4.99 1.03,-7.46 0.77,-5.38 1.59,-10.73 2.41,-16.07 0.27,-1.7 0.51,-3.4 0.78,-5.1 2.23,-14.14 4.66,-28.17 7.28,-42.08 0.33,-1.78 0.69,-3.56 1.04,-5.34 0.98,-5.12 1.97,-10.23 3,-15.32 0.49,-2.41 1.01,-4.79 1.51,-7.19 0.93,-4.43 1.85,-8.87 2.81,-13.27 0.59,-2.67 1.2,-5.32 1.8,-7.98 0.93,-4.11 1.84,-8.23 2.81,-12.31 0.64,-2.79 1.32,-5.55 1.99,-8.32 0.95,-3.93 1.9,-7.86 2.87,-11.77 0.72,-2.85 1.46,-5.68 2.19,-8.52 0.98,-3.8 1.96,-7.59 2.96,-11.37 0.77,-2.88 1.56,-5.74 2.35,-8.6 1.01,-3.69 2.03,-7.39 3.07,-11.06 0.82,-2.9 1.66,-5.79 2.5,-8.67 1.05,-3.61 2.11,-7.21 3.19,-10.79 0.87,-2.89 1.76,-5.77 2.64,-8.64 1.09,-3.54 2.2,-7.08 3.32,-10.6 0.92,-2.88 1.85,-5.74 2.78,-8.61 1.14,-3.47 2.28,-6.93 3.44,-10.38 0.97,-2.86 1.94,-5.71 2.92,-8.56 1.18,-3.42 2.37,-6.82 3.58,-10.22 1,-2.82 2.01,-5.65 3.04,-8.45 1.22,-3.37 2.46,-6.72 3.71,-10.07 1.05,-2.79 2.1,-5.59 3.17,-8.37 1.27,-3.31 2.56,-6.6 3.85,-9.88 1.09,-2.77 2.18,-5.53 3.29,-8.27 1.32,-3.28 2.66,-6.53 4.01,-9.79 1.12,-2.7 2.24,-5.4 3.37,-8.07 1.39,-3.26 2.79,-6.5 4.2,-9.73 1.14,-2.63 2.28,-5.26 3.45,-7.87 1.44,-3.25 2.92,-6.46 4.39,-9.67 1.17,-2.56 2.32,-5.11 3.51,-7.65 1.53,-3.27 3.09,-6.5 4.65,-9.74 1.17,-2.43 2.31,-4.86 3.49,-7.27 1.66,-3.37 3.36,-6.71 5.05,-10.05 1.12,-2.22 2.22,-4.46 3.35,-6.66 1.9,-3.68 3.83,-7.3 5.75,-10.93 0.98,-1.82 1.92,-3.67 2.91,-5.49 2.92,-5.42 5.88,-10.79 8.89,-16.1 2.89,-5.11 5.82,-10.13 8.77,-15.11 0.89,-1.51 1.8,-3.01 2.71,-4.52 2.13,-3.54 4.26,-7.04 6.41,-10.52 0.99,-1.58 1.97,-3.16 2.96,-4.73 2.39,-3.8 4.8,-7.55 7.22,-11.26 0.66,-1.01 1.32,-2.04 1.98,-3.05 3.06,-4.64 6.14,-9.2 9.25,-13.71 0.82,-1.2 1.66,-2.37 2.5,-3.56 2.34,-3.35 4.69,-6.67 7.05,-9.94 1.08,-1.49 2.16,-2.96 3.24,-4.43 2.29,-3.12 4.6,-6.2 6.91,-9.25 0.97,-1.28 1.93,-2.56 2.9,-3.82 3.22,-4.17 6.45,-8.3 9.72,-12.33 0.53,-0.66 1.06,-1.29 1.59,-1.94 2.78,-3.41 5.57,-6.78 8.38,-10.09 1.12,-1.32 2.25,-2.62 3.37,-3.93 2.33,-2.69 4.67,-5.36 7.01,-7.99 1.14,-1.28 2.28,-2.56 3.43,-3.83 2.83,-3.11 5.67,-6.17 8.52,-9.19 0.6,-0.63 1.18,-1.28 1.78,-1.9 3.41,-3.57 6.84,-7.06 10.29,-10.49 1.07,-1.06 2.14,-2.09 3.2,-3.13 2.49,-2.45 5,-4.86 7.51,-7.23 1.22,-1.15 2.44,-2.29 3.66,-3.42 0.85,-0.79 1.69,-1.6 2.54,-2.38 -132.08,40.74 -253.12,113.24 -353.73,213.62 z m 1541,610.46 c 0,248.96 -96.9,483.02 -272.98,659.06 -168.43,168.44 -390,264.4 -626.9,272.39 -2.06,0.38 -4.19,0.6 -6.37,0.6 H 8096.49 c -19.26,0 -34.88,-15.61 -34.88,-34.88 0,-19.25 15.62,-34.87 34.88,-34.87 h 746.72 c -112.34,-46.25 -215.5,-114.75 -304,-203.24 -166.01,-166.01 -261.64,-383.62 -272.01,-616.66 h -250.25 c -19.26,0 -34.87,-15.62 -34.87,-34.88 0,-19.26 15.61,-34.87 34.87,-34.87 h 249.74 c 6.12,-213.42 83.69,-414.58 221.17,-575.96 h -196.57 c -19.26,0 -34.88,-15.62 -34.88,-34.87 0,-19.27 15.62,-34.88 34.88,-34.88 h 262.32 c 85.96,-82.42 185,-146.52 292.38,-190.33 H 7689.22 c -19.26,0 -34.88,-15.61 -34.88,-34.88 0,-19.26 15.62,-34.87 34.88,-34.87 h 1532.52 c 240.66,5.93 466.12,104.22 636.59,275.2 174.67,175.25 271.27,408.06 271.97,655.53 0,0.2 -0.1,0.41 -0.1,0.61 0.1,0.6 0.1,1.19 0.1,1.8" fill="#100f0d" transform="matrix(.13333 0 0 -.13333 0 933.333)"/>
  <path d="M9197.98 5127.19c35.46 6.04 355.4 54.4 368.45 60.18 3.59 1.58 6.93 3.56 9.83 6.1 5.95 5.22 5.99 12.4.29 17.8-3.89 3.69-8.56 6.09-13.66 7.46-12.81 3.46-25.85 5.43-39.15 5.71-30.53.65-61.02-.51-91.51-1.55-17.36-.59-34.61.29-51.76 2.85-21.51 3.2-42.22 9.66-62.68 16.7-21.96 7.57-43.62 15.97-65.92 22.58-20.6 6.1-41.23 6.64-62.12 2.1-3.1-.67-6.18-1.75-6.74-4.9-.57-3.15 2.63-4.43 5-5.77 17.66-9.93 103.51-57.87 128.85-71.96-.9-1.93-2.17-1.92-3.21-2.31-11.51-4.34-23.2-8.18-35.02-11.6-19.93-5.78-40.01-10.86-60.77-12.68-11.74-1.04-23.24-.42-34.26 4.17-5.68 2.36-11.36 4.7-16.98 7.17-5.02 2.21-10.12 4.04-15.56 5.03-4.99.9-9.48-.45-13.97-2.19-2.46-.95-2.92-2.69-1.66-4.91.56-.99 1.24-1.91 1.85-2.88 3.22-5.24 18.76-31.07 21.78-36.43 3.02-5.32 16.33-4.52 38.92-.67M9356.68 5139.86c-3.34-.56-5.24-1.98-6.75-4.81-6.16-11.66-12.46-23.24-18.68-34.86-3.01-5.64-1.76-7.7 4.75-7.87.67-.01 1.35.1 2.04.11 19.22.38 35.3 8.39 48.9 21.28 12.54 11.88 24.37 24.52 36.88 37.2-1.14.23-1.58.44-1.97.37-21.72-3.83-43.42-7.77-65.17-11.42" fill="#fff" transform="matrix(.13333 0 0 -.13333 0 933.333)"/>
  <path d="m 10059.1,4579.29 c -0.7,11.58 -1.6,23.11 -2.8,34.59 H 8458.36 c -7.56,-11.38 -14.99,-22.92 -22.27,-34.59 h 1623.01" fill="#cceef7" transform="matrix(.13333 0 0 -.13333 0 933.333)"/>
  <path d="m 10041.7,4708.75 c -5.2,24.35 -11.3,48.41 -18.5,72.1 H 8588.49 c -20.94,-23.08 -41.36,-47.13 -61.14,-72.1 h 1514.35" fill="#76cbe6" transform="matrix(.13333 0 0 -.13333 0 933.333)"/>
  <path d="m 9992.05,4866.13 c -16.08,37.76 -34.89,74.39 -56.35,109.6 H 8806.58 c -45.34,-32.34 -90.33,-68.97 -134,-109.6 h 1319.47" fill="#3155ac" transform="matrix(.13333 0 0 -.13333 0 933.333)"/>
  <path d="m 8432.31,4780.85 c -22.98,-23.04 -45.23,-47.1 -66.64,-72.1 h 43.39 c 20.15,25.53 40.69,49.53 61.51,72.1 h -38.26" fill="#76cbe6" transform="matrix(.13333 0 0 -.13333 0 933.333)"/>
  <path d="M8460.86 4975.73c-21.46-35.21-40.27-71.83-56.35-109.6h50.84c50.53 42.88 101.7 79.07 151.79 109.6h-146.28M8678.43 4975.73c-52.37-32.35-103.55-68.97-152.58-109.6h31.66c48.6 42.99 97.56 79.17 145.24 109.6h-24.32" fill="#3155ac" transform="matrix(.13333 0 0 -.13333 0 933.333)"/>
  <path d="m 8702.75,4975.73 c -47.68,-30.43 -96.64,-66.61 -145.24,-109.6 -29.24,-25.87 -58.34,-54.24 -86.94,-85.28 -20.82,-22.57 -41.36,-46.57 -61.51,-72.1 -23.6,-29.89 -46.67,-61.79 -68.95,-95.98 -1.35,-13.98 -2.39,-28.02 -3.06,-42.13 h 63.88 c 191.36,312.17 489.81,519.7 716.86,563.85 0,0 -193.66,-17.46 -415.04,-158.76" fill="#fff" transform="matrix(.13333 0 0 -.13333 0 933.333)"/>
  <path d="m 8607.14,4975.73 c -50.09,-30.53 -101.26,-66.72 -151.79,-109.6 -26.17,-22.22 -52.17,-46.18 -77.75,-72.12 -5.96,-18.49 -11.3,-37.2 -16,-56.11 199.83,219.51 465.2,359.43 700.04,400.46 0,0 -214.79,-16.52 -454.5,-162.63" fill="#fff" transform="matrix(.13333 0 0 -.13333 0 933.333)"/>
  <path d="m4019.61 4432.05-154.43 285.26c-19.79 36.57-72.33 36.42-91.92-.27l-152.14-284.99zm-199.09 569.85v0c117.6 0 225.84-64.15 282.29-167.32l417-762H4210.5l-91.96 165.79h-599.12l-89.17-165.79h-320.46l430.22 765.23c56.99 101.36 164.23 164.09 280.51 164.09M6029.18 5001.9h226.77V4072.58H5973.1v873.24c0 30.97 25.11 56.08 56.08 56.08M7254.97 4294.1c76.64 0 82.21 0 115.65 11.15 68.27 20.91 86.39 69.68 86.39 229.9 0 195.06-33.45 235.48-196.47 235.48h-479.3V4294.1Zm-756.56 651.72c0 30.97 25.11 56.08 56.08 56.08h746.47c196.44 0 288.4-22.29 352.49-86.37 51.56-50.16 72.45-108.69 82.21-227.11 2.79-43.21 5.58-107.28 5.58-151.87 0-83.6-5.58-179.74-13.94-232.68-15.33-111.47-93.35-197.86-195.06-217.36-52.94-11.15-94.74-13.93-193.67-13.93h-840.16v873.24M5644.26 4967.07c-58.52 29.26-104.49 34.83-284.24 34.83h-654.5c-30.97 0-56.08-25.11-56.08-56.08v-873.24h281.44v703.62h411.03c121.22 0 149.08-25.09 149.08-136.55 0-87.78-33.44-112.86-149.08-112.86h-267.57v-225.71h310.76c161.63 0 224.33 9.75 278.66 43.18 76.64 47.39 108.68 139.33 108.68 316.29 0 175.55-34.82 260.55-128.18 306.52M2878.2 4344.26c76.65 47.39 108.68 139.33 108.68 316.29 0 175.55-34.83 260.55-128.18 306.52-58.51 29.26-104.5 34.83-284.24 34.83h-496.47c-118.25 0-214.11-95.86-214.11-214.11v-715.21h281.44v703.62h411.04c121.21 0 149.07-25.09 149.07-136.55 0-87.78-33.44-112.85-149.07-112.85h-266.6c-14.27 0-22.23-16.47-13.37-27.66l338.03-426.56h320.65l-185.42 233.98c59.25 5.97 95.62 17.44 128.55 37.7M12953.2 5001.9v-210.38h-751V4631.3h548v-183.92h-548v-164.42h760.7v-210.38h-1039.4v891.11c0 21.1 17.1 38.21 38.2 38.21h991.5M14020.5 4432.05l-154.4 285.26c-19.8 36.57-72.4 36.42-92-.27L13622 4432.05Zm-199.1 569.85v0c117.6 0 225.8-64.15 282.3-167.32l417-762h-309.3l-92 165.79h-599.1l-89.2-165.79h-320.4l430.2 765.23c57 101.36 164.2 164.09 280.5 164.09M15806.8 4422.29c-1.4-135.15-5.6-181.12-25.1-222.93-36.2-79.41-111.5-117.04-256.4-126.78-57.1-5.58-168.6-6.98-353.9-6.98-267.5 0-353.9 12.55-429.1 61.31-92 58.53-118.5 156.05-118.5 431.94 0 245.22 27.9 332.98 125.5 388.72 83.6 48.76 172.7 61.31 433.3 61.31 346.9 0 422.1-6.98 501.6-45.99 75.2-37.61 110-119.81 110-256.37v-30.64h-270.3c-5.5 101.71-26.4 110.07-271.7 110.07-231.3 0-273-5.58-307.9-36.23-33.4-30.65-40.4-68.27-40.4-218.74 0-222.93 20.9-239.65 292.6-239.65 210.4 0 241 1.39 280.1 18.11 40.4 16.72 55.7 45.97 55.7 112.85h274.5M16383.7 4772.01h-413.8v191.68c0 21.1 17.1 38.21 38.2 38.21h1072.2v-229.89h-413.8v-699.43h-282.8v699.43M11540.3 4344.26c76.7 47.39 108.7 139.33 108.7 316.29 0 175.55-34.8 260.55-128.2 306.52-58.5 29.26-104.5 34.83-284.2 34.83h-496.5c-118.3 0-214.1-95.86-214.1-214.11v-715.21h281.4v703.62h411.1c121.2 0 149-25.09 149-136.55 0-87.78-33.4-112.85-149-112.85h-266.6c-14.3 0-22.3-16.47-13.4-27.66l338-426.56h320.7l-185.4 233.98c59.2 5.97 95.6 17.44 128.5 37.7M16802.8 4104.17c.2-6.67 1-8.26 4.4-9.56 2.2-.87 10.5-1.45 19.8-1.45 34 0 38.1 1.01 38.1 8.98 0 3.92-1.9 6.81-5 7.83-3.1 1.01-3.1 1.01-18.4 1.16h-26.6c-17.9 0-25.2 1.01-31.5 4.2-6.9 3.62-10.1 11.31-10.1 24.5 0 17.39 4.9 24.78 18.8 28.11 7.8 2.03 19.2 2.76 40.3 2.76 33.9 0 41.8-.87 48.7-5.36 6.7-4.5 8.9-10.44 8.9-24.93h-28.7c0 8.4-2.9 9.56-21.9 9.56-9.5 0-22.1-.29-26.7-.58-7.8-.58-10.4-2.6-10.4-8.11 0-4.06 2-6.67 6.2-7.69 1.7-.43 2.3-.57 11.9-.72h27.4c2.6 0 15.6-.44 20.6-.72 18.4-.87 25.6-8.99 25.6-28.41 0-17.83-5.2-25.66-19.4-28.7-7.3-1.59-21.6-2.46-42.6-2.46-33.5 0-40.9.72-49.4 5.07-6 2.9-9 10.29-9 21.74 0 .87 0 2.75.1 4.78h28.9M16917 4169.97h46.6l35.2-64.21 35.1 64.21h46.4v-96.67h-28.7l1.5 74.64-42.9-74.64h-23.5l-42.2 74.64.9-74.64h-28.4v96.67" fill="#100f0d" transform="matrix(.13333 0 0 -.13333 0 933.333)"/>
</svg>
