<svg xmlns="http://www.w3.org/2000/svg" xml:space="preserve" width="2510.707" height="933.333">
  <path d="M16943.6 5131.37H9914.17c-7.66 8.15-15.23 16.38-23.18 24.33-186.12 186.1-432.8 294.13-695.23 304.55-7.7.72-13.69.72-17.01.72H8083.13c-94.15 0-170.7-76.59-170.7-170.7 0-12.92 1.74-25.39 4.48-37.49h-25.19c-76.86 0-141.26-51.42-162.54-121.41H1886.71c-75.49 0-136.71-61.23-136.71-136.72V3843.38c0-75.49 61.22-136.71 136.71-136.71h5747.02c-67.7-22.66-116.97-85.94-116.97-161.2 0-94.1 76.59-170.7 170.7-170.7h1489.35c1.14 0 2.28 0 3.43.04 267.47 6.68 520.29 115.93 712.15 307.79 7.83 7.87 15.29 16 22.83 24.07h7028.38c75.5 0 136.7 61.22 136.7 136.71v1151.27c0 75.49-61.2 136.72-136.7 136.72M9475.64 1935.71c21.07 45.2 32.92 95.65 32.92 148.92 0 122.64-62.69 230.74-157.68 294.04 56.63 58.26 117.81 115.8 183.06 170.82-76.4-44.9-148.26-96.51-214.67-152.14-48.92 25.78-104.67 40.24-163.78 40.24-194.93 0-352.99-158.01-352.99-352.96 0-88.07 32.27-168.56 85.53-230.45-67.54-146.07-79.39-263.67-19.82-303.36 63.81-42.57 202.54 34.55 285.8 160.21 0 0-128.8-116.19-199.43-89.55-43.61 16.49-43.74 83-7.86 178.47 58.48-42.97 130.69-68.28 208.77-68.28 96.72 0 184.27 38.84 248.07 101.79l12.51-23.63c153.85 12.47 613.23 24.56 613.23 24.56 0 22.23-304.15 2.15-553.66 101.32zm-630.72 148.92c0 171.55 139.08 310.51 310.57 310.51 45.97 0 89.63-9.95 128.89-27.77-168.32-148.8-298.62-321.76-375.76-471.18-39.97 52.28-63.7 117.52-63.7 188.44zm310.57-310.64c-72.54 0-139.23 24.85-192.09 66.66 61.44 138.74 186.77 324.97 357.63 506.79 87.21-55.02 145.12-152.13 145.12-262.81 0-47.27-10.63-92.11-29.53-132.27-54.21 25.07-104.81 56.48-147.68 96.11l93.71-175.72c-56.72-60.71-137.47-98.76-227.16-98.76v0M11581.6 2117.05l57.6 76.37-200.4.05 49.4 65.48h200.3l57.6 76.35h-400l-275-365.12h399.9l57.5 76.39h-200.2l53 70.48h200.3v0 0M11859.5 2335.3l-275.2-365.12h199.6l275.1 365.12h-199.5v0 0M12524.4 2335.3l-139.5-185.09-42.8 185.09h-156L11911 1970.18h132l138.3 183.4 42.4-183.4h157.7l275.1 365.12h-132.1v0 0M13177 2335.3l-320.7.04c-55.1 0-103.7-26.25-134.4-67.06l-165.7-219.81c-6.2-8.12-9.8-18.39-9.8-29.44 0-26.93 21.8-48.85 48.8-48.85h320.8c54.9 0 103.8 26.32 134.4 67.05l40 52.83h46.2l58 76.84h-245.7l-77.6-102.91c-8-10.53-20.7-17.35-34.9-17.35h-56.5c-7.1 0-12.8 5.74-12.8 12.63 0 2.94 1 5.57 2.6 7.64l131.7 174.64c7.8 10.68 20.5 17.4 34.8 17.4h56.5c7.1 0 12.7-5.73 12.7-12.71 0-2.81-.9-5.49-2.5-7.57l-21.4-28.46h199.3l35.3 46.85c6.2 8.12 9.8 18.3 9.8 29.37 0 27-21.9 48.87-48.9 48.87v0 0M11182.5 2286.43c0 27-21.9 48.87-48.8 48.87H10813c-55 0-103.7-26.21-134.5-67.02l-165.6-219.81c-6.2-8.19-9.9-18.39-9.9-29.44 0-26.93 22-48.85 48.9-48.85h320.7c55 0 103.8 26.32 134.5 67.05l165.7 219.76c6.1 8.19 9.7 18.37 9.7 29.44v0zm-223-47.76-131.6-174.68c-8-10.53-20.6-17.35-34.9-17.35h-56.5c-7 0-12.7 5.74-12.7 12.63 0 2.94 1 5.57 2.6 7.64l131.6 174.64c7.9 10.49 20.6 17.4 34.8 17.4h56.5c7 0 12.8-5.73 12.8-12.71 0-2.81-1-5.49-2.6-7.57v0 0" fill="#fff" transform="matrix(.13333 0 0 -.13333 0 933.333)"/>
  <path d="M10428.1 2143.81c39.3 8.92 73.5 31.65 97 62.79l37.9 50.39c6.2 8.19 9.9 18.37 9.9 29.44 0 27-21.9 48.87-48.8 48.87h-205.2v0h-199.5l-275.16-365.12h196.06 222.6c55 0 103.8 26.32 134.5 67.05l38.9 51.48c4.9 6.54 7.8 14.73 7.8 23.51 0 12.95-6.3 24.37-16 31.59v0zm-185.2-47.11-24.7-32.78c-7.9-10.46-20.6-17.35-34.9-17.35h-82l53.1 70.48h78.4c6.9 0 12.7-5.68 12.7-12.63 0-2.94-1-5.63-2.6-7.72v0zm106.9 141.97-20.9-27.91c-8-10.5-20.6-17.34-34.9-17.34l-82 .05 49.4 65.48h78.3c7 0 12.7-5.73 12.7-12.71 0-2.81-.9-5.49-2.6-7.57v0 0M5703.3 2055H5659v-86.65h-44.95v230.24h89.25c47.55 0 76-32.68 76-71.8 0-39.13-28.45-71.79-76-71.79zm-2.26 103.48H5659v-63.06h42.04c20.38 0 33.3 12.61 33.3 31.37 0 18.75-12.92 31.69-33.3 31.69v0M5955.67 1968.35l-44.95 91.83h-32.34v-91.83h-44.96v230.24h90.24c46.89 0 74.69-32.03 74.69-70.51 0-32.33-19.73-52.38-42.04-60.48l51.42-99.25h-52.06zm-34.93 190.13h-42.36v-60.8h42.36c19.73 0 32.65 12.61 32.65 30.4 0 17.78-12.92 30.4-32.65 30.4v0M6061.2 1968.35v230.24h151.66v-40.11h-106.71v-54.01h90.86v-40.09h-90.86v-55.95h106.71v-40.08H6061.2v0M6336.53 1966.42c-34.91 0-61.43 7.43-84.08 30.36l29.11 29.11c14.56-14.56 34.27-19.41 55.63-19.41 26.52 0 40.73 10.03 40.73 28.46 0 8.08-2.26 14.89-7.11 19.42-4.53 4.19-9.7 6.46-20.38 8.06l-27.8 3.89c-19.73 2.9-34.28 9.06-44.63 19.09-10.99 10.99-16.49 25.87-16.49 45.26 0 41.07 30.4 69.86 80.19 69.86 31.71 0 54.66-7.77 74.39-26.84l-28.47-28.14c-14.53 13.91-32.01 15.84-47.21 15.84-23.92 0-35.57-13.24-35.57-29.09 0-5.82 1.95-11.98 6.8-16.49 4.51-4.21 11.96-7.77 21.34-9.06l27.16-3.89c21.02-2.92 34.29-8.74 43.99-17.77 12.28-11.66 17.78-28.47 17.78-48.85 0-44.61-37.19-69.81-85.38-69.81v0M6480.57 1968.35v230.24h151.67v-40.11h-106.72v-54.01h90.86v-40.09h-90.86v-55.95h106.72v-40.08h-151.67v0M6828.63 1968.35l-91.18 141.29v-141.29h-44.96v230.24h40.11l91.2-141.01v141.01h44.93v-230.24h-40.1v0M7026.69 2158.48v-190.13h-44.96v190.13h-60.13v40.11h165.25v-40.11h-60.16v0M7139.65 1968.35v230.24h151.65v-40.11h-106.7v-54.01h90.86v-40.09h-90.86v-55.95h106.7v-40.08h-151.65v0M7495.5 1990.32c-15.2-15.19-36.86-21.97-60.8-21.97h-83.1v230.24h83.1c23.94 0 45.6-6.81 60.8-22 25.88-25.88 23.28-57.56 23.28-92.17 0-34.59 2.6-68.24-23.28-94.1zm-31.36 153.93c-7.77 9.38-18.12 14.23-33.64 14.23h-33.95v-150.05h33.95c15.52 0 25.87 4.85 33.64 14.24 8.41 10.34 9.7 26.84 9.7 61.75 0 34.92-1.29 49.48-9.7 59.83v0M7768.63 1968.35h-96.37v230.24h92.49c44.95 0 71.14-25.23 71.14-64.69 0-25.55-16.81-42.04-28.46-47.53 13.91-6.46 31.69-21.03 31.69-51.75 0-43-29.42-66.27-70.49-66.27zm-7.45 190.13h-43.97v-53.03h43.97c19.09 0 29.76 10.68 29.76 26.52 0 15.85-10.67 26.51-29.76 26.51zm2.92-93.46h-46.89v-56.59h46.89c20.38 0 30.08 12.93 30.08 28.45 0 15.53-9.7 28.14-30.08 28.14v0M7989.3 2062.75v-94.4h-44.62v94.4l-69.22 135.84h48.85l43-92.82 42.36 92.82h48.85l-69.22-135.84v0" fill="#fff" transform="matrix(.13333 0 0 -.13333 0 933.333)"/>
  <path d="M11876.5 4878.76h-109.9c-20.3 0-36.8-16.5-36.8-36.85v-859.6h109.8v859.6c0 20.35 16.5 36.85 36.9 36.85M13624.8 4603.97l-10.5-19.57 138.3-255.34h109.8l-149 275.17c-19.1 35.28-69.7 35.13-88.6-.26M13615.4 4873.83c-17.9 3.23-36.3 4.93-54.9 4.93v0c-112.2 0-215.6-60.51-270.6-158.29l-415-738.16h109.9l415 738.16c45.8 81.55 125.4 137.15 215.6 153.36M13848 4142.23l88.7-159.92h109.8l-88.7 159.92H13848M15267 4210.79c39 16.13 53.7 44.34 53.7 108.86h-109.8c0-64.52-14.8-92.73-53.8-108.86-32.3-13.86-58.7-16.8-194.3-17.35 10.9-.08 22.2-.12 34-.12 203 0 232.5 1.34 270.2 17.47M15050.6 4670.44c-21.8 0-41.8-.05-60.3-.17 189.9-1.54 207.6-15.24 212.5-106h109.9c-5.4 98.11-25.6 106.17-262.1 106.17M14444.4 4451.38c0 236.54 26.9 321.21 121 374.97 76.2 44.41 157.1 57.68 377.5 59.01-21.8.09-44.9.13-69.4.13-251.3 0-337.3-12.11-417.9-59.14-94.1-53.76-121-138.43-121-374.97 0-266.13 25.5-360.2 114.2-416.67 72.6-47.03 155.9-59.13 414-59.13 25.7 0 49.9.03 72.8.09-229.2 1.19-307.9 14.34-376.9 59.04-88.7 56.47-114.3 150.54-114.3 416.67M15779.7 4878.76h-109.9c-20.3 0-36.8-16.5-36.8-36.85V4657h109.8v184.91c0 20.35 16.5 36.85 36.9 36.85M16032.1 4657V3982.31H16142V4657h-109.9M11303.3 4529.32c0 107.52-26.9 131.72-143.8 131.72h-109.8c116.9 0 143.7-24.2 143.7-131.72 0-84.67-32.2-108.86-143.7-108.86h109.8c111.5 0 143.8 24.19 143.8 108.86M10902.3 4420.46h-109.8c-13.8 0-21.5-15.89-12.9-26.67l326.1-411.48h109.8l-326.1 411.48c-8.5 10.78-.8 26.67 12.9 26.67M10698.1 4878.76h-109.9c-114.1 0-206.5-92.47-206.5-206.54V3982.3h109.8v689.92c0 114.07 92.5 206.54 206.6 206.54M3968.32 4873.83c-17.95 3.23-36.32 4.93-54.94 4.93v0c-112.16 0-215.61-60.51-270.58-158.29l-415.01-738.16h109.86l415 738.16c45.86 81.55 125.44 137.15 215.67 153.36M3977.65 4603.97l-10.45-19.57 138.23-255.34h109.85l-148.96 275.17c-19.1 35.28-69.78 35.13-88.67-.26M4200.86 4142.23l88.71-159.92h109.85l-88.71 159.92h-109.85M6153.77 4878.76h-109.84c-29.88 0-54.1-24.22-54.1-54.1v-842.35h109.85v842.35c0 29.88 24.22 54.1 54.09 54.1M6660.5 4878.76h-109.85c-29.87 0-54.09-24.22-54.09-54.1v-842.35h109.85v842.35c0 29.88 24.22 54.1 54.09 54.1M7341.58 4655.67h-109.85c157.25 0 189.51-38.99 189.51-227.15 0-154.56-17.48-201.6-83.33-221.77C7305.65 4196 7300.28 4196 7226.35 4196h109.85c73.93 0 79.31 0 111.56 10.75 65.85 20.17 83.33 67.21 83.33 221.77 0 188.16-32.25 227.15-189.51 227.15M5122.85 4420.46v-217.74h109.85v217.74h-109.85M5634.62 4529.32c0 107.52-26.88 131.72-143.81 131.72h-109.84c116.92 0 143.8-24.2 143.8-131.72 0-84.67-32.26-108.86-143.8-108.86h109.84c111.55 0 143.81 24.19 143.81 108.86M4876.93 4878.76h-109.85c-29.88 0-54.1-24.22-54.1-54.1V3982.3h109.86v842.36c0 29.88 24.22 54.1 54.09 54.1M2546.62 4420.46h-109.85c-13.76 0-21.44-15.89-12.9-26.67l326.08-411.48h109.84l-326.07 411.48c-8.54 10.78-.86 26.67 12.9 26.67M2342.34 4878.76h-109.85c-114.07 0-206.54-92.47-206.54-206.54V3982.3h109.86v689.92c0 114.07 92.46 206.54 206.53 206.54M2947.59 4529.32c0 107.52-26.88 131.72-143.8 131.72h-109.85c116.92 0 143.79-24.2 143.79-131.72 0-84.67-32.25-108.86-143.79-108.86h109.85c111.54 0 143.8 24.19 143.8 108.86" fill="#d4d3d1" transform="matrix(.13333 0 0 -.13333 0 933.333)"/>
  <path d="m 8246.66,5046.98 h -288.67 c -18.58,0 -33.64,15.06 -33.64,33.64 0,18.58 15.06,33.64 33.64,33.64 h 288.67 c 18.58,0 33.64,-15.06 33.64,-33.64 0,-18.58 -15.06,-33.64 -33.64,-33.64" fill="#100f0d" transform="matrix(.13333 0 0 -.13333 0 933.333)"/>
  <path d="m 9210.76,3555.36 c -269.47,0 -487.98,386.26 -488.67,863.19 h -376.7 c 1.21,-476.93 388.16,-863.19 865.37,-863.19" fill="#3155ac" transform="matrix(.13333 0 0 -.13333 0 933.333)"/>
  <path d="m 9217.1,3555.65 c -0.38,-0.03 -0.76,-0.14 -1.14,-0.16 474.81,2.81 858.94,387.88 860.14,863.06 h -376.67 c -0.68,-473.16 -215.79,-856.88 -482.33,-862.9" fill="#c8e66c" transform="matrix(.13333 0 0 -.13333 0 933.333)"/>
  <path d="m 9699.43,4418.55 h -320.48 c -0.24,-473.16 -72.42,-856.88 -161.85,-862.9 266.54,6.02 481.65,389.74 482.33,862.9" fill="#96d021" transform="matrix(.13333 0 0 -.13333 0 933.333)"/>
  <path d="m 9051.01,4418.55 h -328.92 c 0.69,-476.93 219.2,-863.19 488.67,-863.19 1.07,0 2.1,0.13 3.16,0.14 -89.94,3.02 -162.68,388 -162.91,863.05" fill="#100f0d" transform="matrix(.13333 0 0 -.13333 0 933.333)"/>
  <path d="m 9378.95,4418.55 h -327.94 c 0.23,-475.05 72.97,-860.03 162.91,-863.05 1.06,0.02 2.12,0.12 3.18,0.15 89.43,6.02 161.61,389.74 161.85,862.9" fill="#397b33" transform="matrix(.13333 0 0 -.13333 0 933.333)"/>
  <path d="m 9799.82,3834.69 c -97.34,-97.64 -214.79,-168.17 -343.02,-207.69 2.28,2.09 4.56,4.23 6.83,6.38 0.59,0.56 1.18,1.09 1.77,1.65 3.39,3.24 6.77,6.56 10.12,9.93 0.94,0.95 1.87,1.92 2.81,2.88 2.44,2.49 4.87,5.01 7.29,7.57 1.14,1.21 2.27,2.43 3.4,3.65 2.31,2.48 4.59,4.99 6.87,7.53 1.04,1.18 2.1,2.34 3.15,3.54 2.87,3.26 5.74,6.57 8.58,9.94 0.38,0.45 0.76,0.89 1.14,1.33 3.22,3.84 6.41,7.75 9.58,11.72 0.9,1.13 1.8,2.28 2.7,3.42 2.27,2.9 4.55,5.82 6.8,8.79 1.08,1.39 2.14,2.8 3.2,4.22 2.17,2.9 4.33,5.83 6.48,8.8 0.97,1.33 1.93,2.64 2.89,3.99 2.86,4 5.7,8.05 8.53,12.16 0.18,0.27 0.38,0.54 0.56,0.82 3,4.39 5.98,8.88 8.93,13.4 0.88,1.35 1.75,2.72 2.62,4.09 2.08,3.24 4.16,6.51 6.23,9.82 1,1.61 2,3.23 2.99,4.85 2.02,3.3 4.03,6.63 6.02,9.99 0.89,1.49 1.77,2.96 2.65,4.46 2.82,4.82 5.62,9.68 8.38,14.63 2.87,5.1 5.68,10.26 8.46,15.47 0.94,1.77 1.86,3.57 2.79,5.35 1.82,3.46 3.64,6.92 5.42,10.42 1.1,2.15 2.17,4.34 3.26,6.51 1.58,3.17 3.17,6.34 4.72,9.54 1.14,2.34 2.25,4.72 3.37,7.08 1.47,3.08 2.94,6.16 4.38,9.27 1.14,2.46 2.25,4.94 3.38,7.42 1.37,3.05 2.76,6.1 4.12,9.18 1.12,2.56 2.22,5.13 3.34,7.71 1.32,3.05 2.63,6.11 3.92,9.19 1.11,2.62 2.18,5.26 3.26,7.89 1.26,3.07 2.52,6.15 3.76,9.24 1.08,2.69 2.13,5.39 3.19,8.1 1.2,3.09 2.4,6.19 3.59,9.31 1.04,2.73 2.06,5.48 3.08,8.24 1.16,3.13 2.31,6.26 3.44,9.41 1.01,2.78 2,5.57 2.98,8.36 1.12,3.17 2.22,6.35 3.31,9.54 0.97,2.82 1.92,5.65 2.87,8.48 1.06,3.2 2.11,6.41 3.16,9.64 0.93,2.86 1.84,5.72 2.75,8.6 1.03,3.24 2.03,6.5 3.04,9.77 0.88,2.88 1.76,5.77 2.62,8.66 0.98,3.31 1.95,6.63 2.92,9.95 0.83,2.9 1.67,5.8 2.49,8.71 0.94,3.36 1.86,6.74 2.79,10.13 0.79,2.91 1.58,5.81 2.35,8.74 0.91,3.42 1.79,6.86 2.67,10.31 0.75,2.91 1.5,5.82 2.23,8.75 0.88,3.52 1.72,7.06 2.56,10.6 0.69,2.88 1.39,5.75 2.07,8.64 0.85,3.66 1.67,7.33 2.49,11 0.62,2.81 1.27,5.61 1.87,8.43 0.84,3.87 1.65,7.78 2.46,11.68 0.55,2.64 1.11,5.28 1.65,7.93 0.87,4.34 1.7,8.71 2.54,13.07 0.43,2.24 0.88,4.48 1.3,6.73 1.24,6.6 2.42,13.23 3.57,19.89 0.16,0.92 0.3,1.84 0.45,2.76 0.98,5.76 1.94,11.55 2.85,17.36 0.39,2.41 0.73,4.84 1.1,7.27 0.65,4.32 1.32,8.64 1.94,12.99 0.4,2.8 0.76,5.63 1.14,8.44 0.55,3.98 1.11,7.96 1.62,11.96 0.39,2.99 0.74,6.01 1.11,9.02 0.47,3.84 0.95,7.67 1.39,11.53 0.35,3.1 0.67,6.21 1.01,9.32 0.41,3.79 0.82,7.57 1.2,11.36 0.32,3.16 0.61,6.34 0.91,9.52 0.35,3.76 0.7,7.52 1.04,11.3 0.27,3.21 0.53,6.45 0.79,9.67 0.3,3.74 0.59,7.48 0.87,11.24 0.24,3.27 0.46,6.55 0.68,9.82 0.24,3.74 0.49,7.47 0.71,11.21 0.2,3.31 0.37,6.63 0.55,9.95 0.19,3.72 0.38,7.45 0.56,11.18 0.14,3.35 0.29,6.69 0.42,10.05 0.14,3.72 0.28,7.45 0.4,11.19 0.1,3.37 0.2,6.75 0.29,10.13 0.05,1.73 0.12,3.46 0.16,5.2 h 309.02 c -8.8,-208.2 -93.92,-402.87 -241.88,-551.28 z m -349.81,-118.47 c -2.19,-2.5 -4.38,-4.97 -6.59,-7.39 -0.69,-0.76 -1.37,-1.52 -2.05,-2.26 -2.82,-3.07 -5.64,-6.08 -8.48,-9.02 -0.25,-0.27 -0.51,-0.52 -0.76,-0.78 -2.59,-2.67 -5.19,-5.28 -7.79,-7.85 -0.77,-0.75 -1.54,-1.5 -2.31,-2.25 -2.34,-2.28 -4.71,-4.52 -7.07,-6.73 -0.58,-0.53 -1.14,-1.07 -1.71,-1.6 -2.9,-2.67 -5.82,-5.28 -8.74,-7.84 -0.57,-0.5 -1.15,-0.99 -1.73,-1.48 -2.4,-2.07 -4.8,-4.1 -7.21,-6.09 -0.8,-0.66 -1.61,-1.32 -2.42,-1.97 -2.65,-2.16 -5.33,-4.28 -8.01,-6.34 -0.31,-0.24 -0.61,-0.48 -0.91,-0.72 -2.99,-2.28 -6,-4.49 -9.01,-6.66 -0.75,-0.54 -1.51,-1.07 -2.26,-1.6 -2.35,-1.67 -4.72,-3.29 -7.08,-4.89 -0.81,-0.54 -1.61,-1.08 -2.42,-1.62 -3.03,-2 -6.08,-3.97 -9.13,-5.85 -0.17,-0.1 -0.34,-0.19 -0.5,-0.29 -2.88,-1.78 -5.77,-3.48 -8.68,-5.14 -0.87,-0.5 -1.75,-1 -2.63,-1.49 -2.39,-1.34 -4.8,-2.65 -7.2,-3.91 -0.76,-0.41 -1.52,-0.82 -2.28,-1.21 -3.07,-1.58 -6.14,-3.11 -9.22,-4.58 -0.65,-0.3 -1.3,-0.59 -1.95,-0.9 -2.49,-1.16 -4.99,-2.28 -7.49,-3.37 -0.97,-0.41 -1.93,-0.82 -2.9,-1.23 -0.75,-0.32 -1.51,-0.61 -2.26,-0.91 0.57,1.25 1.12,2.52 1.69,3.8 20.28,46.35 38.32,111.19 53.63,192.72 29.37,156.44 46.23,361.01 47.91,579.2 h 252.89 c -0.04,-1.43 -0.06,-2.87 -0.1,-4.3 -0.07,-2.98 -0.16,-5.96 -0.26,-8.94 -0.13,-3.79 -0.25,-7.57 -0.4,-11.35 -0.12,-2.94 -0.24,-5.89 -0.38,-8.84 -0.18,-3.79 -0.36,-7.58 -0.56,-11.36 -0.15,-2.92 -0.32,-5.83 -0.49,-8.74 -0.22,-3.79 -0.46,-7.59 -0.72,-11.38 -0.18,-2.87 -0.38,-5.73 -0.58,-8.6 -0.29,-3.82 -0.58,-7.63 -0.88,-11.44 -0.24,-2.81 -0.46,-5.63 -0.7,-8.43 -0.33,-3.86 -0.69,-7.7 -1.05,-11.55 -0.26,-2.74 -0.51,-5.47 -0.78,-8.2 -0.39,-3.91 -0.81,-7.81 -1.23,-11.71 -0.29,-2.64 -0.57,-5.29 -0.86,-7.92 -0.46,-4 -0.94,-7.99 -1.43,-11.98 -0.31,-2.5 -0.6,-5.01 -0.93,-7.51 -0.52,-4.15 -1.09,-8.28 -1.65,-12.41 -0.32,-2.32 -0.62,-4.65 -0.94,-6.96 -0.63,-4.4 -1.29,-8.77 -1.96,-13.15 -0.3,-2.02 -0.59,-4.06 -0.9,-6.08 -0.79,-4.99 -1.61,-9.97 -2.44,-14.93 -0.23,-1.37 -0.45,-2.76 -0.68,-4.13 -2.18,-12.8 -4.53,-25.49 -7.06,-38.06 -0.17,-0.86 -0.35,-1.71 -0.53,-2.56 -1.08,-5.36 -2.2,-10.7 -3.34,-16.01 -0.39,-1.8 -0.8,-3.59 -1.2,-5.38 -0.96,-4.35 -1.91,-8.7 -2.92,-13.01 -0.5,-2.16 -1.02,-4.3 -1.53,-6.46 -0.93,-3.92 -1.86,-7.84 -2.82,-11.74 -0.58,-2.34 -1.19,-4.67 -1.78,-7.01 -0.93,-3.67 -1.87,-7.36 -2.83,-11.01 -0.64,-2.43 -1.3,-4.85 -1.96,-7.28 -0.95,-3.52 -1.91,-7.05 -2.89,-10.55 -0.69,-2.48 -1.4,-4.95 -2.12,-7.42 -0.97,-3.41 -1.96,-6.82 -2.97,-10.21 -0.74,-2.5 -1.5,-4.99 -2.26,-7.48 -1.01,-3.33 -2.03,-6.64 -3.07,-9.95 -0.79,-2.5 -1.59,-5 -2.39,-7.5 -1.04,-3.24 -2.1,-6.48 -3.17,-9.7 -0.83,-2.51 -1.68,-5 -2.52,-7.49 -1.09,-3.18 -2.19,-6.36 -3.29,-9.52 -0.87,-2.48 -1.75,-4.96 -2.64,-7.42 -1.12,-3.13 -2.26,-6.23 -3.4,-9.34 -0.92,-2.46 -1.83,-4.92 -2.75,-7.37 -1.17,-3.08 -2.35,-6.14 -3.54,-9.18 -0.95,-2.43 -1.88,-4.86 -2.85,-7.27 -1.21,-3.04 -2.43,-6.05 -3.67,-9.06 -0.98,-2.38 -1.95,-4.77 -2.94,-7.13 -1.26,-3.01 -2.54,-5.99 -3.82,-8.97 -1.01,-2.33 -2,-4.66 -3.02,-6.97 -1.31,-2.99 -2.64,-5.94 -3.98,-8.89 -1.03,-2.27 -2.04,-4.54 -3.09,-6.8 -1.37,-2.98 -2.79,-5.94 -4.2,-8.9 -1.02,-2.16 -2.04,-4.34 -3.08,-6.49 -1.49,-3.07 -3,-6.09 -4.52,-9.13 -1,-2 -1.98,-4.02 -2.99,-6 -1.69,-3.33 -3.42,-6.61 -5.15,-9.9 -0.86,-1.64 -1.71,-3.31 -2.58,-4.94 -2.6,-4.9 -5.26,-9.75 -7.95,-14.56 -2.37,-4.25 -4.77,-8.42 -7.19,-12.56 -0.69,-1.18 -1.38,-2.34 -2.06,-3.51 -1.88,-3.18 -3.77,-6.33 -5.68,-9.45 -0.62,-1.03 -1.25,-2.07 -1.88,-3.09 -2.46,-3.99 -4.93,-7.93 -7.43,-11.81 -0.41,-0.64 -0.83,-1.27 -1.24,-1.91 -2.13,-3.27 -4.27,-6.52 -6.42,-9.72 -0.74,-1.09 -1.48,-2.19 -2.22,-3.27 -2.11,-3.1 -4.23,-6.16 -6.35,-9.18 -0.48,-0.69 -0.97,-1.39 -1.45,-2.07 -2.6,-3.66 -5.22,-7.26 -7.85,-10.8 -0.6,-0.81 -1.2,-1.6 -1.81,-2.41 -2.11,-2.8 -4.22,-5.57 -6.35,-8.31 -0.73,-0.94 -1.46,-1.88 -2.19,-2.81 -2.56,-3.25 -5.13,-6.47 -7.73,-9.62 -0.12,-0.15 -0.24,-0.31 -0.37,-0.46 -2.73,-3.32 -5.49,-6.57 -8.25,-9.77 -0.71,-0.82 -1.42,-1.62 -2.12,-2.43 z M 9214.84,3590.3 c -11.82,3.47 -51.23,53.23 -84.81,236.95 -27.78,152.02 -43.71,350.18 -45.24,560.96 h 260.38 c -1.55,-210.78 -17.47,-408.94 -45.27,-560.94 -33.81,-184.97 -73.54,-234.13 -85.06,-236.97 z m -100.97,19.04 c -0.77,0.31 -1.54,0.65 -2.31,0.97 -2.45,1.01 -4.9,2.06 -7.35,3.15 -0.97,0.43 -1.94,0.87 -2.91,1.31 -2.55,1.18 -5.09,2.39 -7.63,3.64 -0.63,0.31 -1.26,0.6 -1.88,0.92 -3.13,1.57 -6.24,3.2 -9.35,4.89 -0.76,0.41 -1.51,0.85 -2.26,1.27 -2.42,1.33 -4.82,2.71 -7.23,4.13 -0.92,0.54 -1.85,1.09 -2.76,1.64 -2.59,1.56 -5.17,3.16 -7.74,4.8 -0.52,0.34 -1.04,0.66 -1.56,0.99 -3.08,1.99 -6.13,4.05 -9.19,6.16 -0.73,0.5 -1.47,1.04 -2.2,1.55 -2.37,1.66 -4.72,3.36 -7.07,5.1 -0.88,0.65 -1.77,1.3 -2.65,1.96 -2.59,1.95 -5.17,3.94 -7.74,5.98 -0.43,0.35 -0.87,0.68 -1.31,1.03 -3,2.39 -5.98,4.85 -8.95,7.37 -0.73,0.62 -1.46,1.26 -2.2,1.89 -2.29,1.97 -4.57,3.97 -6.84,6 -0.84,0.76 -1.69,1.52 -2.53,2.29 -2.59,2.35 -5.16,4.75 -7.72,7.2 -0.36,0.33 -0.71,0.66 -1.05,0.99 -2.9,2.79 -5.79,5.64 -8.66,8.55 -0.75,0.76 -1.49,1.53 -2.23,2.29 -2.19,2.24 -4.36,4.51 -6.53,6.82 -0.83,0.88 -1.65,1.76 -2.47,2.65 -2.55,2.75 -5.09,5.55 -7.61,8.4 -0.28,0.32 -0.57,0.62 -0.84,0.94 -2.8,3.16 -5.57,6.4 -8.33,9.68 -0.75,0.9 -1.5,1.81 -2.25,2.71 -2.07,2.5 -4.14,5.03 -6.19,7.6 -0.8,1 -1.6,2 -2.4,3.01 -2.51,3.17 -5,6.38 -7.48,9.64 -0.2,0.28 -0.42,0.55 -0.63,0.82 -2.67,3.54 -5.32,7.15 -7.95,10.8 -0.75,1.03 -1.49,2.08 -2.24,3.12 -1.96,2.76 -3.92,5.55 -5.86,8.36 -0.78,1.13 -1.55,2.24 -2.32,3.37 -2.47,3.63 -4.94,7.3 -7.38,11.03 -0.11,0.18 -0.23,0.35 -0.34,0.52 -2.55,3.9 -5.07,7.88 -7.58,11.89 -0.73,1.17 -1.46,2.36 -2.18,3.54 -1.86,3.01 -3.72,6.06 -5.55,9.13 -0.73,1.22 -1.46,2.44 -2.19,3.67 -2.46,4.16 -4.9,8.36 -7.32,12.63 -2.72,4.81 -5.41,9.68 -8.06,14.6 -0.89,1.64 -1.74,3.31 -2.62,4.96 -1.75,3.3 -3.51,6.59 -5.23,9.93 -1.02,1.99 -2.01,4.01 -3.02,6.01 -1.54,3.05 -3.08,6.09 -4.59,9.17 -1.06,2.15 -2.09,4.33 -3.13,6.5 -1.43,2.99 -2.86,5.96 -4.27,8.97 -1.05,2.25 -2.08,4.53 -3.12,6.8 -1.35,2.97 -2.71,5.94 -4.04,8.93 -1.04,2.33 -2.05,4.68 -3.08,7.03 -1.29,2.98 -2.59,5.97 -3.86,8.99 -1.01,2.38 -2,4.79 -3,7.19 -1.24,3.01 -2.49,6.02 -3.71,9.06 -0.98,2.44 -1.94,4.89 -2.91,7.35 -1.2,3.05 -2.39,6.1 -3.56,9.18 -0.95,2.47 -1.88,4.95 -2.81,7.44 -1.16,3.1 -2.3,6.21 -3.44,9.34 -0.9,2.5 -1.8,5.01 -2.69,7.53 -1.12,3.15 -2.22,6.32 -3.31,9.5 -0.87,2.52 -1.73,5.04 -2.58,7.58 -1.08,3.22 -2.14,6.46 -3.2,9.71 -0.82,2.52 -1.64,5.05 -2.44,7.59 -1.05,3.3 -2.08,6.62 -3.1,9.94 -0.78,2.52 -1.55,5.04 -2.31,7.58 -1.02,3.39 -2.01,6.8 -3,10.21 -0.73,2.51 -1.46,5 -2.17,7.52 -0.98,3.49 -1.94,7 -2.9,10.51 -0.68,2.48 -1.36,4.95 -2.02,7.45 -0.96,3.62 -1.9,7.27 -2.83,10.92 -0.62,2.4 -1.24,4.79 -1.84,7.2 -0.95,3.84 -1.88,7.7 -2.8,11.56 -0.54,2.26 -1.1,4.5 -1.62,6.77 -0.98,4.18 -1.92,8.38 -2.85,12.59 -0.44,1.97 -0.9,3.94 -1.33,5.92 -1.08,4.94 -2.11,9.93 -3.13,14.91 -0.27,1.27 -0.54,2.52 -0.8,3.78 -2.55,12.64 -4.94,25.4 -7.15,38.26 -0.23,1.34 -0.44,2.71 -0.67,4.06 -0.85,5.03 -1.68,10.06 -2.48,15.12 -0.33,2.11 -0.64,4.23 -0.95,6.34 -0.67,4.33 -1.33,8.66 -1.95,13.01 -0.34,2.42 -0.66,4.87 -1,7.29 -0.56,4.07 -1.12,8.14 -1.64,12.22 -0.34,2.6 -0.64,5.21 -0.97,7.82 -0.48,3.93 -0.96,7.87 -1.41,11.81 -0.32,2.74 -0.6,5.49 -0.9,8.23 -0.42,3.84 -0.84,7.68 -1.22,11.54 -0.28,2.84 -0.55,5.69 -0.82,8.53 -0.36,3.79 -0.71,7.57 -1.04,11.36 -0.25,2.91 -0.49,5.83 -0.72,8.75 -0.3,3.75 -0.6,7.51 -0.87,11.28 -0.22,2.97 -0.42,5.95 -0.62,8.94 -0.25,3.71 -0.49,7.43 -0.71,11.15 -0.18,3.05 -0.35,6.1 -0.51,9.15 -0.2,3.69 -0.38,7.39 -0.55,11.09 -0.14,3.08 -0.28,6.17 -0.4,9.26 -0.14,3.69 -0.28,7.39 -0.39,11.1 -0.11,3.11 -0.2,6.23 -0.29,9.35 -0.03,1.45 -0.05,2.9 -0.09,4.35 h 261.31 c 1.67,-219.17 18.67,-424.43 48.27,-581.14 15.42,-81.69 33.6,-146.48 54.02,-192.58 0.95,-2.13 1.9,-4.21 2.85,-6.27 -2.93,1.07 -5.86,2.19 -8.77,3.36 z m -490.54,223.64 c -148.99,148.66 -234.73,343.92 -243.55,552.99 h 309.07 c 0.05,-1.84 0.11,-3.67 0.16,-5.5 0.09,-3.34 0.19,-6.68 0.3,-10.02 0.12,-3.85 0.26,-7.69 0.41,-11.53 0.13,-3.29 0.27,-6.57 0.42,-9.85 0.18,-3.88 0.37,-7.75 0.58,-11.62 0.17,-3.23 0.34,-6.46 0.53,-9.69 0.24,-3.89 0.49,-7.79 0.75,-11.67 0.22,-3.18 0.43,-6.37 0.66,-9.54 0.29,-3.92 0.6,-7.85 0.92,-11.76 0.25,-3.11 0.5,-6.22 0.77,-9.31 0.34,-3.99 0.72,-7.97 1.1,-11.95 0.29,-3.01 0.56,-6.03 0.87,-9.03 0.4,-4.05 0.85,-8.1 1.29,-12.13 0.31,-2.91 0.62,-5.82 0.95,-8.72 0.49,-4.18 1.01,-8.34 1.52,-12.5 0.34,-2.74 0.66,-5.48 1.01,-8.21 0.58,-4.46 1.2,-8.9 1.81,-13.35 0.33,-2.39 0.64,-4.81 0.99,-7.19 0.74,-5.19 1.53,-10.35 2.33,-15.5 0.25,-1.64 0.49,-3.28 0.75,-4.92 2.16,-13.64 4.49,-27.17 7.02,-40.59 0.32,-1.72 0.67,-3.43 1.01,-5.15 0.94,-4.94 1.89,-9.87 2.89,-14.78 0.47,-2.32 0.97,-4.63 1.46,-6.94 0.89,-4.27 1.78,-8.55 2.71,-12.8 0.56,-2.58 1.15,-5.13 1.73,-7.7 0.89,-3.97 1.78,-7.93 2.71,-11.87 0.62,-2.69 1.28,-5.35 1.93,-8.03 0.91,-3.78 1.82,-7.58 2.77,-11.35 0.68,-2.75 1.4,-5.48 2.1,-8.22 0.95,-3.66 1.89,-7.33 2.87,-10.97 0.73,-2.77 1.5,-5.53 2.25,-8.29 0.98,-3.57 1.96,-7.13 2.97,-10.67 0.79,-2.8 1.6,-5.58 2.41,-8.37 1.02,-3.47 2.03,-6.95 3.08,-10.41 0.83,-2.79 1.69,-5.55 2.54,-8.33 1.06,-3.42 2.12,-6.83 3.21,-10.23 0.88,-2.77 1.78,-5.53 2.68,-8.3 1.09,-3.35 2.2,-6.68 3.32,-10.01 0.93,-2.76 1.86,-5.51 2.81,-8.26 1.14,-3.29 2.29,-6.58 3.45,-9.85 0.97,-2.73 1.95,-5.45 2.93,-8.16 1.18,-3.25 2.39,-6.48 3.59,-9.71 1.01,-2.69 2.02,-5.39 3.05,-8.07 1.23,-3.2 2.47,-6.37 3.72,-9.54 1.05,-2.66 2.1,-5.33 3.17,-7.97 1.27,-3.17 2.57,-6.3 3.87,-9.44 1.08,-2.61 2.16,-5.21 3.25,-7.8 1.33,-3.14 2.69,-6.26 4.05,-9.37 1.11,-2.54 2.21,-5.08 3.33,-7.6 1.39,-3.13 2.82,-6.23 4.23,-9.33 1.13,-2.46 2.25,-4.93 3.39,-7.37 1.48,-3.16 2.99,-6.28 4.49,-9.41 1.12,-2.33 2.23,-4.68 3.37,-7 1.6,-3.26 3.23,-6.48 4.86,-9.71 1.09,-2.13 2.14,-4.29 3.24,-6.42 1.82,-3.54 3.69,-7.04 5.55,-10.54 0.93,-1.76 1.85,-3.54 2.79,-5.29 2.83,-5.23 5.68,-10.41 8.59,-15.53 2.79,-4.93 5.61,-9.77 8.45,-14.57 0.87,-1.47 1.75,-2.91 2.62,-4.37 2.05,-3.41 4.11,-6.79 6.19,-10.14 0.95,-1.53 1.89,-3.06 2.84,-4.57 2.31,-3.66 4.63,-7.28 6.97,-10.86 0.64,-0.98 1.27,-1.97 1.91,-2.95 2.95,-4.47 5.92,-8.87 8.92,-13.22 0.8,-1.16 1.61,-2.29 2.41,-3.44 2.26,-3.23 4.53,-6.43 6.81,-9.58 1.04,-1.44 2.08,-2.86 3.12,-4.28 2.21,-3.01 4.44,-5.98 6.67,-8.92 0.93,-1.23 1.86,-2.47 2.8,-3.69 3.1,-4.02 6.22,-7.99 9.37,-11.89 0.51,-0.63 1.03,-1.24 1.54,-1.87 2.68,-3.29 5.37,-6.53 8.08,-9.73 1.08,-1.27 2.17,-2.53 3.26,-3.79 2.24,-2.6 4.49,-5.17 6.75,-7.71 1.11,-1.23 2.21,-2.47 3.31,-3.69 2.73,-3 5.47,-5.96 8.23,-8.87 0.57,-0.6 1.13,-1.23 1.71,-1.83 3.28,-3.44 6.6,-6.81 9.93,-10.13 1.02,-1.01 2.05,-2.01 3.08,-3.01 2.41,-2.36 4.82,-4.68 7.24,-6.97 1.18,-1.11 2.36,-2.21 3.54,-3.31 0.81,-0.75 1.63,-1.54 2.45,-2.29 -127.41,39.3 -244.17,109.24 -341.23,206.06 z m 1486.47,588.87 c 0,240.16 -93.5,465.94 -263.29,635.75 -162.48,162.48 -376.21,255.05 -604.73,262.75 -1.99,0.37 -4.04,0.59 -6.15,0.59 H 8147.95 c -18.57,0 -33.64,-15.07 -33.64,-33.65 0,-18.58 15.07,-33.64 33.64,-33.64 h 720.32 C 8759.9,5209.03 8660.39,5142.97 8575.02,5057.6 8414.88,4897.46 8322.63,4687.55 8312.63,4462.75 h -241.39 c -18.59,0 -33.65,-15.06 -33.65,-33.64 0,-18.58 15.06,-33.64 33.65,-33.64 h 240.89 c 5.91,-205.87 80.74,-399.92 213.35,-555.58 h -189.62 c -18.57,0 -33.64,-15.07 -33.64,-33.65 0,-18.58 15.07,-33.64 33.64,-33.64 h 253.05 c 82.91,-79.51 178.46,-141.34 282.04,-183.6 H 7755.09 c -18.58,0 -33.64,-15.06 -33.64,-33.64 0,-18.58 15.06,-33.64 33.64,-33.64 H 9233.4 c 232.16,5.71 449.65,100.53 614.07,265.47 168.53,169.05 261.73,393.62 262.33,632.33 0,0.2 0,0.4 0,0.6 0,0.58 0,1.15 0,1.73" fill="#100f0d" transform="matrix(.13333 0 0 -.13333 0 933.333)"/>
  <path d="M9210.49 4999.62c34.21 5.82 342.82 52.47 355.42 58.04 3.46 1.54 6.68 3.44 9.47 5.9 5.74 5.03 5.78 11.96.28 17.16-3.75 3.56-8.25 5.87-13.17 7.2-12.36 3.34-24.94 5.24-37.76 5.51-29.45.62-58.87-.5-88.28-1.5-16.74-.57-33.38.28-49.93 2.75-20.75 3.09-40.72 9.32-60.46 16.11-21.19 7.3-42.08 15.41-63.6 21.78-19.86 5.89-39.75 6.41-59.91 2.03-3-.65-5.97-1.69-6.51-4.73-.54-3.04 2.54-4.28 4.83-5.56 17.04-9.59 99.85-55.83 124.29-69.42-.87-1.86-2.09-1.85-3.09-2.23-11.11-4.19-22.38-7.89-33.79-11.19-19.22-5.57-38.58-10.48-58.62-12.23-11.32-.99-22.41-.4-33.05 4.02-5.47 2.28-10.95 4.54-16.38 6.92-4.84 2.13-9.76 3.9-15.01 4.85-4.81.87-9.14-.43-13.47-2.11-2.37-.92-2.81-2.59-1.6-4.74.54-.96 1.2-1.84 1.78-2.78 3.11-5.05 18.1-29.97 21.02-35.13 2.9-5.14 15.74-4.37 37.54-.65M9363.57 5011.83c-3.22-.54-5.06-1.91-6.5-4.63-5.95-11.24-12.02-22.42-18.03-33.63-2.91-5.44-1.69-7.42 4.57-7.59.66-.02 1.32.1 1.98.11 18.54.36 34.05 8.09 47.17 20.52 12.1 11.46 23.51 23.66 35.58 35.89-1.1.22-1.53.42-1.91.35-20.95-3.68-41.88-7.49-62.86-11.02" fill="#fff" transform="matrix(.13333 0 0 -.13333 0 933.333)"/>
  <path d="m 10041.1,4471.09 c -0.7,11.17 -1.5,22.3 -2.6,33.38 H 8497.03 c -7.3,-10.98 -14.46,-22.11 -21.48,-33.38 h 1565.55" fill="#cceef7" transform="matrix(.13333 0 0 -.13333 0 933.333)"/>
  <path d="m 10024.4,4595.98 c -5,23.49 -11,46.69 -17.9,69.55 H 8622.55 c -20.19,-22.27 -39.89,-45.46 -58.98,-69.55 h 1460.83" fill="#76cbe6" transform="matrix(.13333 0 0 -.13333 0 933.333)"/>
  <path d="m 9976.47,4747.79 c -15.51,36.43 -33.66,71.75 -54.35,105.72 H 8832.93 c -43.74,-31.19 -87.14,-66.52 -129.25,-105.72 h 1272.79" fill="#3155ac" transform="matrix(.13333 0 0 -.13333 0 933.333)"/>
  <path d="m 8471.9,4665.53 c -22.17,-22.24 -43.63,-45.43 -64.29,-69.55 h 41.86 c 19.44,24.62 39.26,47.78 59.33,69.55 h -36.9" fill="#76cbe6" transform="matrix(.13333 0 0 -.13333 0 933.333)"/>
  <path d="M8499.44 4853.51c-20.69-33.97-38.84-69.29-54.36-105.72h49.05c48.74 41.36 98.1 76.28 146.42 105.72h-141.11M8709.32 4853.51c-50.52-31.21-99.9-66.53-147.18-105.72h30.54c46.88 41.47 94.1 76.37 140.1 105.72h-23.46" fill="#3155ac" transform="matrix(.13333 0 0 -.13333 0 933.333)"/>
  <path d="m 8732.78,4853.51 c -46,-29.35 -93.22,-64.25 -140.1,-105.72 -28.21,-24.96 -56.28,-52.32 -83.88,-82.26 -20.07,-21.77 -39.89,-44.93 -59.33,-69.55 -22.77,-28.83 -45.02,-59.6 -66.51,-92.59 -1.3,-13.48 -2.3,-27.03 -2.96,-40.64 h 61.63 c 184.59,301.13 472.48,501.32 691.5,543.91 0,0 -186.81,-16.84 -400.35,-153.15" fill="#fff" transform="matrix(.13333 0 0 -.13333 0 933.333)"/>
  <path d="m 8640.55,4853.51 c -48.32,-29.44 -97.68,-64.36 -146.42,-105.72 -25.25,-21.42 -50.33,-44.54 -75,-69.57 -5.76,-17.84 -10.91,-35.88 -15.44,-54.13 192.77,211.75 448.74,346.72 675.27,386.3 0,0 -207.19,-15.93 -438.41,-156.88" fill="#fff" transform="matrix(.13333 0 0 -.13333 0 933.333)"/>
  <path d="m4215.28 4329.06-148.96 275.17c-19.1 35.28-69.78 35.13-88.67-.26l-146.76-274.91zm-192.05 549.7v0c113.44 0 217.85-61.88 272.31-161.4l402.25-735.05h-298.37l-88.71 159.92h-577.92l-86.02-159.92h-309.12l415 738.16c54.97 97.78 158.41 158.29 270.58 158.29M6153.77 4878.76h218.75v-896.45h-272.84v842.35c0 29.88 24.22 54.1 54.09 54.1M7336.2 4196c73.93 0 79.31 0 111.56 10.75 65.85 20.17 83.33 67.21 83.33 221.77 0 188.16-32.25 227.15-189.51 227.15H6879.24V4196Zm-729.79 628.66c0 29.88 24.22 54.1 54.09 54.1h720.06c189.5 0 278.21-21.51 340.03-83.32 49.74-48.38 69.89-104.85 79.31-219.08 2.68-41.67 5.37-103.48 5.37-146.49 0-80.64-5.37-173.38-13.44-224.46-14.79-107.52-90.05-190.85-188.16-209.66-51.07-10.76-91.39-13.44-186.82-13.44h-810.44v842.35M5782.47 4845.16c-56.45 28.22-100.81 33.6-274.19 33.6h-631.35c-29.87 0-54.1-24.23-54.1-54.1V3982.3h271.5v678.74h396.48c116.93 0 143.81-24.2 143.81-131.72 0-84.67-32.26-108.86-143.81-108.86H5232.7v-217.74h299.77c155.91 0 216.4 9.41 268.81 41.66 73.93 45.71 104.83 134.4 104.83 305.1 0 169.35-33.59 251.34-123.64 295.68M3114.24 4244.38c73.94 45.72 104.84 134.4 104.84 305.1 0 169.35-33.6 251.34-123.65 295.68-56.44 28.22-100.79 33.6-274.18 33.6h-478.91c-114.07 0-206.54-92.47-206.54-206.54V3982.3h271.49v678.74h396.5c116.92 0 143.8-24.2 143.8-131.72 0-84.67-32.26-108.86-143.8-108.86h-257.17c-13.76 0-21.44-15.89-12.9-26.67l326.07-411.48h309.32l-178.86 225.71c57.14 5.75 92.23 16.81 123.99 36.36M12832.9 4878.76v-202.94h-724.5v-154.56h528.6v-177.4h-528.6v-158.61h733.9v-202.94h-1002.7v859.6c0 20.35 16.5 36.85 36.9 36.85h956.4M13862.4 4329.06l-149 275.17c-19.1 35.28-69.7 35.13-88.6-.26L13478 4329.06Zm-192 549.7v0c113.4 0 217.8-61.89 272.3-161.4l402.2-735.05h-298.4l-88.7 159.92h-577.9l-86-159.92h-309.1l415 738.16c55 97.78 158.4 158.29 270.6 158.29M15585.5 4319.65c-1.3-130.36-5.4-174.71-24.2-215.05-34.9-76.6-107.5-112.89-247.3-122.29-55.1-5.38-162.6-6.73-341.4-6.73-258 0-341.3 12.1-413.9 59.13-88.7 56.47-114.3 150.54-114.3 416.67 0 236.54 26.9 321.21 121 374.97 80.7 47.03 166.7 59.14 418 59.14 334.7 0 407.2-6.73 483.8-44.36 72.6-36.29 106.2-115.58 106.2-247.3v-29.56h-260.7c-5.4 98.11-25.6 106.17-262.1 106.17-223.1 0-263.4-5.37-297-34.94-32.3-29.57-39-65.85-39-211 0-215.05 20.1-231.18 282.2-231.18 203 0 232.5 1.34 270.2 17.47 39 16.13 53.7 44.34 53.7 108.86h264.8M16142 4657h-399.2v184.91c0 20.35 16.5 36.85 36.9 36.85H16814V4657h-399.2V3982.31H16142V4657M11470 4244.38c73.9 45.72 104.8 134.4 104.8 305.1 0 169.35-33.6 251.34-123.6 295.68-56.5 28.22-100.8 33.6-274.2 33.6h-478.9c-114.1 0-206.6-92.47-206.6-206.54V3982.3h271.5v678.74h396.5c116.9 0 143.8-24.2 143.8-131.72 0-84.67-32.3-108.86-143.8-108.86h-257.2c-13.7 0-21.4-15.89-12.9-26.67l326.1-411.48h309.3l-178.8 225.71c57.1 5.75 92.2 16.81 124 36.36M16546.3 4012.79c.3-6.44.9-7.97 4.3-9.23 2.1-.84 10.1-1.4 19-1.4 32.9 0 36.8.98 36.8 8.67 0 3.77-1.8 6.57-4.8 7.55-3 .97-3 .97-17.7 1.12h-25.7c-17.2 0-24.4.98-30.4 4.05-6.7 3.49-9.8 10.91-9.8 23.63 0 16.77 4.8 23.91 18.2 27.12 7.6 1.96 18.5 2.66 38.9 2.66 32.7 0 40.2-.84 47-5.17 6.4-4.34 8.5-10.07 8.5-24.05h-27.7c0 8.11-2.8 9.23-21.1 9.23-9.1 0-21.3-.28-25.7-.57-7.6-.55-10.1-2.51-10.1-7.82 0-3.92 1.9-6.43 6-7.41 1.7-.42 2.2-.56 11.5-.7h26.4c2.5 0 15.1-.42 19.8-.7 17.8-.84 24.8-8.67 24.8-27.4 0-17.2-5-24.75-18.7-27.69-7-1.54-20.9-2.37-41.2-2.37-32.2 0-39.4.7-47.6 4.89-5.8 2.8-8.7 9.93-8.7 20.97 0 .84 0 2.66.1 4.62h27.9M16656.4 4076.26h45.1l33.9-61.94 33.9 61.94h44.7v-93.25h-27.7l1.4 72-41.4-72h-22.6l-40.7 72 .8-72h-27.4v93.25" fill="#100f0d" transform="matrix(.13333 0 0 -.13333 0 933.333)"/>
</svg>
