<svg xmlns="http://www.w3.org/2000/svg" xml:space="preserve" width="1498.72" height="1200">
  <path d="m 2477.23,6281.13 h 751.26 c 86.49,0 156.87,70.38 156.87,156.87 0,21.33 -4.35,41.64 -12.1,60.19 h 148.56 c 86.49,0 156.86,70.35 156.86,156.83 0,86.49 -70.37,156.87 -156.86,156.87 h -478.69 c -86.49,0 -156.83,-70.38 -156.83,-156.87 0,-21.32 4.35,-41.64 12.1,-60.19 h -421.17 c -86.48,0 -156.83,-70.34 -156.83,-156.83 0,-86.49 70.35,-156.87 156.83,-156.87" fill="#fff" transform="matrix(.13333 0 0 -.13333 0 1200)"/>
  <path d="M9617.05 5209.87H7945.49c28.79 29.76 46.72 70.12 46.72 114.71 0 1280.61-1041.83 2322.44-2322.4 2322.44-59.2 0-121.39-2.65-189.98-8.12H3831.94c-86.49 0-156.84-70.35-156.84-156.83 0-86.66 70.35-157.18 156.84-157.18h659.92C3840.89 6939.47 3403.57 6249.06 3352.87 5476.11H1656.83c-86.49 0-156.83-70.34-156.83-156.83 0-86.66 70.34-157.18 156.83-157.18h12.08c-16.37-20.93-26.53-46.94-26.53-75.57v-563.42c0-68.11 55.23-123.34 123.34-123.34h586.74c-26.83-34.51-42.97-77.7-42.97-124.7 0-112.5 91.38-204.04 203.71-204.04 48.42 0 94.3 17.3 130.3 47.22h1042.96c9.33-15.28 19.69-29.79 29.36-44.81-1.7.06-3.3.51-5.02.51h-603.1c-86.49 0-156.84-70.38-156.84-156.87 0-86.48 70.35-156.86 156.84-156.86h603.1c70.72 0 129.95 47.36 149.45 111.82 179.71-222.98 398.77-411.38 644.62-554.82H3352.32c-86.48 0-156.83-70.35-156.83-156.83 0-86.66 70.35-157.18 156.83-157.18h2250.65l21.24-.41c15.1-.34 30.28-.66 45.6-.66 1.85 0 8.94 0 10.56 0 3.23 0 6.68.14 10.15.45 4.48.07 22.1.62 26.5.62h43.37c9.74 0 18.34 1.03 25.74 2.48 772.36 38.2 1464.42 451.81 1867.08 1112.56h1061.87c36.03-29.88 81.87-47.22 129.99-47.22 112.33 0 203.71 91.54 203.71 204.04 0 47-16.15 90.19-42.97 124.7h611.24c68.1 0 123.34 55.23 123.34 123.34v563.42c0 68.11-55.24 123.34-123.34 123.34M5766.6 1715.11c19.23 41.27 30.05 87.34 30.05 135.96 0 111.96-57.23 210.65-143.96 268.44 51.71 53.18 107.56 105.71 167.13 155.94-69.76-40.97-135.35-88.1-195.98-138.89-44.66 23.53-95.55 36.74-149.52 36.74-177.96 0-322.26-144.24-322.26-322.23 0-80.4 29.46-153.89 78.09-210.38-61.66-133.36-72.48-240.72-18.1-276.95 58.25-38.86 184.91 31.55 260.92 146.26 0 0-117.58-106.07-182.07-81.75-39.81 15.06-39.93 75.77-7.17 162.93 53.39-39.24 119.31-62.34 190.59-62.34 88.29 0 168.23 35.46 226.48 92.93l11.41-21.57c140.46 11.38 559.84 22.42 559.84 22.42 0 20.29-277.67 1.96-505.45 92.49zm-575.8 135.96c0 156.62 126.96 283.48 283.52 283.48 41.98 0 81.83-9.09 117.67-25.37-153.66-135.83-272.62-293.74-343.04-430.13-36.49 47.71-58.15 107.28-58.15 172.02zm283.52-283.6c-66.22 0-127.11 22.7-175.36 60.86 56.09 126.66 170.5 296.67 326.48 462.67 79.63-50.22 132.5-138.89 132.5-239.93 0-43.16-9.71-84.08-26.97-120.75-49.49 22.89-95.69 51.56-134.83 87.74l85.56-160.42c-51.79-55.42-125.5-90.17-207.38-90.17v0M7689.21 1880.67l52.53 69.72-182.93.04 45.09 59.78h182.85l52.64 69.7h-365.2l-251.08-333.32h365.12l52.5 69.73h-182.79l48.34 64.35h182.93v0 0M7942.85 2079.91 7691.7 1746.59h182.2l251.12 333.32h-182.17v0 0M8549.9 2079.91l-127.32-168.97-39.08 168.97h-142.47l-251.11-333.32h120.55l126.18 167.43 38.73-167.43h143.98l251.13 333.32H8549.9v0 0M9145.72 2079.91l-292.86.06c-50.25 0-94.61-23.99-122.69-61.24l-151.22-200.67c-5.7-7.41-8.92-16.79-8.92-26.88 0-24.58 19.88-44.59 44.54-44.59h292.86c50.1 0 94.71 24.03 122.68 61.21l36.49 48.23h42.22l52.91 70.15h-224.32l-70.86-93.96c-7.26-9.6-18.85-15.83-31.78-15.83h-51.59c-6.53 0-11.69 5.24-11.69 11.53 0 2.69.94 5.08 2.38 6.98l120.21 159.42c7.16 9.76 18.71 15.89 31.74 15.89h51.63c6.43 0 11.55-5.24 11.55-11.6 0-2.57-.83-5.01-2.28-6.91l-19.55-25.98h182.01l32.15 42.77c5.68 7.41 8.99 16.71 8.99 26.81 0 24.66-20.02 44.61-44.6 44.61v0 0M7324.84 2035.3c0 24.66-19.95 44.61-44.57 44.61h-292.76c-50.21 0-94.68-23.93-122.76-61.18L6713.5 1818.06c-5.6-7.48-8.95-16.79-8.95-26.88 0-24.58 20.02-44.59 44.6-44.59h292.79c50.18 0 94.75 24.03 122.76 61.21l151.25 200.62c5.6 7.48 8.89 16.78 8.89 26.88v0zm-203.61-43.6-120.09-159.48c-7.3-9.6-18.85-15.83-31.85-15.83h-51.63c-6.36 0-11.55 5.24-11.55 11.53 0 2.69.87 5.08 2.32 6.98l120.17 159.42c7.22 9.59 18.77 15.89 31.77 15.89h51.59c6.37 0 11.63-5.24 11.63-11.6 0-2.57-.87-5.01-2.36-6.91v0 0" fill="#fff" transform="matrix(.13333 0 0 -.13333 0 1200)"/>
  <path d="M6636.14 1905.1c35.9 8.14 67.06 28.89 88.53 57.33l34.65 45.99c5.64 7.48 8.99 16.78 8.99 26.88 0 24.66-19.95 44.61-44.57 44.61h-187.29v0H6354.28L6103.1 1746.59h178.98 203.26c50.21 0 94.75 24.03 122.8 61.21l35.44 47c4.5 5.97 7.12 13.44 7.12 21.46 0 11.82-5.7 22.26-14.56 28.84v0zm-169.12-43.01-22.52-29.93c-7.26-9.54-18.77-15.84-31.88-15.84h-74.8l48.42 64.35h71.58c6.29 0 11.58-5.19 11.58-11.53 0-2.69-.9-5.13-2.38-7.05v0zm97.65 129.61-19.12-25.48c-7.3-9.58-18.82-15.83-31.89-15.83l-74.83.04 45.1 59.78h71.47c6.43 0 11.59-5.24 11.59-11.6 0-2.57-.83-5.01-2.32-6.91v0 0M2322.71 1824.02h-40.43v-79.1h-41.05v210.18h81.48c43.41 0 69.38-29.82 69.38-65.54 0-35.73-25.97-65.54-69.38-65.54zm-2.06 94.47h-38.37v-57.56h38.37c18.6 0 30.4 11.51 30.4 28.63 0 17.11-11.8 28.93-30.4 28.93v0M2553.11 1744.92l-41.04 83.82h-29.52v-83.82h-41.04v210.18h82.38c42.8 0 68.19-29.24 68.19-64.36 0-29.52-18.02-47.83-38.38-55.21l46.94-90.61h-47.53zm-31.89 173.57h-38.67v-55.51h38.67c18.01 0 29.82 11.52 29.82 27.76 0 16.23-11.81 27.75-29.82 27.75v0M2649.45 1744.92v210.18h138.46v-36.61h-97.42v-49.31h82.95v-36.6h-82.95v-51.07h97.42v-36.59h-138.46v0M2900.81 1743.15c-31.87 0-56.08 6.79-76.76 27.72l26.58 26.58c13.29-13.3 31.28-17.72 50.78-17.72 24.21 0 37.19 9.15 37.19 25.99 0 7.37-2.07 13.58-6.49 17.71-4.14 3.83-8.86 5.9-18.61 7.38l-25.38 3.54c-18.01 2.65-31.3 8.27-40.75 17.42-10.03 10.04-15.05 23.62-15.05 41.32 0 37.5 27.75 63.78 73.21 63.78 28.94 0 49.9-7.09 67.91-24.5l-25.99-25.7c-13.27 12.71-29.22 14.47-43.1 14.47-21.83 0-32.47-12.09-32.47-26.56 0-5.31 1.78-10.93 6.21-15.05 4.11-3.84 10.92-7.09 19.48-8.28l24.79-3.54c19.19-2.67 31.3-7.98 40.17-16.23 11.21-10.64 16.22-25.99 16.22-44.59 0-40.72-33.94-63.74-77.94-63.74v0M3032.3 1744.92v210.18h138.47v-36.61h-97.42v-49.31h82.94v-36.6h-82.94v-51.07h97.42v-36.59H3032.3v0M3350.07 1744.92l-83.25 128.98v-128.98h-41.04v210.18h36.61l83.26-128.73v128.73h41.03v-210.18h-36.61v0M3530.88 1918.49v-173.57h-41.05v173.57h-54.9v36.61h150.86v-36.61h-54.91v0M3634 1744.92v210.18h138.45v-36.61h-97.41v-49.31h82.94v-36.6h-82.94v-51.07h97.41v-36.59H3634v0M3958.87 1764.97c-13.87-13.86-33.65-20.05-55.5-20.05h-75.88v210.18h75.88c21.85 0 41.63-6.21 55.5-20.09 23.62-23.61 21.25-52.54 21.25-84.14 0-31.57 2.37-62.28-21.25-85.9zm-28.63 140.53c-7.1 8.57-16.55 12.99-30.72 12.99h-30.98v-136.98h30.98c14.17 0 23.62 4.43 30.72 13 7.68 9.44 8.85 24.5 8.85 56.36 0 31.9-1.17 45.18-8.85 54.63v0M4208.21 1744.92h-87.97v210.18h84.43c41.04 0 64.95-23.03 64.95-59.05 0-23.32-15.35-38.37-25.99-43.39 12.7-5.9 28.94-19.19 28.94-47.24 0-39.25-26.86-60.5-64.36-60.5zm-6.79 173.57h-40.14v-48.41h40.14c17.42 0 27.16 9.74 27.16 24.21 0 14.46-9.74 24.2-27.16 24.2zm2.66-85.31h-42.8v-51.67h42.8c18.6 0 27.46 11.8 27.46 25.97 0 14.17-8.86 25.7-27.46 25.7v0M4409.67 1831.1v-86.18h-40.73v86.18l-63.19 124h44.59l39.26-84.72 38.67 84.72h44.59l-63.19-124v0" fill="#fff" transform="matrix(.13333 0 0 -.13333 0 1200)"/>
  <path d="m 4564.25,4271.04 h -727.39 c 298.7,-517.64 809.82,-897.84 1413.77,-1019.78 -294.01,181.64 -538.28,548.3 -686.38,1019.78" fill="#3155ac" transform="matrix(.13333 0 0 -.13333 0 1200)"/>
  <path d="m 4564.25,4271.04 h -727.39 c 298.7,-517.64 809.82,-897.84 1413.77,-1019.78 -294.01,181.64 -538.28,548.3 -686.38,1019.78 z" fill="none" stroke="#2d5eb1" stroke-width="9.884" stroke-miterlimit="10" transform="matrix(.13333 0 0 -.13333 0 1200)"/>
  <path d="m 6089.18,3251.26 c 603.96,121.94 1115.06,502.14 1413.77,1019.78 H 6775.56 C 6627.45,3799.56 6383.18,3432.9 6089.18,3251.26" fill="#c8e66c" transform="matrix(.13333 0 0 -.13333 0 1200)"/>
  <path d="m 6089.18,3251.26 c 603.96,121.94 1115.06,502.14 1413.77,1019.78 H 6775.56 C 6627.45,3799.56 6383.18,3432.9 6089.18,3251.26 Z" fill="none" stroke="#b9d96f" stroke-width="9.884" stroke-miterlimit="10" transform="matrix(.13333 0 0 -.13333 0 1200)"/>
  <path d="m 5824.42,3228.21 c 369.83,87.7 685.88,485.3 864.79,1042.83 h -611.1 c -50.23,-472.21 -135.68,-865 -253.69,-1042.83" fill="#96d021" transform="matrix(.13333 0 0 -.13333 0 1200)"/>
  <path d="m 5824.42,3228.21 c 369.83,87.7 685.88,485.3 864.79,1042.83 h -611.1 c -50.23,-472.21 -135.68,-865 -253.69,-1042.83 z" fill="none" stroke="#8cc625" stroke-width="9.884" stroke-miterlimit="10" transform="matrix(.13333 0 0 -.13333 0 1200)"/>
  <path d="m 4650.6,4271.04 c 182.93,-570.05 509.17,-973.19 889.73,-1048.55 -120.06,174.96 -206.85,571.09 -257.65,1048.55 H 4650.6" fill="#100f0d" transform="matrix(.13333 0 0 -.13333 0 1200)"/>
  <path d="m 4650.6,4271.04 c 182.93,-570.05 509.17,-973.19 889.73,-1048.55 -120.06,174.96 -206.85,571.09 -257.65,1048.55 z" fill="none" stroke="#100f0d" stroke-width="9.884" stroke-miterlimit="10" transform="matrix(.13333 0 0 -.13333 0 1200)"/>
  <path d="m 5994.86,4271.04 h -628.93 c 72.46,-669.54 206.27,-1055.8 312.15,-1061.3 2.15,0.03 4.28,0.26 6.44,0.29 105.59,9.77 238.3,395.27 310.34,1061.01" fill="#397b33" transform="matrix(.13333 0 0 -.13333 0 1200)"/>
  <path d="m 5994.86,4271.04 h -628.93 c 72.46,-669.54 206.27,-1055.8 312.15,-1061.3 2.15,0.03 4.28,0.26 6.44,0.29 105.59,9.77 238.3,395.27 310.34,1061.01 z" fill="none" stroke="#347935" stroke-width="9.884" stroke-miterlimit="10" transform="matrix(.13333 0 0 -.13333 0 1200)"/>
  <path d="m 5772.96,7521.37 c -3.86,1.55 -8.07,2.43 -12.48,2.43 H 3831.81 c -18.51,0 -33.51,-14.99 -33.51,-33.51 0,-18.52 15,-33.5 33.51,-33.5 H 5130.23 C 4185.49,7217.54 3482.39,6365.24 3470.96,5349.81 H 1656.8 c -18.51,0 -33.51,-14.98 -33.51,-33.5 0,-18.52 15,-33.51 33.51,-33.51 h 1855.89 880.16 3434.27 c 23.13,0 41.88,18.75 41.88,41.88 0,1178.07 -931.11,2142.68 -2096.04,2196.69" fill="#100f0d" transform="matrix(.13333 0 0 -.13333 0 1200)"/>
  <path d="M3228.44 6404.48h-751.25c-18.51 0-33.51 14.98-33.51 33.5 0 18.52 15 33.51 33.51 33.51h751.25c18.51 0 33.51-14.99 33.51-33.51 0-18.52-15-33.5-33.51-33.5M3710.73 3883.58h-603.09c-18.5 0-33.5 14.98-33.5 33.5 0 18.52 15 33.51 33.5 33.51h603.09c18.5 0 33.5-14.99 33.5-33.51 0-18.52-15-33.5-33.5-33.5M3521.76 6621.52h-478.68c-18.5 0-33.5 14.99-33.5 33.51 0 18.52 15 33.5 33.5 33.5h478.68c18.51 0 33.51-14.98 33.51-33.5 0-18.52-15-33.51-33.51-33.51" fill="#100f0d" transform="matrix(.13333 0 0 -.13333 0 1200)"/>
  <path d="m 8845.04,4232.62 c -9.38,0 -17.6,3.65 -24.63,8.84 -10.47,7.71 -17.73,19.52 -17.73,33.51 0,13.97 7.25,25.79 17.72,33.5 7.03,5.18 15.26,8.83 24.64,8.83 23.37,0 42.37,-18.98 42.37,-42.33 0,-23.37 -19,-42.35 -42.37,-42.35 z M 6089.18,3251.26 c 287.82,177.82 527.96,532.97 676.9,990.2 h 719.44 c -300.92,-502.51 -803.95,-870.6 -1396.34,-990.2 z m -14.29,990.2 h 604.63 c -180.49,-541.98 -491.84,-927.11 -855.1,-1013.25 115.54,174.1 199.85,554.27 250.47,1013.25 z M 5684.52,3210.03 c -2.16,-0.03 -4.29,-0.26 -6.44,-0.29 -104.31,5.42 -235.74,380.4 -308.88,1031.72 h 622.4 C 5918.87,3593.89 5788.54,3219.65 5684.52,3210.03 Z M 4660.28,4241.46 h 625.61 c 51.21,-464.2 136.87,-847.65 254.44,-1018.97 -373.94,74.05 -695.43,464.59 -880.05,1018.97 z m -806,0 h 719.45 c 148.93,-457.23 389.07,-812.38 676.9,-990.2 -592.39,119.6 -1095.43,487.69 -1396.35,990.2 z m -1312.64,2.41 c -7.53,-6.81 -17.28,-11.25 -28.22,-11.25 -23.36,0 -42.36,18.98 -42.36,42.35 0,23.35 19,42.33 42.36,42.33 10.94,0 20.69,-4.42 28.22,-11.24 8.55,-7.74 14.14,-18.66 14.14,-31.09 0,-12.44 -5.59,-23.35 -14.14,-31.1 z m 6303.4,111.72 c -32.46,0 -60.33,-19.4 -73.09,-47.12 v 0 H 2586.52 v 0 c -12.76,27.72 -40.63,47.12 -73.1,47.12 -44.45,0 -80.61,-36.19 -80.61,-80.62 0,-44.45 36.16,-80.63 80.61,-80.63 32.47,0 60.34,19.4 73.1,47.12 v 0 h 1170.26 c 291.73,-513.21 783.91,-898.22 1369.31,-1047.72 H 3352.36 c -18.51,0 -33.51,-14.99 -33.51,-33.52 0,-18.52 15,-33.51 33.51,-33.51 h 2248.8 c 22.84,-0.7 45.75,-1.11 68.75,-1.11 2.9,0 5.76,0.22 8.67,0.23 0.61,-0.01 1.19,-0.23 1.82,-0.23 0.93,0 1.83,0.32 2.76,0.34 15.1,0.09 30.16,0.38 45.19,0.77 h 32.13 c 3.49,0 6.86,0.54 10.02,1.53 776.71,35.16 1449.68,474.91 1812.53,1113.22 h 1188.92 c 12.76,-27.72 40.63,-47.12 73.09,-47.12 44.45,0 80.62,36.18 80.62,80.63 0,44.43 -36.17,80.62 -80.62,80.62" fill="#100f0d" transform="matrix(.13333 0 0 -.13333 0 1200)"/>
  <path d="m 7784.65,5370.42 c -0.59,27.9 -2.05,55.58 -3.72,83.2 H 3827.58 c -17.26,-27.39 -34.19,-55.12 -50.75,-83.2 h 4007.82" fill="#cceef7" transform="matrix(.13333 0 0 -.13333 0 1200)"/>
  <path d="M7755.06 5681.73c-10.03 58.7-22.96 116.4-37.74 173.36H4124.15c-47.81-55.69-94.35-113.5-139.34-173.36h3770.25M3767 5855.09c-50.5-54.88-100.68-112.59-150.48-173.36h95.94c45.09 61.08 91.16 118.81 137.95 173.36H3767" fill="#76cbe6" transform="matrix(.13333 0 0 -.13333 0 1200)"/>
  <path d="M7651.71 6060.12c.36 0 .69.12 1.05.14-33.85 90.94-73.89 178.83-119.41 263.41H4616.09c-102.29-79.02-203.24-167.11-300.82-263.55h3336.44M4295.44 6323.67c-108.76-76.79-217.06-164.25-324.34-263.55h72.97c105.34 101.18 212.19 188.41 317.62 263.55h-66.25M3806.22 6323.67c-45.52-84.58-85.56-172.47-119.41-263.41.36-.02.68-.14 1.04-.14h106.4c109.42 101 220.96 188.23 331.5 263.55h-319.53" fill="#3155ac" transform="matrix(.13333 0 0 -.13333 0 1200)"/>
  <path d="M5669.22 6767.48c85.25 14.53 854.53 130.79 885.91 144.69 8.63 3.82 16.65 8.57 23.64 14.69 14.31 12.54 14.39 29.81.7 42.79-9.36 8.87-20.58 14.64-32.86 17.95-30.8 8.3-62.15 13.04-94.12 13.71-73.4 1.57-146.72-1.23-220.04-3.72-41.74-1.42-83.22.7-124.46 6.84-51.71 7.71-101.5 23.23-150.69 40.17-52.82 18.19-104.9 38.4-158.53 54.29-49.51 14.66-99.12 15.96-149.35 5.05-7.47-1.62-14.86-4.21-16.22-11.78-1.35-7.59 6.35-10.67 12.05-13.87 42.46-23.89 248.89-139.15 309.79-173.03-2.16-4.65-5.22-4.63-7.7-5.55-27.69-10.44-55.79-19.67-84.2-27.9-47.92-13.89-96.2-26.12-146.13-30.5-28.22-2.48-55.87-.99-82.38 10.03-13.65 5.67-27.31 11.3-40.83 17.25-12.08 5.32-24.33 9.72-37.41 12.08-12 2.18-22.8-1.06-33.59-5.26-5.92-2.29-7.01-6.46-3.99-11.81 1.35-2.38 2.99-4.59 4.43-6.93 7.76-12.59 45.13-74.7 52.4-87.57 7.24-12.8 39.24-10.88 93.58-1.62M6050.79 6797.93c-8.02-1.34-12.61-4.75-16.21-11.56-14.82-28.02-29.96-55.87-44.92-83.82-7.25-13.54-4.23-18.49 11.4-18.9 1.63-.05 3.27.23 4.91.27 46.22.89 84.88 20.15 117.6 51.15 30.15 28.57 58.57 58.95 88.66 89.45-2.74.54-3.81 1.06-4.75.89-52.22-9.2-104.4-18.69-156.69-27.48M4361.69 6323.67c-105.43-75.14-212.28-162.37-317.62-263.55-65.38-62.81-130.17-130.99-193.66-205.03-46.79-54.55-92.86-112.28-137.95-173.36-52.7-71.39-104.06-147.31-153.6-228.15-1.67-27.6-3.12-55.27-3.7-83.16h163.18c458.05 783.07 1198.08 1305.72 1758.06 1414.6 0 0-535.67-48.66-1114.71-461.35" fill="#fff" transform="matrix(.13333 0 0 -.13333 0 1200)"/>
  <path d="M 4125.75,6323.67 C 4015.21,6248.35 3903.67,6161.12 3794.25,6060.12 3740.88,6010.86 3688,5958.34 3636,5902.3 c -4.48,-15.75 -9.4,-31.31 -13.52,-47.21 -7.66,-29.54 -14.75,-59.3 -21.28,-89.28 486.26,565.19 1152.67,925.88 1740.17,1028.53 0,0 -591.92,-45.75 -1215.62,-470.67" fill="#fff" transform="matrix(.13333 0 0 -.13333 0 1200)"/>
  <path d="m3016.56 4907.38-3.36-6.29 87.29-161.24h60.88l-90.78 167.69c-11.63 21.5-42.52 21.41-54.03-.16M3158.65 4626l54.06-97.47h60.88l-54.06 97.47h-60.88M3013.92 5072.1c-10 1.63-20.13 2.73-30.46 2.73-68.36 0-131.39-36.88-164.89-96.46l-252.91-449.84h60.88l252.91 449.84c28.44 50.59 78.26 84.55 134.47 93.73M4342.69 5074.83h-60.88c-18.21 0-32.97-14.76-32.97-32.97v-513.33h60.88v513.33c0 18.21 14.76 32.97 32.97 32.97M4651.49 5074.83h-60.88c-18.21 0-32.97-14.76-32.97-32.97v-513.33h60.88v513.33c0 18.21 14.76 32.97 32.97 32.97M5066.53 4938.88h-60.87c95.83 0 115.48-23.75 115.48-138.42 0-94.19-10.65-122.86-50.78-135.15-19.66-6.55-22.93-6.55-67.98-6.55h60.88c45.05 0 48.33 0 67.98 6.55 40.13 12.29 50.78 40.96 50.78 135.15 0 114.67-19.65 138.42-115.49 138.42M6529.76 5074.83h-60.88c-12.4 0-22.46-10.05-22.46-22.45v-523.85h60.88v523.85c0 12.4 10.05 22.45 22.46 22.45M7737.26 4626l54.06-97.47h60.87l-54.05 97.47h-60.88M7592.54 5072.1c-10 1.63-20.14 2.73-30.47 2.73-68.35 0-131.39-36.87-164.89-96.46l-252.91-449.84h60.88l252.91 449.84c28.45 50.6 78.27 84.55 134.48 93.73M7595.18 4907.38l-3.36-6.29 87.29-161.24h60.88l-90.77 167.69c-11.64 21.5-42.53 21.41-54.04-.16M8595.92 4667.77c23.76 9.83 32.77 27.03 32.77 66.34h-60.88c0-39.31-9-56.51-32.76-66.34-19.71-8.44-35.98-10.23-118.65-10.57 4.95-.02 9.64-.07 14.91-.07 123.68 0 141.68.81 164.61 10.64M8464.07 4947.89c-11.96 0-22.78-.04-33.09-.1 117.87-.85 128.87-8.93 131.93-64.6h60.88c-3.29 59.78-15.57 64.7-159.72 64.7M8094.67 4814.38c0 144.16 16.39 195.75 73.73 228.52 46.77 27.28 96.72 35.25 233.49 35.96-12.55.05-25.65.07-39.66.07-153.15 0-205.57-7.37-254.71-36.03-57.35-32.77-73.72-84.36-73.72-228.52 0-162.17 15.56-219.5 69.61-253.91 44.23-28.66 95.01-36.03 252.27-36.03 15.16 0 29.28.02 42.77.06-142.93.58-191.7 8.46-234.15 35.97-54.06 34.41-69.63 91.74-69.63 253.91M8908.38 5074.83h-60.89c-12.41 0-22.46-10.05-22.46-22.45V4939.7h60.88v112.68c0 12.4 10.05 22.45 22.47 22.45M9068.29 4939.7v-411.17h60.88v411.17h-60.88M3720.5 4795.55v-132.69h60.89v132.69h-60.89M4026.32 4861.88c0 65.53-16.38 80.28-87.64 80.28h-60.88c71.25 0 87.64-14.75 87.64-80.28 0-51.59-19.66-66.33-87.64-66.33h60.88c67.98 0 87.64 14.74 87.64 66.33M3564.58 5074.83h-60.88c-18.21 0-32.97-14.76-32.97-32.97v-513.33h60.89v513.33c0 18.21 14.75 32.97 32.96 32.97M5811.64 5074.83h-60.88c-69.51 0-125.87-56.35-125.87-125.86v-420.44h60.88v420.44c0 69.51 56.36 125.86 125.87 125.86M6180.47 4861.88c0 65.53-16.37 80.28-87.62 80.28h-60.89c71.25 0 87.63-14.75 87.63-80.28 0-51.59-19.66-66.33-87.63-66.33h60.89c67.97 0 87.62 14.74 87.62 66.33M5936.12 4795.55h-60.88c-8.38 0-13.06-9.69-7.86-16.26l198.71-250.75h60.88l-198.71 250.75c-5.2 6.57-.52 16.26 7.86 16.26M2020.01 5074.83h-60.88c-69.52 0-125.87-56.35-125.87-125.86v-420.44h60.88v420.44c0 69.51 56.35 125.86 125.87 125.86M2144.49 4795.55h-60.88c-8.38 0-13.07-9.69-7.86-16.26l198.71-250.75h60.88l-198.71 250.75c-5.2 6.57-.52 16.26 7.86 16.26M2388.84 4861.88c0 65.53-16.38 80.28-87.63 80.28h-60.88c71.25 0 87.63-14.75 87.63-80.28 0-51.59-19.66-66.33-87.63-66.33h60.88c67.97 0 87.63 14.74 87.63 66.33" fill="#d4d3d1" transform="matrix(.13333 0 0 -.13333 0 1200)"/>
  <path d="M9372.29 4546.76c.17-3.91.6-4.85 2.64-5.62 1.28-.51 6.13-.85 11.59-.85 20.02 0 22.4.59 22.4 5.28 0 2.3-1.1 4-2.89 4.6-1.87.6-1.87.6-10.82.68h-15.68c-10.48 0-14.83.6-18.49 2.47-4.09 2.13-5.96 6.65-5.96 14.4 0 10.23 2.9 14.57 11.07 16.53 4.61 1.19 11.25 1.62 23.69 1.62 19.93 0 24.54-.51 28.62-3.15 3.93-2.64 5.21-6.14 5.21-14.65h-16.88c0 4.94-1.7 5.62-12.86 5.62-5.53 0-12.95-.17-15.68-.35-4.6-.33-6.13-1.53-6.13-4.77 0-2.38 1.19-3.91 3.66-4.51 1.02-.26 1.37-.34 6.99-.43h16.1c1.54 0 9.2-.25 12.1-.42 10.82-.51 15.08-5.29 15.08-16.7 0-10.48-3.06-15.08-11.41-16.87-4.27-.94-12.7-1.45-25.05-1.45-19.69 0-24.04.43-29.06 2.98-3.49 1.71-5.28 6.05-5.28 12.78 0 .51 0 1.62.08 2.81h16.96M9439.42 4585.44h27.43l20.71-37.74 20.62 37.74h27.27v-56.82h-16.88l.85 43.87-25.21-43.87h-13.8l-24.8 43.87.51-43.87h-16.7v56.82M3161.37 4739.85l-90.78 167.69c-11.63 21.5-42.52 21.41-54.03-.16l-89.43-167.53zm-117.03 334.98v0c69.13 0 132.76-37.71 165.94-98.35l245.13-447.95h-181.82l-54.06 97.47h-352.19l-52.42-97.47h-188.38l252.91 449.84c33.5 59.58 96.53 96.46 164.89 96.46M4342.69 5074.83h133.3v-546.3h-166.27v513.33c0 18.21 14.76 32.97 32.97 32.97M5063.26 4658.76c45.05 0 48.32 0 67.98 6.55 40.13 12.29 50.78 40.96 50.78 135.15 0 114.66-19.66 138.42-115.49 138.42h-281.75v-280.12zm-444.74 383.1c0 18.21 14.76 32.97 32.97 32.97h438.8c115.48 0 169.54-13.1 207.22-50.77 30.3-29.49 42.58-63.89 48.32-133.51 1.64-25.39 3.28-63.06 3.28-89.27 0-49.14-3.28-105.66-8.19-136.78-9.01-65.53-54.88-116.31-114.67-127.77-31.12-6.55-55.69-8.2-113.85-8.2h-493.88v513.33M7112.58 5074.83v-123.67h-441.47v-94.18h322.13v-108.12h-322.13v-96.65h447.2V4528.53H6507.3v523.84c0 12.41 10.05 22.46 22.46 22.46h582.82M7739.99 4739.85l-90.78 167.69c-11.63 21.5-42.52 21.41-54.03-.16l-89.44-167.53zm-117.03 334.98v0c69.13 0 132.75-37.71 165.94-98.36l245.12-447.94h-181.83l-54.05 97.47h-352.19l-52.42-97.47h-188.38l252.91 449.84c33.5 59.59 96.54 96.46 164.9 96.46M8790.05 4734.11c-.82-79.44-3.28-106.46-14.75-131.04-21.29-46.69-65.52-68.81-150.7-74.54-33.58-3.27-99.11-4.09-208.04-4.09-157.26 0-208.04 7.37-252.27 36.03-54.05 34.41-69.62 91.74-69.62 253.91 0 144.16 16.38 195.75 73.73 228.52 49.14 28.66 101.56 36.03 254.71 36.03 203.95 0 248.17-4.1 294.87-27.03 44.21-22.11 64.69-70.43 64.69-150.7v-18.02h-158.88c-3.29 59.79-15.57 64.71-159.72 64.71-135.97 0-160.54-3.28-181.01-21.3-19.65-18.02-23.76-40.13-23.76-128.59 0-131.04 12.29-140.87 172.01-140.87 123.68 0 141.68.81 164.61 10.64 23.76 9.83 32.77 27.03 32.77 66.34h161.36M9129.17 4939.7h-243.26v112.67c0 12.41 10.05 22.46 22.46 22.46h630.32V4939.7h-243.25v-411.17h-166.27v411.17M4116.41 5054.36c-34.4 17.2-61.42 20.47-167.08 20.47h-384.75c-18.21 0-32.97-14.76-32.97-32.97v-513.33h165.45v413.63h241.62c71.26 0 87.64-14.75 87.64-80.28 0-51.59-19.66-66.34-87.64-66.34h-157.29v-132.68h182.68c95.01 0 131.87 5.73 163.81 25.38 45.05 27.86 63.88 81.91 63.88 185.93 0 103.2-20.47 153.17-75.35 180.19M6282.03 4688.25c45.06 27.85 63.89 81.9 63.89 185.92 0 103.2-20.47 153.17-75.35 180.19-34.4 17.2-61.42 20.47-167.08 20.47h-291.85c-69.51 0-125.87-56.35-125.87-125.86v-420.44h165.45v413.63h241.62c71.25 0 87.63-14.75 87.63-80.28 0-51.59-19.65-66.33-87.63-66.33h-156.72c-8.38 0-13.06-9.69-7.86-16.26l198.71-250.76h188.5l-109 137.55c34.83 3.51 56.21 10.25 75.56 22.17M2490.4 4688.25c45.06 27.85 63.89 81.9 63.89 185.92 0 103.2-20.47 153.17-75.35 180.19-34.4 17.2-61.42 20.47-167.08 20.47h-291.85c-69.52 0-125.87-56.35-125.87-125.86v-420.44h165.45v413.63h241.62c71.25 0 87.63-14.75 87.63-80.28 0-51.59-19.65-66.33-87.63-66.33h-156.72c-8.38 0-13.06-9.69-7.86-16.26l198.71-250.76h188.49l-108.99 137.55c34.82 3.51 56.21 10.25 75.56 22.17" fill="#100f0d" transform="matrix(.13333 0 0 -.13333 0 1200)"/>
</svg>
