<svg xmlns="http://www.w3.org/2000/svg" xml:space="preserve" width="1498.72" height="1200">
  <path d="M5813.42 1664.92c20.02 42.96 31.29 90.91 31.29 141.53 0 116.56-59.58 219.31-149.87 279.45 53.83 55.37 111.98 110.06 173.99 162.36-72.61-42.67-140.9-91.72-204.02-144.6-46.5 24.51-99.48 38.25-155.66 38.25-185.27 0-335.5-150.17-335.5-335.46 0-83.7 30.68-160.2 81.3-219.02-64.19-138.83-75.46-250.59-18.84-288.31 60.64-40.46 192.5 32.83 271.64 152.26 0 0-122.42-110.43-189.55-85.12-41.45 15.69-41.57 78.89-7.47 169.63 55.58-40.85 124.21-64.9 198.42-64.9 91.92 0 175.13 36.92 235.77 96.75l11.89-22.46c146.22 11.84 582.83 23.34 582.83 23.34 0 21.13-289.08 2.04-526.22 96.3zm-599.44 141.53c0 163.06 132.19 295.12 295.17 295.12 43.7 0 85.18-9.46 122.5-26.4-159.97-141.42-283.81-305.81-357.13-447.8-37.99 49.68-60.54 111.69-60.54 179.08zm295.17-295.23c-68.94 0-132.33 23.62-182.56 63.35 58.39 131.86 177.5 308.85 339.89 481.67 82.89-52.3 137.93-144.6 137.93-249.79 0-44.93-10.11-87.54-28.07-125.71-51.52 23.83-99.62 53.68-140.36 91.34l89.06-167.01c-53.91-57.68-130.65-93.85-215.89-93.85v0M7814.98 1837.27l54.68 72.58-190.43.05 46.94 62.22h190.36l54.8 72.56h-380.2l-261.39-347h380.12l54.65 72.6h-190.3l50.33 66.99h190.44v0 0M8079.03 2044.68l-261.46-347h189.68l261.43 347h-189.65v0 0M8711.01 2044.68l-132.55-175.9-40.68 175.9h-148.32l-261.43-347h125.49l131.37 174.31 40.32-174.31h149.9l261.43 347h-125.53v0 0M9331.29 2044.68l-304.89.06c-52.3 0-98.49-24.96-127.72-63.74l-157.43-208.92c-5.94-7.71-9.29-17.47-9.29-27.97 0-25.6 20.7-46.43 46.37-46.43h304.88c52.17 0 98.6 25.01 127.72 63.72l37.99 50.22h43.96l55.08 73.01h-233.54l-73.76-97.8c-7.56-10-19.62-16.48-33.08-16.48h-53.72c-6.8 0-12.16 5.45-12.16 12 0 2.8.97 5.29 2.48 7.26l125.13 165.97c7.45 10.17 19.49 16.54 33.05 16.54h53.75c6.7 0 12.02-5.45 12.02-12.08 0-2.66-.86-5.21-2.37-7.18l-20.34-27.05h189.47l33.48 44.52c5.89 7.72 9.35 17.4 9.35 27.92 0 25.66-20.84 46.43-46.43 46.43v0 0M7435.65 1998.25c0 25.66-20.78 46.43-46.41 46.43h-304.77c-52.27 0-98.56-24.9-127.8-63.68l-157.46-208.92c-5.83-7.78-9.33-17.47-9.33-27.97 0-25.6 20.85-46.43 46.45-46.43h304.8c52.24 0 98.64 25.01 127.8 63.72l157.47 208.86c5.83 7.79 9.25 17.47 9.25 27.99v0zm-211.97-45.39-125.03-166.03c-7.59-10-19.61-16.48-33.15-16.48h-53.75c-6.62 0-12.02 5.45-12.02 12 0 2.8.9 5.29 2.41 7.26l125.1 165.97c7.52 9.99 19.54 16.54 33.08 16.54h53.72c6.62 0 12.09-5.45 12.09-12.08 0-2.66-.9-5.21-2.45-7.18v0 0" fill="#100f0d" transform="matrix(.13333 0 0 -.13333 0 1200)"/>
  <path d="M6718.68 1862.7c37.37 8.48 69.8 30.08 92.16 59.68l36.07 47.88c5.87 7.79 9.36 17.47 9.36 27.99 0 25.66-20.78 46.43-46.4 46.43h-194.98v0h-189.64l-261.51-347h186.33 211.61c52.28 0 98.64 25.01 127.84 63.72l36.9 48.94c4.68 6.2 7.41 13.99 7.41 22.34 0 12.31-5.94 23.16-15.15 30.02v0zm-176.08-44.77-23.43-31.17c-7.56-9.93-19.55-16.48-33.2-16.48h-77.86l50.4 66.99h74.52c6.55 0 12.05-5.4 12.05-12.01 0-2.79-.93-5.34-2.48-7.33v0zm101.66 134.93-19.9-26.53c-7.6-9.98-19.59-16.48-33.19-16.48l-77.91.05 46.95 62.22h74.41c6.7 0 12.06-5.45 12.06-12.08 0-2.66-.87-5.21-2.42-7.18v0 0M2228.14 1778.3h-42.1v-82.37h-42.72v218.83h84.82c45.19 0 72.23-31.05 72.23-68.23 0-37.2-27.04-68.23-72.23-68.23zm-2.15 98.35h-39.95v-59.94h39.95c19.37 0 31.65 11.99 31.65 29.82 0 17.81-12.28 30.12-31.65 30.12v0M2468 1695.93l-42.73 87.28h-30.73v-87.28h-42.73v218.83h85.76c44.57 0 70.99-30.44 70.99-67.01 0-30.73-18.75-49.79-39.95-57.48l48.87-94.34H2468Zm-33.2 180.72h-40.26v-57.8h40.26c18.75 0 31.04 11.98 31.04 28.9 0 16.89-12.29 28.9-31.04 28.9v0M2568.29 1695.93v218.83h144.14v-38.11h-101.41v-51.34h86.35v-38.1h-86.35v-53.17h101.41v-38.11h-144.14v0M2829.97 1694.1c-33.18 0-58.38 7.07-79.9 28.85l27.66 27.67c13.83-13.83 32.57-18.44 52.87-18.44 25.2 0 38.71 9.52 38.71 27.05 0 7.68-2.15 14.14-6.75 18.45-4.31 3.99-9.23 6.14-19.37 7.68l-26.43 3.69c-18.75 2.75-32.58 8.61-42.41 18.13-10.45 10.45-15.68 24.59-15.68 43.02 0 39.03 28.9 66.4 76.21 66.4 30.14 0 51.96-7.39 70.71-25.51l-27.06-26.75c-13.81 13.22-30.42 15.06-44.87 15.06-22.73 0-33.81-12.59-33.81-27.65 0-5.53 1.86-11.38 6.47-15.67 4.28-4 11.36-7.38 20.28-8.61l25.81-3.7c19.98-2.77 32.59-8.3 41.81-16.89 11.68-11.07 16.89-27.06 16.89-46.42 0-42.4-35.34-66.36-81.14-66.36v0M2966.87 1695.93v218.83h144.15v-38.11h-101.43v-51.34h86.35v-38.1h-86.35v-53.17h101.43v-38.11h-144.15v0M3297.67 1695.93l-86.66 134.29v-134.29h-42.72v218.83h38.11l86.68-134.01v134.01h42.71v-218.83h-38.12v0M3485.9 1876.65v-180.72h-42.72v180.72h-57.15v38.11h157.05v-38.11h-57.18v0M3593.26 1695.93v218.83h144.14v-38.11h-101.41v-51.34h86.36v-38.1h-86.36v-53.17h101.41v-38.11h-144.14v0M3931.48 1716.81c-14.45-14.42-35.04-20.88-57.79-20.88h-78.99v218.83h78.99c22.75 0 43.34-6.46 57.79-20.92 24.59-24.59 22.12-54.7 22.12-87.59 0-32.88 2.47-64.85-22.12-89.44zm-29.81 146.3c-7.39 8.92-17.23 13.54-31.98 13.54h-32.26v-142.61h32.26c14.75 0 24.59 4.61 31.98 13.52 7.99 9.84 9.22 25.51 9.22 58.69 0 33.2-1.23 47.03-9.22 56.86v0M4191.06 1695.93h-91.6v218.83h87.91c42.72 0 67.62-23.97 67.62-61.48 0-24.28-15.98-39.95-27.06-45.18 13.22-6.14 30.12-19.97 30.12-49.17 0-40.87-27.96-63-66.99-63zm-7.08 180.72h-41.79v-50.4h41.79c18.14 0 28.28 10.13 28.28 25.19 0 15.06-10.14 25.21-28.28 25.21zm2.77-88.83h-44.56v-53.78h44.56c19.37 0 28.59 12.28 28.59 27.03 0 14.76-9.22 26.75-28.59 26.75v0M4400.78 1785.66v-89.73h-42.4v89.73l-65.78 129.1h46.42l40.87-88.21 40.26 88.21h46.42l-65.79-129.1v0" fill="#100f0d" transform="matrix(.13333 0 0 -.13333 0 1200)"/>
  <path d="m 4561.71,4325.78 h -757.26 c 310.97,-538.88 843.07,-934.7 1471.82,-1061.65 -306.08,189.1 -560.38,570.81 -714.56,1061.65" fill="#3155ac" transform="matrix(.13333 0 0 -.13333 0 1200)"/>
  <path d="m 4561.71,4325.78 h -757.26 c 310.97,-538.88 843.07,-934.7 1471.82,-1061.65 -306.08,189.1 -560.38,570.81 -714.56,1061.65 z" fill="none" stroke="#2d5eb1" stroke-width="9.884" stroke-miterlimit="10" transform="matrix(.13333 0 0 -.13333 0 1200)"/>
  <path d="m 6149.25,3264.13 c 628.76,126.95 1160.85,522.77 1471.83,1061.65 H 6863.82 C 6709.63,3834.94 6455.33,3453.23 6149.25,3264.13" fill="#c8e66c" transform="matrix(.13333 0 0 -.13333 0 1200)"/>
  <path d="m 6149.25,3264.13 c 628.76,126.95 1160.85,522.77 1471.83,1061.65 H 6863.82 C 6709.63,3834.94 6455.33,3453.23 6149.25,3264.13 Z" fill="none" stroke="#b9d96f" stroke-width="9.884" stroke-miterlimit="10" transform="matrix(.13333 0 0 -.13333 0 1200)"/>
  <path d="m 5873.62,3240.12 c 385.02,91.32 714.04,505.24 900.3,1085.66 h -636.19 c -52.29,-491.6 -141.25,-900.51 -264.11,-1085.66" fill="#96d021" transform="matrix(.13333 0 0 -.13333 0 1200)"/>
  <path d="m 5873.62,3240.12 c 385.02,91.32 714.04,505.24 900.3,1085.66 h -636.19 c -52.29,-491.6 -141.25,-900.51 -264.11,-1085.66 z" fill="none" stroke="#8cc625" stroke-width="9.884" stroke-miterlimit="10" transform="matrix(.13333 0 0 -.13333 0 1200)"/>
  <path d="m 4651.61,4325.78 c 190.43,-593.46 530.08,-1013.16 926.26,-1091.61 -124.99,182.14 -215.35,594.55 -268.23,1091.61 h -658.03" fill="#100f0d" transform="matrix(.13333 0 0 -.13333 0 1200)"/>
  <path d="m 4651.61,4325.78 c 190.43,-593.46 530.08,-1013.16 926.26,-1091.61 -124.99,182.14 -215.35,594.55 -268.23,1091.61 z" fill="none" stroke="#100f0d" stroke-width="9.884" stroke-miterlimit="10" transform="matrix(.13333 0 0 -.13333 0 1200)"/>
  <path d="M 6051.06,4325.78 H 5396.3 c 75.43,-697.03 214.75,-1099.14 324.98,-1104.87 2.23,0.03 4.46,0.26 6.69,0.31 109.94,10.15 248.1,411.48 323.09,1104.56" fill="#397b33" transform="matrix(.13333 0 0 -.13333 0 1200)"/>
  <path d="M 6051.06,4325.78 H 5396.3 c 75.43,-697.03 214.75,-1099.14 324.98,-1104.87 2.23,0.03 4.46,0.26 6.69,0.31 109.94,10.15 248.1,411.48 323.09,1104.56 z" fill="none" stroke="#347935" stroke-width="9.884" stroke-miterlimit="10" transform="matrix(.13333 0 0 -.13333 0 1200)"/>
  <path d="m 5820.05,7709.57 c -4.02,1.61 -8.39,2.52 -12.99,2.52 H 3799.2 c -19.27,0 -34.89,-15.6 -34.89,-34.88 0,-19.28 15.62,-34.88 34.89,-34.88 H 5150.92 C 4167.4,7393.27 3435.44,6505.96 3423.54,5448.85 H 1534.88 c -19.26,0 -34.88,-15.6 -34.88,-34.89 0,-19.28 15.62,-34.88 34.88,-34.88 h 1932.09 916.31 3575.26 c 24.09,0 43.61,19.52 43.61,43.61 0,1226.43 -969.34,2230.65 -2182.1,2286.88" fill="#100f0d" transform="matrix(.13333 0 0 -.13333 0 1200)"/>
  <path d="M3171.06 6546.82h-782.1c-19.27 0-34.88 15.6-34.88 34.88 0 19.28 15.61 34.88 34.88 34.88h782.1c19.26 0 34.88-15.6 34.88-34.88 0-19.28-15.62-34.88-34.88-34.88M3673.15 3922.41H3045.3c-19.26 0-34.88 15.6-34.88 34.88 0 19.28 15.62 34.88 34.88 34.88h627.85c19.26 0 34.88-15.6 34.88-34.88 0-19.28-15.62-34.88-34.88-34.88M3476.42 6772.77h-498.33c-19.27 0-34.89 15.6-34.89 34.89 0 19.27 15.62 34.88 34.89 34.88h498.33c19.27 0 34.89-15.61 34.89-34.88 0-19.29-15.62-34.89-34.89-34.89" fill="#100f0d" transform="matrix(.13333 0 0 -.13333 0 1200)"/>
  <path d="m 9018.27,4285.79 c -9.77,0 -18.33,3.8 -25.65,9.2 -10.89,8.02 -18.45,20.32 -18.45,34.87 0,14.56 7.55,26.86 18.44,34.89 7.32,5.39 15.89,9.2 25.66,9.2 24.31,0 44.1,-19.76 44.1,-44.09 0,-24.32 -19.79,-44.07 -44.1,-44.07 z M 6149.25,3264.13 c 299.64,185.12 549.64,554.86 704.69,1030.86 h 748.99 C 7289.65,3771.85 6765.96,3388.65 6149.25,3264.13 Z m -14.87,1030.86 h 629.45 c -187.9,-564.23 -512.04,-965.17 -890.21,-1054.86 120.29,181.25 208.06,577.02 260.76,1054.86 z M 5727.97,3221.22 c -2.23,-0.05 -4.46,-0.28 -6.69,-0.31 -108.6,5.64 -245.42,396.01 -321.58,1074.08 h 647.96 C 5971.95,3620.83 5836.27,3231.23 5727.97,3221.22 Z M 4661.69,4294.99 h 651.3 c 53.3,-483.26 142.48,-882.46 264.88,-1060.82 -389.29,77.09 -723.98,483.67 -916.18,1060.82 z m -839.1,0 h 748.99 c 155.04,-476 405.04,-845.74 704.69,-1030.86 -616.7,124.52 -1140.4,507.72 -1453.68,1030.86 z m -1366.53,2.5 c -7.84,-7.09 -18,-11.7 -29.37,-11.7 -24.33,0 -44.11,19.75 -44.11,44.07 0,24.33 19.78,44.09 44.11,44.09 11.37,0 21.53,-4.61 29.37,-11.71 8.9,-8.07 14.72,-19.43 14.72,-32.38 0,-12.94 -5.82,-24.3 -14.72,-32.37 z m 6562.21,116.31 c -33.8,0 -62.8,-20.2 -76.1,-49.05 v 0 H 2502.78 v 0 c -13.29,28.85 -42.3,49.05 -76.09,49.05 -46.28,0 -83.93,-37.67 -83.93,-83.94 0,-46.25 37.65,-83.93 83.93,-83.93 33.79,0 62.8,20.2 76.09,49.06 v 0 h 1218.31 c 303.7,-534.29 816.1,-935.1 1425.53,-1090.75 H 3300.06 c -19.26,0 -34.88,-15.6 -34.88,-34.88 0,-19.29 15.62,-34.89 34.88,-34.89 H 5641.2 c 23.77,-0.73 47.62,-1.15 71.56,-1.15 3.03,0 6,0.21 9.03,0.22 0.63,0 1.25,-0.22 1.89,-0.22 0.97,0 1.91,0.32 2.88,0.35 15.73,0.08 31.4,0.39 47.05,0.8 h 33.45 c 3.63,0 7.14,0.56 10.43,1.59 808.61,36.6 1509.21,494.4 1886.95,1158.93 h 1237.73 c 13.3,-28.86 42.3,-49.06 76.1,-49.06 46.28,0 83.92,37.68 83.92,83.93 0,46.27 -37.64,83.94 -83.92,83.94" fill="#100f0d" transform="matrix(.13333 0 0 -.13333 0 1200)"/>
  <path d="m 7914.33,5470.31 c -0.6,29.03 -2.13,57.85 -3.86,86.61 H 3794.8 c -17.98,-28.52 -35.6,-57.38 -52.84,-86.61 h 4172.37" fill="#cceef7" transform="matrix(.13333 0 0 -.13333 0 1200)"/>
  <path d="M7883.52 5794.39c-10.44 61.12-23.89 121.18-39.28 180.48H4103.55c-49.78-57.98-98.24-118.16-145.07-180.48h3925.04M3731.73 5974.87c-52.57-57.13-104.82-117.21-156.66-180.48h99.88c46.94 63.59 94.91 123.69 143.61 180.48h-86.83" fill="#76cbe6" transform="matrix(.13333 0 0 -.13333 0 1200)"/>
  <path d="M7775.94 6188.32c.38 0 .72.13 1.09.14-35.24 94.68-76.92 186.18-124.31 274.23H4615.68C4509.19 6380.42 4404.1 6288.72 4302.5 6188.32h3473.44M4281.86 6462.69c-113.22-79.95-225.96-171-337.65-274.37h75.97c109.66 105.34 220.9 196.14 330.65 274.37h-68.97M3772.56 6462.69c-47.39-88.05-89.08-179.55-124.31-274.23.37-.01.71-.14 1.08-.14h110.76c113.92 105.15 230.04 195.96 345.13 274.37h-332.66" fill="#3155ac" transform="matrix(.13333 0 0 -.13333 0 1200)"/>
  <path d="M5712.05 6924.72c88.76 15.12 889.62 136.16 922.29 150.63 8.98 3.98 17.33 8.92 24.6 15.3 14.9 13.06 14.98 31.03.74 44.54-9.75 9.23-21.43 15.24-34.21 18.69-32.07 8.64-64.71 13.57-97.99 14.28-76.41 1.62-152.75-1.29-229.08-3.89-43.45-1.47-86.62.73-129.56 7.14-53.84 8.02-105.67 24.17-156.89 41.81-54.98 18.94-109.19 39.98-165.02 56.52-51.56 15.26-103.19 16.61-155.5 5.26-7.77-1.68-15.46-4.39-16.87-12.27-1.41-7.9 6.6-11.1 12.54-14.43 44.2-24.88 259.1-144.87 322.51-180.14-2.26-4.84-5.44-4.82-8.02-5.78-28.83-10.87-58.08-20.48-87.66-29.05-49.89-14.46-100.15-27.18-152.13-31.74-29.38-2.59-58.16-1.04-85.76 10.44-14.21 5.9-28.43 11.76-42.5 17.95-12.58 5.54-25.33 10.12-38.95 12.58-12.5 2.26-23.73-1.11-34.97-5.47-6.16-2.39-7.29-6.73-4.15-12.31 1.4-2.48 3.11-4.77 4.61-7.2 8.08-13.11 46.98-77.77 54.55-91.17 7.53-13.33 40.85-11.33 97.42-1.69M6109.29 6956.43c-8.35-1.41-13.13-4.96-16.88-12.04-15.43-29.17-31.19-58.16-46.76-87.26-7.55-14.1-4.41-19.26 11.86-19.68 1.7-.05 3.4.24 5.11.27 48.12.94 88.37 20.99 122.43 53.26 31.39 29.74 60.99 61.37 92.3 93.12-2.85.56-3.96 1.1-4.94.93-54.37-9.58-108.68-19.45-163.12-28.6M4350.83 6462.69c-109.75-78.23-220.99-169.03-330.65-274.37-68.07-65.39-135.52-136.38-201.62-213.45-48.7-56.79-96.67-116.89-143.61-180.48-54.87-74.32-108.33-153.36-159.9-237.51-1.74-28.75-3.25-57.55-3.86-86.57h169.88c476.86 815.21 1247.28 1359.31 1830.24 1472.68 0 0-557.66-50.66-1160.48-480.3" fill="#fff" transform="matrix(.13333 0 0 -.13333 0 1200)"/>
  <path d="m 4105.22,6462.69 c -115.09,-78.41 -231.21,-169.22 -345.13,-274.37 -55.56,-51.29 -110.61,-105.96 -164.75,-164.3 -4.65,-16.39 -9.77,-32.6 -14.06,-49.15 -7.98,-30.75 -15.37,-61.74 -22.16,-92.95 506.23,588.4 1200,963.89 1811.62,1070.76 0,0 -616.23,-47.62 -1265.52,-489.99" fill="#fff" transform="matrix(.13333 0 0 -.13333 0 1200)"/>
  <path d="m2950.48 4988.25-3.5-6.55 90.87-167.86h63.39l-94.51 174.57c-12.12 22.39-44.27 22.29-56.25-.16M3098.4 4695.31l56.27-101.46h63.39l-56.28 101.46h-63.38M2947.73 5159.73c-10.41 1.7-20.96 2.85-31.71 2.85-71.16 0-136.79-38.4-171.67-100.43l-263.28-468.3h63.37l263.3 468.3c29.61 52.67 81.47 88.03 139.99 97.58M4331.05 5162.58h-63.38c-18.95 0-34.32-15.37-34.32-34.32v-534.41h63.38v534.41c0 18.95 15.37 34.32 34.32 34.32M4652.54 5162.58h-63.39c-18.95 0-34.32-15.37-34.32-34.32v-534.41h63.38v534.41c0 18.95 15.37 34.32 34.33 34.32M5084.62 5021.04h-63.38c99.77 0 120.23-24.73 120.23-144.1 0-98.06-11.09-127.91-52.86-140.7-20.47-6.82-23.88-6.82-70.78-6.82h63.38c46.9 0 50.31 0 70.77 6.82 41.78 12.79 52.87 42.64 52.87 140.7 0 119.37-20.46 144.1-120.23 144.1M6607.92 5162.58h-63.38c-12.91 0-23.38-10.47-23.38-23.39v-545.34h63.38v545.34c0 12.92 10.47 23.39 23.38 23.39M7865 4695.31l56.28-101.46h63.38l-56.28 101.46H7865M7714.33 5159.73c-10.41 1.7-20.95 2.85-31.71 2.85-71.16 0-136.78-38.39-171.66-100.42l-263.3-468.31h63.38l263.3 468.31c29.62 52.67 81.48 88.02 139.99 97.57M7717.09 4988.25l-3.5-6.55 90.87-167.86h63.38l-94.5 174.57c-12.12 22.39-44.27 22.29-56.25-.16M8758.92 4738.8c24.74 10.23 34.11 28.14 34.11 69.07h-63.37c0-40.93-9.38-58.84-34.12-69.07-20.51-8.79-37.46-10.65-123.51-11 5.15-.03 10.03-.08 15.52-.08 128.75 0 147.51.85 171.37 11.08M8621.65 5030.42c-12.45 0-23.71-.04-34.45-.1 122.72-.89 134.16-9.3 137.35-67.26h63.38c-3.42 62.24-16.2 67.36-166.28 67.36M8237.09 4891.44c0 150.07 17.06 203.78 76.74 237.89 48.71 28.4 100.71 36.7 243.09 37.44-13.07.05-26.71.08-41.28.08-159.45 0-214.02-7.69-265.18-37.52-59.69-34.11-76.75-87.82-76.75-237.89 0-168.84 16.2-228.52 72.49-264.34 46.04-29.84 98.9-37.52 262.62-37.52 15.77 0 30.46.02 44.52.06-148.79.61-199.56 8.82-243.76 37.46-56.28 35.82-72.49 95.5-72.49 264.34M9084.2 5162.58h-63.38c-12.92 0-23.38-10.47-23.38-23.39v-117.3h63.38v117.3c0 12.92 10.47 23.39 23.38 23.39M9250.67 5021.89v-428.04h63.38v428.04h-63.38M3683.33 4871.82v-138.13h63.38v138.13h-63.38M4001.69 4940.88c0 68.22-17.05 83.57-91.23 83.57h-63.38c74.18 0 91.23-15.35 91.23-83.57 0-53.71-20.46-69.06-91.23-69.06h63.38c70.77 0 91.23 15.35 91.23 69.06M3521 5162.58h-63.38c-18.96 0-34.32-15.37-34.32-34.32v-534.41h63.38v534.41c0 18.95 15.36 34.32 34.32 34.32M5860.31 5162.58h-63.38c-72.36 0-131.03-58.67-131.03-131.04v-437.69h63.38v437.69c0 72.37 58.67 131.04 131.03 131.04M6244.3 4940.88c0 68.22-17.05 83.57-91.23 83.57h-63.38c74.17 0 91.22-15.35 91.22-83.57 0-53.71-20.46-69.06-91.22-69.06h63.38c70.76 0 91.23 15.35 91.23 69.06M5989.91 4871.82h-63.38c-8.73 0-13.6-10.08-8.18-16.92l206.87-261.05h63.38l-206.87 261.05c-5.42 6.84-.55 16.92 8.18 16.92M1913 5162.58h-63.37c-72.37 0-131.04-58.67-131.04-131.04v-437.69h63.38v437.69c0 72.37 58.67 131.04 131.03 131.04M2042.6 4871.82h-63.38c-8.73 0-13.6-10.08-8.18-16.92l206.87-261.05h63.38l-206.87 261.05c-5.42 6.84-.55 16.92 8.18 16.92M2296.98 4940.88c0 68.22-17.05 83.57-91.22 83.57h-63.39c74.18 0 91.24-15.35 91.24-83.57 0-53.71-20.47-69.06-91.24-69.06h63.39c70.76 0 91.22 15.35 91.22 69.06" fill="#d4d3d1" transform="matrix(.13333 0 0 -.13333 0 1200)"/>
  <path d="M9567.16 4612.83c.18-4.09.62-5.06 2.75-5.86 1.33-.53 6.39-.89 12.06-.89 20.85 0 23.33.62 23.33 5.5 0 2.4-1.15 4.17-3.02 4.79-1.94.62-1.94.62-11.26.71h-16.32c-10.9 0-15.44.62-19.24 2.57-4.26 2.22-6.22 6.92-6.22 14.99 0 10.65 3.02 15.17 11.54 17.21 4.78 1.25 11.71 1.69 24.66 1.69 20.75 0 25.54-.53 29.79-3.29 4.08-2.75 5.42-6.38 5.42-15.25h-17.57c0 5.15-1.77 5.85-13.39 5.85-5.77 0-13.48-.17-16.32-.35-4.79-.35-6.39-1.6-6.39-4.97 0-2.48 1.25-4.08 3.82-4.7 1.06-.26 1.41-.35 7.27-.44h16.76c1.6 0 9.58-.27 12.6-.44 11.27-.54 15.7-5.51 15.7-17.39 0-10.91-3.19-15.7-11.88-17.57-4.44-.97-13.23-1.5-26.09-1.5-20.49 0-25.01.44-30.24 3.1-3.63 1.78-5.5 6.3-5.5 13.31 0 .53 0 1.68.09 2.93h17.65M9637.05 4653.1h28.56l21.55-39.3 21.47 39.3h28.39v-59.17h-17.57l.89 45.68-26.25-45.68h-14.38l-25.81 45.68.54-45.68h-17.39v59.17M3101.24 4813.84l-94.51 174.57c-12.12 22.38-44.27 22.29-56.25-.16l-93.11-174.41zm-121.84 348.74v0c71.96 0 138.2-39.26 172.75-102.4l255.2-466.33h-189.29l-56.28 101.46h-366.65l-54.57-101.46h-196.12l263.3 468.3c34.87 62.03 100.49 100.43 171.66 100.43M4331.05 5162.58h138.78v-568.73h-173.1v534.41c0 18.95 15.37 34.32 34.32 34.32M5081.21 4729.42c46.9 0 50.31 0 70.77 6.82 41.78 12.79 52.87 42.64 52.87 140.69 0 119.38-20.46 144.11-120.23 144.11H4791.3v-291.62zm-463 398.84c0 18.95 15.37 34.32 34.32 34.32h456.82c120.22 0 176.5-13.64 215.72-52.86 31.56-30.7 44.34-66.52 50.31-138.99 1.71-26.44 3.42-65.65 3.42-92.94 0-51.16-3.42-110-8.53-142.4-9.38-68.21-57.13-121.08-119.38-133.01-32.4-6.82-57.98-8.53-118.52-8.53h-514.16v534.41M7214.67 5162.58v-128.75h-459.59v-98.05h335.36V4823.22H6755.08V4722.6h465.56v-128.75h-636.1v545.34c0 12.92 10.47 23.39 23.38 23.39h606.75M7867.85 4813.84l-94.51 174.57c-12.12 22.38-44.27 22.29-56.25-.16l-93.11-174.41zM7746 5162.58v0c71.98 0 138.22-39.26 172.77-102.4l255.18-466.33h-189.29l-56.28 101.46h-366.65l-54.57-101.46h-196.11l263.29 468.31c34.88 62.02 100.51 100.42 171.66 100.42M8961.01 4807.87c-.86-82.71-3.41-110.84-15.35-136.43-22.17-48.6-68.21-71.63-156.88-77.59-34.96-3.41-103.18-4.27-216.59-4.27-163.71 0-216.58 7.68-262.61 37.52-56.28 35.82-72.49 95.5-72.49 264.34 0 150.06 17.06 203.78 76.75 237.89 51.16 29.83 105.73 37.52 265.18 37.52 212.31 0 258.35-4.27 306.95-28.15 46.05-23.02 67.37-73.32 67.37-156.89v-18.75h-165.41c-3.41 62.24-16.21 67.35-166.28 67.35-141.55 0-167.12-3.4-188.44-22.16-20.46-18.76-24.73-41.78-24.73-133.87 0-136.43 12.79-146.66 179.07-146.66 128.76 0 147.51.85 171.37 11.08 24.74 10.23 34.11 28.14 34.11 69.07h167.98M9314.06 5021.89h-253.24v117.3c0 12.92 10.47 23.39 23.38 23.39h656.19v-140.69h-253.23v-428.04h-173.1v428.04M4095.48 5141.26c-35.81 17.9-63.94 21.31-173.94 21.31H3521c-18.96 0-34.32-15.36-34.32-34.31v-534.41h172.24v430.6h251.54c74.18 0 91.23-15.35 91.23-83.57 0-53.71-20.46-69.06-91.23-69.06h-163.75v-138.13h190.18c98.91 0 137.29 5.96 170.53 26.42 46.91 29.01 66.51 85.27 66.51 193.57 0 107.43-21.31 159.45-78.45 187.58M6350.03 4760.12c46.9 29 66.51 85.26 66.51 193.56 0 107.43-21.32 159.45-78.45 187.58-35.81 17.9-63.94 21.32-173.94 21.32h-303.84c-72.36 0-131.03-58.67-131.03-131.04v-437.69h172.24v430.6h251.55c74.17 0 91.22-15.35 91.22-83.57 0-53.71-20.46-69.06-91.22-69.06h-163.16c-8.73 0-13.6-10.08-8.18-16.92l206.87-261.05h196.23l-113.47 143.2c36.25 3.65 58.51 10.66 78.67 23.07M2402.72 4760.12c46.91 29 66.51 85.26 66.51 193.56 0 107.43-21.32 159.45-78.45 187.58-35.81 17.9-63.95 21.32-173.94 21.32H1913c-72.36 0-131.03-58.67-131.03-131.04v-437.69h172.24v430.6h251.55c74.17 0 91.22-15.35 91.22-83.57 0-53.71-20.46-69.06-91.22-69.06H2042.6c-8.73 0-13.6-10.08-8.18-16.92l206.87-261.05h196.23l-113.47 143.2c36.25 3.65 58.52 10.66 78.67 23.07" fill="#100f0d" transform="matrix(.13333 0 0 -.13333 0 1200)"/>
</svg>
