<svg xmlns="http://www.w3.org/2000/svg" viewBox="163.25 315.42 1423.89 690.96">
	<path fill="#f9b00b" d="m195.87 622.9 1277.97-304.93c57.79-13.79 113.3 30.03 113.3 89.44v330.23a36.54 36.54 0 0 1-31.27 36.15L211.86 969.86a42.48 42.48 0 0 1-48.61-42.03V664.2a42.48 42.48 0 0 1 32.62-41.32"/>
	<path fill="#100f0d" d="m306.63 748.17-.03-37.2c0-8.96-6.66-15.54-14.98-13.7-8.32 1.85-14.97 11.37-14.96 20.31l.05 129.16c0 8.94 6.67 14.7 15 12.99 8.33-1.73 14.99-10.28 14.98-19.24l-.02-37.64 40.79-8.65.04 42.73c.04 35.54-23.68 69.12-60.76 76.61l-2.5.5c-41.24 8.34-63.32-20.55-63.32-60.12V723.65c0-35.12 26.6-70.07 63.6-78.47l2.08-.47c45.31-10.3 61.15 24.35 61.18 59.88l.04 34.64-41.2 8.94m176.71 121.11-38.7 7.84-.2-105.29-22.47 4.77.17 105.07-56.24 11.38-.29-243.88a21.82 21.82 0 0 1 17-21.3l38.27-8.69.17 105.97 22.47-4.87-.19-106.19 56.95-12.9.55 246.66a21.82 21.82 0 0 1-17.5 21.43m85.04-144.32-8.1 66.35 19.57-4.07-8.02-62.3c-.26-2.02-3.2-2.01-3.45.02zm20.4 122.99-3.42-28.74-27.9 5.72-2.84 29.93-39.58 8 34.3-272.8 50.3-11.4 43.3 258.33-54.16 10.96m121.85-187.93c11.65-3.46 18.27-14.21 18.21-27.72l-.03-8.38c-.07-16.75-5.92-23.38-18.4-20.6l-5.4 1.2.21 56.68zm-58.2-93.33 69.43-15.74c37-8.4 57.92 17.76 58.08 54.24.17 39.28-7.7 51.28-23.89 62.25v.93c16.27 4.45 25.48 16.52 25.15 35.31-1.01 54.51-1 59.66-.53 70.33.49 15.81 6.4 33.8 6.4 33.8l-51.24 10.38c-5.02-5.98-7.18-23.7-7.23-36.28l.16-65.26c-.03-8.37-5.05-13.36-12.54-11.77l-10 2.13.45 117.08-53.32 10.79-.91-268.2M929.1 779.07l-28.74 5.82-5.47-10.24c-5.38 8.18-20.75 20.26-37 23.54-20 4.04-58.8-3.12-59.15-81.35l-.47-104.92c-.27-59.02 37.87-91.6 65.72-97.92l2.91-.66c32.43-7.37 57.57 24.86 57.76 59.43l.18 34.1-38.69 8.43-.15-29.27c-.06-11.33-8.42-18.92-17.99-16.8-9.15 2.04-17.42 13.3-17.36 24.59l.66 136c.04 8.46 6.74 14.14 13.82 12.68 7.5-1.55 13.7-9.92 13.66-18.4l-.13-25.48-13.32 2.8-.23-46.64 63.25-13.57.75 137.86m74.43-177.39 40.88-8.82.32 51.15-40.47 8.6.32 54.84 54.55-11.3.36 56.53-87.4 17.69a19.3 19.3 0 0 1-23.13-18.81l-1.31-236.29a19.3 19.3 0 0 1 15.03-18.93l95.04-21.55.38 58.45-54.9 12.17.33 56.27m125.59 85.26c11.66-2.4 24.53-10.4 24.44-23.92l-.96-136.69c-.12-17.87-10.12-17.59-24.68-14.35zm77.6-53.47c.87 62.03-33.92 96.28-66.83 102.94l-62.9 12.73-1.8-278.3 74.82-16.97c28.68-6.5 55.06 12.79 55.52 74.9l1.19 104.7m112.1-70.44c.12 14.69 6.84 21.15 17.25 19 10.41-2.16 17.01-11.4 16.9-26.13l-1.77-147.65 40.75-9.24 1.9 158.72c.34 38.94-23.14 75.28-62.3 83.19l-2.5.5c-43.33 8.75-65.69-23.35-66.02-66.74l-1.48-133.5a15.56 15.56 0 0 1 12.12-15.35l43.45-9.85 1.7 147.05"/>
	<path fill="#100f0d" d="m1472.81 493.71-5.41 1.18-.55-60.51 5.4-1.2c12.48-2.78 18.38 4.38 18.55 22.27l.08 8.94c.13 14.41-6.43 25.8-18.07 29.32zm10.6-115.77L1414 393.68l1.45 251.26-142.67 30.13-42.13 73.73-631.22 131c-3.23 1.12-1.7 5.97 1.58 5.03l668.8-105.75 40.16-68.98 126.52-23.5a40.12 40.12 0 0 0 32.8-39.45V543.68l15.63-3.33c37.04-7.89 57.54-44.76 57.09-91.67-.5-51.4-21.59-79.13-58.59-70.74"/>
	<path fill="#74c5e1" d="m1408.57 668-124.34 20.65-39.71 70.84-157.62 33.72c-.97.2-.7 1.66.28 1.5l170.76-24.8 39.83-69.28 111.11-31.13c.95-.24.65-1.66-.3-1.5"/>
	<path fill="#fff" d="M906.2 936.93h-5.3v7.96h5.3c2.57 0 4.2-1.59 4.2-3.96 0-2.36-1.63-4-4.2-4zm.28 13.07h-5.59v10.94h-5.67v-29.07h11.26c6 0 9.6 4.13 9.6 9.06 0 4.94-3.6 9.07-9.6 9.07m27.45-13.07h-5.35v7.68h5.35c2.49 0 4.12-1.6 4.12-3.84 0-2.24-1.63-3.84-4.12-3.84zm4.4 24-5.67-11.59h-4.08v11.6h-5.67v-29.07h11.38c5.92 0 9.43 4.05 9.43 8.9a7.85 7.85 0 0 1-5.3 7.64l6.49 12.53h-6.58m13.32 0v-29.07h19.15v5.06h-13.47v6.82h11.47v5.06h-11.47v7.06h13.47v5.07h-19.15m34.75.24c-4.4 0-7.75-.94-10.6-3.83l3.67-3.68c1.84 1.84 4.32 2.45 7.02 2.45 3.35 0 5.14-1.27 5.14-3.6 0-1.01-.28-1.87-.9-2.44-.57-.53-1.22-.82-2.57-1.02l-3.5-.5c-2.5-.36-4.33-1.14-5.64-2.4-1.39-1.39-2.08-3.27-2.08-5.71 0-5.19 3.83-8.82 10.12-8.82 4 0 6.9.98 9.39 3.39l-3.6 3.55c-1.83-1.76-4.04-2-5.95-2-3.02 0-4.5 1.67-4.5 3.67 0 .73.25 1.51.87 2.08.56.53 1.5.98 2.69 1.15l3.43.49c2.65.36 4.32 1.1 5.55 2.24 1.55 1.47 2.24 3.6 2.24 6.16 0 5.64-4.7 8.82-10.77 8.82m18.18-.24v-29.07h19.14v5.06h-13.47v6.82h11.47v5.06h-11.47v7.06h13.47v5.07h-19.14m43.93 0-11.5-17.84v17.84h-5.68v-29.07h5.06l11.5 17.8v-17.8h5.68v29.07h-5.06m25-24.01v24h-5.68v-24h-7.59v-5.06h20.86v5.06h-7.6m14.26 24.01v-29.07h19.15v5.06h-13.47v6.82h11.47v5.06h-11.47v7.06h13.47v5.07h-19.15m40.96-22.21c-.98-1.18-2.29-1.8-4.24-1.8h-4.29v18.94h4.29c1.95 0 3.26-.6 4.24-1.8 1.06-1.3 1.23-3.38 1.23-7.79 0-4.4-.17-6.24-1.23-7.55zm3.96 19.43c-1.92 1.92-4.65 2.78-7.67 2.78h-10.5v-29.07h10.5c3.02 0 5.75.86 7.67 2.78 3.27 3.27 2.94 7.26 2.94 11.63 0 4.37.33 8.61-2.94 11.88m33.91-9.43h-5.93v7.14h5.92c2.57 0 3.8-1.63 3.8-3.59s-1.23-3.55-3.8-3.55zm-.38-11.8h-5.55v6.7h5.55c2.41 0 3.76-1.35 3.76-3.35s-1.35-3.35-3.76-3.35zm.94 24H1155v-29.06h11.67c5.68 0 8.98 3.19 8.98 8.17 0 3.22-2.12 5.3-3.59 6 1.76.81 4 2.65 4 6.53 0 5.43-3.71 8.37-8.9 8.37m27.86-11.92v11.92h-5.63v-11.92l-8.74-17.15h6.16l5.43 11.72 5.35-11.72h6.16l-8.73 17.15"/>
	<path fill="#100f0d" d="m1331.67 759.57 2.73-3.9c1.77 1.35 3.67 2.08 5.97 1.7 1.83-.3 2.95-1.3 2.99-2.62v-.07c.04-1.26-.64-1.79-4-2.16-4.07-.42-6.67-1.18-6.55-5.57v-.07c.1-4.01 3.14-7.28 7.3-8.15 2.96-.62 5.46-.1 7.46 1.34l-2.42 4.24c-1.76-1.05-3.51-1.54-5.23-1.2-1.7.34-2.63 1.38-2.65 2.47l-.02.06c-.02 1.47.83 1.79 4.31 2.12 4.1.44 6.36 1.68 6.25 5.68v.06c-.13 4.55-3.26 7.59-7.64 8.27-3.06.47-6.13-.22-8.5-2.2m20.49-23.02 4.83-1 5.04 8.89 5.65-11.11 4.83-1-.76 24.19-4.43.69.48-15.65-6.01 11.2-.12.02-5.36-8.93-.44 15.14-4.38.69.67-23.13"/>
	<path fill="#fff" d="M1262.04 996.1c0 4.5 1.05 7.91 4.62 7.91a3.9 3.9 0 0 0 3.38-1.92v-3.07l-2.44-.23v-2.15h8.7v2.15l-1.78.2v7.12h-2.24c-.2-.54-.43-1.08-1.02-1.08-.94 0-2.27 1.34-5.28 1.34-5.47 0-8.99-3.04-8.99-10.13 0-6.86 4.23-10.35 9.62-10.35 2.6 0 3.68 1.08 4.56 1.08.43 0 .6-.31.8-.82h1.95l.2 6.58h-2.13c-.85-3.35-2.26-4.63-4.99-4.63-3.43 0-4.96 2.92-4.96 8m24.3 1.36v-.5c0-2.59-.37-3.72-1.84-3.72-1.68 0-2.19 1.87-2.24 4.22zm-1.67-5.93c3.63 0 6.12 1.96 6.12 6.27 0 .37-.03 1.14-.06 1.53h-8.5c.03 2.64.62 4.68 3.17 4.68 1.76 0 2.59-1.02 3.27-2.55l2 .7c-.84 2.67-2.94 4.2-5.98 4.2-4.59 0-7.06-2.89-7.06-7.17 0-4.88 3-7.66 7.04-7.66m13.41.2.2 2.7h.17c.7-1.45 1.92-2.9 4.79-2.9 2.8 0 4.4 1.3 4.4 4.63v7.71l1.78.2v1.98h-7.51v-1.98l1.33-.2v-7.15c0-1.53-.2-2.55-1.76-2.55-1.53 0-2.72.9-2.72 3.2v6.5l1.44.2v1.98h-7.6v-1.98l1.76-.2v-9.78l-1.76-.2v-1.96l5.48-.2m21.38 5.73v-.5c0-2.59-.37-3.72-1.85-3.72-1.67 0-2.18 1.87-2.24 4.22zm-1.68-5.93c3.63 0 6.13 1.96 6.13 6.27 0 .37-.03 1.14-.06 1.53h-8.5c.02 2.64.62 4.68 3.17 4.68 1.76 0 2.58-1.02 3.26-2.55l2.02.7c-.85 2.67-2.95 4.2-5.99 4.2-4.6 0-7.06-2.89-7.06-7.17 0-4.88 3-7.66 7.03-7.66m19.65 3.24h6.92v-6.18l-1.84-.2v-2.19h8.4v2.16l-1.88.2v15.11l1.88.23v2.15h-8.4v-2.15l1.84-.23v-6.44h-6.92v6.44l1.88.23v2.15h-8.43v-2.15l1.87-.23V988.6l-1.87-.2v-2.19h8.43v2.16l-1.88.2v6.2m23.22 7.12v-1.76h-1.1c-1.79 0-2.3.7-2.3 2.18 0 1.33.46 1.93 1.56 1.93.96 0 1.84-.62 1.84-2.35zm0-3.24v-2.04c0-2.18-.5-3.46-2.52-3.46-.85 0-1.61.2-1.61.94 0 .11.03.25.05.4h1.08c.08.36.16.76.16 1.1 0 1.13-.7 1.96-2.17 1.96-1.53 0-2.21-1-2.21-2.24 0-2.24 2.04-3.78 5.69-3.78 3.77 0 5.93 1.28 5.93 5.36v5.85c0 1.02.06 1.5.66 1.5.22 0 .5-.06.93-.23l.4 1.45c-.55.37-1.79.9-3.21.9-1.82 0-2.58-.76-2.92-2.12-.51.94-1.59 2.13-4 2.13-2.27 0-4.16-1-4.16-3.72 0-3.09 2.14-4 5.89-4h2.01m15.48 3.24v-1.76h-1.1c-1.79 0-2.3.7-2.3 2.18 0 1.33.46 1.93 1.56 1.93.96 0 1.84-.62 1.84-2.35zm0-3.24v-2.04c0-2.18-.5-3.46-2.52-3.46-.85 0-1.61.2-1.61.94 0 .11.03.25.05.4h1.08c.08.36.18.76.18 1.1 0 1.13-.72 1.96-2.19 1.96-1.53 0-2.21-1-2.21-2.24 0-2.24 2.04-3.78 5.69-3.78 3.77 0 5.93 1.28 5.93 5.36v5.85c0 1.02.06 1.5.66 1.5.22 0 .5-.06.93-.23l.4 1.45c-.55.37-1.79.9-3.21.9-1.82 0-2.58-.76-2.92-2.12-.51.94-1.59 2.13-3.99 2.13-2.28 0-4.17-1-4.17-3.72 0-3.09 2.14-4 5.89-4h2.01m7.63 2.81h1.76c.45 1.76 1.93 2.95 4.15 2.95 1.58 0 2.34-.51 2.34-1.56 0-1.28-1.28-1.5-2.86-1.79-2.38-.42-5.3-.9-5.3-4.68 0-2.95 2.27-4.85 5.27-4.85a5.3 5.3 0 0 1 2.67.68c.2.12.4.18.6.18.37 0 .42-.2.56-.69h1.5v4.4h-1.73c-.73-1.81-1.72-2.7-3.55-2.7-1.09 0-2.14.43-2.14 1.48 0 1.16 1.24 1.4 2.77 1.7 2.39.46 5.45 1.02 5.45 4.82 0 3.15-2.08 4.97-5.22 4.97-1.76 0-2.75-.51-3.48-.88-.2-.09-.38-.14-.55-.14-.3 0-.43.2-.59.85h-1.65v-4.74m32.87-15.26.25 5.14h-.79c-.74-3.46-1.73-4.12-4.74-4.12h-3.4v8.31h1.76c2.46 0 3.04-.9 3.49-3.46h.65v8.4h-.72c-.45-3.04-.93-3.77-3.76-3.77h-1.42v8.3l3.94.23v.82h-8.68v-.82l2.42-.2v-17.72l-2.42-.23v-.88h13.42m7.85 6.78c-3.17 0-3.85 3-3.85 5.93 0 2.95.7 6.15 3.93 6.15 3.12 0 3.87-2.97 3.87-5.95 0-2.87-.7-6.13-3.95-6.13zm.15-1.28c4.05 0 6.12 2.98 6.12 7.3 0 4.42-2.44 7.37-6.3 7.37-3.97 0-6.16-2.95-6.16-7.26 0-4.43 2.56-7.4 6.34-7.4m11.96 10.01c0 2 .6 3.03 2.89 3.03 2.21 0 4.1-1.39 4.1-4.03v-7.54l-2.09-.2v-.96l4.14-.12v13l1.88.2v.95h-3.58l-.2-2.35a5.82 5.82 0 0 1-4.88 2.67c-3.04 0-4.3-1.6-4.3-4.68v-8.51l-1.99-.2v-.96l4.03-.12v9.82m16.78-9.87.11 2.66a5.84 5.84 0 0 1 5-2.8c3.1 0 4.25 1.58 4.25 4.9v8.31l1.92.2v.93h-6.04v-.93l2.08-.2v-8.34c0-2.27-.57-3.34-2.92-3.34-2.21 0-4.17 1.5-4.17 3.8v7.88l2.1.2v.93h-6.02v-.93l1.85-.2v-11.77l-1.85-.2v-.9l3.7-.2m23.32 9.21v-4.4c0-2.63-1.83-3.62-3.65-3.62-3.04 0-4.05 2.38-4.05 5.95 0 2.73.59 5.82 3.7 5.82 2.09 0 4-1.56 4-3.75zm0-7.57v-7.43l-2.34-.23v-.9l4.41-.14v20.13l2.08.2v.93h-4.02l-.15-2.2a5 5 0 0 1-4.6 2.52c-3.68 0-5.41-2.87-5.41-7.06 0-4.85 2.41-7.6 5.98-7.6 1.56 0 2.95.48 4.06 1.78m14.14 8.45v-2.18h-1.89c-2.75 0-3.77 1.16-3.77 2.78 0 1.67.73 2.5 2.41 2.5 1.56 0 3.25-1 3.25-3.1zm0-3.31v-1.85c0-2.58-.61-3.97-2.94-3.97-.83 0-2.67.14-2.67 1.28 0 .11.03.22.05.37h.88c.1.34.18.7.18.99 0 .9-.66 1.33-1.39 1.33-.85 0-1.5-.5-1.5-1.62 0-1.98 1.93-3.46 4.77-3.46 3.37 0 4.7 1.5 4.7 5.37v6.57c0 1.3.23 1.65.96 1.65.34 0 .63-.06.94-.17l.2.9a3.7 3.7 0 0 1-1.64.35c-1.36 0-2.24-.51-2.42-2.02a5.02 5.02 0 0 1-4.17 2.02c-2.19 0-3.93-.97-3.93-3.58 0-3.09 2.62-4.16 6.06-4.16h1.92m6.72-5.43h-2.12v-1.18h2.12v-3.72l1.76-.57h.32v4.29h3.12v1.19h-3.12v9.53c0 1.64.46 2.26 1.59 2.26 1.04 0 1.59-.4 2.07-2l.96.27c-.54 2.25-1.67 3.1-3.4 3.1-2.22 0-3.3-1.11-3.3-3.18v-9.98m11.23-7.69c.8 0 1.45.34 1.45 1.48 0 .93-.53 1.42-1.41 1.42-1.03 0-1.45-.57-1.45-1.4 0-.87.45-1.5 1.41-1.5zm1.33 6.35v13.05l2.16.2v.93h-6.34v-.93l2.12-.2v-11.77l-2.16-.2v-.93l4.22-.15m10.42 1.11c-3.18 0-3.86 3-3.86 5.93 0 2.95.71 6.15 3.94 6.15 3.12 0 3.86-2.97 3.86-5.95 0-2.87-.69-6.13-3.94-6.13zm.14-1.28c4.06 0 6.12 2.98 6.12 7.3 0 4.42-2.44 7.37-6.29 7.37-3.97 0-6.16-2.95-6.16-7.26 0-4.43 2.56-7.4 6.33-7.4m12.3.14.12 2.66a5.81 5.81 0 0 1 4.98-2.8c3.1 0 4.26 1.58 4.26 4.9v8.31l1.93.2v.93h-6.04v-.93l2.07-.2v-8.34c0-2.27-.56-3.34-2.92-3.34-2.22 0-4.18 1.5-4.18 3.8v7.88l2.11.2v.93h-6.01v-.93l1.84-.2v-11.77l-1.84-.2v-.9l3.68-.2"/>
	<path fill="#d01c2f" d="m1327.73 895-23.44 40.6-47.44-.05-8.62 14.91 47.45.05-9.88 17.12h17.22l41.94-72.62h-17.23m34.77-.01-23.42 40.59-12.65-.04-8.62 14.91 12.66.04-9.9 17.13h17.23l41.93-72.62h-17.22m25.45-.01-41.93 72.63h17.22l41.94-72.62h-17.23m49.96-.01-30.32 52.52v-48.4l-14.52 24.92v11.53l-6.75-.02-8.62 14.91 15.37.05v17.12h20.13l41.94-72.62h-17.23m59.98 15.44h47.2l9.03-15.44h-62.89c-3 0-5.77 1.6-7.3 4.19l-17.02 29.15c-2.5 4.3.59 9.7 5.57 9.7h22.6l-7.62 12.66a4.04 4.04 0 0 1-3.46 1.95H1458v-53.38l-14.52 24.93v11.36l-6.7-.02-8.62 14.91 15.32.05v.03l.01 17.1h47.19c3 0 5.79-1.6 7.3-4.2l18-30.81a6.4 6.4 0 0 0-5.54-9.64h-21.84l6.37-10.87a3.4 3.4 0 0 1 2.92-1.67"/>
</svg>