<?xml version="1.0" encoding="UTF-8"?>
<svg xmlns="http://www.w3.org/2000/svg" viewBox="0 0 923.85696 444.20586">
	<g fill="#00d586">
		<path d="m896.65859,65.00222c-.07392-.74471-.39152-1.32241-.95005-1.7331s-1.31693-.61603-2.2752-.61603c-.65162,0-1.1992.09035-1.64822.27105s-.79126.43259-1.02672.75019c-.2382.32034-.35593.68174-.35593,1.08695-.01095.33676.06023.63246.21629.88434s.37509.46818.64888.64888c.27653.1807.59686.3395.95827.47092.36414.13142.75019.24367,1.16087.33676l1.69476.40521c.82411.18344,1.57977.42985,2.26699.7365s1.28408.68448,1.78785,1.13349c.50104.44628.89256.9747,1.17182,1.58251.27927.60782.42438,1.30598.42985,2.09176-.00548,1.1554-.29843,2.15473-.87887,2.99801-.58044.84328-1.4155,1.49764-2.50519,1.96308-1.09243.46271-2.40388.69543-3.93985.69543-1.52228,0-2.84742-.23546-3.9727-.7009-1.12802-.46818-2.00689-1.15813-2.6366-2.07807-.62698-.9172-.95827-2.05617-.98838-3.41143h3.85771c.04381.63246.22725,1.15813.55032,1.57977.32034.4189.75292.7365,1.29777.94732.54211.21356,1.15813.3176,1.84535.3176.67626,0,1.26491-.09856,1.76595-.29296.50104-.19713.88708-.47092,1.16361-.82137s.41616-.75019.41616-1.20468c0-.42438-.12594-.7803-.37509-1.07052-.24641-.28748-.61055-.53389-1.08695-.7365-.47366-.20261-1.05683-.38604-1.74405-.55306l-2.05343-.51473c-1.59072-.38604-2.84742-.99112-3.76736-1.81523-.92267-.82137-1.37991-1.93022-1.37443-3.32382-.00548-1.14445.30117-2.14104.9172-2.99527.61877-.85149,1.46752-1.51954,2.54625-1.99867,1.08147-.47913,2.31079-.71733,3.68522-.71733,1.39907,0,2.62292.2382,3.67153.71733,1.04588.47913,1.86178,1.14718,2.44495,1.99867.58317.85423.88434,1.84261.90351,2.96789h-3.82212Z" />
		<path d="m903.41027,59.57569h4.91728l5.19655,12.67377h.22177l5.19381-12.67377h4.91728v18.86418h-3.86593v-12.27951h-.1588l-4.88169,12.18643h-2.63387l-4.88169-12.23023h-.15606v12.32332h-3.86866v-18.86418Z" />
		<path d="m824.5414,355.21021c-8.542,5.33719-18.19385,8.00995-28.95137,8.00995-10.76168,0-20.45509-2.67275-29.07607-8.00995-8.62514-5.33719-16.55611-14.49439-23.78044-27.47574-7.23265-12.9772-12.85665-31.74467-16.88033-56.30656-4.02784-24.55774-6.03552-54.4984-6.03552-89.81782s2.00768-65.26008,6.03552-89.82198c4.02368-24.55359,9.64768-43.32521,16.88033-56.30656,7.22433-12.97304,15.1553-22.13439,23.78044-27.47158,8.62098-5.33927,18.31439-8.00995,29.07607-8.00995,10.75752,0,20.40936,2.67068,28.95137,8.00995,8.542,5.33719,16.42725,14.49855,23.6599,27.47158,7.22433,12.98135,12.84834,31.75298,16.87617,56.30656,4.02368,24.5619,6.03968,54.50256,6.03968,89.82198s-2.016,65.26008-6.03968,89.81782c-4.02784,24.5619-9.65184,43.32937-16.87617,56.30656-7.23265,12.98135-15.11789,22.13855-23.6599,27.47574Zm-36.34612-43.61618c1.88714,4.18995,4.35206,6.28492,7.39476,6.28492,3.03854,0,5.45774-2.09497,7.27006-6.28492,1.804-4.18995,3.5706-16.88033,5.29563-38.07115,1.72503-21.19082,2.58962-51.82981,2.58962-91.9128s-.86459-70.72198-2.58962-91.9128c-1.72503-21.19498-3.49162-33.88536-5.29563-38.07531-1.81232-4.18579-4.23151-6.28076-7.27006-6.28076-3.0427,0-5.50762,2.09497-7.39476,6.28076-1.88714,4.18995-3.65789,16.88033-5.29563,38.07531-1.64605,21.19082-2.46492,51.82981-2.46492,91.9128s.81887,70.72198,2.46492,91.9128c1.63774,21.19082,3.40849,33.88121,5.29563,38.07115Z" />
		<path d="m69.03424,261.87232V92.88488h28.36449c12.29821,0,22.21375,4.03827,29.74334,12.11153,7.53122,8.07572,11.29602,19.05732,11.29602,32.9448,0,33.89752-28.91343,37.77493-32.02204,41.50027-1.0502,1.25855-.94165,3.06748.11827,4.31785,2.67,3.14973,30.64938,4.3712,30.64938,29.97306v42.42147c0,3.09666.43887,5.58414,1.31661,7.46736.87938,1.88158,1.73583,3.07373,2.57264,3.57647l1.25602.62719v2.51041h-21.83874c-3.93346,0-6.83853-1.14958-8.72174-3.45202-1.88322-2.29916-2.82319-6.29485-2.82319-11.98544v-43.67421c0-8.53506-3.84995-12.80259-11.54656-12.80259v63.4513h-28.36449Zm28.36449-96.9471h1.25439c7.69662,0,11.54656-8.13713,11.54656-24.41138,0-16.27262-3.84995-24.41056-11.54656-24.41056h-1.25439v48.82194Z" />
		<path d="m227.31337,220.76894h35.37732l.299,20.41029c0,21.57077,3.37321,32.30311,10.12179,32.19053,2.98566,0,5.17023-1.51989,6.55372-4.56401,1.38133-3.03978,2.07415-8.87686,2.07415-17.50474s-1.88146-17.17348-5.64222-25.63681c-3.76076-8.46333-8.29662-16.3161-13.60541-23.56265-5.31096-7.24438-10.61976-14.73992-15.93072-22.48444-5.3088-7.74019-9.84682-16.70149-13.60541-26.87957-3.76292-10.17591-5.64222-20.90826-5.64222-32.19053,0-19.68931,4.31502-34.81678,12.9429-45.38241,8.62788-10.56238,19.58106-15.84628,32.85521-15.84628,13.16374,0,24.11475,5.03491,32.85521,15.09932,8.73613,10.06766,13.10744,23.72828,13.10744,40.9862v27.21191h-35.62146l-.0527-20.41029c0-21.56969-3.43166-32.35616-10.2885-32.35616-2.98782,0-5.14425,1.55129-6.47145,4.64628-1.3272,3.09824-1.99188,9.01759-1.99188,17.75589,0,10.39784,2.84709,20.98945,8.5456,31.77375,5.69635,10.78647,11.94696,20.21759,18.75183,28.29121,6.80271,8.07578,13.02517,18.44655,18.66739,31.11232,5.64005,12.66793,8.46116,25.80352,8.46116,39.40893,0,19.69148-4.31286,34.79297-12.9429,45.30014-8.62788,10.5115-19.63735,15.76401-33.01976,15.76401-13.1659,0-24.08877-5.03383-32.77294-15.09932-8.68417-10.06549-13.02517-23.67307-13.02517-40.82057v-27.21299Z" />
		<path d="m597.83013,317.50104V45.71912h42.83285c9.85583,0,18.50791,2.14986,25.96501,6.44411,7.45491,4.29754,14.30904,11.43671,20.56459,21.41642,6.25335,9.983,11.05519,24.0081,14.40333,42.0753,3.34594,18.06939,5.02329,40.0548,5.02329,65.95403,0,25.90362-1.67735,47.92192-5.02329,66.05051-3.34813,18.13297-8.14997,32.15917-14.40333,42.07639-6.25555,9.91942-13.10968,17.02789-20.56459,21.32104-7.4571,4.29754-16.10918,6.44411-25.96501,6.44411h-42.83285Zm42.83285-36.95881h1.89442c2.27594,0,4.13748-.50211,5.59118-1.5151,1.45151-1.0108,3.03239-3.37883,4.73825-7.10848,1.70586-3.72526,2.99951-9.0314,3.88532-15.91843.88363-6.88702,1.64008-16.61349,2.27594-29.18817.62928-12.57029.94721-27.63798.94721-45.20307,0-17.5607-.31793-32.62839-.94721-45.20088-.63586-12.57249-1.39231-22.26935-2.27594-29.09169-.88582-6.82344-2.17946-12.13067-3.88532-15.92062-1.70586-3.79104-3.28674-6.18977-4.73825-7.20166-1.45371-1.0108-3.31524-1.51729-5.59118-1.51729h-1.89442v197.86538Z" />
		<path d="m194.00024,103.02556h25.90626v-24.31737h-49.60631l-16.55481,16.55481v172.58946l16.65941,16.65951h49.50171v-22.61499h-25.90626c-6.19845,0-11.22326-5.02491-11.22326-11.22326v-55.85981h28.37456v-29.27839h-28.37456v-51.28671c0-6.19845,5.0248-11.22326,11.22326-11.22326Z" />
		<path d="m447.77355,107.98755h24.34736v-29.27937h-49.60631l-16.55481,16.55481v172.58946l16.65941,16.65951h49.50171v-28.93356h-24.34736c-6.19845,0-11.22326-5.02491-11.22326-11.22326v-49.54124h26.81566v-29.27839h-26.81566v-46.32471c0-6.19845,5.0248-11.22326,11.22326-11.22326Z" />
		<polygon points="540.88508 59.31833 549.34292 197.26161 544.46448 197.82138 521.89699 65.76039 497.23275 65.76039 482.23906 78.70819 482.23906 284.51197 495.01176 295.35271 521.89699 295.35271 514.40801 161.86118 516.87043 161.59423 540.87549 303.90183 580.37637 303.90183 580.37637 59.31833 540.88508 59.31833" />
		<path d="m369.55174,218.35599c0,8.69846-.28086,15.26267-.83817,19.69068-.55951,4.42981-1.19754,7.16367-1.91628,8.19949-.71874,1.03789-1.8151,1.55677-3.29129,1.55677-1.47785,0-2.67539-1.01771-3.59206-3.05286-.91667-2.03529-1.77696-8.19962-2.572-18.49314-.53021-6.82378-.87963-15.70995-1.05766-26.56699-.09067-5.52064-.13988-11.5169-.13988-18.07987,0-6.7667.05142-12.94237.14762-18.60068.18079-10.62331.528-19.33007,1.04992-26.04604.79504-10.29559,1.65532-16.46007,2.572-18.49466.91667-2.03501,2.11421-3.05286,3.59206-3.05286,1.47619,0,2.57255.5392,3.29129,1.61648.71874,1.07742,1.35677,3.81225,1.91628,8.1999.5573,4.38918.83817,10.9332.83817,19.62973l.14596,20.584h26.90424v-22.97866c0-16.19731-2.99274-28.42715-8.97711-36.68649-5.98493-8.25934-13.64563-12.38824-22.98156-12.38824-5.50668,0-10.43506,1.29706-14.78235,3.88979-4.35117,2.59356-8.31863,7.04341-11.91069,13.34652-3.59013,6.30463-6.3642,15.42272-8.31891,27.35-1.39519,8.50703-2.28146,18.36819-2.68119,29.5325-.16061,4.49298-.25045,9.17546-.25045,14.09872,0,4.72381.08127,9.22964.22945,13.55731.38923,11.39002,1.28434,21.42742,2.7022,30.07183,1.95471,11.93101,4.72878,21.04745,8.31891,27.35111,3.59206,6.30573,7.54128,10.75393,11.85015,13.34652,4.30887,2.59245,9.25549,3.89075,14.84289,3.89075,9.33593,0,16.99664-4.109,22.98156-12.32867,5.98437-8.21994,8.97711-20.42753,8.97711-36.62899v-26.33299h-27.09609l.04589,23.81904Z" />
		<path d="m35.93046,212.42067c0,7.29346-.2355,12.79739-.70278,16.51018-.46914,3.71429-1.00411,6.00657-1.60676,6.87508-.60265.87025-1.52192,1.30532-2.75967,1.30532-1.23914,0-2.24325-.85333-3.01186-2.55976-.76861-1.70654-1.48994-6.87519-2.15656-15.50607-.44457-5.72158-.73755-13.17242-.88682-22.2758-.07603-4.62893-.11728-9.65666-.11728-15.15955,0-5.67372.04311-10.85187.12378-15.59624.15159-8.9074.44272-16.20781.88033-21.83899.66662-8.63261,1.38795-13.80138,2.15656-15.50734.76861-1.70631,1.77272-2.55976,3.01186-2.55976,1.23775,0,2.15702.4521,2.75967,1.35538.60265.9034,1.13762,3.19648,1.60676,6.87543.46729,3.68022.70278,9.16723.70278,16.45907l.12238,14.64831h22.55858v-16.65618c0-13.58107-2.50934-23.8355-7.5271-30.76076-5.01822-6.92526-11.44154-10.38725-19.2695-10.38725-4.61723,0-8.74955,1.08755-12.39466,3.2615-3.64835,2.17464-6.97498,5.90574-9.98684,11.19075-3.01024,5.28628-5.33623,12.93159-6.97521,22.93234-1.16984,7.13294-1.91295,15.4013-2.24812,24.76231-.13467,3.76726-.21,7.69341-.21,11.82144,0,3.9608.06815,7.73884.19238,11.36749.32636,9.55026,1.07689,17.96639,2.26573,25.21453,1.63898,10.00387,3.96497,17.6478,6.97521,22.93327,3.01186,5.28721,6.32319,9.01692,9.93608,11.19075,3.61289,2.17371,7.76051,3.26231,12.44542,3.26231,7.82796,0,14.25128-3.4453,19.2695-10.3373,5.01776-6.89223,7.5271-17.12801,7.5271-30.71255v-19.9916h-22.71944l.03848,17.88372Z" fill="#00d586" />
	</g>
	<g fill="#fff">
		<path d="m241.33329,409.79718h-3.41248v6.67748h-3.46359v-17.73994h6.87607c3.66364,0,5.85539,2.51738,5.85539,5.53123,0,3.01531-2.19176,5.53123-5.85539,5.53123Zm-.17376-7.97268h-3.23872v4.85808h3.23872c1.56971,0,2.56557-.97103,2.56557-2.41663,0-1.44414-.99585-2.44145-2.56557-2.44145Z" />
		<path d="m260.77729,416.47467l-3.46359-7.07612h-2.4911v7.07612h-3.46359v-17.73994h6.952c3.61253,0,5.75464,2.46773,5.75464,5.43194,0,2.4911-1.52007,4.03599-3.23872,4.65949l3.96152,7.64852h-4.01116Zm-2.69114-14.65016h-3.26354v4.68431h3.26354c1.52007,0,2.51592-.97103,2.51592-2.34216,0-1.36967-.99585-2.34216-2.51592-2.34216Z" />
		<path d="m268.90767,416.47467v-17.73994h11.6845v3.08978h-8.22091v4.16156h7.00019v3.08832h-7.00019v4.3105h8.22091v3.08978h-11.6845Z" />
		<path d="m290.11996,416.62361c-2.68968,0-4.7325-.5724-6.47744-2.3407l2.24286-2.24286c1.12143,1.12143,2.64004,1.49524,4.28568,1.49524,2.04282,0,3.13796-.77244,3.13796-2.19322,0-.62204-.17376-1.14626-.54757-1.49524-.34899-.3227-.74762-.49793-1.56971-.62204l-2.14211-.29934c-1.52007-.22341-2.6415-.69797-3.43877-1.47042-.84691-.84691-1.27037-1.99317-1.27037-3.48695,0-3.16425,2.34216-5.38229,6.1781-5.38229,2.44291,0,4.21121.59868,5.73128,2.06764l-2.19322,2.16839c-1.11997-1.07179-2.46627-1.22073-3.63735-1.22073-1.84277,0-2.74079,1.02068-2.74079,2.2414,0,.44828.1504.92284.52421,1.27037.34753.32416.92138.59868,1.64418.69797l2.09246.29934c1.61936.22487,2.6415.67315,3.38912,1.36967.94621.89802,1.36967,2.19322,1.36967,3.76293,0,3.43731-2.86491,5.38083-6.57819,5.38083Z" />
		<path d="m301.21746,416.47467v-17.73994h11.68596v3.08978h-8.22237v4.16156h7.00019v3.08832h-7.00019v4.3105h8.22237v3.08978h-11.68596Z" />
		<path d="m328.03399,416.47467l-7.02501-10.88723v10.88723h-3.46359v-17.73994h3.08978l7.02647,10.86387v-10.86387h3.46213v17.73994h-3.08978Z" />
		<path d="m343.29305,401.8245v14.65016h-3.46359v-14.65016h-4.63321v-3.08978h12.73146v3.08978h-4.63467Z" />
		<path d="m351.99583,416.47467v-17.73994h11.6845v3.08978h-8.22091v4.16156h7.00019v3.08832h-7.00019v4.3105h8.22091v3.08978h-11.6845Z" />
		<path d="m379.4125,414.78084c-1.17108,1.17108-2.84008,1.69383-4.68431,1.69383h-6.40297v-17.73994h6.40297c1.84423,0,3.51324.52421,4.68431,1.69529,1.99317,1.99317,1.79312,4.43462,1.79312,7.10094,0,2.66486.20005,5.25671-1.79312,7.24988Zm-2.41663-11.85972c-.59868-.7228-1.39595-1.09661-2.59185-1.09661h-2.61521v11.56038h2.61521c1.1959,0,1.99317-.37381,2.59185-1.09661.64833-.79727.74762-2.06764.74762-4.75732,0-2.69114-.09929-3.81258-.74762-4.60984Z" />
		<path d="m400.45541,416.47467h-7.4251v-17.73994h7.12576c3.46359,0,5.48158,1.94352,5.48158,4.98365,0,1.96835-1.2952,3.23872-2.19322,3.66218,1.07179.49793,2.44145,1.61936,2.44145,3.98634,0,3.31319-2.26623,5.10777-5.43047,5.10777Zm-.57386-14.65016h-3.38766v4.08563h3.38766c1.47042,0,2.29251-.82209,2.29251-2.04282s-.82209-2.04282-2.29251-2.04282Zm.22487,7.20023h-3.61253v4.36015h3.61253c1.56971,0,2.31733-.99585,2.31733-2.19176s-.74762-2.16839-2.31733-2.16839Z" />
		<path d="m417.45649,409.19996v7.2747h-3.43731v-7.2747l-5.33264-10.46524h3.76293l3.31319,7.15059,3.26354-7.15059h3.76293l-5.33264,10.46524Z" />
		<path d="m458.36799,437.93981c0,2.75216.64049,4.82914,2.82157,4.82914.90011,0,1.67897-.50211,2.05984-1.17644v-1.86962l-1.48876-.13881v-1.31525h5.31454v1.31525l-1.09076.12081v4.34503h-1.36751c-.12081-.32817-.25962-.65719-.62292-.65719-.57151,0-1.38508.81314-3.22.81314-3.34081,0-5.48762-1.85248-5.48762-6.17952,0-4.18908,2.57951-6.31832,5.86848-6.31832,1.59286,0,2.25049.65719,2.78687.65719.25962,0,.36416-.19022.48497-.50211h1.19443l.12081,4.01686h-1.29811c-.51924-2.0427-1.38465-2.82243-3.04649-2.82243-2.09454,0-3.02935,1.78308-3.02935,4.88226Z" />
		<path d="m472.17937,435.15251c2.21578,0,3.73924,1.19443,3.73924,3.82578,0,.22535-.01714.69233-.03513.93481h-5.1933c.01799,1.61.38129,2.85584,1.93902,2.85584,1.07362,0,1.57573-.62292,1.99129-1.55773l1.22871.4327c-.51924,1.62714-1.80022,2.56195-3.6527,2.56195-2.80443,0-4.31075-1.76509-4.31075-4.3793,0-2.97751,1.83535-4.67405,4.29362-4.67405Zm1.02135,3.61757v-.31103c0-1.57573-.22535-2.26805-1.12503-2.26805-1.02135,0-1.33324,1.14302-1.36751,2.57908h2.49254Z" />
		<path d="m480.3656,435.27332l.12167,1.64513h.10368c.4327-.8834,1.1773-1.76594,2.92482-1.76594,1.71368,0,2.68362.796,2.68362,2.82157v4.70833l1.0899.12167v1.21157h-4.58623v-1.21157l.81271-.12167v-4.36216c0-.93481-.12081-1.55773-1.07319-1.55773-.93481,0-1.66141.55352-1.66141,1.95616v3.96373l.88254.12167v1.21157h-4.63892v-1.21157l1.07276-.12167v-5.97216l-1.07276-.12081v-1.19443l3.34081-.12167Z" />
		<path d="m492.39432,435.15251c2.21578,0,3.73924,1.19443,3.73924,3.82578,0,.22535-.01714.69233-.03513.93481h-5.1933c.01799,1.61.38129,2.85584,1.93902,2.85584,1.07362,0,1.57573-.62292,1.99044-1.55773l1.22956.4327c-.51924,1.62714-1.80022,2.56195-3.6527,2.56195-2.80443,0-4.31075-1.76509-4.31075-4.3793,0-2.97751,1.83535-4.67405,4.29362-4.67405Zm1.02135,3.61757v-.31103c0-1.57573-.22535-2.26805-1.12503-2.26805-1.02135,0-1.33324,1.14302-1.36751,2.57908h2.49254Z" />
		<path d="m504.38834,437.12581h4.22421v-3.77352l-1.12503-.12167v-1.33238h5.12389v1.31525l-1.14302.12167v9.22643l1.14302.13881v1.31525h-5.12389v-1.31525l1.12503-.13881v-3.92946h-4.22421v3.92946l1.14302.13881v1.31525h-5.14189v-1.31525l1.14302-.13881v-9.2093l-1.14302-.12167v-1.33238h5.14189v1.31525l-1.14302.12167v3.79065Z" />
		<path d="m518.56387,439.49754v-1.2467c0-1.33238-.31189-2.11125-1.5406-2.11125-.5201,0-.98708.12081-.98708.57065,0,.0694.01714.15594.03427.24249h.65805c.05227.22535.10368.46783.10368.67519,0,.69233-.4327,1.19443-1.33238,1.19443-.93481,0-1.35038-.60578-1.35038-1.36751,0-1.36751,1.24584-2.30232,3.47962-2.30232,2.30232,0,3.61757.77887,3.61757,3.27141v3.56616c0,.62378.03427.91767.39843.91767.13795,0,.31103-.03427.57065-.13881l.24249.8834c-.32903.22449-1.09076.55352-1.95616.55352-1.10789,0-1.57487-.46698-1.78308-1.29811-.31103.57151-.96908,1.29811-2.44028,1.29811-1.38465,0-2.54481-.60578-2.54481-2.26719,0-1.88761,1.31525-2.44113,3.60043-2.44113h1.22956Zm0,1.9733v-1.07276h-.67519c-1.09076,0-1.40264.4327-1.40264,1.33238,0,.814.27676,1.1773.95195,1.1773.58865,0,1.12589-.38044,1.12589-1.43692Z" />
		<path d="m528.01394,439.49754v-1.2467c0-1.33238-.31189-2.11125-1.54145-2.11125-.51924,0-.98622.12081-.98622.57065,0,.0694.01714.15594.03427.24249h.65805c.05227.22535.10368.46783.10368.67519,0,.69233-.4327,1.19443-1.33238,1.19443-.93481,0-1.35038-.60578-1.35038-1.36751,0-1.36751,1.24584-2.30232,3.47962-2.30232,2.30232,0,3.61757.77887,3.61757,3.27141v3.56616c0,.62378.03427.91767.39843.91767.13795,0,.31103-.03427.57065-.13881l.24249.8834c-.32903.22449-1.09076.55352-1.95616.55352-1.10789,0-1.57487-.46698-1.78308-1.29811-.31103.57151-.96908,1.29811-2.44028,1.29811-1.38465,0-2.54481-.60578-2.54481-2.26719,0-1.88761,1.31525-2.44113,3.60043-2.44113h1.22956Zm0,1.9733v-1.07276h-.67519c-1.09076,0-1.40264.4327-1.40264,1.33238,0,.814.27676,1.1773.95195,1.1773.58865,0,1.12589-.38044,1.12589-1.43692Z" />
		<path d="m532.66829,441.21121h1.07362c.27676,1.07362,1.1773,1.80022,2.52767,1.80022.96908,0,1.43606-.31103,1.43606-.95195,0-.77887-.77887-.91767-1.74795-1.09076-1.45405-.25962-3.23713-.55352-3.23713-2.85584,0-1.80022,1.38465-2.96038,3.22-2.96038.77887,0,1.26384.22535,1.62714.41557.12081.0694.24249.10368.3633.10368.22535,0,.25962-.12081.34616-.41557h.91767v2.68362h-1.05562c-.4507-1.10789-1.05648-1.64513-2.16437-1.64513-.67519,0-1.31525.25962-1.31525.90054,0,.70946.76173.84827,1.69654,1.03849,1.45405.27676,3.32368.62292,3.32368,2.94324,0,1.92103-1.26384,3.02892-3.18572,3.02892-1.07276,0-1.6794-.31103-2.12924-.53638-.12081-.05227-.22449-.08654-.32903-.08654-.19022,0-.25962.12081-.3633.51924h-1.00421v-2.89097Z" />
		<path d="m552.72858,431.89824l.15594,3.13346h-.48497c-.44984-2.11211-1.05562-2.51054-2.89097-2.51054h-2.07698v5.07248h1.07276c1.50632,0,1.85248-.55437,2.12924-2.11211h.39843v5.12389h-.4327c-.27676-1.85248-.57151-2.30232-2.30232-2.30232h-.86541v5.07163l2.406.13881v.50211h-5.29697v-.50211l1.47119-.12081v-10.8193l-1.47119-.13881v-.53638h8.18795Z" />
		<path d="m557.60828,435.25619c2.47541,0,3.73924,1.81821,3.73924,4.4487,0,2.70075-1.48918,4.50097-3.84378,4.50097-2.42314,0-3.75638-1.80022-3.75638-4.43157,0-2.6999,1.55859-4.51811,3.86091-4.51811Zm-.08654.77887c-1.93902,0-2.35459,1.83535-2.35459,3.61843,0,1.80022.4327,3.75638,2.406,3.75638,1.90475,0,2.35459-1.81735,2.35459-3.63556,0-1.74795-.41557-3.73924-2.406-3.73924Z" />
		<path d="m564.91196,441.36716c0,1.22871.3633,1.85248,1.76509,1.85248,1.35038,0,2.51054-.84827,2.51054-2.45827v-4.60465l-1.28097-.12167v-.58865l2.52682-.06855v7.92832l1.14302.12081v.58865h-2.18151l-.12081-1.43692c-.55437.83113-1.55859,1.62714-2.97751,1.62714-1.85248,0-2.63135-.96908-2.63135-2.85584v-5.1933l-1.21157-.12167v-.58865l2.45827-.06855v5.9893Z" />
		<path d="m575.15804,435.34273l.0694,1.62714c.51924-.83028,1.52346-1.71368,3.04606-1.71368,1.88761,0,2.59708.96994,2.59708,2.99465v5.07248l1.1773.12081v.57151h-3.68697v-.57151l1.26298-.12081v-5.08962c0-1.38465-.34616-2.0427-1.78308-2.0427-1.34952,0-2.54395.91767-2.54395,2.31946v4.81286l1.28097.12081v.57151h-3.66984v-.57151l1.12503-.12081v-7.18373l-1.12503-.12167v-.55352l2.25006-.12167Z" />
		<path d="m589.40297,436.34694v-4.53524l-1.43606-.13881v-.55352l2.6999-.08654v12.29049l1.26384.12081v.57151h-2.45827l-.08654-1.35038c-.44984.76173-1.28097,1.5406-2.80443,1.5406-2.25006,0-3.30568-1.74795-3.30568-4.3099,0-2.96038,1.47119-4.63978,3.65184-4.63978.9528,0,1.80107.29475,2.47541,1.09076Zm0,4.62179v-2.68276c0-1.61-1.12503-2.21578-2.23292-2.21578-1.85163,0-2.47541,1.45405-2.47541,3.63471,0,1.66227.3633,3.54902,2.26805,3.54902,1.26384,0,2.44028-.95195,2.44028-2.28519Z" />
		<path d="m598.0399,439.4804v-1.12503c0-1.57573-.38129-2.424-1.80022-2.424-.50211,0-1.62714.08654-1.62714.77887,0,.0694.01714.13881.03427.22535h.53638c.05227.20735.10453.4327.10453.60578,0,.55437-.39843.814-.84827.814-.5201,0-.91767-.31189-.91767-.98708,0-1.21157,1.1773-2.11211,2.90811-2.11211,2.05984,0,2.87384.91767,2.87384,3.27227v4.016c0,.796.13795,1.00421.58865,1.00421.20735,0,.38044-.03513.57065-.10453l.12167.55437c-.29475.13795-.60578.20735-1.00421.20735-.83113,0-1.36751-.31103-1.47119-1.22871-.62378.88254-1.62714,1.22871-2.54481,1.22871-1.33324,0-2.406-.58865-2.406-2.18065,0-1.88761,1.60914-2.54481,3.70411-2.54481h1.1773Zm0,2.02557v-1.33324h-1.16016c-1.67855,0-2.30232.70946-2.30232,1.69654,0,1.02135.44984,1.52346,1.47119,1.52346.9528,0,1.99129-.60578,1.99129-1.88676Z" />
		<path d="m602.14158,436.17386h-1.29811v-.72746h1.29811v-2.26719l1.07362-.34616h.19022v2.61336h1.90389v.72746h-1.90389v5.81622c0,1.00421.27676,1.38465.96908,1.38465.64091,0,.96994-.24163,1.26384-1.22871l.58865.17308c-.32903,1.36751-1.02135,1.88676-2.07698,1.88676-1.35038,0-2.00843-.67519-2.00843-1.93902v-6.09298Z" />
		<path d="m609.80943,435.35987v7.96345l1.31525.12081v.57151h-3.87719v-.57151l1.29811-.12081v-7.18373l-1.3161-.12167v-.57151l2.57994-.08654Zm-.814-3.87719c.48497,0,.88254.20735.88254.90054,0,.57065-.32817.86541-.86541.86541-.62292,0-.88254-.34616-.88254-.84827,0-.53724.27676-.91767.86541-.91767Z" />
		<path d="m616.24771,435.25619c2.47541,0,3.73924,1.81821,3.73924,4.4487,0,2.70075-1.48918,4.50097-3.84378,4.50097-2.42314,0-3.75638-1.80022-3.75638-4.43157,0-2.6999,1.55859-4.51811,3.86091-4.51811Zm-.08654.77887c-1.93902,0-2.35459,1.83535-2.35459,3.61843,0,1.80022.4327,3.75638,2.406,3.75638,1.90475,0,2.35459-1.81735,2.35459-3.63556,0-1.74795-.41557-3.73924-2.406-3.73924Z" />
		<path d="m623.75875,435.34273l.0694,1.62714c.51924-.83028,1.52346-1.71368,3.04692-1.71368,1.88676,0,2.59622.96994,2.59622,2.99465v5.07248l1.1773.12081v.57151h-3.68697v-.57151l1.26298-.12081v-5.08962c0-1.38465-.34616-2.0427-1.78308-2.0427-1.34952,0-2.54395.91767-2.54395,2.31946v4.81286l1.28097.12081v.57151h-3.66984v-.57151l1.12503-.12081v-7.18373l-1.12503-.12167v-.55352l2.25006-.12167Z" />
		<polygon points="498.46568 376.23175 484.15976 401.01032 455.1991 400.97956 449.9356 410.08109 478.90498 410.11187 472.87098 420.56307 483.38488 420.56307 508.97958 376.23175 498.46568 376.23175" />
		<polygon points="519.69454 376.23175 505.3939 401.00118 497.67183 400.97956 492.40833 410.08109 500.13913 410.10273 494.09984 420.56307 504.61375 420.56307 530.20845 376.23175 519.69454 376.23175" />
		<polygon points="535.22968 376.23175 509.63498 420.56307 520.14888 420.56307 545.74358 376.23175 535.22968 376.23175" />
		<polygon points="565.72683 376.23175 547.21898 408.28827 547.21898 378.7395 538.35361 393.95464 538.35413 400.99194 534.23859 400.97956 528.9751 410.08109 538.35479 410.10931 538.35555 420.56307 550.64603 420.56307 576.24073 376.23175 565.72683 376.23175" />
		<path d="m602.33263,385.65759h28.81525l5.51204-9.42584h-38.38499c-1.8335,0-3.52915.97339-4.45375,2.55668l-10.3931,17.79704c-1.53243,2.62415.3603,5.92133,3.39914,5.92133h13.79838l-4.65584,7.72499c-.44605.74013-1.24715,1.19266-2.11131,1.19266h-15.8757v-32.58506l-8.86537,15.21514.00193,6.84826.00006.08912-4.08733-.01234-5.2635,9.10153,9.35343.02826v.01899l.00303,10.4347h6.76571v.00004h22.04064c1.83356,0,3.5293-.97351,4.45386-2.55694l10.98302-18.8097c1.52233-2.60718-.35817-5.88284-3.37723-5.88284h-13.33192l3.89611-6.63825c.37002-.63048,1.04639-1.01775,1.77742-1.01775Z" />
	</g>
</svg>