
<svg xmlns="http://www.w3.org/2000/svg" version="1.1" xmlns:xlink="http://www.w3.org/1999/xlink" preserveAspectRatio="none" x="0px" y="0px" width="550px" height="200px" viewBox="0 0 550 200">
<defs>
<g id="Layer0_0_FILL">
<path fill="#828282" stroke="none" d="
M 552.3 141.55
L 537.95 147.55 522.45 143.35 504.05 154.8 520.65 155.9 535.85 162.45 539.45 161.85 531.4 170.85 544.2 195.05 552.3 174.75 557.35 179.05 567.85 167.4 558.95 142.55 552.3 141.55
M 423.9 169.65
L 406.6 179.2 425.4 175.9 439.45 163.95 441.55 156.5 423.9 169.65 Z"/>

<path fill="#686868" stroke="none" d="
M 553.85 128.35
L 542.55 121.2 524.85 116.55 511.2 121.6 498.55 121.6 489.6 128.3 466.1 130.55 451.45 128.35 439.6 132.8 430.55 141.15 421.35 143.95 412.6 141.15 392.65 154.4 383.15 166.75 370.75 171.65 355.7 174.9 343.5 167.75 332.95 172.65 322.55 181.25 296.45 187.95 275.2 199.5 579.5 200 567.85 167.4 557.35 179.05 552.3 174.75 544.2 195.05 531.4 170.85 539.45 161.85 535.85 162.45 520.65 155.9 504.05 154.8 522.45 143.35 537.95 147.55 552.3 141.55 558.95 142.55 553.85 128.35
M 521.45 140.05
L 514.35 133.1 512.6 131.4 514.35 133.1 520.4 131.85 516.8 130.8 520.4 131.85 535.65 136.2 520.4 131.85 514.35 133.1 521.45 140.05
M 510.8 169.65
L 517.95 172.3 522.75 177.4 517.65 175.9 527.2 183.65 515.55 179.8 504.5 170.8 483.6 162.45 475.85 152.3 475.85 158.7 475.85 152.3 474.35 148.75 481.25 152 491.4 159.2 489.9 155.9 501.55 165.15 500.65 162.45 510.8 169.65
M 499.35 186.5
L 508.8 191.85 499.35 186.5 482.05 186.5 473.75 182.1 479.2 189.95 473.75 182.1 465.35 177.65 473.75 182.1 482.05 186.5 499.35 186.5
M 345.4 181.25
L 333.15 195.3 316.15 196.2 319.7 190.8 329.55 186.05 337.35 180.65 336.45 183.35 345.4 181.25
M 395.35 174.75
L 384.55 182.65 381.7 188.2 384.55 182.65 395.35 174.75
M 406.6 179.2
L 423.9 169.65 441.55 156.5 439.45 163.95 425.4 175.9 406.6 179.2
M 444.45 148.95
L 440 152.2 444.45 148.95
M 474.95 168.45
L 480.95 174.4 491.1 181.25 469.9 171.4 464.2 163.95 474.95 168.45 Z"/>

<path fill="#383838" stroke="none" d="
M 480.95 174.4
L 474.95 168.45 464.2 163.95 469.9 171.4 491.1 181.25 480.95 174.4
M 333.15 195.3
L 345.4 181.25 336.45 183.35 337.35 180.65 329.55 186.05 319.7 190.8 316.15 196.2 333.15 195.3
M 517.95 172.3
L 510.8 169.65 500.65 162.45 501.55 165.15 489.9 155.9 491.4 159.2 481.25 152 474.35 148.75 475.85 152.3 483.6 162.45 504.5 170.8 515.55 179.8 527.2 183.65 517.65 175.9 522.75 177.4 517.95 172.3 Z"/>
</g>

<path id="Layer0_0_1_STROKES" stroke="#4F4F4F" stroke-width="1" stroke-linejoin="miter" stroke-linecap="square" stroke-miterlimit="3" fill="none" d="
M 567.85 167.4
L 579.5 200 275.2 199.5 296.45 187.95 322.55 181.25 332.95 172.65 343.5 167.75 355.7 174.9 370.75 171.65 383.15 166.75 392.65 154.4 412.6 141.15 421.35 143.95 430.55 141.15 439.6 132.8 451.45 128.35 466.1 130.55 489.6 128.3 498.55 121.6 511.2 121.6 524.85 116.55 542.55 121.2 553.85 128.35 558.95 142.55 567.85 167.4 557.35 179.05 552.3 174.75 544.2 195.05 531.4 170.85 539.45 161.85 535.85 162.45 520.65 155.9 504.05 154.8 522.45 143.35 537.95 147.55 552.3 141.55 558.95 142.55
M 521.45 140.05
L 514.35 133.1 512.6 131.4
M 516.8 130.8
L 520.4 131.85 535.65 136.2
M 520.4 131.85
L 514.35 133.1
M 475.85 152.3
L 483.6 162.45 504.5 170.8 515.55 179.8 527.2 183.65 517.65 175.9 522.75 177.4 517.95 172.3 510.8 169.65 500.65 162.45 501.55 165.15 489.9 155.9 491.4 159.2 481.25 152 474.35 148.75 475.85 152.3 475.85 158.7
M 465.35 177.65
L 473.75 182.1 482.05 186.5 499.35 186.5 508.8 191.85
M 345.4 181.25
L 333.15 195.3 316.15 196.2 319.7 190.8 329.55 186.05 337.35 180.65 336.45 183.35 345.4 181.25 Z
M 395.35 174.75
L 384.55 182.65 381.7 188.2
M 406.6 179.2
L 423.9 169.65 441.55 156.5 439.45 163.95 425.4 175.9 406.6 179.2 Z
M 444.45 148.95
L 440 152.2
M 473.75 182.1
L 479.2 189.95
M 474.95 168.45
L 464.2 163.95 469.9 171.4 491.1 181.25 480.95 174.4 474.95 168.45 Z"/>
</defs>

<g transform="matrix( 1, 0, 0, 1, 0,0) ">
<use xlink:href="#Layer0_0_FILL"/>

<use xlink:href="#Layer0_0_1_STROKES"/>
</g>
</svg>
